<?xml version="1.0" encoding="UTF-8"?>
<svg width="926px" height="686px" viewBox="0 0 926 686" version="1.1" xmlns="http://www.w3.org/2000/svg" xmlns:xlink="http://www.w3.org/1999/xlink">
    <title>export/img/background/2-teaser-v1</title>
    <g id="export/img/background/2-teaser-v1" stroke="none" stroke-width="1" fill="none" fill-rule="evenodd">
        <g id="Group-21" transform="translate(496.640792, 383.767383) scale(-1, 1) translate(-496.640792, -383.767383) translate(-48.000000, -53.000000)">
            <path d="M371.726767,655.553698 C619.430587,861.379468 752.082915,537.918743 946.41697,443.574905 C1140.75103,349.231068 902.551487,43.5685365 683.939785,189.585355 C536.121701,288.317153 208.393458,233.081463 87.5505024,283.466721 C29.6759186,307.597427 124.022948,449.727927 371.726767,655.553698 Z" id="Path-12-Copy-2" fill="#F6F8FA" transform="translate(544.640792, 436.767383) scale(1, -1) rotate(159.000000) translate(-544.640792, -436.767383) "></path>
            <g id="Group-28" transform="translate(424.219976, 331.271977)" fill="#D6DDE1">
                <circle id="Oval" transform="translate(580.888559, 4.424692) scale(-1, 1) translate(-580.888559, -4.424692) " cx="580.888559" cy="4.42469233" r="4.42469233"></circle>
                <circle id="Oval" transform="translate(536.545185, 4.424692) scale(-1, 1) translate(-536.545185, -4.424692) " cx="536.545185" cy="4.42469233" r="4.42469233"></circle>
                <circle id="Oval" transform="translate(492.201810, 4.424692) scale(-1, 1) translate(-492.201810, -4.424692) " cx="492.20181" cy="4.42469233" r="4.42469233"></circle>
                <circle id="Oval" transform="translate(447.858436, 4.424692) scale(-1, 1) translate(-447.858436, -4.424692) " cx="447.858436" cy="4.42469233" r="4.42469233"></circle>
                <circle id="Oval" transform="translate(403.515062, 4.424692) scale(-1, 1) translate(-403.515062, -4.424692) " cx="403.515062" cy="4.42469233" r="4.42469233"></circle>
                <circle id="Oval" transform="translate(359.171687, 4.424692) scale(-1, 1) translate(-359.171687, -4.424692) " cx="359.171687" cy="4.42469233" r="4.42469233"></circle>
                <circle id="Oval" transform="translate(314.828313, 4.424692) scale(-1, 1) translate(-314.828313, -4.424692) " cx="314.828313" cy="4.42469233" r="4.42469233"></circle>
                <circle id="Oval" transform="translate(270.484938, 4.424692) scale(-1, 1) translate(-270.484938, -4.424692) " cx="270.484938" cy="4.42469233" r="4.42469233"></circle>
                <circle id="Oval" transform="translate(580.888559, 48.768067) scale(-1, 1) translate(-580.888559, -48.768067) " cx="580.888559" cy="48.7680667" r="4.42469233"></circle>
                <circle id="Oval" transform="translate(536.545185, 48.768067) scale(-1, 1) translate(-536.545185, -48.768067) " cx="536.545185" cy="48.7680667" r="4.42469233"></circle>
                <circle id="Oval" transform="translate(492.201810, 48.768067) scale(-1, 1) translate(-492.201810, -48.768067) " cx="492.20181" cy="48.7680667" r="4.42469233"></circle>
                <circle id="Oval" transform="translate(447.858436, 48.768067) scale(-1, 1) translate(-447.858436, -48.768067) " cx="447.858436" cy="48.7680667" r="4.42469233"></circle>
                <circle id="Oval" transform="translate(403.515062, 48.768067) scale(-1, 1) translate(-403.515062, -48.768067) " cx="403.515062" cy="48.7680667" r="4.42469233"></circle>
                <circle id="Oval" transform="translate(359.171687, 48.768067) scale(-1, 1) translate(-359.171687, -48.768067) " cx="359.171687" cy="48.7680667" r="4.42469233"></circle>
                <circle id="Oval" transform="translate(314.828313, 48.768067) scale(-1, 1) translate(-314.828313, -48.768067) " cx="314.828313" cy="48.7680667" r="4.42469233"></circle>
                <circle id="Oval" transform="translate(270.484938, 48.768067) scale(-1, 1) translate(-270.484938, -48.768067) " cx="270.484938" cy="48.7680667" r="4.42469233"></circle>
                <circle id="Oval" transform="translate(580.888559, 93.111441) scale(-1, 1) translate(-580.888559, -93.111441) " cx="580.888559" cy="93.111441" r="4.42469233"></circle>
                <circle id="Oval" transform="translate(536.545185, 93.111441) scale(-1, 1) translate(-536.545185, -93.111441) " cx="536.545185" cy="93.111441" r="4.42469233"></circle>
                <circle id="Oval" transform="translate(492.201810, 93.111441) scale(-1, 1) translate(-492.201810, -93.111441) " cx="492.20181" cy="93.111441" r="4.42469233"></circle>
                <circle id="Oval" transform="translate(447.858436, 93.111441) scale(-1, 1) translate(-447.858436, -93.111441) " cx="447.858436" cy="93.111441" r="4.42469233"></circle>
                <circle id="Oval" transform="translate(403.515062, 93.111441) scale(-1, 1) translate(-403.515062, -93.111441) " cx="403.515062" cy="93.111441" r="4.42469233"></circle>
                <circle id="Oval" transform="translate(359.171687, 93.111441) scale(-1, 1) translate(-359.171687, -93.111441) " cx="359.171687" cy="93.111441" r="4.42469233"></circle>
                <circle id="Oval" transform="translate(314.828313, 93.111441) scale(-1, 1) translate(-314.828313, -93.111441) " cx="314.828313" cy="93.111441" r="4.42469233"></circle>
                <circle id="Oval" transform="translate(270.484938, 93.111441) scale(-1, 1) translate(-270.484938, -93.111441) " cx="270.484938" cy="93.111441" r="4.42469233"></circle>
                <circle id="Oval" transform="translate(580.888559, 137.454815) scale(-1, 1) translate(-580.888559, -137.454815) " cx="580.888559" cy="137.454815" r="4.42469233"></circle>
                <circle id="Oval" transform="translate(536.545185, 137.454815) scale(-1, 1) translate(-536.545185, -137.454815) " cx="536.545185" cy="137.454815" r="4.42469233"></circle>
                <circle id="Oval" transform="translate(492.201810, 137.454815) scale(-1, 1) translate(-492.201810, -137.454815) " cx="492.20181" cy="137.454815" r="4.42469233"></circle>
                <circle id="Oval" transform="translate(447.858436, 137.454815) scale(-1, 1) translate(-447.858436, -137.454815) " cx="447.858436" cy="137.454815" r="4.42469233"></circle>
                <circle id="Oval" transform="translate(403.515062, 137.454815) scale(-1, 1) translate(-403.515062, -137.454815) " cx="403.515062" cy="137.454815" r="4.42469233"></circle>
                <circle id="Oval" transform="translate(359.171687, 137.454815) scale(-1, 1) translate(-359.171687, -137.454815) " cx="359.171687" cy="137.454815" r="4.42469233"></circle>
                <circle id="Oval" transform="translate(314.828313, 137.454815) scale(-1, 1) translate(-314.828313, -137.454815) " cx="314.828313" cy="137.454815" r="4.42469233"></circle>
                <circle id="Oval" transform="translate(270.484938, 137.454815) scale(-1, 1) translate(-270.484938, -137.454815) " cx="270.484938" cy="137.454815" r="4.42469233"></circle>
                <circle id="Oval" transform="translate(580.888559, 181.798190) scale(-1, 1) translate(-580.888559, -181.798190) " cx="580.888559" cy="181.79819" r="4.42469233"></circle>
                <circle id="Oval" transform="translate(536.545185, 181.798190) scale(-1, 1) translate(-536.545185, -181.798190) " cx="536.545185" cy="181.79819" r="4.42469233"></circle>
                <circle id="Oval" transform="translate(492.201810, 181.798190) scale(-1, 1) translate(-492.201810, -181.798190) " cx="492.20181" cy="181.79819" r="4.42469233"></circle>
                <circle id="Oval" transform="translate(447.858436, 181.798190) scale(-1, 1) translate(-447.858436, -181.798190) " cx="447.858436" cy="181.79819" r="4.42469233"></circle>
                <circle id="Oval" transform="translate(403.515062, 181.798190) scale(-1, 1) translate(-403.515062, -181.798190) " cx="403.515062" cy="181.79819" r="4.42469233"></circle>
                <circle id="Oval" transform="translate(359.171687, 181.798190) scale(-1, 1) translate(-359.171687, -181.798190) " cx="359.171687" cy="181.79819" r="4.42469233"></circle>
                <circle id="Oval" transform="translate(314.828313, 181.798190) scale(-1, 1) translate(-314.828313, -181.798190) " cx="314.828313" cy="181.79819" r="4.42469233"></circle>
                <circle id="Oval" transform="translate(270.484938, 181.798190) scale(-1, 1) translate(-270.484938, -181.798190) " cx="270.484938" cy="181.79819" r="4.42469233"></circle>
                <circle id="Oval" transform="translate(580.888559, 226.141564) scale(-1, 1) translate(-580.888559, -226.141564) " cx="580.888559" cy="226.141564" r="4.42469233"></circle>
                <circle id="Oval" transform="translate(536.545185, 226.141564) scale(-1, 1) translate(-536.545185, -226.141564) " cx="536.545185" cy="226.141564" r="4.42469233"></circle>
                <circle id="Oval" transform="translate(492.201810, 226.141564) scale(-1, 1) translate(-492.201810, -226.141564) " cx="492.20181" cy="226.141564" r="4.42469233"></circle>
                <circle id="Oval" transform="translate(447.858436, 226.141564) scale(-1, 1) translate(-447.858436, -226.141564) " cx="447.858436" cy="226.141564" r="4.42469233"></circle>
                <circle id="Oval" transform="translate(403.515062, 226.141564) scale(-1, 1) translate(-403.515062, -226.141564) " cx="403.515062" cy="226.141564" r="4.42469233"></circle>
                <circle id="Oval" transform="translate(359.171687, 226.141564) scale(-1, 1) translate(-359.171687, -226.141564) " cx="359.171687" cy="226.141564" r="4.42469233"></circle>
                <circle id="Oval" transform="translate(314.828313, 226.141564) scale(-1, 1) translate(-314.828313, -226.141564) " cx="314.828313" cy="226.141564" r="4.42469233"></circle>
                <circle id="Oval" transform="translate(270.484938, 226.141564) scale(-1, 1) translate(-270.484938, -226.141564) " cx="270.484938" cy="226.141564" r="4.42469233"></circle>
                <circle id="Oval" transform="translate(580.888559, 270.484938) scale(-1, 1) translate(-580.888559, -270.484938) " cx="580.888559" cy="270.484938" r="4.42469233"></circle>
                <circle id="Oval" transform="translate(536.545185, 270.484938) scale(-1, 1) translate(-536.545185, -270.484938) " cx="536.545185" cy="270.484938" r="4.42469233"></circle>
                <circle id="Oval" transform="translate(492.201810, 270.484938) scale(-1, 1) translate(-492.201810, -270.484938) " cx="492.20181" cy="270.484938" r="4.42469233"></circle>
                <circle id="Oval" transform="translate(447.858436, 270.484938) scale(-1, 1) translate(-447.858436, -270.484938) " cx="447.858436" cy="270.484938" r="4.42469233"></circle>
                <circle id="Oval" transform="translate(403.515062, 270.484938) scale(-1, 1) translate(-403.515062, -270.484938) " cx="403.515062" cy="270.484938" r="4.42469233"></circle>
                <circle id="Oval" transform="translate(359.171687, 270.484938) scale(-1, 1) translate(-359.171687, -270.484938) " cx="359.171687" cy="270.484938" r="4.42469233"></circle>
                <circle id="Oval" transform="translate(314.828313, 270.484938) scale(-1, 1) translate(-314.828313, -270.484938) " cx="314.828313" cy="270.484938" r="4.42469233"></circle>
                <circle id="Oval" transform="translate(270.484938, 270.484938) scale(-1, 1) translate(-270.484938, -270.484938) " cx="270.484938" cy="270.484938" r="4.42469233"></circle>
                <circle id="Oval" transform="translate(580.888559, 314.828313) scale(-1, 1) translate(-580.888559, -314.828313) " cx="580.888559" cy="314.828313" r="4.42469233"></circle>
                <circle id="Oval" transform="translate(536.545185, 314.828313) scale(-1, 1) translate(-536.545185, -314.828313) " cx="536.545185" cy="314.828313" r="4.42469233"></circle>
                <circle id="Oval" transform="translate(492.201810, 314.828313) scale(-1, 1) translate(-492.201810, -314.828313) " cx="492.20181" cy="314.828313" r="4.42469233"></circle>
                <circle id="Oval" transform="translate(447.858436, 314.828313) scale(-1, 1) translate(-447.858436, -314.828313) " cx="447.858436" cy="314.828313" r="4.42469233"></circle>
                <circle id="Oval" transform="translate(403.515062, 314.828313) scale(-1, 1) translate(-403.515062, -314.828313) " cx="403.515062" cy="314.828313" r="4.42469233"></circle>
                <circle id="Oval" transform="translate(359.171687, 314.828313) scale(-1, 1) translate(-359.171687, -314.828313) " cx="359.171687" cy="314.828313" r="4.42469233"></circle>
                <circle id="Oval" transform="translate(314.828313, 314.828313) scale(-1, 1) translate(-314.828313, -314.828313) " cx="314.828313" cy="314.828313" r="4.42469233"></circle>
                <circle id="Oval" transform="translate(270.484938, 314.828313) scale(-1, 1) translate(-270.484938, -314.828313) " cx="270.484938" cy="314.828313" r="4.42469233"></circle>
                <circle id="Oval" transform="translate(226.141564, 4.424692) scale(-1, 1) translate(-226.141564, -4.424692) " cx="226.141564" cy="4.42469233" r="4.42469233"></circle>
                <circle id="Oval" transform="translate(181.798190, 4.424692) scale(-1, 1) translate(-181.798190, -4.424692) " cx="181.79819" cy="4.42469233" r="4.42469233"></circle>
                <circle id="Oval" transform="translate(137.454815, 4.424692) scale(-1, 1) translate(-137.454815, -4.424692) " cx="137.454815" cy="4.42469233" r="4.42469233"></circle>
                <circle id="Oval" transform="translate(93.111441, 4.424692) scale(-1, 1) translate(-93.111441, -4.424692) " cx="93.111441" cy="4.42469233" r="4.42469233"></circle>
                <circle id="Oval" transform="translate(48.768067, 4.424692) scale(-1, 1) translate(-48.768067, -4.424692) " cx="48.7680667" cy="4.42469233" r="4.42469233"></circle>
                <circle id="Oval" transform="translate(4.424692, 4.424692) scale(-1, 1) translate(-4.424692, -4.424692) " cx="4.42469233" cy="4.42469233" r="4.42469233"></circle>
                <circle id="Oval" transform="translate(226.141564, 48.768067) scale(-1, 1) translate(-226.141564, -48.768067) " cx="226.141564" cy="48.7680667" r="4.42469233"></circle>
                <circle id="Oval" transform="translate(181.798190, 48.768067) scale(-1, 1) translate(-181.798190, -48.768067) " cx="181.79819" cy="48.7680667" r="4.42469233"></circle>
                <circle id="Oval" transform="translate(137.454815, 48.768067) scale(-1, 1) translate(-137.454815, -48.768067) " cx="137.454815" cy="48.7680667" r="4.42469233"></circle>
                <circle id="Oval" transform="translate(93.111441, 48.768067) scale(-1, 1) translate(-93.111441, -48.768067) " cx="93.111441" cy="48.7680667" r="4.42469233"></circle>
                <circle id="Oval" transform="translate(48.768067, 48.768067) scale(-1, 1) translate(-48.768067, -48.768067) " cx="48.7680667" cy="48.7680667" r="4.42469233"></circle>
                <circle id="Oval" transform="translate(4.424692, 48.768067) scale(-1, 1) translate(-4.424692, -48.768067) " cx="4.42469233" cy="48.7680667" r="4.42469233"></circle>
                <circle id="Oval" transform="translate(226.141564, 93.111441) scale(-1, 1) translate(-226.141564, -93.111441) " cx="226.141564" cy="93.111441" r="4.42469233"></circle>
                <circle id="Oval" transform="translate(181.798190, 93.111441) scale(-1, 1) translate(-181.798190, -93.111441) " cx="181.79819" cy="93.111441" r="4.42469233"></circle>
                <circle id="Oval" transform="translate(137.454815, 93.111441) scale(-1, 1) translate(-137.454815, -93.111441) " cx="137.454815" cy="93.111441" r="4.42469233"></circle>
                <circle id="Oval" transform="translate(93.111441, 93.111441) scale(-1, 1) translate(-93.111441, -93.111441) " cx="93.111441" cy="93.111441" r="4.42469233"></circle>
                <circle id="Oval" transform="translate(48.768067, 93.111441) scale(-1, 1) translate(-48.768067, -93.111441) " cx="48.7680667" cy="93.111441" r="4.42469233"></circle>
                <circle id="Oval" transform="translate(4.424692, 93.111441) scale(-1, 1) translate(-4.424692, -93.111441) " cx="4.42469233" cy="93.111441" r="4.42469233"></circle>
                <circle id="Oval" transform="translate(226.141564, 137.454815) scale(-1, 1) translate(-226.141564, -137.454815) " cx="226.141564" cy="137.454815" r="4.42469233"></circle>
                <circle id="Oval" transform="translate(181.798190, 137.454815) scale(-1, 1) translate(-181.798190, -137.454815) " cx="181.79819" cy="137.454815" r="4.42469233"></circle>
                <circle id="Oval" transform="translate(137.454815, 137.454815) scale(-1, 1) translate(-137.454815, -137.454815) " cx="137.454815" cy="137.454815" r="4.42469233"></circle>
                <circle id="Oval" transform="translate(93.111441, 137.454815) scale(-1, 1) translate(-93.111441, -137.454815) " cx="93.111441" cy="137.454815" r="4.42469233"></circle>
                <circle id="Oval" transform="translate(48.768067, 137.454815) scale(-1, 1) translate(-48.768067, -137.454815) " cx="48.7680667" cy="137.454815" r="4.42469233"></circle>
                <circle id="Oval" transform="translate(4.424692, 137.454815) scale(-1, 1) translate(-4.424692, -137.454815) " cx="4.42469233" cy="137.454815" r="4.42469233"></circle>
                <circle id="Oval" transform="translate(226.141564, 181.798190) scale(-1, 1) translate(-226.141564, -181.798190) " cx="226.141564" cy="181.79819" r="4.42469233"></circle>
                <circle id="Oval" transform="translate(181.798190, 181.798190) scale(-1, 1) translate(-181.798190, -181.798190) " cx="181.79819" cy="181.79819" r="4.42469233"></circle>
                <circle id="Oval" transform="translate(137.454815, 181.798190) scale(-1, 1) translate(-137.454815, -181.798190) " cx="137.454815" cy="181.79819" r="4.42469233"></circle>
                <circle id="Oval" transform="translate(93.111441, 181.798190) scale(-1, 1) translate(-93.111441, -181.798190) " cx="93.111441" cy="181.79819" r="4.42469233"></circle>
                <circle id="Oval" transform="translate(48.768067, 181.798190) scale(-1, 1) translate(-48.768067, -181.798190) " cx="48.7680667" cy="181.79819" r="4.42469233"></circle>
                <circle id="Oval" transform="translate(4.424692, 181.798190) scale(-1, 1) translate(-4.424692, -181.798190) " cx="4.42469233" cy="181.79819" r="4.42469233"></circle>
                <circle id="Oval" transform="translate(226.141564, 226.141564) scale(-1, 1) translate(-226.141564, -226.141564) " cx="226.141564" cy="226.141564" r="4.42469233"></circle>
                <circle id="Oval" transform="translate(181.798190, 226.141564) scale(-1, 1) translate(-181.798190, -226.141564) " cx="181.79819" cy="226.141564" r="4.42469233"></circle>
                <circle id="Oval" transform="translate(137.454815, 226.141564) scale(-1, 1) translate(-137.454815, -226.141564) " cx="137.454815" cy="226.141564" r="4.42469233"></circle>
                <circle id="Oval" transform="translate(93.111441, 226.141564) scale(-1, 1) translate(-93.111441, -226.141564) " cx="93.111441" cy="226.141564" r="4.42469233"></circle>
                <circle id="Oval" transform="translate(48.768067, 226.141564) scale(-1, 1) translate(-48.768067, -226.141564) " cx="48.7680667" cy="226.141564" r="4.42469233"></circle>
                <circle id="Oval" transform="translate(4.424692, 226.141564) scale(-1, 1) translate(-4.424692, -226.141564) " cx="4.42469233" cy="226.141564" r="4.42469233"></circle>
                <circle id="Oval" transform="translate(226.141564, 270.484938) scale(-1, 1) translate(-226.141564, -270.484938) " cx="226.141564" cy="270.484938" r="4.42469233"></circle>
                <circle id="Oval" transform="translate(181.798190, 270.484938) scale(-1, 1) translate(-181.798190, -270.484938) " cx="181.79819" cy="270.484938" r="4.42469233"></circle>
                <circle id="Oval" transform="translate(137.454815, 270.484938) scale(-1, 1) translate(-137.454815, -270.484938) " cx="137.454815" cy="270.484938" r="4.42469233"></circle>
                <circle id="Oval" transform="translate(93.111441, 270.484938) scale(-1, 1) translate(-93.111441, -270.484938) " cx="93.111441" cy="270.484938" r="4.42469233"></circle>
                <circle id="Oval" transform="translate(48.768067, 270.484938) scale(-1, 1) translate(-48.768067, -270.484938) " cx="48.7680667" cy="270.484938" r="4.42469233"></circle>
                <circle id="Oval" transform="translate(4.424692, 270.484938) scale(-1, 1) translate(-4.424692, -270.484938) " cx="4.42469233" cy="270.484938" r="4.42469233"></circle>
                <circle id="Oval" transform="translate(226.141564, 314.828313) scale(-1, 1) translate(-226.141564, -314.828313) " cx="226.141564" cy="314.828313" r="4.42469233"></circle>
                <circle id="Oval" transform="translate(181.798190, 314.828313) scale(-1, 1) translate(-181.798190, -314.828313) " cx="181.79819" cy="314.828313" r="4.42469233"></circle>
                <circle id="Oval" transform="translate(137.454815, 314.828313) scale(-1, 1) translate(-137.454815, -314.828313) " cx="137.454815" cy="314.828313" r="4.42469233"></circle>
                <circle id="Oval" transform="translate(93.111441, 314.828313) scale(-1, 1) translate(-93.111441, -314.828313) " cx="93.111441" cy="314.828313" r="4.42469233"></circle>
                <circle id="Oval" transform="translate(48.768067, 314.828313) scale(-1, 1) translate(-48.768067, -314.828313) " cx="48.7680667" cy="314.828313" r="4.42469233"></circle>
                <circle id="Oval" transform="translate(4.424692, 314.828313) scale(-1, 1) translate(-4.424692, -314.828313) " cx="4.42469233" cy="314.828313" r="4.42469233"></circle>
            </g>
        </g>
    </g>
</svg>