<?xml version="1.0" encoding="UTF-8"?>
<svg width="1234px" height="987px" viewBox="0 0 1234 987" version="1.1" xmlns="http://www.w3.org/2000/svg" xmlns:xlink="http://www.w3.org/1999/xlink">
    <title>export/img/background/3-fach-teaser-v1</title>
    <g id="export/img/background/3-fach-teaser-v1" stroke="none" stroke-width="1" fill="none" fill-rule="evenodd">
        <g id="Group" transform="translate(660.650728, 445.223431) scale(-1, -1) translate(-660.650728, -445.223431) translate(-50.000000, -140.000000)">
            <path d="M166.168341,563.382368 C479.604724,823.827625 356.656161,1025.57135 807.457988,1025.57135 C1258.25982,1025.57135 991.610537,634.826027 1237.51455,515.446393 C1483.41856,396.06676 1182.00859,9.29130167 905.384429,194.056251 C718.340217,318.988267 303.643524,249.094816 150.732765,312.850687 C77.500143,343.3849 64.6673905,479.041677 166.168341,563.382368 Z" id="Path-12-Copy-2" fill="#F6F8FA" transform="translate(710.650728, 585.223431) scale(-1, 1) rotate(-15.000000) translate(-710.650728, -585.223431) "></path>
            <g id="Group-29" transform="translate(531.475370, 414.126109)" fill="#D6DDE1">
                <circle id="Oval" cx="3.84698769" cy="389.384337" r="3.84698769"></circle>
                <circle id="Oval" cx="42.4007227" cy="389.384337" r="3.84698769"></circle>
                <circle id="Oval" cx="80.9544576" cy="389.384337" r="3.84698769"></circle>
                <circle id="Oval" cx="119.508193" cy="389.384337" r="3.84698769"></circle>
                <circle id="Oval" cx="158.061928" cy="389.384337" r="3.84698769"></circle>
                <circle id="Oval" cx="196.615663" cy="389.384337" r="3.84698769"></circle>
                <circle id="Oval" cx="235.169398" cy="389.384337" r="3.84698769"></circle>
                <circle id="Oval" cx="273.723133" cy="389.384337" r="3.84698769"></circle>
                <circle id="Oval" cx="312.276867" cy="389.384337" r="3.84698769"></circle>
                <circle id="Oval" cx="350.830602" cy="389.384337" r="3.84698769"></circle>
                <circle id="Oval" cx="3.84698769" cy="427.938072" r="3.84698769"></circle>
                <circle id="Oval" cx="42.4007227" cy="427.938072" r="3.84698769"></circle>
                <circle id="Oval" cx="80.9544576" cy="427.938072" r="3.84698769"></circle>
                <circle id="Oval" cx="119.508193" cy="427.938072" r="3.84698769"></circle>
                <circle id="Oval" cx="158.061928" cy="427.938072" r="3.84698769"></circle>
                <circle id="Oval" cx="196.615663" cy="427.938072" r="3.84698769"></circle>
                <circle id="Oval" cx="235.169398" cy="427.938072" r="3.84698769"></circle>
                <circle id="Oval" cx="273.723133" cy="427.938072" r="3.84698769"></circle>
                <circle id="Oval" cx="312.276867" cy="427.938072" r="3.84698769"></circle>
                <circle id="Oval" cx="350.830602" cy="427.938072" r="3.84698769"></circle>
                <circle id="Oval" cx="3.84698769" cy="466.491807" r="3.84698769"></circle>
                <circle id="Oval" cx="42.4007227" cy="466.491807" r="3.84698769"></circle>
                <circle id="Oval" cx="80.9544576" cy="466.491807" r="3.84698769"></circle>
                <circle id="Oval" cx="119.508193" cy="466.491807" r="3.84698769"></circle>
                <circle id="Oval" cx="158.061928" cy="466.491807" r="3.84698769"></circle>
                <circle id="Oval" cx="196.615663" cy="466.491807" r="3.84698769"></circle>
                <circle id="Oval" cx="235.169398" cy="466.491807" r="3.84698769"></circle>
                <circle id="Oval" cx="273.723133" cy="466.491807" r="3.84698769"></circle>
                <circle id="Oval" cx="312.276867" cy="466.491807" r="3.84698769"></circle>
                <circle id="Oval" cx="350.830602" cy="466.491807" r="3.84698769"></circle>
                <circle id="Oval" cx="3.84698769" cy="505.045542" r="3.84698769"></circle>
                <circle id="Oval" cx="42.4007227" cy="505.045542" r="3.84698769"></circle>
                <circle id="Oval" cx="80.9544576" cy="505.045542" r="3.84698769"></circle>
                <circle id="Oval" cx="119.508193" cy="505.045542" r="3.84698769"></circle>
                <circle id="Oval" cx="158.061928" cy="505.045542" r="3.84698769"></circle>
                <circle id="Oval" cx="196.615663" cy="505.045542" r="3.84698769"></circle>
                <circle id="Oval" cx="235.169398" cy="505.045542" r="3.84698769"></circle>
                <circle id="Oval" cx="273.723133" cy="505.045542" r="3.84698769"></circle>
                <circle id="Oval" cx="312.276867" cy="505.045542" r="3.84698769"></circle>
                <circle id="Oval" cx="350.830602" cy="505.045542" r="3.84698769"></circle>
                <circle id="Oval" cx="3.84698769" cy="543.599277" r="3.84698769"></circle>
                <circle id="Oval" cx="42.4007227" cy="543.599277" r="3.84698769"></circle>
                <circle id="Oval" cx="80.9544576" cy="543.599277" r="3.84698769"></circle>
                <circle id="Oval" cx="119.508193" cy="543.599277" r="3.84698769"></circle>
                <circle id="Oval" cx="158.061928" cy="543.599277" r="3.84698769"></circle>
                <circle id="Oval" cx="196.615663" cy="543.599277" r="3.84698769"></circle>
                <circle id="Oval" cx="235.169398" cy="543.599277" r="3.84698769"></circle>
                <circle id="Oval" cx="273.723133" cy="543.599277" r="3.84698769"></circle>
                <circle id="Oval" cx="312.276867" cy="543.599277" r="3.84698769"></circle>
                <circle id="Oval" cx="350.830602" cy="543.599277" r="3.84698769"></circle>
                <circle id="Oval" cx="3.84698769" cy="582.153012" r="3.84698769"></circle>
                <circle id="Oval" cx="42.4007227" cy="582.153012" r="3.84698769"></circle>
                <circle id="Oval" cx="80.9544576" cy="582.153012" r="3.84698769"></circle>
                <circle id="Oval" cx="119.508193" cy="582.153012" r="3.84698769"></circle>
                <circle id="Oval" cx="158.061928" cy="582.153012" r="3.84698769"></circle>
                <circle id="Oval" cx="196.615663" cy="582.153012" r="3.84698769"></circle>
                <circle id="Oval" cx="235.169398" cy="582.153012" r="3.84698769"></circle>
                <circle id="Oval" cx="273.723133" cy="582.153012" r="3.84698769"></circle>
                <circle id="Oval" cx="312.276867" cy="582.153012" r="3.84698769"></circle>
                <circle id="Oval" cx="350.830602" cy="582.153012" r="3.84698769"></circle>
                <circle id="Oval" cx="3.84698769" cy="3.84698769" r="3.84698769"></circle>
                <circle id="Oval" cx="42.4007227" cy="3.84698769" r="3.84698769"></circle>
                <circle id="Oval" cx="80.9544576" cy="3.84698769" r="3.84698769"></circle>
                <circle id="Oval" cx="119.508193" cy="3.84698769" r="3.84698769"></circle>
                <circle id="Oval" cx="158.061928" cy="3.84698769" r="3.84698769"></circle>
                <circle id="Oval" cx="196.615663" cy="3.84698769" r="3.84698769"></circle>
                <circle id="Oval" cx="235.169398" cy="3.84698769" r="3.84698769"></circle>
                <circle id="Oval" cx="273.723133" cy="3.84698769" r="3.84698769"></circle>
                <circle id="Oval" cx="312.276867" cy="3.84698769" r="3.84698769"></circle>
                <circle id="Oval" cx="350.830602" cy="3.84698769" r="3.84698769"></circle>
                <circle id="Oval" cx="3.84698769" cy="42.4007227" r="3.84698769"></circle>
                <circle id="Oval" cx="42.4007227" cy="42.4007227" r="3.84698769"></circle>
                <circle id="Oval" cx="80.9544576" cy="42.4007227" r="3.84698769"></circle>
                <circle id="Oval" cx="119.508193" cy="42.4007227" r="3.84698769"></circle>
                <circle id="Oval" cx="158.061928" cy="42.4007227" r="3.84698769"></circle>
                <circle id="Oval" cx="196.615663" cy="42.4007227" r="3.84698769"></circle>
                <circle id="Oval" cx="235.169398" cy="42.4007227" r="3.84698769"></circle>
                <circle id="Oval" cx="273.723133" cy="42.4007227" r="3.84698769"></circle>
                <circle id="Oval" cx="312.276867" cy="42.4007227" r="3.84698769"></circle>
                <circle id="Oval" cx="350.830602" cy="42.4007227" r="3.84698769"></circle>
                <circle id="Oval" cx="3.84698769" cy="80.9544576" r="3.84698769"></circle>
                <circle id="Oval" cx="42.4007227" cy="80.9544576" r="3.84698769"></circle>
                <circle id="Oval" cx="80.9544576" cy="80.9544576" r="3.84698769"></circle>
                <circle id="Oval" cx="119.508193" cy="80.9544576" r="3.84698769"></circle>
                <circle id="Oval" cx="158.061928" cy="80.9544576" r="3.84698769"></circle>
                <circle id="Oval" cx="196.615663" cy="80.9544576" r="3.84698769"></circle>
                <circle id="Oval" cx="235.169398" cy="80.9544576" r="3.84698769"></circle>
                <circle id="Oval" cx="273.723133" cy="80.9544576" r="3.84698769"></circle>
                <circle id="Oval" cx="312.276867" cy="80.9544576" r="3.84698769"></circle>
                <circle id="Oval" cx="350.830602" cy="80.9544576" r="3.84698769"></circle>
                <circle id="Oval" cx="3.84698769" cy="119.508193" r="3.84698769"></circle>
                <circle id="Oval" cx="42.4007227" cy="119.508193" r="3.84698769"></circle>
                <circle id="Oval" cx="80.9544576" cy="119.508193" r="3.84698769"></circle>
                <circle id="Oval" cx="119.508193" cy="119.508193" r="3.84698769"></circle>
                <circle id="Oval" cx="158.061928" cy="119.508193" r="3.84698769"></circle>
                <circle id="Oval" cx="196.615663" cy="119.508193" r="3.84698769"></circle>
                <circle id="Oval" cx="235.169398" cy="119.508193" r="3.84698769"></circle>
                <circle id="Oval" cx="273.723133" cy="119.508193" r="3.84698769"></circle>
                <circle id="Oval" cx="312.276867" cy="119.508193" r="3.84698769"></circle>
                <circle id="Oval" cx="350.830602" cy="119.508193" r="3.84698769"></circle>
                <circle id="Oval" cx="3.84698769" cy="158.061928" r="3.84698769"></circle>
                <circle id="Oval" cx="42.4007227" cy="158.061928" r="3.84698769"></circle>
                <circle id="Oval" cx="80.9544576" cy="158.061928" r="3.84698769"></circle>
                <circle id="Oval" cx="119.508193" cy="158.061928" r="3.84698769"></circle>
                <circle id="Oval" cx="158.061928" cy="158.061928" r="3.84698769"></circle>
                <circle id="Oval" cx="196.615663" cy="158.061928" r="3.84698769"></circle>
                <circle id="Oval" cx="235.169398" cy="158.061928" r="3.84698769"></circle>
                <circle id="Oval" cx="273.723133" cy="158.061928" r="3.84698769"></circle>
                <circle id="Oval" cx="312.276867" cy="158.061928" r="3.84698769"></circle>
                <circle id="Oval" cx="350.830602" cy="158.061928" r="3.84698769"></circle>
                <circle id="Oval" cx="3.84698769" cy="196.615663" r="3.84698769"></circle>
                <circle id="Oval" cx="42.4007227" cy="196.615663" r="3.84698769"></circle>
                <circle id="Oval" cx="80.9544576" cy="196.615663" r="3.84698769"></circle>
                <circle id="Oval" cx="119.508193" cy="196.615663" r="3.84698769"></circle>
                <circle id="Oval" cx="158.061928" cy="196.615663" r="3.84698769"></circle>
                <circle id="Oval" cx="196.615663" cy="196.615663" r="3.84698769"></circle>
                <circle id="Oval" cx="235.169398" cy="196.615663" r="3.84698769"></circle>
                <circle id="Oval" cx="273.723133" cy="196.615663" r="3.84698769"></circle>
                <circle id="Oval" cx="312.276867" cy="196.615663" r="3.84698769"></circle>
                <circle id="Oval" cx="350.830602" cy="196.615663" r="3.84698769"></circle>
                <circle id="Oval" cx="3.84698769" cy="235.169398" r="3.84698769"></circle>
                <circle id="Oval" cx="42.4007227" cy="235.169398" r="3.84698769"></circle>
                <circle id="Oval" cx="80.9544576" cy="235.169398" r="3.84698769"></circle>
                <circle id="Oval" cx="119.508193" cy="235.169398" r="3.84698769"></circle>
                <circle id="Oval" cx="158.061928" cy="235.169398" r="3.84698769"></circle>
                <circle id="Oval" cx="196.615663" cy="235.169398" r="3.84698769"></circle>
                <circle id="Oval" cx="235.169398" cy="235.169398" r="3.84698769"></circle>
                <circle id="Oval" cx="273.723133" cy="235.169398" r="3.84698769"></circle>
                <circle id="Oval" cx="312.276867" cy="235.169398" r="3.84698769"></circle>
                <circle id="Oval" cx="350.830602" cy="235.169398" r="3.84698769"></circle>
                <circle id="Oval" cx="3.84698769" cy="273.723133" r="3.84698769"></circle>
                <circle id="Oval" cx="42.4007227" cy="273.723133" r="3.84698769"></circle>
                <circle id="Oval" cx="80.9544576" cy="273.723133" r="3.84698769"></circle>
                <circle id="Oval" cx="119.508193" cy="273.723133" r="3.84698769"></circle>
                <circle id="Oval" cx="158.061928" cy="273.723133" r="3.84698769"></circle>
                <circle id="Oval" cx="196.615663" cy="273.723133" r="3.84698769"></circle>
                <circle id="Oval" cx="235.169398" cy="273.723133" r="3.84698769"></circle>
                <circle id="Oval" cx="273.723133" cy="273.723133" r="3.84698769"></circle>
                <circle id="Oval" cx="312.276867" cy="273.723133" r="3.84698769"></circle>
                <circle id="Oval" cx="350.830602" cy="273.723133" r="3.84698769"></circle>
                <circle id="Oval" cx="3.84698769" cy="312.276867" r="3.84698769"></circle>
                <circle id="Oval" cx="42.4007227" cy="312.276867" r="3.84698769"></circle>
                <circle id="Oval" cx="80.9544576" cy="312.276867" r="3.84698769"></circle>
                <circle id="Oval" cx="119.508193" cy="312.276867" r="3.84698769"></circle>
                <circle id="Oval" cx="158.061928" cy="312.276867" r="3.84698769"></circle>
                <circle id="Oval" cx="196.615663" cy="312.276867" r="3.84698769"></circle>
                <circle id="Oval" cx="235.169398" cy="312.276867" r="3.84698769"></circle>
                <circle id="Oval" cx="273.723133" cy="312.276867" r="3.84698769"></circle>
                <circle id="Oval" cx="312.276867" cy="312.276867" r="3.84698769"></circle>
                <circle id="Oval" cx="350.830602" cy="312.276867" r="3.84698769"></circle>
                <circle id="Oval" cx="3.84698769" cy="350.830602" r="3.84698769"></circle>
                <circle id="Oval" cx="42.4007227" cy="350.830602" r="3.84698769"></circle>
                <circle id="Oval" cx="80.9544576" cy="350.830602" r="3.84698769"></circle>
                <circle id="Oval" cx="119.508193" cy="350.830602" r="3.84698769"></circle>
                <circle id="Oval" cx="158.061928" cy="350.830602" r="3.84698769"></circle>
                <circle id="Oval" cx="196.615663" cy="350.830602" r="3.84698769"></circle>
                <circle id="Oval" cx="235.169398" cy="350.830602" r="3.84698769"></circle>
                <circle id="Oval" cx="273.723133" cy="350.830602" r="3.84698769"></circle>
                <circle id="Oval" cx="312.276867" cy="350.830602" r="3.84698769"></circle>
                <circle id="Oval" cx="350.830602" cy="350.830602" r="3.84698769"></circle>
                <circle id="Oval" cx="389.384337" cy="389.384337" r="3.84698769"></circle>
                <circle id="Oval" cx="427.938072" cy="389.384337" r="3.84698769"></circle>
                <circle id="Oval" cx="466.491807" cy="389.384337" r="3.84698769"></circle>
                <circle id="Oval" cx="505.045542" cy="389.384337" r="3.84698769"></circle>
                <circle id="Oval" cx="543.599277" cy="389.384337" r="3.84698769"></circle>
                <circle id="Oval" cx="582.153012" cy="389.384337" r="3.84698769"></circle>
                <circle id="Oval" cx="389.384337" cy="427.938072" r="3.84698769"></circle>
                <circle id="Oval" cx="427.938072" cy="427.938072" r="3.84698769"></circle>
                <circle id="Oval" cx="466.491807" cy="427.938072" r="3.84698769"></circle>
                <circle id="Oval" cx="505.045542" cy="427.938072" r="3.84698769"></circle>
                <circle id="Oval" cx="543.599277" cy="427.938072" r="3.84698769"></circle>
                <circle id="Oval" cx="582.153012" cy="427.938072" r="3.84698769"></circle>
                <circle id="Oval" cx="389.384337" cy="466.491807" r="3.84698769"></circle>
                <circle id="Oval" cx="427.938072" cy="466.491807" r="3.84698769"></circle>
                <circle id="Oval" cx="466.491807" cy="466.491807" r="3.84698769"></circle>
                <circle id="Oval" cx="505.045542" cy="466.491807" r="3.84698769"></circle>
                <circle id="Oval" cx="543.599277" cy="466.491807" r="3.84698769"></circle>
                <circle id="Oval" cx="582.153012" cy="466.491807" r="3.84698769"></circle>
                <circle id="Oval" cx="389.384337" cy="505.045542" r="3.84698769"></circle>
                <circle id="Oval" cx="427.938072" cy="505.045542" r="3.84698769"></circle>
                <circle id="Oval" cx="466.491807" cy="505.045542" r="3.84698769"></circle>
                <circle id="Oval" cx="505.045542" cy="505.045542" r="3.84698769"></circle>
                <circle id="Oval" cx="543.599277" cy="505.045542" r="3.84698769"></circle>
                <circle id="Oval" cx="582.153012" cy="505.045542" r="3.84698769"></circle>
                <circle id="Oval" cx="389.384337" cy="543.599277" r="3.84698769"></circle>
                <circle id="Oval" cx="427.938072" cy="543.599277" r="3.84698769"></circle>
                <circle id="Oval" cx="466.491807" cy="543.599277" r="3.84698769"></circle>
                <circle id="Oval" cx="505.045542" cy="543.599277" r="3.84698769"></circle>
                <circle id="Oval" cx="543.599277" cy="543.599277" r="3.84698769"></circle>
                <circle id="Oval" cx="582.153012" cy="543.599277" r="3.84698769"></circle>
                <circle id="Oval" cx="389.384337" cy="582.153012" r="3.84698769"></circle>
                <circle id="Oval" cx="427.938072" cy="582.153012" r="3.84698769"></circle>
                <circle id="Oval" cx="466.491807" cy="582.153012" r="3.84698769"></circle>
                <circle id="Oval" cx="505.045542" cy="582.153012" r="3.84698769"></circle>
                <circle id="Oval" cx="543.599277" cy="582.153012" r="3.84698769"></circle>
                <circle id="Oval" cx="582.153012" cy="582.153012" r="3.84698769"></circle>
                <circle id="Oval" cx="389.384337" cy="3.84698769" r="3.84698769"></circle>
                <circle id="Oval" cx="427.938072" cy="3.84698769" r="3.84698769"></circle>
                <circle id="Oval" cx="466.491807" cy="3.84698769" r="3.84698769"></circle>
                <circle id="Oval" cx="505.045542" cy="3.84698769" r="3.84698769"></circle>
                <circle id="Oval" cx="543.599277" cy="3.84698769" r="3.84698769"></circle>
                <circle id="Oval" cx="582.153012" cy="3.84698769" r="3.84698769"></circle>
                <circle id="Oval" cx="389.384337" cy="42.4007227" r="3.84698769"></circle>
                <circle id="Oval" cx="427.938072" cy="42.4007227" r="3.84698769"></circle>
                <circle id="Oval" cx="466.491807" cy="42.4007227" r="3.84698769"></circle>
                <circle id="Oval" cx="505.045542" cy="42.4007227" r="3.84698769"></circle>
                <circle id="Oval" cx="543.599277" cy="42.4007227" r="3.84698769"></circle>
                <circle id="Oval" cx="582.153012" cy="42.4007227" r="3.84698769"></circle>
                <circle id="Oval" cx="389.384337" cy="80.9544576" r="3.84698769"></circle>
                <circle id="Oval" cx="427.938072" cy="80.9544576" r="3.84698769"></circle>
                <circle id="Oval" cx="466.491807" cy="80.9544576" r="3.84698769"></circle>
                <circle id="Oval" cx="505.045542" cy="80.9544576" r="3.84698769"></circle>
                <circle id="Oval" cx="543.599277" cy="80.9544576" r="3.84698769"></circle>
                <circle id="Oval" cx="582.153012" cy="80.9544576" r="3.84698769"></circle>
                <circle id="Oval" cx="389.384337" cy="119.508193" r="3.84698769"></circle>
                <circle id="Oval" cx="427.938072" cy="119.508193" r="3.84698769"></circle>
                <circle id="Oval" cx="466.491807" cy="119.508193" r="3.84698769"></circle>
                <circle id="Oval" cx="505.045542" cy="119.508193" r="3.84698769"></circle>
                <circle id="Oval" cx="543.599277" cy="119.508193" r="3.84698769"></circle>
                <circle id="Oval" cx="582.153012" cy="119.508193" r="3.84698769"></circle>
                <circle id="Oval" cx="389.384337" cy="158.061928" r="3.84698769"></circle>
                <circle id="Oval" cx="427.938072" cy="158.061928" r="3.84698769"></circle>
                <circle id="Oval" cx="466.491807" cy="158.061928" r="3.84698769"></circle>
                <circle id="Oval" cx="505.045542" cy="158.061928" r="3.84698769"></circle>
                <circle id="Oval" cx="543.599277" cy="158.061928" r="3.84698769"></circle>
                <circle id="Oval" cx="582.153012" cy="158.061928" r="3.84698769"></circle>
                <circle id="Oval" cx="389.384337" cy="196.615663" r="3.84698769"></circle>
                <circle id="Oval" cx="427.938072" cy="196.615663" r="3.84698769"></circle>
                <circle id="Oval" cx="466.491807" cy="196.615663" r="3.84698769"></circle>
                <circle id="Oval" cx="505.045542" cy="196.615663" r="3.84698769"></circle>
                <circle id="Oval" cx="543.599277" cy="196.615663" r="3.84698769"></circle>
                <circle id="Oval" cx="582.153012" cy="196.615663" r="3.84698769"></circle>
                <circle id="Oval" cx="389.384337" cy="235.169398" r="3.84698769"></circle>
                <circle id="Oval" cx="427.938072" cy="235.169398" r="3.84698769"></circle>
                <circle id="Oval" cx="466.491807" cy="235.169398" r="3.84698769"></circle>
                <circle id="Oval" cx="505.045542" cy="235.169398" r="3.84698769"></circle>
                <circle id="Oval" cx="543.599277" cy="235.169398" r="3.84698769"></circle>
                <circle id="Oval" cx="582.153012" cy="235.169398" r="3.84698769"></circle>
                <circle id="Oval" cx="389.384337" cy="273.723133" r="3.84698769"></circle>
                <circle id="Oval" cx="427.938072" cy="273.723133" r="3.84698769"></circle>
                <circle id="Oval" cx="466.491807" cy="273.723133" r="3.84698769"></circle>
                <circle id="Oval" cx="505.045542" cy="273.723133" r="3.84698769"></circle>
                <circle id="Oval" cx="543.599277" cy="273.723133" r="3.84698769"></circle>
                <circle id="Oval" cx="582.153012" cy="273.723133" r="3.84698769"></circle>
                <circle id="Oval" cx="389.384337" cy="312.276867" r="3.84698769"></circle>
                <circle id="Oval" cx="427.938072" cy="312.276867" r="3.84698769"></circle>
                <circle id="Oval" cx="466.491807" cy="312.276867" r="3.84698769"></circle>
                <circle id="Oval" cx="505.045542" cy="312.276867" r="3.84698769"></circle>
                <circle id="Oval" cx="543.599277" cy="312.276867" r="3.84698769"></circle>
                <circle id="Oval" cx="582.153012" cy="312.276867" r="3.84698769"></circle>
                <circle id="Oval" cx="389.384337" cy="350.830602" r="3.84698769"></circle>
                <circle id="Oval" cx="427.938072" cy="350.830602" r="3.84698769"></circle>
                <circle id="Oval" cx="466.491807" cy="350.830602" r="3.84698769"></circle>
                <circle id="Oval" cx="505.045542" cy="350.830602" r="3.84698769"></circle>
                <circle id="Oval" cx="543.599277" cy="350.830602" r="3.84698769"></circle>
                <circle id="Oval" cx="582.153012" cy="350.830602" r="3.84698769"></circle>
            </g>
        </g>
    </g>
</svg>