<?xml version="1.0" encoding="UTF-8"?>
<svg width="1552px" height="1312px" viewBox="0 0 1552 1312" version="1.1" xmlns="http://www.w3.org/2000/svg" xmlns:xlink="http://www.w3.org/1999/xlink">
    <title>export/img/background/5-fach-teaser-v1</title>
    <g id="export/img/background/5-fach-teaser-v1" stroke="none" stroke-width="1" fill="none" fill-rule="evenodd">
        <path d="M1392.46985,783.245193 C945.065353,1040.85403 1139.56779,1381.41768 733.447919,1299.96821 C327.328045,1218.51874 522.875504,859.485875 142.469852,516.663625 C-237.935801,173.841375 205.328272,-204.988736 744.469852,130.034828 C950.21205,257.883406 1250.02565,125.939477 1463.81883,311.011264 C1596.71876,426.057157 1583.3533,673.337351 1392.46985,783.245193 Z" id="Path-12-Copy-2" fill="#F6F8FA"></path>
        <g id="Group-29" transform="translate(459.003173, 266.318693)" fill="#D6DDE1">
            <circle id="Oval" cx="4.56911849" cy="462.476961" r="4.56911849"></circle>
            <circle id="Oval" cx="50.3599027" cy="462.476961" r="4.56911849"></circle>
            <circle id="Oval" cx="96.1506869" cy="462.476961" r="4.56911849"></circle>
            <circle id="Oval" cx="141.941471" cy="462.476961" r="4.56911849"></circle>
            <circle id="Oval" cx="187.732255" cy="462.476961" r="4.56911849"></circle>
            <circle id="Oval" cx="233.523039" cy="462.476961" r="4.56911849"></circle>
            <circle id="Oval" cx="279.313824" cy="462.476961" r="4.56911849"></circle>
            <circle id="Oval" cx="325.104608" cy="462.476961" r="4.56911849"></circle>
            <circle id="Oval" cx="370.895392" cy="462.476961" r="4.56911849"></circle>
            <circle id="Oval" cx="416.686176" cy="462.476961" r="4.56911849"></circle>
            <circle id="Oval" cx="4.56911849" cy="508.267745" r="4.56911849"></circle>
            <circle id="Oval" cx="50.3599027" cy="508.267745" r="4.56911849"></circle>
            <circle id="Oval" cx="96.1506869" cy="508.267745" r="4.56911849"></circle>
            <circle id="Oval" cx="141.941471" cy="508.267745" r="4.56911849"></circle>
            <circle id="Oval" cx="187.732255" cy="508.267745" r="4.56911849"></circle>
            <circle id="Oval" cx="233.523039" cy="508.267745" r="4.56911849"></circle>
            <circle id="Oval" cx="279.313824" cy="508.267745" r="4.56911849"></circle>
            <circle id="Oval" cx="325.104608" cy="508.267745" r="4.56911849"></circle>
            <circle id="Oval" cx="370.895392" cy="508.267745" r="4.56911849"></circle>
            <circle id="Oval" cx="416.686176" cy="508.267745" r="4.56911849"></circle>
            <circle id="Oval" cx="4.56911849" cy="554.058529" r="4.56911849"></circle>
            <circle id="Oval" cx="50.3599027" cy="554.058529" r="4.56911849"></circle>
            <circle id="Oval" cx="96.1506869" cy="554.058529" r="4.56911849"></circle>
            <circle id="Oval" cx="141.941471" cy="554.058529" r="4.56911849"></circle>
            <circle id="Oval" cx="187.732255" cy="554.058529" r="4.56911849"></circle>
            <circle id="Oval" cx="233.523039" cy="554.058529" r="4.56911849"></circle>
            <circle id="Oval" cx="279.313824" cy="554.058529" r="4.56911849"></circle>
            <circle id="Oval" cx="325.104608" cy="554.058529" r="4.56911849"></circle>
            <circle id="Oval" cx="370.895392" cy="554.058529" r="4.56911849"></circle>
            <circle id="Oval" cx="416.686176" cy="554.058529" r="4.56911849"></circle>
            <circle id="Oval" cx="4.56911849" cy="599.849313" r="4.56911849"></circle>
            <circle id="Oval" cx="50.3599027" cy="599.849313" r="4.56911849"></circle>
            <circle id="Oval" cx="96.1506869" cy="599.849313" r="4.56911849"></circle>
            <circle id="Oval" cx="141.941471" cy="599.849313" r="4.56911849"></circle>
            <circle id="Oval" cx="187.732255" cy="599.849313" r="4.56911849"></circle>
            <circle id="Oval" cx="233.523039" cy="599.849313" r="4.56911849"></circle>
            <circle id="Oval" cx="279.313824" cy="599.849313" r="4.56911849"></circle>
            <circle id="Oval" cx="325.104608" cy="599.849313" r="4.56911849"></circle>
            <circle id="Oval" cx="370.895392" cy="599.849313" r="4.56911849"></circle>
            <circle id="Oval" cx="416.686176" cy="599.849313" r="4.56911849"></circle>
            <circle id="Oval" cx="4.56911849" cy="645.640097" r="4.56911849"></circle>
            <circle id="Oval" cx="50.3599027" cy="645.640097" r="4.56911849"></circle>
            <circle id="Oval" cx="96.1506869" cy="645.640097" r="4.56911849"></circle>
            <circle id="Oval" cx="141.941471" cy="645.640097" r="4.56911849"></circle>
            <circle id="Oval" cx="187.732255" cy="645.640097" r="4.56911849"></circle>
            <circle id="Oval" cx="233.523039" cy="645.640097" r="4.56911849"></circle>
            <circle id="Oval" cx="279.313824" cy="645.640097" r="4.56911849"></circle>
            <circle id="Oval" cx="325.104608" cy="645.640097" r="4.56911849"></circle>
            <circle id="Oval" cx="370.895392" cy="645.640097" r="4.56911849"></circle>
            <circle id="Oval" cx="416.686176" cy="645.640097" r="4.56911849"></circle>
            <circle id="Oval" cx="4.56911849" cy="691.430882" r="4.56911849"></circle>
            <circle id="Oval" cx="50.3599027" cy="691.430882" r="4.56911849"></circle>
            <circle id="Oval" cx="96.1506869" cy="691.430882" r="4.56911849"></circle>
            <circle id="Oval" cx="141.941471" cy="691.430882" r="4.56911849"></circle>
            <circle id="Oval" cx="187.732255" cy="691.430882" r="4.56911849"></circle>
            <circle id="Oval" cx="233.523039" cy="691.430882" r="4.56911849"></circle>
            <circle id="Oval" cx="279.313824" cy="691.430882" r="4.56911849"></circle>
            <circle id="Oval" cx="325.104608" cy="691.430882" r="4.56911849"></circle>
            <circle id="Oval" cx="370.895392" cy="691.430882" r="4.56911849"></circle>
            <circle id="Oval" cx="416.686176" cy="691.430882" r="4.56911849"></circle>
            <circle id="Oval" cx="4.56911849" cy="4.56911849" r="4.56911849"></circle>
            <circle id="Oval" cx="50.3599027" cy="4.56911849" r="4.56911849"></circle>
            <circle id="Oval" cx="96.1506869" cy="4.56911849" r="4.56911849"></circle>
            <circle id="Oval" cx="141.941471" cy="4.56911849" r="4.56911849"></circle>
            <circle id="Oval" cx="187.732255" cy="4.56911849" r="4.56911849"></circle>
            <circle id="Oval" cx="233.523039" cy="4.56911849" r="4.56911849"></circle>
            <circle id="Oval" cx="279.313824" cy="4.56911849" r="4.56911849"></circle>
            <circle id="Oval" cx="325.104608" cy="4.56911849" r="4.56911849"></circle>
            <circle id="Oval" cx="370.895392" cy="4.56911849" r="4.56911849"></circle>
            <circle id="Oval" cx="416.686176" cy="4.56911849" r="4.56911849"></circle>
            <circle id="Oval" cx="4.56911849" cy="50.3599027" r="4.56911849"></circle>
            <circle id="Oval" cx="50.3599027" cy="50.3599027" r="4.56911849"></circle>
            <circle id="Oval" cx="96.1506869" cy="50.3599027" r="4.56911849"></circle>
            <circle id="Oval" cx="141.941471" cy="50.3599027" r="4.56911849"></circle>
            <circle id="Oval" cx="187.732255" cy="50.3599027" r="4.56911849"></circle>
            <circle id="Oval" cx="233.523039" cy="50.3599027" r="4.56911849"></circle>
            <circle id="Oval" cx="279.313824" cy="50.3599027" r="4.56911849"></circle>
            <circle id="Oval" cx="325.104608" cy="50.3599027" r="4.56911849"></circle>
            <circle id="Oval" cx="370.895392" cy="50.3599027" r="4.56911849"></circle>
            <circle id="Oval" cx="416.686176" cy="50.3599027" r="4.56911849"></circle>
            <circle id="Oval" cx="4.56911849" cy="96.1506869" r="4.56911849"></circle>
            <circle id="Oval" cx="50.3599027" cy="96.1506869" r="4.56911849"></circle>
            <circle id="Oval" cx="96.1506869" cy="96.1506869" r="4.56911849"></circle>
            <circle id="Oval" cx="141.941471" cy="96.1506869" r="4.56911849"></circle>
            <circle id="Oval" cx="187.732255" cy="96.1506869" r="4.56911849"></circle>
            <circle id="Oval" cx="233.523039" cy="96.1506869" r="4.56911849"></circle>
            <circle id="Oval" cx="279.313824" cy="96.1506869" r="4.56911849"></circle>
            <circle id="Oval" cx="325.104608" cy="96.1506869" r="4.56911849"></circle>
            <circle id="Oval" cx="370.895392" cy="96.1506869" r="4.56911849"></circle>
            <circle id="Oval" cx="416.686176" cy="96.1506869" r="4.56911849"></circle>
            <circle id="Oval" cx="4.56911849" cy="141.941471" r="4.56911849"></circle>
            <circle id="Oval" cx="50.3599027" cy="141.941471" r="4.56911849"></circle>
            <circle id="Oval" cx="96.1506869" cy="141.941471" r="4.56911849"></circle>
            <circle id="Oval" cx="141.941471" cy="141.941471" r="4.56911849"></circle>
            <circle id="Oval" cx="187.732255" cy="141.941471" r="4.56911849"></circle>
            <circle id="Oval" cx="233.523039" cy="141.941471" r="4.56911849"></circle>
            <circle id="Oval" cx="279.313824" cy="141.941471" r="4.56911849"></circle>
            <circle id="Oval" cx="325.104608" cy="141.941471" r="4.56911849"></circle>
            <circle id="Oval" cx="370.895392" cy="141.941471" r="4.56911849"></circle>
            <circle id="Oval" cx="416.686176" cy="141.941471" r="4.56911849"></circle>
            <circle id="Oval" cx="4.56911849" cy="187.732255" r="4.56911849"></circle>
            <circle id="Oval" cx="50.3599027" cy="187.732255" r="4.56911849"></circle>
            <circle id="Oval" cx="96.1506869" cy="187.732255" r="4.56911849"></circle>
            <circle id="Oval" cx="141.941471" cy="187.732255" r="4.56911849"></circle>
            <circle id="Oval" cx="187.732255" cy="187.732255" r="4.56911849"></circle>
            <circle id="Oval" cx="233.523039" cy="187.732255" r="4.56911849"></circle>
            <circle id="Oval" cx="279.313824" cy="187.732255" r="4.56911849"></circle>
            <circle id="Oval" cx="325.104608" cy="187.732255" r="4.56911849"></circle>
            <circle id="Oval" cx="370.895392" cy="187.732255" r="4.56911849"></circle>
            <circle id="Oval" cx="416.686176" cy="187.732255" r="4.56911849"></circle>
            <circle id="Oval" cx="4.56911849" cy="233.523039" r="4.56911849"></circle>
            <circle id="Oval" cx="50.3599027" cy="233.523039" r="4.56911849"></circle>
            <circle id="Oval" cx="96.1506869" cy="233.523039" r="4.56911849"></circle>
            <circle id="Oval" cx="141.941471" cy="233.523039" r="4.56911849"></circle>
            <circle id="Oval" cx="187.732255" cy="233.523039" r="4.56911849"></circle>
            <circle id="Oval" cx="233.523039" cy="233.523039" r="4.56911849"></circle>
            <circle id="Oval" cx="279.313824" cy="233.523039" r="4.56911849"></circle>
            <circle id="Oval" cx="325.104608" cy="233.523039" r="4.56911849"></circle>
            <circle id="Oval" cx="370.895392" cy="233.523039" r="4.56911849"></circle>
            <circle id="Oval" cx="416.686176" cy="233.523039" r="4.56911849"></circle>
            <circle id="Oval" cx="4.56911849" cy="279.313824" r="4.56911849"></circle>
            <circle id="Oval" cx="50.3599027" cy="279.313824" r="4.56911849"></circle>
            <circle id="Oval" cx="96.1506869" cy="279.313824" r="4.56911849"></circle>
            <circle id="Oval" cx="141.941471" cy="279.313824" r="4.56911849"></circle>
            <circle id="Oval" cx="187.732255" cy="279.313824" r="4.56911849"></circle>
            <circle id="Oval" cx="233.523039" cy="279.313824" r="4.56911849"></circle>
            <circle id="Oval" cx="279.313824" cy="279.313824" r="4.56911849"></circle>
            <circle id="Oval" cx="325.104608" cy="279.313824" r="4.56911849"></circle>
            <circle id="Oval" cx="370.895392" cy="279.313824" r="4.56911849"></circle>
            <circle id="Oval" cx="416.686176" cy="279.313824" r="4.56911849"></circle>
            <circle id="Oval" cx="4.56911849" cy="325.104608" r="4.56911849"></circle>
            <circle id="Oval" cx="50.3599027" cy="325.104608" r="4.56911849"></circle>
            <circle id="Oval" cx="96.1506869" cy="325.104608" r="4.56911849"></circle>
            <circle id="Oval" cx="141.941471" cy="325.104608" r="4.56911849"></circle>
            <circle id="Oval" cx="187.732255" cy="325.104608" r="4.56911849"></circle>
            <circle id="Oval" cx="233.523039" cy="325.104608" r="4.56911849"></circle>
            <circle id="Oval" cx="279.313824" cy="325.104608" r="4.56911849"></circle>
            <circle id="Oval" cx="325.104608" cy="325.104608" r="4.56911849"></circle>
            <circle id="Oval" cx="370.895392" cy="325.104608" r="4.56911849"></circle>
            <circle id="Oval" cx="416.686176" cy="325.104608" r="4.56911849"></circle>
            <circle id="Oval" cx="4.56911849" cy="370.895392" r="4.56911849"></circle>
            <circle id="Oval" cx="50.3599027" cy="370.895392" r="4.56911849"></circle>
            <circle id="Oval" cx="96.1506869" cy="370.895392" r="4.56911849"></circle>
            <circle id="Oval" cx="141.941471" cy="370.895392" r="4.56911849"></circle>
            <circle id="Oval" cx="187.732255" cy="370.895392" r="4.56911849"></circle>
            <circle id="Oval" cx="233.523039" cy="370.895392" r="4.56911849"></circle>
            <circle id="Oval" cx="279.313824" cy="370.895392" r="4.56911849"></circle>
            <circle id="Oval" cx="325.104608" cy="370.895392" r="4.56911849"></circle>
            <circle id="Oval" cx="370.895392" cy="370.895392" r="4.56911849"></circle>
            <circle id="Oval" cx="416.686176" cy="370.895392" r="4.56911849"></circle>
            <circle id="Oval" cx="4.56911849" cy="416.686176" r="4.56911849"></circle>
            <circle id="Oval" cx="50.3599027" cy="416.686176" r="4.56911849"></circle>
            <circle id="Oval" cx="96.1506869" cy="416.686176" r="4.56911849"></circle>
            <circle id="Oval" cx="141.941471" cy="416.686176" r="4.56911849"></circle>
            <circle id="Oval" cx="187.732255" cy="416.686176" r="4.56911849"></circle>
            <circle id="Oval" cx="233.523039" cy="416.686176" r="4.56911849"></circle>
            <circle id="Oval" cx="279.313824" cy="416.686176" r="4.56911849"></circle>
            <circle id="Oval" cx="325.104608" cy="416.686176" r="4.56911849"></circle>
            <circle id="Oval" cx="370.895392" cy="416.686176" r="4.56911849"></circle>
            <circle id="Oval" cx="416.686176" cy="416.686176" r="4.56911849"></circle>
            <circle id="Oval" cx="462.476961" cy="462.476961" r="4.56911849"></circle>
            <circle id="Oval" cx="508.267745" cy="462.476961" r="4.56911849"></circle>
            <circle id="Oval" cx="554.058529" cy="462.476961" r="4.56911849"></circle>
            <circle id="Oval" cx="599.849313" cy="462.476961" r="4.56911849"></circle>
            <circle id="Oval" cx="645.640097" cy="462.476961" r="4.56911849"></circle>
            <circle id="Oval" cx="691.430882" cy="462.476961" r="4.56911849"></circle>
            <circle id="Oval" cx="462.476961" cy="508.267745" r="4.56911849"></circle>
            <circle id="Oval" cx="508.267745" cy="508.267745" r="4.56911849"></circle>
            <circle id="Oval" cx="554.058529" cy="508.267745" r="4.56911849"></circle>
            <circle id="Oval" cx="599.849313" cy="508.267745" r="4.56911849"></circle>
            <circle id="Oval" cx="645.640097" cy="508.267745" r="4.56911849"></circle>
            <circle id="Oval" cx="691.430882" cy="508.267745" r="4.56911849"></circle>
            <circle id="Oval" cx="462.476961" cy="554.058529" r="4.56911849"></circle>
            <circle id="Oval" cx="508.267745" cy="554.058529" r="4.56911849"></circle>
            <circle id="Oval" cx="554.058529" cy="554.058529" r="4.56911849"></circle>
            <circle id="Oval" cx="599.849313" cy="554.058529" r="4.56911849"></circle>
            <circle id="Oval" cx="645.640097" cy="554.058529" r="4.56911849"></circle>
            <circle id="Oval" cx="691.430882" cy="554.058529" r="4.56911849"></circle>
            <circle id="Oval" cx="462.476961" cy="599.849313" r="4.56911849"></circle>
            <circle id="Oval" cx="508.267745" cy="599.849313" r="4.56911849"></circle>
            <circle id="Oval" cx="554.058529" cy="599.849313" r="4.56911849"></circle>
            <circle id="Oval" cx="599.849313" cy="599.849313" r="4.56911849"></circle>
            <circle id="Oval" cx="645.640097" cy="599.849313" r="4.56911849"></circle>
            <circle id="Oval" cx="691.430882" cy="599.849313" r="4.56911849"></circle>
            <circle id="Oval" cx="462.476961" cy="645.640097" r="4.56911849"></circle>
            <circle id="Oval" cx="508.267745" cy="645.640097" r="4.56911849"></circle>
            <circle id="Oval" cx="554.058529" cy="645.640097" r="4.56911849"></circle>
            <circle id="Oval" cx="599.849313" cy="645.640097" r="4.56911849"></circle>
            <circle id="Oval" cx="645.640097" cy="645.640097" r="4.56911849"></circle>
            <circle id="Oval" cx="691.430882" cy="645.640097" r="4.56911849"></circle>
            <circle id="Oval" cx="462.476961" cy="691.430882" r="4.56911849"></circle>
            <circle id="Oval" cx="508.267745" cy="691.430882" r="4.56911849"></circle>
            <circle id="Oval" cx="554.058529" cy="691.430882" r="4.56911849"></circle>
            <circle id="Oval" cx="599.849313" cy="691.430882" r="4.56911849"></circle>
            <circle id="Oval" cx="645.640097" cy="691.430882" r="4.56911849"></circle>
            <circle id="Oval" cx="691.430882" cy="691.430882" r="4.56911849"></circle>
            <circle id="Oval" cx="691.430882" cy="737.849313" r="4.56911849"></circle>
            <circle id="Oval" cx="645.640097" cy="737.849313" r="4.56911849"></circle>
            <circle id="Oval" cx="599.849313" cy="737.849313" r="4.56911849"></circle>
            <circle id="Oval" cx="554.058529" cy="737.849313" r="4.56911849"></circle>
            <circle id="Oval" cx="508.267745" cy="737.849313" r="4.56911849"></circle>
            <circle id="Oval" cx="462.476961" cy="737.849313" r="4.56911849"></circle>
            <circle id="Oval" cx="416.686176" cy="737.849313" r="4.56911849"></circle>
            <circle id="Oval" cx="370.895392" cy="737.849313" r="4.56911849"></circle>
            <circle id="Oval" cx="325.104608" cy="737.849313" r="4.56911849"></circle>
            <circle id="Oval" cx="279.313824" cy="737.849313" r="4.56911849"></circle>
            <circle id="Oval" cx="691.430882" cy="783.640097" r="4.56911849"></circle>
            <circle id="Oval" cx="645.640097" cy="783.640097" r="4.56911849"></circle>
            <circle id="Oval" cx="599.849313" cy="783.640097" r="4.56911849"></circle>
            <circle id="Oval" cx="554.058529" cy="783.640097" r="4.56911849"></circle>
            <circle id="Oval" cx="508.267745" cy="783.640097" r="4.56911849"></circle>
            <circle id="Oval" cx="462.476961" cy="783.640097" r="4.56911849"></circle>
            <circle id="Oval" cx="416.686176" cy="783.640097" r="4.56911849"></circle>
            <circle id="Oval" cx="370.895392" cy="783.640097" r="4.56911849"></circle>
            <circle id="Oval" cx="325.104608" cy="783.640097" r="4.56911849"></circle>
            <circle id="Oval" cx="279.313824" cy="783.640097" r="4.56911849"></circle>
            <circle id="Oval" cx="691.430882" cy="829.430882" r="4.56911849"></circle>
            <circle id="Oval" cx="645.640097" cy="829.430882" r="4.56911849"></circle>
            <circle id="Oval" cx="599.849313" cy="829.430882" r="4.56911849"></circle>
            <circle id="Oval" cx="554.058529" cy="829.430882" r="4.56911849"></circle>
            <circle id="Oval" cx="508.267745" cy="829.430882" r="4.56911849"></circle>
            <circle id="Oval" cx="462.476961" cy="829.430882" r="4.56911849"></circle>
            <circle id="Oval" cx="416.686176" cy="829.430882" r="4.56911849"></circle>
            <circle id="Oval" cx="370.895392" cy="829.430882" r="4.56911849"></circle>
            <circle id="Oval" cx="325.104608" cy="829.430882" r="4.56911849"></circle>
            <circle id="Oval" cx="279.313824" cy="829.430882" r="4.56911849"></circle>
            <circle id="Oval" cx="233.523039" cy="737.849313" r="4.56911849"></circle>
            <circle id="Oval" cx="187.732255" cy="737.849313" r="4.56911849"></circle>
            <circle id="Oval" cx="141.941471" cy="737.849313" r="4.56911849"></circle>
            <circle id="Oval" cx="96.1506869" cy="737.849313" r="4.56911849"></circle>
            <circle id="Oval" cx="50.3599027" cy="737.849313" r="4.56911849"></circle>
            <circle id="Oval" cx="4.56911849" cy="737.849313" r="4.56911849"></circle>
            <circle id="Oval" cx="233.523039" cy="783.640097" r="4.56911849"></circle>
            <circle id="Oval" cx="187.732255" cy="783.640097" r="4.56911849"></circle>
            <circle id="Oval" cx="141.941471" cy="783.640097" r="4.56911849"></circle>
            <circle id="Oval" cx="96.1506869" cy="783.640097" r="4.56911849"></circle>
            <circle id="Oval" cx="50.3599027" cy="783.640097" r="4.56911849"></circle>
            <circle id="Oval" cx="4.56911849" cy="783.640097" r="4.56911849"></circle>
            <circle id="Oval" cx="233.523039" cy="829.430882" r="4.56911849"></circle>
            <circle id="Oval" cx="187.732255" cy="829.430882" r="4.56911849"></circle>
            <circle id="Oval" cx="141.941471" cy="829.430882" r="4.56911849"></circle>
            <circle id="Oval" cx="96.1506869" cy="829.430882" r="4.56911849"></circle>
            <circle id="Oval" cx="50.3599027" cy="829.430882" r="4.56911849"></circle>
            <circle id="Oval" cx="4.56911849" cy="829.430882" r="4.56911849"></circle>
            <circle id="Oval" cx="462.476961" cy="4.56911849" r="4.56911849"></circle>
            <circle id="Oval" cx="508.267745" cy="4.56911849" r="4.56911849"></circle>
            <circle id="Oval" cx="554.058529" cy="4.56911849" r="4.56911849"></circle>
            <circle id="Oval" cx="599.849313" cy="4.56911849" r="4.56911849"></circle>
            <circle id="Oval" cx="645.640097" cy="4.56911849" r="4.56911849"></circle>
            <circle id="Oval" cx="691.430882" cy="4.56911849" r="4.56911849"></circle>
            <circle id="Oval" cx="462.476961" cy="50.3599027" r="4.56911849"></circle>
            <circle id="Oval" cx="508.267745" cy="50.3599027" r="4.56911849"></circle>
            <circle id="Oval" cx="554.058529" cy="50.3599027" r="4.56911849"></circle>
            <circle id="Oval" cx="599.849313" cy="50.3599027" r="4.56911849"></circle>
            <circle id="Oval" cx="645.640097" cy="50.3599027" r="4.56911849"></circle>
            <circle id="Oval" cx="691.430882" cy="50.3599027" r="4.56911849"></circle>
            <circle id="Oval" cx="462.476961" cy="96.1506869" r="4.56911849"></circle>
            <circle id="Oval" cx="508.267745" cy="96.1506869" r="4.56911849"></circle>
            <circle id="Oval" cx="554.058529" cy="96.1506869" r="4.56911849"></circle>
            <circle id="Oval" cx="599.849313" cy="96.1506869" r="4.56911849"></circle>
            <circle id="Oval" cx="645.640097" cy="96.1506869" r="4.56911849"></circle>
            <circle id="Oval" cx="691.430882" cy="96.1506869" r="4.56911849"></circle>
            <circle id="Oval" cx="462.476961" cy="141.941471" r="4.56911849"></circle>
            <circle id="Oval" cx="508.267745" cy="141.941471" r="4.56911849"></circle>
            <circle id="Oval" cx="554.058529" cy="141.941471" r="4.56911849"></circle>
            <circle id="Oval" cx="599.849313" cy="141.941471" r="4.56911849"></circle>
            <circle id="Oval" cx="645.640097" cy="141.941471" r="4.56911849"></circle>
            <circle id="Oval" cx="691.430882" cy="141.941471" r="4.56911849"></circle>
            <circle id="Oval" cx="462.476961" cy="187.732255" r="4.56911849"></circle>
            <circle id="Oval" cx="508.267745" cy="187.732255" r="4.56911849"></circle>
            <circle id="Oval" cx="554.058529" cy="187.732255" r="4.56911849"></circle>
            <circle id="Oval" cx="599.849313" cy="187.732255" r="4.56911849"></circle>
            <circle id="Oval" cx="645.640097" cy="187.732255" r="4.56911849"></circle>
            <circle id="Oval" cx="691.430882" cy="187.732255" r="4.56911849"></circle>
            <circle id="Oval" cx="462.476961" cy="233.523039" r="4.56911849"></circle>
            <circle id="Oval" cx="508.267745" cy="233.523039" r="4.56911849"></circle>
            <circle id="Oval" cx="554.058529" cy="233.523039" r="4.56911849"></circle>
            <circle id="Oval" cx="599.849313" cy="233.523039" r="4.56911849"></circle>
            <circle id="Oval" cx="645.640097" cy="233.523039" r="4.56911849"></circle>
            <circle id="Oval" cx="691.430882" cy="233.523039" r="4.56911849"></circle>
            <circle id="Oval" cx="462.476961" cy="279.313824" r="4.56911849"></circle>
            <circle id="Oval" cx="508.267745" cy="279.313824" r="4.56911849"></circle>
            <circle id="Oval" cx="554.058529" cy="279.313824" r="4.56911849"></circle>
            <circle id="Oval" cx="599.849313" cy="279.313824" r="4.56911849"></circle>
            <circle id="Oval" cx="645.640097" cy="279.313824" r="4.56911849"></circle>
            <circle id="Oval" cx="691.430882" cy="279.313824" r="4.56911849"></circle>
            <circle id="Oval" cx="462.476961" cy="325.104608" r="4.56911849"></circle>
            <circle id="Oval" cx="508.267745" cy="325.104608" r="4.56911849"></circle>
            <circle id="Oval" cx="554.058529" cy="325.104608" r="4.56911849"></circle>
            <circle id="Oval" cx="599.849313" cy="325.104608" r="4.56911849"></circle>
            <circle id="Oval" cx="645.640097" cy="325.104608" r="4.56911849"></circle>
            <circle id="Oval" cx="691.430882" cy="325.104608" r="4.56911849"></circle>
            <circle id="Oval" cx="462.476961" cy="370.895392" r="4.56911849"></circle>
            <circle id="Oval" cx="508.267745" cy="370.895392" r="4.56911849"></circle>
            <circle id="Oval" cx="554.058529" cy="370.895392" r="4.56911849"></circle>
            <circle id="Oval" cx="599.849313" cy="370.895392" r="4.56911849"></circle>
            <circle id="Oval" cx="645.640097" cy="370.895392" r="4.56911849"></circle>
            <circle id="Oval" cx="691.430882" cy="370.895392" r="4.56911849"></circle>
            <circle id="Oval" cx="462.476961" cy="416.686176" r="4.56911849"></circle>
            <circle id="Oval" cx="508.267745" cy="416.686176" r="4.56911849"></circle>
            <circle id="Oval" cx="554.058529" cy="416.686176" r="4.56911849"></circle>
            <circle id="Oval" cx="599.849313" cy="416.686176" r="4.56911849"></circle>
            <circle id="Oval" cx="645.640097" cy="416.686176" r="4.56911849"></circle>
            <circle id="Oval" cx="691.430882" cy="416.686176" r="4.56911849"></circle>
        </g>
    </g>
</svg>