<svg id="Ebene_1" data-name="Ebene 1" xmlns="http://www.w3.org/2000/svg" viewBox="0 0 81 81"><defs><style>.cls-1{fill:#fff;}.cls-2{fill:#a71b31;}.cls-3{fill:#575757;}</style></defs><circle class="cls-1" cx="40.5" cy="40.5" r="40.5"/><path class="cls-2" d="M18.53,51.48H25v-22H18.53Zm8.93,0H40.54v-22H27.46Z"/><polygon class="cls-3" points="62.51 37.02 62.51 29.52 40.54 29.52 40.54 51.48 62.51 51.48 62.51 40.48 51.5 51.48 46.07 46.05 47.8 44.33 51.5 48.03 62.51 37.02"/><path class="cls-3" d="M6.66,51h-.1a.17.17,0,0,0-.06.1,3.17,3.17,0,0,0,.06,1.37,1.49,1.49,0,0,0,1.77,1.14l.1,0c1.63-.5.71-2.74,2-3.14a.87.87,0,0,1,1.13.51s0,.1,0,.15a3.85,3.85,0,0,1,0,1.27v.1s.05,0,.15,0h.41s0,0,0-.1a4.41,4.41,0,0,0,0-1.58,1.61,1.61,0,0,0-1.9-1.22l-.18.06a1.56,1.56,0,0,0-1,1c-.3.81-.15,1.88-1,2.13a.76.76,0,0,1-1-.46.83.83,0,0,1,0-.15,2.9,2.9,0,0,1,0-1.06v-.1S7.06,51,7,51Zm1.47-6.5L5,43.21h-.1s0,.11,0,.11l0,.5v0c0,.05,0,.05.1.1l2.18.77.51.15c-.13.09-.27.17-.41.25l-2,1.27c-.06.05-.11.05-.11.1v.05l.16.46a.1.1,0,0,0,.1.1.14.14,0,0,0,.1,0l2.84-1.93,2.28-.25a.11.11,0,0,0,.1-.1l0-.46a.1.1,0,0,0-.1-.1l-2.33.3ZM5.34,36.06s0-.05-.1-.05a.12.12,0,0,0-.1.05,3.5,3.5,0,0,0-.51,1.27A1.52,1.52,0,0,0,5.8,39.14l.1,0c1.67.2,1.77-2.19,3.14-2a.84.84,0,0,1,.84.86.64.64,0,0,1,0,.2,2.5,2.5,0,0,1-.5,1.17.17.17,0,0,0-.06.1s.06,0,.11.1l.25.15s0,0,.1,0,.1,0,.1,0a3.34,3.34,0,0,0,.61-1.42,1.6,1.6,0,0,0-2.74-1.42c-.61.61-.91,1.63-1.77,1.52-.56,0-.76-.45-.71-1a2.33,2.33,0,0,1,.4-1,.16.16,0,0,0,.05-.1c0-.06-.05-.06-.1-.11l-.25-.15Zm1.88-7.25a.2.2,0,0,0-.06-.15l-.25-.21s0-.05-.1-.05,0,0-.1.05l-1,3.05c-.05.1,0,.1,0,.15l.36.1c.05,0,.1,0,.1-.05l.41-1.17,4.71,1.57s.11,0,.11-.05l.15-.45c0-.05,0-.1-.05-.1L6.81,29.92Zm7.15-4.47c0-.05-.1,0-.15.05l-1,1.68L11.43,25l.81-1.37c0-.1,0-.1-.05-.15l-.31-.2c-.1-.05-.1-.05-.15,0l-.81,1.37-1.57-1,1-1.57a.09.09,0,0,0,0-.13l0,0-.25-.25-.11-.1c0-.06,0,0-.1.05L8.53,23.89c0,.05,0,.1.05.15l4.67,2.84c.05.05.1,0,.15-.05l1.32-2.18c0-.1,0-.1-.05-.15l-.3-.16Zm1.22-9.48a.11.11,0,0,0-.14,0l0,0-.35.35c-.05,0-.05,0,0,.1L16.4,18c.05.1.2.31.3.46h0l-.46-.31-2.68-1.31c-.05-.05-.05-.05-.11,0l-.35.35a.11.11,0,0,0,0,.14h0l3.65,4.06a.11.11,0,0,0,.14,0s0,0,0,0l.36-.35a.11.11,0,0,0,0-.14l0,0L14.37,17.8,14,17.44h0a4.67,4.67,0,0,0,.51.36l2.69,1.37a.09.09,0,0,0,.13,0l0,0,.15-.15c0-.05,0-.05,0-.15l-1.32-2.74a1.6,1.6,0,0,0-.35-.51h0l.35.35,3.1,2.9a.09.09,0,0,0,.13,0h0l.36-.36a.11.11,0,0,0,0-.14h0l-4.21-3.5Zm11.61-4-1.27.56-.25-1.88c-.05-.2-.1-.61-.15-.81h0c.15.2.3.46.45.66l1.22,1.47ZM25.63,7.91a.17.17,0,0,0-.15,0l-.46.2c-.1,0-.1,0-.1.15l.56,5.58v.15c0,.06.05.06.1,0l.45-.2c.11-.05.11-.1.11-.15L25.88,12l1.58-.66,1.06,1.26a.22.22,0,0,0,.15.06l.46-.21c.05-.05.1-.05.1-.1s-.05-.05-.1-.1l-3.5-4.31Zm10.45,2.48c.05-.05.05-.05.05-.1l-.05,0L33.69,8.16l1.42-2.84c0-.05.06-.05.06-.1s-.06,0-.11,0L34.76,5s0,0-.1,0,0,0-.1.1L33,8.26h0l-.5-2.63a.13.13,0,0,0-.1-.11l-.46.11a.1.1,0,0,0-.1.1l1,5.37a.13.13,0,0,0,.1.11l.46-.11a.1.1,0,0,0,.1-.1L33,8.47h0l2.54,2.33a.14.14,0,0,0,.1,0l.1-.1.36-.36Zm6.9-.2c.05,0,.05,0,.05-.1A0,0,0,0,0,43,10L41.15,7.45l2-2.43a.16.16,0,0,0,0-.1c0-.06,0-.06,0-.11l-.25-.2c0-.05,0-.05-.1-.05a.22.22,0,0,0-.11.05L40.49,7.35h0l.15-2.69a.1.1,0,0,0-.1-.1h-.45a.12.12,0,0,0-.11.1l-.25,5.43a.12.12,0,0,0,.1.1h.46a.11.11,0,0,0,.1-.1l.1-2.59h0l1.93,2.84c0,.05,0,.1.1.1s0,0,.1,0ZM48.1,7.91,48.66,6l.61.2c.45.16,1,.36.76,1.22s-.81.81-1.42.66l-.51-.2Zm1.07.86a1.53,1.53,0,0,0,1.47-1.12c.4-1.37-.56-1.72-1.17-1.92l-1.22-.36s-.1,0-.1,0l-1.62,5.23s0,.1,0,.1l.46.15c.05,0,.1,0,.1-.05l.71-2.38.56.15.5,2.89a.12.12,0,0,0,.1.1l.51.05s.1,0,.1-.05v-.1l-.45-2.74Zm6.64,5.07c0-.05,0-.1-.05-.15l-1.72-1,1-1.83,1.42.81c.1,0,.1,0,.15-.05l.21-.3c.05-.1.05-.1,0-.15l-1.43-.82.92-1.57,1.57.91a.1.1,0,0,0,.14,0v0l.26-.25a.31.31,0,0,0,0-.1.16.16,0,0,0,0-.1L56,8s-.1,0-.15.05l-2.69,4.72c-.05.05,0,.1,0,.15l2.19,1.27c.1.05.1.05.15,0l.25-.31Zm3.81,2.39,3-3.35.35.3c.71.66.87,1.27-.35,2.59-1,1.07-1.78,1.57-2.64.76Zm3-4.16a.11.11,0,0,0-.14,0v0L58.8,16.13a.09.09,0,0,0,0,.13s0,0,0,0l.71.66c1.27,1.11,2.34.86,3.66-.56,1.67-1.83,1.06-2.79.2-3.55l-.76-.76ZM65.4,22.52a.11.11,0,0,0,0-.14h0l-.46-.61,3.71-2.64.45.61a.1.1,0,0,0,.14,0h0l.26-.21a.09.09,0,0,0,0-.13s0,0,0,0L68.24,17.6a.1.1,0,0,0-.14,0,0,0,0,0,0,0,0l-.26.2a.1.1,0,0,0,0,.14h0l.46.61-3.7,2.64-.46-.61a.09.09,0,0,0-.13,0s0,0,0,0l-.26.2a.11.11,0,0,0,0,.14h0L65,22.72a.11.11,0,0,0,.14,0s0,0,0,0Zm7.4,3.65s.06.1.16.1h.45s0-.05,0-.1l-1.32-2.94c0-.1-.1-.1-.15-.05l-.35.15c0,.05-.1.05,0,.15L72,24.6l-4.51,2.08c0,.05-.1.05,0,.15l.2.46c0,.05,0,.1.15.05l4.52-2.08.45.91Zm-2.38,7.36a.06.06,0,0,0,0-.11l-.15-.71,4.46-1.06.16.71s0,.1.1,0l.3-.1s.1-.05,0-.1l-.51-2.13c0-.06,0-.11-.1-.06l-.3.11s-.1.05,0,.1l.15.71L70.12,32,70,31.29c0-.05,0-.1-.1-.05l-.3.1a.06.06,0,0,0,0,.11l.5,2.13a.06.06,0,0,0,.11.05Zm.81,6.54a.11.11,0,0,0,.1-.1l0-2,2.08-.05,0,1.62c0,.1,0,.1.1.1h.36c.1,0,.1,0,.1-.1l0-1.62,1.83,0,0,1.82s0,.11.1.11l.35.1h.11s0,0,0-.1l0-2.54a.11.11,0,0,0-.11-.1l-5.42.15a.12.12,0,0,0-.11.1L70.78,40c0,.1,0,.1.1.1ZM73.62,45l1.92.41-.1.6c-.1.46-.25,1-1.11.87s-.92-.76-.76-1.32l.05-.56Zm-.71,1.17a1.64,1.64,0,0,0,1.26,1.37c1.42.3,1.68-.71,1.78-1.32l.25-1.27s0-.1-.1-.1l-5.32-1.07c-.06,0-.11,0-.11.1l-.1.46c0,.05,0,.1.1.1l2.44.51-.1.56-2.84.81a.1.1,0,0,0-.1.1v.51s0,.1.05.1h.1l2.69-.86Zm0,8.57a.17.17,0,0,0,0,.15l.25.2s0,.05.1.05.1,0,.1-.05l1.17-3c0-.1,0-.1,0-.15l-.36-.15a.17.17,0,0,0-.15.05L73.51,53,68.9,51.18a.17.17,0,0,0-.15,0l-.16.46a.22.22,0,0,0,.06.15l4.61,1.82Z"/><path class="cls-2" d="M14.62,62.49l-.76-.91,1.47-.66a3.5,3.5,0,0,1,.61-.31h0a6.45,6.45,0,0,1-.41.56l-.91,1.32Zm-.25,2.08c.05,0,.05,0,0-.1l-.21-.26,2.39-3.75a.09.09,0,0,0,0-.13l0,0L16.3,60c-.06,0-.06,0-.16,0L12,61.68l-.2-.26c-.05-.05-.05-.05-.1,0l-.2.21s0,0,0,.1l.91,1.06c.05.06.05.06.1,0l.2-.2c.06-.05.06-.05,0-.1l-.3-.36.91-.4.92,1.12-.56.81-.31-.36c-.05,0-.05,0-.1,0l-.2.2c0,.06,0,.06,0,.11L14,64.67c.05,0,.05,0,.1,0Zm3,2.94c.05-.05.05-.05,0-.1l-.25-.25.05-1.83,1.57,0,.25.25c.06,0,.11,0,.11,0l.2-.2c.05,0,.05-.1,0-.1l-1-.91c-.06,0-.11,0-.11,0l-.15.2c-.05,0-.05,0,0,.1l.26.25-1.58,0,2.08-2.23a.09.09,0,0,0,0-.13l0,0-.61-.61c-.05,0-.1,0-.1,0l-.2.2c0,.06,0,.11,0,.11l.3.3-2.84,3-.3-.25c-.05,0-.1,0-.1,0l-.21.2c-.05,0-.05.11,0,.11l1,.91c.05,0,.1,0,.1,0l.2-.2c.05-.06.05-.11,0-.11l-.3-.25.86-1-.1,2.18c0,.05,0,.1.05.1l.46.46c.05,0,.05,0,.1,0Zm3.4,2.59c.05,0,.05-.1,0-.1l-.3-.21L20.35,68l1.58-.2.3.2c.05,0,.1,0,.1,0l.15-.2c.05-.06.05-.11,0-.11l-1.06-.81c-.05,0-.1,0-.1,0l-.15.21a.08.08,0,0,0,0,.1h0l.25.2-1.57.25,1.82-2.48a.11.11,0,0,0,0-.14h0L21,64.47c-.05,0-.1,0-.1,0l-.15.2c-.05,0-.05.1,0,.1l.35.26-2.43,3.34-.31-.25c-.05-.05-.1-.05-.1,0l-.15.2c-.05.05-.05.11,0,.11l1.07.76c.05,0,.1,0,.1,0l.15-.21c.05,0,.05-.1,0-.1l-.3-.25.76-1L20,69.79c0,.06,0,.11.05.11l.51.4a.07.07,0,0,0,.1,0h0ZM23,71.47c.05,0,0-.1-.05-.1l-.4-.21,1-1.67c.25,0,.66-.25.86-.15a.31.31,0,0,1,.15.15h.06l.3-.2a.05.05,0,0,0,.05-.05c.05,0-.1-.21-.25-.26-.36-.2-.76,0-1,0,.05-.15.15-.45,0-.55l-.56-.31c-.05,0-.1,0-.1,0l-.15.21c-.05,0,0,.1,0,.1l.31.2c-.05.14-.1.27-.16.41l-1.06,1.77-.36-.2s-.1,0-.1.05l-.15.2c0,.05,0,.1.05.1l1.17.71s.1,0,.1,0l.25-.25Zm2.49-.56c.15-.3.56-.86,1.16-.61s.41.91.26,1.22l-1.42-.61Zm1.11,2v0a1.67,1.67,0,0,1-.91-.1,1,1,0,0,1-.41-1.38.24.24,0,0,1,.06-.09l1.82.86c.05,0,.1,0,.15-.1.26-.56.66-1.63-.4-2.13-.81-.36-1.57.1-2,1a1.53,1.53,0,0,0,.61,2.23,2.21,2.21,0,0,0,1.16.16v-.06l-.05-.35Zm4.21,1.78c0-.06,0-.11-.05-.11l-.4-.1a.63.63,0,0,1,.1-.4l1.27-3.86s0-.1-.05-.1l-.87-.25c-.05,0-.1,0-.1,0l-.1.25s0,.1.05.1l.41.15-.41,1.32a1.5,1.5,0,0,0-.76-.5c-.81-.26-1.37.45-1.67,1.37s-.21,1.72.5,2a1.74,1.74,0,0,0,1.17,0c0,.1-.05.31.15.36l.61.2c.05,0,.1,0,.1-.05l.05-.35ZM30,74a1.24,1.24,0,0,1-1,.11c-.51-.16-.41-.82-.21-1.37s.51-1.27,1.07-1.07a1.14,1.14,0,0,1,.71.46L30,74Zm3.45,1.32s0-.1,0-.1l-.51-.1.61-2.74s0-.1-.05-.1l-1-.2s-.1,0-.1,0l-.06.25c0,.05,0,.1.06.1l.55.1L32.43,75l-.51-.1c-.05,0-.1,0-.1,0l-.05.25s0,.1.05.1l1.52.31s.1,0,.1,0Zm.46-4.21a.44.44,0,0,0-.31-.5.41.41,0,0,0-.5.3.42.42,0,0,0,.3.51A.45.45,0,0,0,33.9,71.11Zm2.74,4.57c0-.05,0-.05,0,0s-.41.1-.76,0-.36-.36-.36-.61l.25-2,.92.15c.05,0,.1,0,.1-.05l.15-.25v0a0,0,0,0,0,0,0l-1-.15L36,71.67v-.1H36l-.41.05a.19.19,0,0,0-.1,0l-.15,1-.51-.06a.06.06,0,0,0-.05.06l0,.25s0,.1,0,.1l.51.05L35,75a1,1,0,0,0,.1.81.91.91,0,0,0,.61.36,1.56,1.56,0,0,0,1-.16v0l0-.3Zm2.69.35s0-.1-.11-.1h-.5l.1-2.79s0-.1-.1-.1l-1-.05c-.05,0-.1,0-.1.1v.26c0,.05,0,.1.1.1h.56l-.1,2.48h-.51s-.1,0-.1.1v.26s0,.1.1.1l1.52,0s.1,0,.1-.1l.06-.31ZM39,71.77a.43.43,0,0,0-.41-.45.43.43,0,0,0-.45.4.44.44,0,0,0,.4.46A.53.53,0,0,0,39,71.77Zm1.88,2.64c0-.35.1-1,.76-1.06s.76.6.76,1Zm1.93,1.27h0c-.11-.05-.46.25-.92.25-.81,0-1-.71-1-1.16l2-.11c.1,0,0,0,0-.15,0-.61-.15-1.72-1.37-1.67-.86,0-1.37.81-1.32,1.82s.61,1.73,1.57,1.73A1.7,1.7,0,0,0,43,76v0l-.15-.25Zm2.94-.05s-.05-.1-.1,0l-.46,0L45,73.7c.15-.2.35-.61.55-.61a1.09,1.09,0,0,1,.26,0,0,0,0,0,0,0,0l.1-.35v0s-.2-.11-.36,0c-.4,0-.6.45-.76.71,0-.16-.15-.46-.35-.46l-.61.1c-.05,0-.1.05-.05.1l.05.26c0,.05,0,.1.1.05l.36-.05c.05.1.1.3.15.4l.3,2-.4,0c-.05,0-.1,0-.05.1l.05.26s0,.1.1,0L45.82,76s.1,0,0-.1l-.1-.3Zm4.82-1s-.05,0-.1,0l-.41.1c0-.15-.1-.25-.15-.4l-.56-2.33c0-.06,0-.06-.1-.06l-.81.21c-.05,0-.05,0-.05.1l.05.25s0,0,.1,0l.4-.1.51,2.13a1.94,1.94,0,0,1-.71.56.51.51,0,0,1-.67-.26.54.54,0,0,1,0-.15l-.56-2.28s-.05,0-.1,0l-.81.2s0,0,0,.11l0,.25s.05,0,.1,0l.41-.1.45,1.93c.1.5.31,1,1.27.76a1.67,1.67,0,0,0,.86-.61s.16.3.36.25l.56-.15s0,0,0-.1l0-.31Zm4.16-1.52s0,0-.11,0l-.35.15-.71-1.82c-.2-.46-.41-1-1.17-.66a1.9,1.9,0,0,0-.91.86c0-.1-.2-.3-.36-.25l-.65.25c-.06,0-.06.05-.06.1l.11.26s.05,0,.1,0l.35-.16a1.59,1.59,0,0,1,.21.41l.71,1.93-.36.15s0,0,0,.1l.1.25c0,.06,0,.06.1.06L53,74.26c.05,0,.05-.05.05-.1l-.1-.26c0-.05-.05-.05-.1-.05l-.36.15-.76-2a1.33,1.33,0,0,1,.71-.71c.36-.16.51.1.61.35l.81,2.18c0,.05.05.05.1.05l.82-.3s0,0,0-.1l0-.41ZM57,69.64a.89.89,0,0,1-.15-.5v-.31h-.46s0,.15,0,.36a1.41,1.41,0,0,0-.86.1c-.82.4-.82,1.27-.31,2.23s1.12,1.17,1.68.86a1.41,1.41,0,0,0,.66-.76,4.59,4.59,0,0,1,.35.61c.15.35.3.71-.3,1a2.35,2.35,0,0,1-1,.21s0,0,0,0v.35c0,.1.76,0,1.22-.2a1.09,1.09,0,0,0,.64-1.42A1.19,1.19,0,0,0,58.3,72c-.16-.36-.61-1-.76-1.37l-.56-1Zm.25,1.58a2.13,2.13,0,0,1-.56.71c-.4.2-.76-.16-1.11-.77s-.36-1.16.15-1.42a1.26,1.26,0,0,1,.66-.15l.86,1.63Zm2-3.1c.05,0,.05,0,.1,0l.26-.15c.05,0,.05,0,0-.1l-.36-.51s0,0-.15,0a1.81,1.81,0,0,0-.81.3,1,1,0,0,0-.37,1.32L58,69c.61.87,1.78-.15,2.23.46a.49.49,0,0,1-.14.7h0a3.26,3.26,0,0,1-.61.25l-.25-.35c-.05,0-.05,0-.1,0l-.26.15c-.05,0-.05,0,0,.1l.36.56c.1.1.71-.1,1.07-.3a1,1,0,0,0,.41-1.38l-.06-.09c-.61-.92-1.78.15-2.23-.46a.45.45,0,0,1,.15-.66,2.63,2.63,0,0,1,.41-.2Zm3.91-.25c-.05-.05-.05-.05-.1,0l-.36.25L61.49,66.6a1.67,1.67,0,0,1,.15-.86c.11-.1.21,0,.21-.1v-.06l-.1-.35v0c0-.05-.21,0-.36.1-.3.25-.25.71-.3,1-.1-.1-.36-.3-.51-.2l-.51.41s0,0,0,.1l.15.2c.06,0,.06,0,.11,0l.3-.25a2,2,0,0,1,.36.3l1.26,1.57-.3.26c-.05.05-.05.05,0,.1l.15.2s0,0,.1,0l1.07-.86s0,0,0-.1l-.1-.1ZM62.81,65h0a2.32,2.32,0,0,1,.46-.77.51.51,0,0,1,.7-.16.61.61,0,0,1,.16.16l.15.21c-.3.3-1.32,1.32-.45,2.18a.84.84,0,0,0,1.17.19l.15-.14a1.46,1.46,0,0,0,.4-1.07c.1.06.31.21.46.11l.4-.41c.05,0,.05-.1,0-.1l-.2-.2c-.05-.06-.1-.06-.1,0l-.25.25a1.26,1.26,0,0,1-.56-.46l-.92-1c-.4-.41-.86-.51-1.47,0-.3.3-.66.91-.55,1a.12.12,0,0,0,.1,0l.3.06Zm2.49.4a1.26,1.26,0,0,1-.26.86.5.5,0,0,1-.71,0s0,0,0,0c-.5-.5.21-1.21.41-1.42l.61.61Zm3-2.94h-.05a3.93,3.93,0,0,1-.3.66c-.26.3-.51.15-.72-.05L65.7,61.78l.61-.71s0-.1,0-.1l-.15-.26a.05.05,0,0,0,0-.05s0,0-.1.05l-.66.82-.81-.71c-.05,0-.05,0-.11,0a.05.05,0,0,1-.05,0l-.15.35v.1l.71.61-.35.41s0,0,0,.1l.2.15s0,0,.1,0l.36-.4,1.52,1.26a1.38,1.38,0,0,0,.71.36.91.91,0,0,0,.61-.36c.25-.3.45-.81.35-.86a.05.05,0,0,1,0-.05l-.15-.1Z"/></svg>