<?xml version="1.0" encoding="UTF-8"?>
<svg id="Ebene_1" xmlns="http://www.w3.org/2000/svg" viewBox="0 0 24 24">
  <defs>
    <style>
      .cls-1 {
        fill: #fff;
      }

      .cls-2 {
        fill: #0271bb;
      }
    </style>
  </defs>
  <circle class="cls-1" cx="12" cy="12" r="12"/>
  <path class="cls-2" d="M12,11.27c-.66-1.29-2.46-3.68-4.13-4.86-1.6-1.13-2.21-.94-2.61-.75-.46.21-.55.92-.55,1.34s.23,3.44.38,3.94c.5,1.66,2.26,2.23,3.88,2.05.08-.01.17-.02.25-.03-.09.01-.17.02-.25.03-2.38.35-4.49,1.22-1.72,4.31,3.05,3.16,4.18-.68,4.76-2.62.58,1.94,1.25,5.64,4.7,2.62,2.59-2.62.71-3.95-1.67-4.31-.09,0-.17-.02-.25-.03.09,0,.17.02.25.03,1.62.18,3.38-.38,3.88-2.05.15-.5.38-3.52.38-3.94s-.09-1.13-.55-1.34c-.4-.18-1.01-.38-2.61.75-1.67,1.18-3.47,3.58-4.13,4.86,0,0,0,0,0,0Z"/>
</svg>