<?xml version="1.0" encoding="UTF-8"?>
<svg id="Ebene_1" data-name="Ebene 1" xmlns="http://www.w3.org/2000/svg" viewBox="0 0 81 81">
  <defs>
    <style>
      .cls-1 {
        fill: #1e5466;
      }

      .cls-1, .cls-2, .cls-3 {
        stroke-width: 0px;
      }

      .cls-2 {
        fill: #195365;
      }

      .cls-3 {
        fill: #fff;
      }
    </style>
  </defs>
  <rect class="cls-3" width="81" height="81"/>
  <g>
    <path class="cls-2" d="M17.41,68.61h1.38c.06,0,.1.05.1.1v.45c0,.05-.04.1-.1.1h-2.31c-.05,0-.1-.05-.1-.1,0-.06,0-.1.04-.17l1.57-2.84v-.02h-1.35c-.05,0-.1-.05-.1-.1v-.45c0-.05.05-.1.1-.1h2.26c.05,0,.1.05.1.1,0,.03,0,.07-.05.16l-1.54,2.86h0Z"/>
    <path class="cls-2" d="M19.83,65.58c0-.05.04-.1.1-.1h2.2c.06,0,.1.05.1.1v.44c0,.05-.04.1-.1.1h-1.6v.89h1.34c.05,0,.1.05.1.1v.45c0,.06-.05.1-.1.1h-1.34v.95h1.6c.06,0,.1.05.1.1v.44c0,.05-.04.1-.1.1h-2.2c-.06,0-.1-.05-.1-.1v-3.58h0Z"/>
    <path class="cls-2" d="M24.75,67.2c.29,0,.54-.25.54-.55,0-.29-.25-.53-.54-.53h-.88v1.08h.88ZM23.16,65.58c0-.05.04-.1.1-.1h1.55c.65,0,1.18.52,1.18,1.16,0,.5-.33.9-.8,1.09l.74,1.37c.04.07,0,.16-.09.16h-.57s-.08-.03-.09-.05l-.72-1.43h-.6v1.38c0,.05-.05.1-.1.1h-.5c-.06,0-.1-.05-.1-.1v-3.58h0Z"/>
    <path class="cls-2" d="M27.56,66.13h-.83c-.06,0-.1-.05-.1-.1v-.44c0-.05.04-.1.1-.1h2.37c.06,0,.1.05.1.1v.44c0,.05-.04.1-.1.1h-.83v3.04c0,.05-.05.1-.1.1h-.5c-.05,0-.1-.05-.1-.1v-3.04h0Z"/>
    <path class="cls-2" d="M30.01,65.58c0-.05.05-.1.1-.1h.5c.05,0,.1.05.1.1v3.58c0,.05-.05.1-.1.1h-.5c-.05,0-.1-.05-.1-.1v-3.58h0Z"/>
    <path class="cls-2" d="M31.86,65.58c0-.05.04-.1.1-.1h2.2c.06,0,.1.05.1.1v.44c0,.05-.04.1-.1.1h-1.6v1.02h1.34c.05,0,.1.05.1.1v.44c0,.05-.05.1-.1.1h-1.34v1.37c0,.05-.05.1-.1.1h-.5c-.06,0-.1-.05-.1-.1v-3.58h0Z"/>
    <path class="cls-2" d="M35.09,65.58c0-.05.05-.1.1-.1h.5c.05,0,.1.05.1.1v3.58c0,.05-.05.1-.1.1h-.5c-.05,0-.1-.05-.1-.1v-3.58h0Z"/>
    <path class="cls-2" d="M36.94,65.61c0-.07.05-.13.13-.13h.48c.07,0,.13.06.13.13v1.46l1.36-1.54s.05-.05.1-.05h.54c.1,0,.16.11.09.19l-1.41,1.59,1.52,1.81c.05.07.01.19-.1.19h-.59c-.05,0-.09-.02-.1-.04l-1.41-1.74v1.65c0,.07-.06.13-.13.13h-.48c-.08,0-.13-.06-.13-.13v-3.53h0Z"/>
    <path class="cls-2" d="M42.51,67.97l-.54-1.19h-.02l-.53,1.19h1.09ZM40.18,69.13l1.68-3.64s.04-.06.09-.06h.05c.05,0,.08.03.09.06l1.67,3.64c.03.07-.01.14-.09.14h-.47c-.08,0-.12-.03-.16-.11l-.27-.58h-1.62l-.27.58c-.02.05-.07.11-.16.11h-.47c-.08,0-.12-.07-.09-.14h0Z"/>
    <path class="cls-2" d="M44.82,66.13h-.83c-.06,0-.1-.05-.1-.1v-.44c0-.05.04-.1.1-.1h2.37c.06,0,.1.05.1.1v.44c0,.05-.04.1-.1.1h-.83v3.04c0,.05-.05.1-.1.1h-.5c-.05,0-.1-.05-.1-.1v-3.04h0Z"/>
    <path class="cls-2" d="M49.67,68.67h1.19c.06,0,.11.05.11.1v.38c0,.06-.05.11-.11.11h-2.2c-.06,0-.1-.05-.1-.11v-.05c0-.06.03-.1.04-.12.38-.47,1.04-1.33,1.4-1.8.17-.21.28-.43.28-.62,0-.25-.19-.5-.59-.5-.27,0-.5.19-.62.32-.05.05-.11.05-.15,0l-.27-.27s-.04-.1,0-.15c0,0,.44-.55,1.1-.55.8,0,1.24.51,1.24,1.11,0,.36-.16.58-.37.9-.23.34-.65.85-.95,1.23h0Z"/>
    <path class="cls-2" d="M53.98,67.37c0-.83-.27-1.3-.7-1.3s-.7.48-.7,1.3.27,1.31.7,1.31.7-.48.7-1.31h0ZM51.87,67.37c0-1.22.51-1.95,1.4-1.95s1.41.72,1.41,1.95-.51,1.95-1.41,1.95-1.4-.73-1.4-1.95h0Z"/>
    <path class="cls-2" d="M56.56,68.67h1.19c.06,0,.11.05.11.1v.38c0,.06-.05.11-.11.11h-2.2c-.06,0-.1-.05-.1-.11v-.05c0-.06.03-.1.04-.12.38-.47,1.04-1.33,1.4-1.8.17-.21.28-.43.28-.62,0-.25-.19-.5-.59-.5-.27,0-.5.19-.62.32-.05.05-.11.05-.15,0l-.27-.27s-.04-.1,0-.15c0,0,.44-.55,1.1-.55.8,0,1.24.51,1.24,1.11,0,.36-.16.58-.37.9-.23.34-.65.85-.95,1.23h0Z"/>
    <path class="cls-2" d="M59.34,67.9h1.1v-1.35h-.01l-1.09,1.34h0ZM58.59,68.35v-.35c0-.08.02-.14.07-.19l1.92-2.33s.07-.06.14-.06h.27c.06,0,.11.05.11.11v2.35h.44c.06,0,.11.04.11.1v.37c0,.05-.04.11-.11.11h-.44v.7c0,.06-.04.11-.1.11h-.46c-.05,0-.11-.05-.11-.11v-.7h-1.72c-.06,0-.11-.05-.11-.11h0Z"/>
    <path class="cls-2" d="M28.17,43.69c.35,0,.66-.3.66-.67,0-.35-.31-.64-.66-.64h-.96v1.32h.96ZM26.64,41.95c0-.05.04-.1.1-.1h1.47c.65,0,1.18.51,1.18,1.16,0,.5-.33.91-.8,1.1l.74,1.37c.04.07,0,.16-.09.16h-.41c-.06,0-.09-.03-.11-.07l-.71-1.41h-.82v1.38c0,.05-.05.1-.1.1h-.35c-.06,0-.1-.05-.1-.1v-3.58h0Z"/>
    <path class="cls-2" d="M30.4,41.95c0-.05.04-.1.1-.1h2.16c.06,0,.1.05.1.1v.3c0,.05-.04.1-.1.1h-1.71v1.1h1.45c.05,0,.1.05.1.1v.3c0,.06-.05.1-.1.1h-1.45v1.16h1.71c.06,0,.1.05.1.1v.3c0,.05-.04.1-.1.1h-2.16c-.06,0-.1-.05-.1-.1v-3.58h0Z"/>
    <path class="cls-2" d="M33.57,43.94v-.23c0-.06.04-.1.1-.1h1.17c.06,0,.1.04.1.1v.23c0,.05-.04.1-.1.1h-1.17c-.06,0-.1-.04-.1-.1h0Z"/>
    <path class="cls-2" d="M37.87,44.35l-.67-1.48h-.03l-.66,1.48h1.35ZM35.41,45.5l1.66-3.64s.07-.06.09-.06h.05s.08.03.09.06l1.65,3.64c.03.07-.01.14-.09.14h-.34c-.06,0-.1-.03-.12-.08l-.34-.74h-1.77l-.33.74s-.06.08-.12.08h-.34c-.08,0-.12-.07-.09-.14h0Z"/>
    <path class="cls-2" d="M39.58,41.95c0-.05.05-.1.1-.1h.36c.06,0,.1.05.1.1v2.28c0,.54.35.92.9.92s.91-.37.91-.91v-2.29c0-.05.04-.1.1-.1h.36c.05,0,.1.05.1.1v2.32c0,.82-.62,1.42-1.48,1.42s-1.47-.6-1.47-1.42v-2.32h0Z"/>
    <path class="cls-2" d="M44.96,45.13c.8,0,1.36-.58,1.36-1.39s-.56-1.37-1.36-1.37h-.73v2.76h.73ZM43.68,41.95c0-.05.04-.1.1-.1h1.24c1.04,0,1.9.85,1.9,1.89s-.86,1.9-1.9,1.9h-1.24c-.05,0-.1-.05-.1-.1v-3.58h0Z"/>
    <path class="cls-2" d="M47.9,41.95c0-.05.05-.1.1-.1h.36c.05,0,.1.05.1.1v3.58c0,.05-.05.1-.1.1h-.36c-.05,0-.1-.05-.1-.1v-3.58h0Z"/>
    <path class="cls-2" d="M50.29,42.36h-.88c-.06,0-.1-.05-.1-.1v-.3c0-.05.04-.1.1-.1h2.33c.06,0,.1.05.1.1v.3c0,.05-.04.1-.1.1h-.88v3.18c0,.05-.05.1-.1.1h-.36c-.05,0-.1-.05-.1-.1v-3.18h0Z"/>
    <path class="cls-2" d="M7.61,52.85c.8,0,1.36-.58,1.36-1.39s-.56-1.37-1.36-1.37h-.73v2.76h.73ZM6.33,49.68c0-.05.04-.1.1-.1h1.24c1.04,0,1.9.85,1.9,1.89s-.86,1.9-1.9,1.9h-1.24c-.05,0-.1-.05-.1-.1v-3.58h0Z"/>
    <path class="cls-2" d="M10.54,49.68c0-.05.04-.1.1-.1h2.16c.06,0,.1.05.1.1v.3c0,.05-.04.1-.1.1h-1.71v1.1h1.45c.05,0,.1.05.1.1v.3c0,.06-.05.1-.1.1h-1.45v1.16h1.71c.06,0,.1.05.1.1v.3c0,.05-.04.1-.1.1h-2.16c-.06,0-.1-.05-.1-.1v-3.58h0Z"/>
    <path class="cls-2" d="M13.64,52.82l.14-.22c.04-.07.12-.09.18-.04.25.21.45.37.87.37.37,0,.61-.23.61-.5,0-.32-.28-.53-.82-.75-.55-.23-.99-.52-.99-1.15,0-.42.32-1,1.19-1,.54,0,.95.28,1,.32.04.03.09.1.03.18l-.14.21c-.04.07-.11.1-.19.05-.21-.14-.42-.27-.73-.27-.45,0-.61.29-.61.49,0,.31.24.5.69.68.63.25,1.16.55,1.16,1.21,0,.56-.5,1.02-1.21,1.02-.66,0-1.08-.35-1.16-.43-.05-.04-.09-.08-.03-.17h0Z"/>
    <path class="cls-2" d="M18.28,52.82l.14-.22c.04-.07.12-.09.18-.04.25.21.45.37.87.37.37,0,.61-.23.61-.5,0-.32-.28-.53-.82-.75-.55-.23-.98-.52-.98-1.15,0-.42.32-1,1.19-1,.54,0,.95.28,1,.32.04.03.09.1.03.18l-.14.21c-.04.07-.11.1-.19.05-.21-.14-.42-.27-.73-.27-.45,0-.61.29-.61.49,0,.31.24.5.69.68.63.25,1.16.55,1.16,1.21,0,.56-.5,1.02-1.21,1.02-.66,0-1.08-.35-1.16-.43-.05-.04-.09-.08-.03-.17h0Z"/>
    <path class="cls-2" d="M22.26,50.09h-.88c-.06,0-.1-.05-.1-.1v-.3c0-.05.04-.1.1-.1h2.33c.06,0,.1.05.1.1v.3c0,.05-.04.1-.1.1h-.88v3.18c0,.05-.05.1-.1.1h-.36c-.05,0-.1-.05-.1-.1v-3.18h0Z"/>
    <path class="cls-2" d="M24.65,49.68c0-.05.05-.1.1-.1h.36c.05,0,.1.05.1.1v3.58c0,.05-.05.1-.1.1h-.36c-.05,0-.1-.05-.1-.1v-3.58h0Z"/>
    <path class="cls-2" d="M26.42,49.68c0-.05.04-.1.1-.1h2.16c.06,0,.1.05.1.1v.3c0,.05-.04.1-.1.1h-1.71v1.25h1.45c.05,0,.1.05.1.1v.3c0,.05-.05.1-.1.1h-1.45v1.42c0,.05-.05.1-.1.1h-.35c-.06,0-.1-.05-.1-.1v-3.58h0Z"/>
    <path class="cls-2" d="M30.28,50.09h-.88c-.06,0-.1-.05-.1-.1v-.3c0-.05.04-.1.1-.1h2.33c.06,0,.1.05.1.1v.3c0,.05-.04.1-.1.1h-.88v3.18c0,.05-.05.1-.1.1h-.36c-.05,0-.1-.05-.1-.1v-3.18h0Z"/>
    <path class="cls-2" d="M32.68,49.68c0-.05.04-.1.1-.1h2.16c.06,0,.1.05.1.1v.3c0,.05-.04.1-.1.1h-1.71v1.1h1.45c.05,0,.1.05.1.1v.3c0,.06-.05.1-.1.1h-1.45v1.16h1.71c.06,0,.1.05.1.1v.3c0,.05-.04.1-.1.1h-2.16c-.06,0-.1-.05-.1-.1v-3.58h0Z"/>
    <path class="cls-2" d="M37.54,51.42c.35,0,.66-.3.66-.67,0-.35-.31-.64-.66-.64h-.96v1.32h.96ZM36.01,49.68c0-.05.04-.1.1-.1h1.47c.65,0,1.18.51,1.18,1.16,0,.5-.33.91-.8,1.1l.74,1.37c.04.07,0,.16-.09.16h-.41c-.06,0-.09-.03-.11-.07l-.71-1.41h-.82v1.38c0,.05-.05.1-.1.1h-.35c-.06,0-.1-.05-.1-.1v-3.58h0Z"/>
    <path class="cls-2" d="M39.27,49.72c-.03-.07.01-.14.09-.14h.38s.08.03.09.06l1.19,2.68h.03l1.2-2.68s.04-.06.09-.06h.38c.08,0,.12.07.09.14l-1.66,3.64s-.05.06-.09.06h-.05s-.08-.03-.09-.06l-1.65-3.64h0Z"/>
    <path class="cls-2" d="M43.55,49.68c0-.05.04-.1.1-.1h2.16c.06,0,.1.05.1.1v.3c0,.05-.04.1-.1.1h-1.71v1.1h1.45c.05,0,.1.05.1.1v.3c0,.06-.05.1-.1.1h-1.45v1.16h1.71c.06,0,.1.05.1.1v.3c0,.05-.04.1-.1.1h-2.16c-.06,0-.1-.05-.1-.1v-3.58h0Z"/>
    <path class="cls-2" d="M48.42,51.42c.35,0,.66-.3.66-.67,0-.35-.31-.64-.66-.64h-.96v1.32h.96ZM46.88,49.68c0-.05.04-.1.1-.1h1.47c.65,0,1.18.51,1.18,1.16,0,.5-.33.91-.8,1.1l.74,1.37c.04.07,0,.16-.09.16h-.41c-.06,0-.09-.03-.11-.07l-.71-1.41h-.82v1.38c0,.05-.05.1-.1.1h-.35c-.06,0-.1-.05-.1-.1v-3.58h0Z"/>
    <path class="cls-2" d="M51.91,51.23c.35,0,.58-.24.58-.58s-.23-.56-.58-.56h-.71v1.14h.71ZM52.04,52.87c.37,0,.56-.25.56-.59s-.25-.57-.56-.57h-.84v1.16h.84ZM52.56,51.45c.32.12.64.39.64.88,0,.61-.5,1.04-1.18,1.04h-1.27c-.06,0-.1-.05-.1-.1v-3.58c0-.05.04-.1.1-.1h1.21c.65,0,1.13.43,1.13,1,0,.41-.23.71-.52.85h0Z"/>
    <path class="cls-2" d="M56.17,52.08l-.67-1.48h-.03l-.66,1.48h1.35ZM53.72,53.23l1.66-3.64s.07-.06.09-.06h.05s.08.03.09.06l1.65,3.64c.03.07-.01.14-.09.14h-.34c-.06,0-.1-.03-.12-.08l-.34-.74h-1.77l-.33.74s-.06.08-.12.08h-.34c-.08,0-.12-.07-.09-.14h0Z"/>
    <path class="cls-2" d="M58.01,49.62c0-.05.05-.1.1-.1h.04c.05,0,.09,0,.16.08l2.27,2.64h.01v-2.56c0-.05.04-.1.1-.1h.35c.05,0,.1.05.1.1v3.64c0,.05-.05.1-.1.1h-.05c-.05,0-.09,0-.16-.08l-2.28-2.72h-.01v2.64c0,.05-.04.1-.1.1h-.34c-.05,0-.1-.05-.1-.1v-3.64h0Z"/>
    <path class="cls-2" d="M63.64,52.85c.8,0,1.36-.58,1.36-1.39s-.56-1.37-1.36-1.37h-.73v2.76h.73ZM62.35,49.68c0-.05.04-.1.1-.1h1.24c1.04,0,1.9.85,1.9,1.89s-.86,1.9-1.9,1.9h-1.24c-.05,0-.1-.05-.1-.1v-3.58h0Z"/>
    <path class="cls-2" d="M66.57,49.68c0-.05.04-.1.1-.1h2.16c.06,0,.1.05.1.1v.3c0,.05-.04.1-.1.1h-1.71v1.1h1.45c.05,0,.1.05.1.1v.3c0,.06-.05.1-.1.1h-1.45v1.16h1.71c.06,0,.1.05.1.1v.3c0,.05-.04.1-.1.1h-2.16c-.06,0-.1-.05-.1-.1v-3.58h0Z"/>
    <path class="cls-2" d="M69.66,52.82l.14-.22c.04-.07.12-.09.18-.04.25.21.45.37.87.37.37,0,.61-.23.61-.5,0-.32-.28-.53-.82-.75-.55-.23-.98-.52-.98-1.15,0-.42.32-1,1.19-1,.54,0,.95.28,1,.32.04.03.09.1.03.18l-.14.21c-.04.07-.11.1-.19.05-.21-.14-.42-.27-.73-.27-.45,0-.61.29-.61.49,0,.31.24.5.69.68.63.25,1.16.55,1.16,1.21,0,.56-.5,1.02-1.21,1.02-.66,0-1.08-.35-1.16-.43-.05-.04-.09-.08-.03-.17h0Z"/>
    <path class="cls-2" d="M14.45,15.73c-.06-.13.02-.27.17-.27h1.05c.09,0,.15.06.18.11l1.99,4.43h.05l1.99-4.43c.02-.05.08-.11.18-.11h1.05c.15,0,.24.13.17.27l-3.19,6.93c-.03.06-.08.11-.17.11h-.1c-.09,0-.14-.05-.18-.11l-3.18-6.93h0Z"/>
    <path class="cls-2" d="M23,15.65c0-.1.09-.2.2-.2h.96c.1,0,.2.09.2.2v6.82c0,.1-.09.2-.2.2h-.96c-.1,0-.2-.09-.2-.2v-6.82h0Z"/>
    <path class="cls-2" d="M26.92,15.65c0-.1.08-.2.2-.2h4.19c.11,0,.2.09.2.2v.84c0,.1-.08.2-.2.2h-3.05v1.69h2.54c.1,0,.2.09.2.2v.85c0,.11-.09.2-.2.2h-2.54v1.8h3.05c.11,0,.2.09.2.2v.84c0,.1-.08.2-.2.2h-4.19c-.11,0-.2-.09-.2-.2v-6.82h0Z"/>
    <path class="cls-2" d="M33.68,15.65c0-.1.08-.2.2-.2h.95c.1,0,.2.09.2.2v5.78h2.63c.11,0,.2.09.2.2v.84c0,.1-.08.2-.2.2h-3.77c-.11,0-.2-.09-.2-.2v-6.82h0Z"/>
    <path class="cls-2" d="M39.71,15.65c0-.1.08-.2.2-.2h4.19c.11,0,.2.09.2.2v.84c0,.1-.08.2-.2.2h-3.05v1.94h2.54c.1,0,.2.09.2.2v.84c0,.1-.09.2-.2.2h-2.54v2.61c0,.1-.09.2-.2.2h-.95c-.11,0-.2-.09-.2-.2v-6.82h0Z"/>
    <path class="cls-2" d="M49.39,20.21l-1.03-2.27h-.03l-1.01,2.27h2.07ZM44.94,22.4l3.2-6.93c.03-.06.08-.11.18-.11h.1c.1,0,.14.05.18.11l3.17,6.93c.06.13-.02.27-.17.27h-.9c-.15,0-.23-.06-.3-.21l-.5-1.11h-3.08l-.5,1.11c-.04.1-.13.21-.3.21h-.9c-.15,0-.24-.13-.18-.27h0Z"/>
    <path class="cls-2" d="M53.5,15.65c0-.1.08-.2.2-.2h.95c.1,0,.2.09.2.2v5.78h2.63c.11,0,.2.09.2.2v.84c0,.1-.08.2-.2.2h-3.77c-.11,0-.2-.09-.2-.2v-6.82h0Z"/>
    <path class="cls-2" d="M60.29,16.69h-1.58c-.11,0-.2-.09-.2-.2v-.84c0-.1.08-.2.2-.2h4.5c.11,0,.2.09.2.2v.84c0,.1-.08.2-.2.2h-1.58v5.78c0,.1-.09.2-.2.2h-.96c-.1,0-.2-.09-.2-.2v-5.78h0Z"/>
    <path class="cls-2" d="M12.53,29.1c.93,0,1.81.36,2.51.96.08.08.09.21.01.29l-.64.67c-.08.08-.18.08-.27,0-.44-.39-.99-.6-1.56-.6-1.29,0-2.31,1.1-2.31,2.39s1.02,2.36,2.32,2.36c.58,0,1.02-.18,1.23-.26v-.88h-.82c-.11,0-.2-.08-.2-.19v-.81c0-.11.08-.2.2-.2h1.98c.1,0,.19.09.19.2v2.64c0,.08-.04.13-.08.16,0,0-1.06.67-2.55.67-2.05,0-3.7-1.63-3.7-3.69s1.65-3.72,3.7-3.72h0Z"/>
    <path class="cls-2" d="M17.48,29.39c0-.1.08-.2.2-.2h4.19c.11,0,.2.09.2.2v.84c0,.1-.08.2-.2.2h-3.05v1.69h2.54c.1,0,.2.09.2.2v.85c0,.11-.09.2-.2.2h-2.54v1.8h3.05c.11,0,.2.09.2.2v.84c0,.1-.08.2-.2.2h-4.19c-.11,0-.2-.09-.2-.2v-6.82h0Z"/>
    <path class="cls-2" d="M23.89,35.71c-.1-.08-.14-.14-.05-.31l.37-.64c.08-.14.26-.14.35-.07.42.32.89.64,1.56.64.54,0,.94-.35.94-.79,0-.53-.44-.89-1.31-1.24-.97-.39-1.94-1.01-1.94-2.23,0-.92.68-1.98,2.32-1.98,1.05,0,1.85.54,2.06.69.1.06.13.24.06.34l-.39.59c-.08.12-.24.21-.36.12-.44-.28-.87-.57-1.43-.57s-.91.33-.91.72c0,.48.38.81,1.22,1.15,1,.4,2.15,1,2.15,2.33,0,1.06-.92,2.04-2.37,2.04-1.3,0-1.97-.55-2.27-.8h0Z"/>
    <path class="cls-2" d="M31.79,30.44h-1.58c-.11,0-.2-.09-.2-.2v-.84c0-.1.08-.2.2-.2h4.5c.11,0,.2.09.2.2v.84c0,.1-.08.2-.2.2h-1.58v5.78c0,.1-.09.2-.2.2h-.96c-.1,0-.2-.09-.2-.2v-5.78h0Z"/>
    <path class="cls-2" d="M40.02,33.95l-1.03-2.27h-.03l-1.01,2.27h2.07ZM35.57,36.14l3.2-6.93c.03-.06.08-.11.18-.11h.1c.1,0,.14.05.18.11l3.17,6.93c.06.13-.02.27-.17.27h-.9c-.15,0-.23-.06-.3-.21l-.5-1.11h-3.08l-.5,1.11c-.04.1-.13.21-.3.21h-.9c-.15,0-.24-.13-.18-.27h0Z"/>
    <path class="cls-2" d="M44.14,29.39c0-.1.08-.2.2-.2h.95c.1,0,.2.09.2.2v5.78h2.63c.11,0,.2.09.2.2v.84c0,.1-.08.2-.2.2h-3.77c-.11,0-.2-.09-.2-.2v-6.82h0Z"/>
    <path class="cls-2" d="M50.93,30.44h-1.58c-.11,0-.2-.09-.2-.2v-.84c0-.1.08-.2.2-.2h4.5c.11,0,.2.09.2.2v.84c0,.1-.08.2-.2.2h-1.58v5.78c0,.1-.09.2-.2.2h-.96c-.1,0-.2-.09-.2-.2v-5.78h0Z"/>
    <path class="cls-2" d="M56.02,29.39c0-.1.08-.2.2-.2h4.19c.11,0,.2.09.2.2v.84c0,.1-.08.2-.2.2h-3.05v1.69h2.54c.1,0,.2.09.2.2v.85c0,.11-.09.2-.2.2h-2.54v1.8h3.05c.11,0,.2.09.2.2v.84c0,.1-.08.2-.2.2h-4.19c-.11,0-.2-.09-.2-.2v-6.82h0Z"/>
    <path class="cls-2" d="M62.78,29.28c0-.1.09-.19.2-.19h.15c.07,0,.12.02.18.07l4.2,4.48h.02v-4.25c0-.1.08-.2.2-.2h.95c.1,0,.2.09.2.2v6.93c0,.1-.09.19-.2.19h-.14c-.07,0-.12-.02-.18-.07l-4.22-4.66h-.02v4.43c0,.1-.08.2-.2.2h-.94c-.1,0-.2-.09-.2-.2v-6.93h0Z"/>
    <path class="cls-1" d="M71.59,14.58c-.25-.18-.59-.36-.9-.36s-.5.17-.5.39c0,.27.21.46.67.65.55.22,1.19.55,1.19,1.29,0,.59-.45,1.13-1.3,1.13-.72,0-1.13-.34-1.33-.51l.33-.56c.29.2.58.41.95.41.3,0,.54-.13.54-.43,0-.33-.25-.49-.73-.69-.54-.22-1.07-.56-1.07-1.23,0-.51.38-1.1,1.29-1.1.53,0,1.06.34,1.22.48l-.36.54h0Z"/>
    <path class="cls-1" d="M68.39,17.78c-.54-.59-.84-1.36-.84-2.16,0-.41.08-.8.23-1.18l-.65-.37c-.21.5-.32,1.02-.32,1.55,0,2,1.51,3.68,3.47,3.91v-.75c-.72-.11-1.38-.46-1.88-1h0Z"/>
    <path class="cls-1" d="M73.24,13.64l.65-.37c-.74-.99-1.9-1.58-3.15-1.58s-2.41.59-3.15,1.58l.65.37c.61-.76,1.53-1.21,2.5-1.21s1.89.45,2.5,1.21h0Z"/>
    <path class="cls-1" d="M73.7,14.44c.15.38.23.78.23,1.18,0,.8-.3,1.57-.84,2.16-.5.54-1.16.89-1.88,1v.75c1.96-.23,3.47-1.91,3.47-3.91,0-.54-.11-1.06-.32-1.55l-.65.37h0Z"/>
    <polygon class="cls-2" points="44 59.82 34.26 59.82 34.26 58.88 44 58.88 44 59.82 44 59.82"/>
  </g>
</svg>