<?xml version="1.0" encoding="UTF-8"?>
<svg width="689px" height="149px" viewBox="0 0 689 149" version="1.1" xmlns="http://www.w3.org/2000/svg" xmlns:xlink="http://www.w3.org/1999/xlink">
    <title>Einschätzung-grau</title>
    <defs>
        <path d="M30.886,89.963654 C31.726,89.963654 32.65,89.903654 33.658,89.783654 L33.658,89.783654 L34.45,89.747654 C35.29,89.675654 35.938,89.639654 36.394,89.639654 C36.706,89.399654 36.862,89.135654 36.862,88.847654 C36.862,88.535654 36.61,88.199654 36.106,87.839654 C34.642,87.839654 33.226,87.959654 31.858,88.199654 C32.194,87.191654 32.734,85.751654 33.478,83.879654 C34.102,82.343654 34.726,80.723654 35.35,79.019654 C35.902,77.531654 36.376,75.833654 36.772,73.925654 C37.168,72.017654 37.366,70.247654 37.366,68.615654 L37.366,68.615654 L37.366,67.643654 C37.342,67.475654 37.324,67.205654 37.312,66.833654 C37.3,66.461654 37.27,66.059654 37.222,65.627654 C37.054,64.739654 36.874,64.103654 36.682,63.719654 C36.322,63.047654 35.938,62.591654 35.53,62.351654 C34.978,61.991654 34.294,61.811654 33.478,61.811654 L33.478,61.811654 L33.478,61.847654 C32.974,61.847654 32.542,62.039654 32.182,62.423654 C31.51,63.191654 31.174,64.139654 31.174,65.267654 C31.174,66.011654 31.462,66.383654 32.038,66.383654 C32.326,66.383654 32.566,66.257654 32.758,66.005654 C32.95,65.753654 33.07,65.435654 33.118,65.051654 C33.262,64.115654 33.526,63.551654 33.91,63.359654 C35.062,63.431654 35.638,64.967654 35.638,67.967654 C35.638,70.775654 35.314,73.439654 34.666,75.959654 C34.018,78.479654 32.986,81.311654 31.57,84.455654 C31.426,84.743654 31.246,85.211654 31.03,85.859654 C30.55,87.203654 30.07,88.163654 29.59,88.739654 L29.59,88.739654 L29.59,88.883654 C29.59,89.195654 29.716,89.453654 29.968,89.657654 C30.22,89.861654 30.526,89.963654 30.886,89.963654 Z" id="path-1"></path>
    </defs>
    <g id="Einschätzung-grau" stroke="none" stroke-width="1" fill="none" fill-rule="evenodd">
        <path d="M7.56383635,75.2097342 C7.70944739,84.8575629 9.18816861,92.0122531 12,96.673805 C16.2177471,103.666133 18.1635961,106.48871 24.579904,106.48871 C30.996212,106.48871 36.2589161,109.889112 43.3985454,106.48871 C50.5381746,103.088308 56.7493494,104.699724 58.8746747,93.2129019 C61,81.7260796 61,78.7509946 61,69.6387071 C61,60.5264195 49.7970907,47.5759323 43.3985454,47.5759323 C37,47.5759323 29.1341164,44.0300846 24.579904,47.5759323 C20.0256917,51.12178 12.2600743,58.2468496 10.6823107,61.0305882 C9.63046828,62.886414 8.59097683,67.612796 7.56383635,75.2097342 Z" id="Path-4-Copy-6" fill="#3B515B"></path>
        <g id="2" fill-rule="nonzero" fill="#FFFFFF">
            <use xlink:href="#path-1"></use>
            <use stroke="#FFFFFF" stroke-width="3" xlink:href="#path-1"></use>
        </g>
        <path d="M115.28,107.17 C116.36,107.17 117.275,106.945 118.025,106.495 C118.775,106.045 119.15,105.4 119.15,104.56 C119.15,103.12 118.01,102.4 115.73,102.4 C114.29,102.4 113.06,102.43 112.04,102.49 L112.04,102.49 L109.07,102.58 C108.95,102.58 108.89,100.9 108.89,97.54 C108.89,95.74 108.98,93.01 109.16,89.35 C109.22,86.95 109.25,84.25 109.25,81.25 C109.25,78.25 109.19,75.97 109.07,74.41 L109.07,74.41 L111.32,74.41 C111.92,74.53 112.76,74.59 113.84,74.59 C114.68,74.59 115.37,74.365 115.91,73.915 C116.45,73.465 116.72,72.91 116.72,72.25 C116.72,70.57 115.28,69.73 112.4,69.73 C111.68,69.73 111.08,69.76 110.6,69.82 L110.6,69.82 L109.16,69.91 L108.89,68.47 C108.89,67.03 108.98,64.87 109.16,61.99 C109.22,60.07 109.25,57.91 109.25,55.51 C109.25,53.83 109.22,52.54 109.16,51.64 C111.2,51.94 113.48,52.54 116,53.44 C116.72,53.14 117.335,52.735 117.845,52.225 C118.355,51.715 118.61,51.16 118.61,50.56 C118.61,49.48 117.305,48.55 114.695,47.77 C112.085,46.99 109.79,46.6 107.81,46.6 C105.29,46.6 104.03,48.73 104.03,52.99 C104.03,53.77 104.12,55.03 104.3,56.77 C104.48,58.45 104.57,59.71 104.57,60.55 C104.57,64.09 104.45,68.47 104.21,73.69 C104.03,79.51 103.94,83.89 103.94,86.83 L103.94,86.83 L104.12,92.59 C104.3,95.17 104.39,97.09 104.39,98.35 C104.39,99.07 104.42,99.7 104.48,100.24 L104.48,100.24 L104.48,104.38 C104.54,105.16 104.885,105.82 105.515,106.36 C106.145,106.9 106.85,107.17 107.63,107.17 L107.63,107.17 L115.28,107.17 Z M133.55,105.91 C134.09,105.91 135.32,105.85 137.24,105.73 C138.14,105.73 138.755,105.715 139.085,105.685 C139.415,105.655 139.61,105.64 139.67,105.64 L139.67,105.64 L141.92,104.11 L141.92,103.57 C141.92,101.47 140.66,100.42 138.14,100.42 C137.3,100.42 136.7,100.45 136.34,100.51 L136.34,100.51 L136.34,97.09 C136.34,94.21 136.19,91.39 135.89,88.63 C135.53,84.43 135.29,81.25 135.17,79.09 C134.45,67.39 134.09,58.63 134.09,52.81 C134.09,52.09 134.225,51.595 134.495,51.325 C134.765,51.055 135.2,50.92 135.8,50.92 L135.8,50.92 L136.52,50.92 C136.76,50.98 137.06,51.01 137.42,51.01 C138.02,51.01 138.515,50.77 138.905,50.29 C139.295,49.81 139.49,49.24 139.49,48.58 C139.49,47.92 139.235,47.335 138.725,46.825 C138.215,46.315 137.6,46.06 136.88,46.06 C135.02,46.06 132.89,46.3 130.49,46.78 C129.11,47.02 127.97,47.41 127.07,47.95 C126.17,48.49 125.72,49.12 125.72,49.84 C125.72,51.28 126.44,52 127.88,52 C128.3,52 128.99,51.88 129.95,51.64 C130.13,52.96 130.22,54.61 130.22,56.59 L130.22,56.59 L130.13,61.18 C130.07,62.56 130.04,64.09 130.04,65.77 C130.04,70.45 130.31,77.38 130.85,86.56 C131.09,90.28 131.3,92.86 131.48,94.3 C131.6,96.46 131.66,98.05 131.66,99.07 C131.66,99.85 131.57,100.39 131.39,100.69 C131.21,100.99 130.88,101.14 130.4,101.14 L130.4,101.14 L129.5,101.05 L128.51,101.05 C126.65,101.05 125.72,101.77 125.72,103.21 C125.72,105.01 128.33,105.91 133.55,105.91 Z M173.96,106.27 C174.38,106.27 175.46,106.03 177.2,105.55 C178.04,104.17 178.76,98.08 179.36,87.28 C179.96,76.48 180.32,66.46 180.44,57.22 L180.44,57.22 L180.44,50.47 C180.44,49.45 180.215,48.61 179.765,47.95 C179.315,47.29 178.67,46.96 177.83,46.96 C176.39,46.96 175.67,47.86 175.67,49.66 C175.67,50.08 175.7,50.47 175.76,50.83 L175.76,50.83 L175.76,52 C175.76,69.58 175.16,84.82 173.96,97.72 C173.24,95.62 172.19,92.14 170.81,87.28 L170.81,87.28 L169.91,84.04 C167.69,76.18 165.905,70.12 164.555,65.86 C163.205,61.6 161.69,57.55 160.01,53.71 C157.91,48.91 156.17,46.51 154.79,46.51 C154.67,46.51 154.43,46.57 154.07,46.69 L154.07,46.69 L154.07,46.15 C151.91,47.77 150.83,49.99 150.83,52.81 C150.83,54.61 150.74,57.4 150.56,61.18 C150.38,64.84 150.29,67.63 150.29,69.55 L150.2904,70.6828 C150.294133,75.9356 150.324,80.718 150.38,85.03 L150.38,85.03 L150.47,100.42 C150.47,104.08 151.43,105.91 153.35,105.91 C154.13,105.91 154.79,105.64 155.33,105.1 C155.87,104.56 156.14,103.9 156.14,103.12 C156.14,102.82 156.05,102.52 155.87,102.22 C155.69,101.92 155.57,101.71 155.51,101.59 L155.51,101.59 L155.15,100.96 L155.15,55.69 C157.49,61.21 160.715,69.73 164.825,81.25 C168.935,92.77 170.99,99.52 170.99,101.5 L170.99,101.5 L170.99,101.95 L171.53,103.66 C171.71,104.62 171.98,105.295 172.34,105.685 C172.7,106.075 173.24,106.27 173.96,106.27 Z M194.12,107.26 L194.12,106.99 C195.98,106.99 197.675,106.48 199.205,105.46 C200.735,104.44 201.92,103.09 202.76,101.41 C204.44,98.11 205.28,94.63 205.28,90.97 C205.28,88.69 205.025,86.44 204.515,84.22 C204.005,82 203.33,80.05 202.49,78.37 L202.49,78.37 L199.34,72.43 L197.36,68.83 C196.52,67.39 195.83,65.785 195.29,64.015 C194.75,62.245 194.48,60.49 194.48,58.75 C194.48,57.37 194.81,55.63 195.47,53.53 C196.25,51.25 197.3,50.08 198.62,50.02 C199.22,50.38 199.85,50.56 200.51,50.56 C201.11,50.56 201.62,50.41 202.04,50.11 C202.46,49.81 202.67,49.39 202.67,48.85 C202.67,47.89 202.205,47.065 201.275,46.375 C200.345,45.685 199.34,45.34 198.26,45.34 C196.88,45.34 195.635,45.775 194.525,46.645 C193.415,47.515 192.56,48.64 191.96,50.02 C190.76,52.9 190.16,55.66 190.16,58.3 C190.16,60.64 190.52,62.98 191.24,65.32 C191.78,67.12 192.44,68.8 193.22,70.36 C194,71.92 194.96,73.69 196.1,75.67 L196.1,75.67 L197.09,77.38 C199.61,81.76 200.87,85.93 200.87,89.89 C200.87,92.17 200.48,94.75 199.7,97.63 C199.28,99.19 198.635,100.45 197.765,101.41 C196.895,102.37 195.92,102.85 194.84,102.85 C194.36,102.85 193.67,102.76 192.77,102.58 C191.99,102.34 191.42,102.22 191.06,102.22 L191.06,102.22 L190.07,103.75 C190.19,104.71 190.625,105.49 191.375,106.09 C192.125,106.69 193.04,107.08 194.12,107.26 L194.12,107.26 Z M226.79,107.26 C230.09,107.26 231.74,106.09 231.74,103.75 C231.74,103.09 231.485,102.595 230.975,102.265 C230.465,101.935 229.82,101.77 229.04,101.77 C228.38,102.25 227.72,102.49 227.06,102.49 C225.98,102.49 224.99,102.31 224.09,101.95 C222.35,101.23 221.12,100.06 220.4,98.44 C219.68,97 219.17,95.2 218.87,93.04 C218.69,91.6 218.6,89.74 218.6,87.46 C218.6,84.22 218.66,81.31 218.78,78.73 L218.78,78.73 L218.96,70.09 L218.96,69.64 C218.96,66.88 219.35,63.28 220.13,58.84 C220.49,56.44 221.12,54.49 222.02,52.99 C222.92,51.49 223.97,50.74 225.17,50.74 L225.17,50.74 L229.4,50.74 C229.94,50.68 230.405,50.41 230.795,49.93 C231.185,49.45 231.38,48.91 231.38,48.31 C231.38,47.65 231.14,47.11 230.66,46.69 C230.18,46.27 229.49,46.06 228.59,46.06 C226.37,46.06 224.51,46.39 223.01,47.05 C221.33,47.71 219.965,48.52 218.915,49.48 C217.865,50.44 216.98,51.79 216.26,53.53 C215.42,55.39 214.82,57.055 214.46,58.525 C214.1,59.995 213.83,61.9 213.65,64.24 C213.47,66.46 213.35,68.515 213.29,70.405 C213.23,72.295 213.2,74.44 213.2,76.84 L213.2,76.84 L213.2,84.22 C213.2,95.74 215.21,102.79 219.23,105.37 C220.01,105.85 221.135,106.285 222.605,106.675 C224.075,107.065 225.47,107.26 226.79,107.26 Z M255.68,106 C256.52,106 257.255,105.76 257.885,105.28 C258.515,104.8 258.83,104.14 258.83,103.3 L258.83,103.3 L258.02,80.53 C257.42,66.31 257.12,54.94 257.12,46.42 L257.12,46.42 L256.31,46.06 C255.53,45.76 254.93,45.61 254.51,45.61 C253.79,45.61 253.175,45.835 252.665,46.285 C252.155,46.735 251.9,47.29 251.9,47.95 C251.9,51.25 252.11,55.54 252.53,60.82 C252.89,66.46 253.07,70.72 253.07,73.6 C253.07,73.96 253.01,74.32 252.89,74.68 L252.89,74.68 L249.56,74.68 C247.22,74.68 245.6,74.53 244.7,74.23 C244.7,70.09 244.76,66.34 244.88,62.98 L244.88,62.98 L245.06,51.82 C245.06,48.22 244.1,46.42 242.18,46.42 C241.46,46.42 240.86,46.69 240.38,47.23 C239.9,47.77 239.66,48.4 239.66,49.12 C239.66,51.4 239.75,54.79 239.93,59.29 C240.11,63.79 240.2,67.18 240.2,69.46 L240.2,69.46 L239.93,74.68 L239.93,75.13 C239.99,75.43 240.02,76.06 240.02,77.02 L240.02,79.81 C240.02,82.09 239.99,84.25 239.93,86.29 L239.93,86.29 L239.75,93.58 C239.75,97.24 239.99,100.21 240.47,102.49 C240.95,104.71 241.76,105.82 242.9,105.82 C243.68,105.82 244.31,105.49 244.79,104.83 C245.27,104.17 245.51,103.39 245.51,102.49 C245.51,100.87 245.42,98.41 245.24,95.11 C245.06,91.75 244.97,89.29 244.97,87.73 L244.97,77.38 C246.53,77.62 247.49,77.77 247.85,77.83 C248.99,78.07 249.95,78.19 250.73,78.19 C251.51,78.19 252.05,78.13 252.35,78.01 L252.35,78.01 L252.35,78.1 C252.35,78.22 252.44,78.37 252.62,78.55 C252.8,78.73 252.89,78.88 252.89,79 C252.89,79.66 252.86,80.23 252.8,80.71 L252.8,80.71 L252.8,81.88 L252.71,86.02 L252.62,91.15 C252.62,101.05 253.64,106 255.68,106 Z M272.33,39.58 C273.35,39.58 274.19,39.265 274.85,38.635 C275.51,38.005 275.84,37.21 275.84,36.25 C275.84,35.41 275.525,34.645 274.895,33.955 C274.265,33.265 273.53,32.92 272.69,32.92 C271.79,32.92 270.995,33.265 270.305,33.955 C269.615,34.645 269.27,35.44 269.27,36.34 C269.27,37.18 269.585,37.93 270.215,38.59 C270.845,39.25 271.55,39.58 272.33,39.58 Z M286.82,40.03 C287.84,40.03 288.695,39.715 289.385,39.085 C290.075,38.455 290.42,37.66 290.42,36.7 C290.42,35.86 290.09,35.095 289.43,34.405 C288.77,33.715 288.02,33.37 287.18,33.37 C286.28,33.37 285.485,33.715 284.795,34.405 C284.105,35.095 283.76,35.89 283.76,36.79 C283.76,37.63 284.075,38.38 284.705,39.04 C285.335,39.7 286.04,40.03 286.82,40.03 Z M287.36,106.81 C288.32,106.45 288.8,105.61 288.8,104.29 L288.8,104.29 L288.8,104.2 C288.8,103.36 288.53,101.5 287.99,98.62 C287.39,95.44 287.09,93.64 287.09,93.22 C287.09,92.8 286.94,91.9 286.64,90.52 C286.34,89.02 286.19,88.09 286.19,87.73 C286.19,84.01 285.59,77.53 284.39,68.29 C283.13,59.29 282.5,52.51 282.5,47.95 C282.5,47.23 282.2,46.675 281.6,46.285 C281,45.895 280.28,45.7 279.44,45.7 L279.44,45.7 L276.38,45.7 C275.9,46.36 275.555,47.35 275.345,48.67 C275.135,49.99 274.94,51.76 274.76,53.98 C274.7,55.06 274.64,55.885 274.58,56.455 C274.52,57.025 274.49,57.43 274.49,57.67 C272.45,72.67 269.45,87.88 265.49,103.3 L265.49,103.3 L265.4,103.66 L265.22,104.11 C265.22,104.77 265.52,105.325 266.12,105.775 C266.72,106.225 267.38,106.45 268.1,106.45 C268.88,106.45 269.48,106.18 269.9,105.64 C270.68,104.68 271.25,102.73 271.61,99.79 C272.27,95.59 272.78,92.8 273.14,91.42 L273.14,91.42 L282.05,92.77 L282.41,94.66 C283.01,98.98 283.31,102.04 283.31,103.84 C283.31,104.98 283.64,105.76 284.3,106.18 C284.96,106.6 285.98,106.81 287.36,106.81 Z M281.42,89.53 C277.04,89.17 274.4,88.69 273.5,88.09 C274.46,80.89 276.23,70.24 278.81,56.14 L278.81,56.14 L279.71,65.5 C280.67,73.9 281.15,80.8 281.15,86.2 C281.15,87.52 281.24,88.63 281.42,89.53 Z M303.2,105.73 C303.98,105.73 304.685,105.46 305.315,104.92 C305.945,104.38 306.26,103.75 306.26,103.03 C306.26,96.97 305.78,88.45 304.82,77.47 C303.8,65.77 303.29,57.25 303.29,51.91 L303.29,51.91 L303.38,51.46 L303.47,51.01 L305.27,51.37 C306.29,51.55 307.07,51.64 307.61,51.64 C308.39,51.64 309.08,51.415 309.68,50.965 C310.28,50.515 310.58,49.93 310.58,49.21 C310.58,47.77 309.65,47.05 307.79,47.05 L307.79,47.05 L306.35,47.05 C304.55,47.05 302.51,46.9 300.23,46.6 C297.83,46.36 295.79,46.24 294.11,46.24 C293.45,46.24 292.805,46.435 292.175,46.825 C291.545,47.215 291.23,47.65 291.23,48.13 C291.23,48.73 291.56,49.27 292.22,49.75 C293.18,50.35 295.4,50.71 298.88,50.83 C299,54.37 299.42,62.38 300.14,74.86 C300.86,87.34 301.31,93.91 301.49,94.57 L301.49,94.57 L301.4,97.63 C301.4,98.89 301.43,100.03 301.49,101.05 L301.49,101.05 L301.58,104.56 L303.2,105.73 Z M320.93,106.18 C321.23,106.18 321.77,106.03 322.55,105.73 C323.21,105.37 323.72,105.19 324.08,105.19 L324.08,105.19 L326.78,105.37 C327.56,105.43 328.43,105.46 329.39,105.46 C330.29,105.46 331.04,105.265 331.64,104.875 C332.24,104.485 332.54,103.96 332.54,103.3 C332.54,101.8 331.34,101.05 328.94,101.05 L328.94,101.05 L328.94,101.14 C328.22,101.14 327.59,101.17 327.05,101.23 L327.05,101.23 L325.16,101.41 L323.54,101.41 L327.5,85.84 C330.02,76.18 331.58,69.22 332.18,64.96 C332.48,63.22 333.26,60.67 334.52,57.31 C335.84,53.53 336.5,50.68 336.5,48.76 C336.5,47.08 335,46.24 332,46.24 C325.4,46.24 322.1,47.11 322.1,48.85 C322.1,49.51 322.34,50.095 322.82,50.605 C323.3,51.115 323.84,51.37 324.44,51.37 C325.4,51.37 326.69,51.28 328.31,51.1 C329.93,50.92 331.1,50.83 331.82,50.83 C331.16,53.41 329.48,59.17 326.78,68.11 C324.08,76.75 322.025,84.01 320.615,89.89 C319.205,95.77 318.5,100.51 318.5,104.11 C318.5,104.71 318.74,105.205 319.22,105.595 C319.7,105.985 320.27,106.18 320.93,106.18 Z M355.49,107.35 C363.23,107.35 367.1,94.03 367.1,67.39 C367.1,67.09 367.07,66.82 367.01,66.58 L367.01,66.58 L367.01,65.86 L367.19,62.08 C367.31,61 367.37,59.77 367.37,58.39 C367.37,57.13 367.49,55.63 367.73,53.89 C367.91,51.79 368,50.26 368,49.3 C368,48.28 367.97,47.59 367.91,47.23 C367.79,46.63 367.505,46.105 367.055,45.655 C366.605,45.205 365.99,44.98 365.21,44.98 C364.25,44.98 363.605,45.145 363.275,45.475 C362.945,45.805 362.78,46.33 362.78,47.05 C362.78,47.35 362.81,47.59 362.87,47.77 L362.87,47.77 L362.87,53.62 C362.87,85.9 360.71,102.04 356.39,102.04 C352.61,102.04 350.72,99.82 350.72,95.38 C350.72,93.94 350.51,90.76 350.09,85.84 C349.67,81.88 349.46,78.7 349.46,76.3 L349.46,76.3 L349.46,51.82 C349.46,50.56 349.175,49.39 348.605,48.31 C348.035,47.23 347.39,46.69 346.67,46.69 C345.95,46.69 345.32,47.32 344.78,48.58 C344.78,49.06 344.84,50.44 344.96,52.72 C344.96,53.56 344.99,54.16 345.05,54.52 L345.05,54.52 L345.14,61.45 C345.14,70.81 345.23,78.73 345.41,85.21 C345.41,89.05 345.62,92.35 346.04,95.11 C346.46,98.29 347.39,101.14 348.83,103.66 C349.55,104.86 350.48,105.775 351.62,106.405 C352.76,107.035 354.05,107.35 355.49,107.35 Z M402.92,106.27 C403.34,106.27 404.42,106.03 406.16,105.55 C407,104.17 407.72,98.08 408.32,87.28 C408.92,76.48 409.28,66.46 409.4,57.22 L409.4,57.22 L409.4,50.47 C409.4,49.45 409.175,48.61 408.725,47.95 C408.275,47.29 407.63,46.96 406.79,46.96 C405.35,46.96 404.63,47.86 404.63,49.66 C404.63,50.08 404.66,50.47 404.72,50.83 L404.72,50.83 L404.72,52 C404.72,69.58 404.12,84.82 402.92,97.72 C402.2,95.62 401.15,92.14 399.77,87.28 L399.77,87.28 L398.87,84.04 C396.65,76.18 394.865,70.12 393.515,65.86 C392.165,61.6 390.65,57.55 388.97,53.71 C386.87,48.91 385.13,46.51 383.75,46.51 C383.63,46.51 383.39,46.57 383.03,46.69 L383.03,46.69 L383.03,46.15 C380.87,47.77 379.79,49.99 379.79,52.81 C379.79,54.61 379.7,57.4 379.52,61.18 C379.34,64.84 379.25,67.63 379.25,69.55 C379.25,75.25 379.28,80.41 379.34,85.03 L379.34,85.03 L379.43,100.42 C379.43,104.08 380.39,105.91 382.31,105.91 C383.09,105.91 383.75,105.64 384.29,105.1 C384.83,104.56 385.1,103.9 385.1,103.12 C385.1,102.82 385.01,102.52 384.83,102.22 C384.65,101.92 384.53,101.71 384.47,101.59 L384.47,101.59 L384.11,100.96 L384.11,55.69 C386.45,61.21 389.675,69.73 393.785,81.25 C397.895,92.77 399.95,99.52 399.95,101.5 L399.95,101.5 L399.95,101.95 L400.49,103.66 C400.67,104.62 400.94,105.295 401.3,105.685 C401.66,106.075 402.2,106.27 402.92,106.27 Z M433.16,106.72 C436.04,106.72 438.485,105.895 440.495,104.245 C442.505,102.595 443.51,100.33 443.51,97.45 L443.51,97.45 L443.33,92.68 C443.15,90.52 443.06,88.93 443.06,87.91 C443.06,87.19 443.24,86.11 443.6,84.67 C443.9,83.05 444.05,81.97 444.05,81.43 C444.05,79.57 441.35,78.64 435.95,78.64 L435.95,78.64 L434.69,78.64 L434.69,78.55 C433.79,78.55 433.055,78.775 432.485,79.225 C431.915,79.675 431.63,80.32 431.63,81.16 C431.63,82.54 432.68,83.23 434.78,83.23 L434.78,83.23 L436.58,83.23 C437.54,83.23 438.23,83.32 438.65,83.5 L438.65,83.5 L438.65,87.64 C438.65,97.24 437.21,102.04 434.33,102.04 C433.25,102.04 432.2,101.71 431.18,101.05 C430.28,100.45 429.545,99.715 428.975,98.845 C428.405,97.975 427.91,96.82 427.49,95.38 C426.71,92.92 426.2,90.04 425.96,86.74 C425.78,83.2 425.69,80.41 425.69,78.37 C425.69,76.39 425.81,73.36 426.05,69.28 C426.41,64.9 427.07,60.85 428.03,57.13 C428.57,55.21 429.23,53.71 430.01,52.63 C430.79,51.55 431.69,51.01 432.71,51.01 C433.07,51.01 433.37,51.04 433.61,51.1 C433.91,51.16 434.24,51.19 434.6,51.19 C435.38,51.19 436.055,50.965 436.625,50.515 C437.195,50.065 437.48,49.48 437.48,48.76 C437.48,47.26 436.19,46.51 433.61,46.51 C432.17,46.51 430.91,46.72 429.83,47.14 C427.55,47.92 425.78,49.33 424.52,51.37 C423.2,53.41 422.27,55.78 421.73,58.48 C421.07,61.48 420.68,64.33 420.56,67.03 C420.44,69.25 420.38,72.1 420.38,75.58 L420.38,84.4 C420.44,85.96 420.56,87.82 420.74,89.98 C420.92,92.14 421.16,93.79 421.46,94.93 C421.76,96.43 422.24,97.99 422.9,99.61 C423.56,101.23 424.28,102.46 425.06,103.3 C426.02,104.32 427.19,105.145 428.57,105.775 C429.95,106.405 431.48,106.72 433.16,106.72 Z" id="einschätzung" stroke="#3B515B" stroke-width="2" fill="#3B515B" fill-rule="nonzero"></path>
    </g>
</svg>