<?xml version="1.0" encoding="UTF-8"?>
<svg width="689px" height="149px" viewBox="0 0 689 149" version="1.1" xmlns="http://www.w3.org/2000/svg" xmlns:xlink="http://www.w3.org/1999/xlink">
    <title>Erfindungen-blau</title>
    <defs>
        <path d="M35.018,90.0590487 C37.754,90.0590487 39.122,89.7110487 39.122,89.0150487 C39.122,88.4150487 38.618,88.1150487 37.61,88.1150487 C37.418,88.1150487 37.274,88.1270487 37.178,88.1510487 C37.01,88.1510487 36.842,88.1630487 36.674,88.1870487 C36.506,88.2110487 36.374,88.2230487 36.278,88.2230487 L36.278,88.0070487 C36.278,85.7990487 36.146,82.9430487 35.882,79.4390487 C35.618,75.4790487 35.486,72.6470487 35.486,70.9430487 C35.486,70.1030487 35.402,68.9990487 35.234,67.6310487 C35.042,66.0950487 34.946,65.0030487 34.946,64.3550487 C34.946,63.9950487 35.018,63.4910487 35.162,62.8430487 C34.97,62.4350487 34.358,62.2310487 33.326,62.2310487 C31.382,62.2310487 30.41,62.5430487 30.41,63.1670487 C30.41,63.6950487 30.758,63.9590487 31.454,63.9590487 L31.886,63.9230487 L32.282,63.9230487 C33.098,63.9230487 33.506,64.4870487 33.506,65.6150487 L33.506,66.2990487 C33.482,66.4910487 33.47,66.6950487 33.47,66.9110487 C33.47,69.1670487 33.65,72.6230487 34.01,77.2790487 C34.37,81.9110487 34.55,85.4150487 34.55,87.7910487 C34.55,88.1990487 34.286,88.4030487 33.758,88.4030487 C33.374,88.4030487 33.122,88.4510487 33.002,88.5470487 C32.882,88.6430487 32.822,88.8230487 32.822,89.0870487 C32.822,89.4950487 32.906,89.7590487 33.074,89.8790487 C33.242,89.9990487 33.53,90.0590487 33.938,90.0590487 L35.018,90.0590487 Z" id="path-1"></path>
    </defs>
    <g id="Erfindungen-blau" stroke="none" stroke-width="1" fill="none" fill-rule="evenodd">
        <path d="M7.56383635,75.2097342 C7.70944739,84.8575629 9.18816861,92.0122531 12,96.673805 C16.2177471,103.666133 18.1635961,106.48871 24.579904,106.48871 C30.996212,106.48871 36.2589161,109.889112 43.3985454,106.48871 C50.5381746,103.088308 56.7493494,104.699724 58.8746747,93.2129019 C61,81.7260796 61,78.7509946 61,69.6387071 C61,60.5264195 49.7970907,47.5759323 43.3985454,47.5759323 C37,47.5759323 29.1341164,44.0300846 24.579904,47.5759323 C20.0256917,51.12178 12.2600743,58.2468496 10.6823107,61.0305882 C9.63046828,62.886414 8.59097683,67.612796 7.56383635,75.2097342 Z" id="Path-4-Copy-6" fill="#0271BB"></path>
        <g id="1" fill-rule="nonzero" fill="#FFFFFF">
            <use xlink:href="#path-1"></use>
            <use stroke="#FFFFFF" stroke-width="3" xlink:href="#path-1"></use>
        </g>
        <path d="M115.28,107.17 C116.36,107.17 117.275,106.945 118.025,106.495 C118.775,106.045 119.15,105.4 119.15,104.56 C119.15,103.12 118.01,102.4 115.73,102.4 C114.29,102.4 113.06,102.43 112.04,102.49 L112.04,102.49 L109.07,102.58 C108.95,102.58 108.89,100.9 108.89,97.54 C108.89,95.74 108.98,93.01 109.16,89.35 C109.22,86.95 109.25,84.25 109.25,81.25 C109.25,78.25 109.19,75.97 109.07,74.41 L109.07,74.41 L111.32,74.41 C111.92,74.53 112.76,74.59 113.84,74.59 C114.68,74.59 115.37,74.365 115.91,73.915 C116.45,73.465 116.72,72.91 116.72,72.25 C116.72,70.57 115.28,69.73 112.4,69.73 C111.68,69.73 111.08,69.76 110.6,69.82 L110.6,69.82 L109.16,69.91 L108.89,68.47 C108.89,67.03 108.98,64.87 109.16,61.99 C109.22,60.07 109.25,57.91 109.25,55.51 C109.25,53.83 109.22,52.54 109.16,51.64 C111.2,51.94 113.48,52.54 116,53.44 C116.72,53.14 117.335,52.735 117.845,52.225 C118.355,51.715 118.61,51.16 118.61,50.56 C118.61,49.48 117.305,48.55 114.695,47.77 C112.085,46.99 109.79,46.6 107.81,46.6 C105.29,46.6 104.03,48.73 104.03,52.99 C104.03,53.77 104.12,55.03 104.3,56.77 C104.48,58.45 104.57,59.71 104.57,60.55 C104.57,64.09 104.45,68.47 104.21,73.69 C104.03,79.51 103.94,83.89 103.94,86.83 L103.94,86.83 L104.12,92.59 C104.3,95.17 104.39,97.09 104.39,98.35 C104.39,99.07 104.42,99.7 104.48,100.24 L104.48,100.24 L104.48,104.38 C104.54,105.16 104.885,105.82 105.515,106.36 C106.145,106.9 106.85,107.17 107.63,107.17 L107.63,107.17 L115.28,107.17 Z M144.8,107.53 C145.4,107.53 145.88,107.305 146.24,106.855 C146.6,106.405 146.78,105.88 146.78,105.28 C146.78,104.56 146.48,103.6 145.88,102.4 L145.88,102.4 L145.34,101.32 C144.2,98.98 143.24,96.37 142.46,93.49 C141.68,90.61 140.87,86.86 140.03,82.24 L140.03,82.24 L138.77,75.85 L138.32,73.69 L139.76,70.99 L141.47,67.75 C141.83,67.03 142.16,66.085 142.46,64.915 C142.76,63.745 142.91,62.71 142.91,61.81 L142.91,61.81 L142.91,55.51 C142.91,52.51 141.875,50.17 139.805,48.49 C137.735,46.81 135.08,45.97 131.84,45.97 C129.86,45.97 128.87,47.41 128.87,50.29 C128.87,54.97 129.11,63.16 129.59,74.86 C130.13,85.84 130.4,94.03 130.4,99.43 L130.4,99.43 L130.31,105.46 L131.48,106.81 L134,106.81 L134.99,104.38 C133.85,99.88 133.28,93.61 133.28,85.57 L133.28,85.57 L133.28,80.62 C133.34,79.18 133.37,77.59 133.37,75.85 L133.37,75.85 L134.45,75.85 C134.93,77.05 136.04,81.94 137.78,90.52 L137.78,90.52 L138.41,93.58 C139.01,96.88 139.94,100.09 141.2,103.21 C142.28,106.09 143.48,107.53 144.8,107.53 Z M133.73,71.44 C133.73,67.78 133.67,64.39 133.55,61.27 L133.55,61.27 L133.37,50.65 L133.55,49.84 L133.73,49.39 C134.75,49.39 135.605,49.645 136.295,50.155 C136.985,50.665 137.48,51.4 137.78,52.36 C138.26,54.04 138.5,55.84 138.5,57.76 C138.5,60.28 138.035,63.025 137.105,65.995 C136.175,68.965 135.05,70.78 133.73,71.44 Z M157.49,106.81 C159.05,106.81 159.83,105.49 159.83,102.85 L159.83,102.85 L159.83,77.38 C160.73,77.68 161.9,77.83 163.34,77.83 C164.24,77.83 165.005,77.59 165.635,77.11 C166.265,76.63 166.58,76 166.58,75.22 C166.58,73.66 165.11,72.88 162.17,72.88 L162.17,72.88 L160.55,72.88 L160.55,70.45 C160.55,67.75 160.7,64.72 161,61.36 C161.24,57.76 161.36,54.79 161.36,52.45 L161.36,52.45 L161.36,51.37 L162.44,51.37 C164.42,51.37 165.98,51.67 167.12,52.27 C170.18,52.27 171.71,51.43 171.71,49.75 C171.71,48.97 171.245,48.31 170.315,47.77 C169.385,47.23 168.14,46.84 166.58,46.6 C164.18,46.24 161.93,46.06 159.83,46.06 C158.93,46.06 158.135,46.3 157.445,46.78 C156.755,47.26 156.41,47.92 156.41,48.76 C156.41,51.04 156.29,55.12 156.05,61 L156.05,61 L156.05,63.16 C155.93,65.32 155.72,71.77 155.42,82.51 C155.12,92.83 154.73,100.48 154.25,105.46 C155.51,106.36 156.59,106.81 157.49,106.81 Z M182.33,105.91 C182.87,105.91 184.1,105.85 186.02,105.73 C186.92,105.73 187.535,105.715 187.865,105.685 C188.195,105.655 188.39,105.64 188.45,105.64 L188.45,105.64 L190.7,104.11 L190.7,103.57 C190.7,101.47 189.44,100.42 186.92,100.42 C186.08,100.42 185.48,100.45 185.12,100.51 L185.12,100.51 L185.12,97.09 C185.12,94.21 184.97,91.39 184.67,88.63 C184.31,84.43 184.07,81.25 183.95,79.09 C183.23,67.39 182.87,58.63 182.87,52.81 C182.87,52.09 183.005,51.595 183.275,51.325 C183.545,51.055 183.98,50.92 184.58,50.92 L184.58,50.92 L185.3,50.92 C185.54,50.98 185.84,51.01 186.2,51.01 C186.8,51.01 187.295,50.77 187.685,50.29 C188.075,49.81 188.27,49.24 188.27,48.58 C188.27,47.92 188.015,47.335 187.505,46.825 C186.995,46.315 186.38,46.06 185.66,46.06 C183.8,46.06 181.67,46.3 179.27,46.78 C177.89,47.02 176.75,47.41 175.85,47.95 C174.95,48.49 174.5,49.12 174.5,49.84 C174.5,51.28 175.22,52 176.66,52 C177.08,52 177.77,51.88 178.73,51.64 C178.91,52.96 179,54.61 179,56.59 L179,56.59 L178.91,61.18 C178.85,62.56 178.82,64.09 178.82,65.77 C178.82,70.45 179.09,77.38 179.63,86.56 C179.87,90.28 180.08,92.86 180.26,94.3 C180.38,96.46 180.44,98.05 180.44,99.07 C180.44,99.85 180.35,100.39 180.17,100.69 C179.99,100.99 179.66,101.14 179.18,101.14 L179.18,101.14 L178.28,101.05 L177.29,101.05 C175.43,101.05 174.5,101.77 174.5,103.21 C174.5,105.01 177.11,105.91 182.33,105.91 Z M222.74,106.27 C223.16,106.27 224.24,106.03 225.98,105.55 C226.82,104.17 227.54,98.08 228.14,87.28 C228.74,76.48 229.1,66.46 229.22,57.22 L229.22,57.22 L229.22,50.47 C229.22,49.45 228.995,48.61 228.545,47.95 C228.095,47.29 227.45,46.96 226.61,46.96 C225.17,46.96 224.45,47.86 224.45,49.66 C224.45,50.08 224.48,50.47 224.54,50.83 L224.54,50.83 L224.54,52 C224.54,69.58 223.94,84.82 222.74,97.72 C222.02,95.62 220.97,92.14 219.59,87.28 L219.59,87.28 L218.69,84.04 C216.47,76.18 214.685,70.12 213.335,65.86 C211.985,61.6 210.47,57.55 208.79,53.71 C206.69,48.91 204.95,46.51 203.57,46.51 C203.45,46.51 203.21,46.57 202.85,46.69 L202.85,46.69 L202.85,46.15 C200.69,47.77 199.61,49.99 199.61,52.81 C199.61,54.61 199.52,57.4 199.34,61.18 C199.16,64.84 199.07,67.63 199.07,69.55 L199.0704,70.6828 C199.074133,75.9356 199.104,80.718 199.16,85.03 L199.16,85.03 L199.25,100.42 C199.25,104.08 200.21,105.91 202.13,105.91 C202.91,105.91 203.57,105.64 204.11,105.1 C204.65,104.56 204.92,103.9 204.92,103.12 C204.92,102.82 204.83,102.52 204.65,102.22 C204.47,101.92 204.35,101.71 204.29,101.59 L204.29,101.59 L203.93,100.96 L203.93,55.69 C206.27,61.21 209.495,69.73 213.605,81.25 C217.715,92.77 219.77,99.52 219.77,101.5 L219.77,101.5 L219.77,101.95 L220.31,103.66 C220.49,104.62 220.76,105.295 221.12,105.685 C221.48,106.075 222.02,106.27 222.74,106.27 Z M250.64,106.54 C252.32,105.64 253.7,104.74 254.78,103.84 C257.06,101.86 258.8,99.61 260,97.09 C261.02,94.75 261.71,92.08 262.07,89.08 C262.31,86.86 262.43,83.83 262.43,79.99 L262.43,79.99 L262.43,75.04 L262.52,72.61 C262.58,71.95 262.61,71.23 262.61,70.45 C262.61,68.29 262.34,66.1 261.8,63.88 C260.78,59.5 258.68,55.48 255.5,51.82 C254,50.14 252.275,48.835 250.325,47.905 C248.375,46.975 246.35,46.51 244.25,46.51 C243.47,46.51 242.75,46.81 242.09,47.41 C241.43,48.01 241.1,48.7 241.1,49.48 C241.1,50.44 241.25,53.11 241.55,57.49 C241.91,61.51 242.09,64.48 242.09,66.4 C242.09,71.62 242.06,76.33 242,80.53 L242,80.53 L241.82,94.75 C241.82,102.61 242.6,106.54 244.16,106.54 L244.16,106.54 L250.64,106.54 Z M248.12,101.95 L248.12,99.79 C248.12,94.87 247.91,88.24 247.49,79.9 C247.01,70.48 246.77,63.88 246.77,60.1 C246.77,56.56 246.98,53.44 247.4,50.74 C254.42,51.52 257.93,60.97 257.93,79.09 C257.93,80.47 257.9,81.52 257.84,82.24 C257.72,85.06 257.39,87.82 256.85,90.52 C256.61,91.9 256.235,93.325 255.725,94.795 C255.215,96.265 254.66,97.48 254.06,98.44 C253.34,99.52 252.47,100.375 251.45,101.005 C250.43,101.635 249.32,101.95 248.12,101.95 L248.12,101.95 Z M282.05,107.35 C289.79,107.35 293.66,94.03 293.66,67.39 C293.66,67.09 293.63,66.82 293.57,66.58 L293.57,66.58 L293.57,65.86 L293.75,62.08 C293.87,61 293.93,59.77 293.93,58.39 C293.93,57.13 294.05,55.63 294.29,53.89 C294.47,51.79 294.56,50.26 294.56,49.3 C294.56,48.28 294.53,47.59 294.47,47.23 C294.35,46.63 294.065,46.105 293.615,45.655 C293.165,45.205 292.55,44.98 291.77,44.98 C290.81,44.98 290.165,45.145 289.835,45.475 C289.505,45.805 289.34,46.33 289.34,47.05 C289.34,47.35 289.37,47.59 289.43,47.77 L289.43,47.77 L289.43,53.62 C289.43,85.9 287.27,102.04 282.95,102.04 C279.17,102.04 277.28,99.82 277.28,95.38 C277.28,93.94 277.07,90.76 276.65,85.84 C276.23,81.88 276.02,78.7 276.02,76.3 L276.02,76.3 L276.02,51.82 C276.02,50.56 275.735,49.39 275.165,48.31 C274.595,47.23 273.95,46.69 273.23,46.69 C272.51,46.69 271.88,47.32 271.34,48.58 C271.34,49.06 271.4,50.44 271.52,52.72 C271.52,53.56 271.55,54.16 271.61,54.52 L271.61,54.52 L271.7,61.45 C271.7,70.81 271.79,78.73 271.97,85.21 C271.97,89.05 272.18,92.35 272.6,95.11 C273.02,98.29 273.95,101.14 275.39,103.66 C276.11,104.86 277.04,105.775 278.18,106.405 C279.32,107.035 280.61,107.35 282.05,107.35 Z M329.48,106.27 C329.9,106.27 330.98,106.03 332.72,105.55 C333.56,104.17 334.28,98.08 334.88,87.28 C335.48,76.48 335.84,66.46 335.96,57.22 L335.96,57.22 L335.96,50.47 C335.96,49.45 335.735,48.61 335.285,47.95 C334.835,47.29 334.19,46.96 333.35,46.96 C331.91,46.96 331.19,47.86 331.19,49.66 C331.19,50.08 331.22,50.47 331.28,50.83 L331.28,50.83 L331.28,52 C331.28,69.58 330.68,84.82 329.48,97.72 C328.76,95.62 327.71,92.14 326.33,87.28 L326.33,87.28 L325.43,84.04 C323.21,76.18 321.425,70.12 320.075,65.86 C318.725,61.6 317.21,57.55 315.53,53.71 C313.43,48.91 311.69,46.51 310.31,46.51 C310.19,46.51 309.95,46.57 309.59,46.69 L309.59,46.69 L309.59,46.15 C307.43,47.77 306.35,49.99 306.35,52.81 C306.35,54.61 306.26,57.4 306.08,61.18 C305.9,64.84 305.81,67.63 305.81,69.55 L305.8104,70.6828 C305.814133,75.9356 305.844,80.718 305.9,85.03 L305.9,85.03 L305.99,100.42 C305.99,104.08 306.95,105.91 308.87,105.91 C309.65,105.91 310.31,105.64 310.85,105.1 C311.39,104.56 311.66,103.9 311.66,103.12 C311.66,102.82 311.57,102.52 311.39,102.22 C311.21,101.92 311.09,101.71 311.03,101.59 L311.03,101.59 L310.67,100.96 L310.67,55.69 C313.01,61.21 316.235,69.73 320.345,81.25 C324.455,92.77 326.51,99.52 326.51,101.5 L326.51,101.5 L326.51,101.95 L327.05,103.66 C327.23,104.62 327.5,105.295 327.86,105.685 C328.22,106.075 328.76,106.27 329.48,106.27 Z M359.72,106.72 C362.6,106.72 365.045,105.895 367.055,104.245 C369.065,102.595 370.07,100.33 370.07,97.45 L370.07,97.45 L369.89,92.68 C369.71,90.52 369.62,88.93 369.62,87.91 C369.62,87.19 369.8,86.11 370.16,84.67 C370.46,83.05 370.61,81.97 370.61,81.43 C370.61,79.57 367.91,78.64 362.51,78.64 L362.51,78.64 L361.25,78.64 L361.25,78.55 C360.35,78.55 359.615,78.775 359.045,79.225 C358.475,79.675 358.19,80.32 358.19,81.16 C358.19,82.54 359.24,83.23 361.34,83.23 L361.34,83.23 L363.14,83.23 C364.1,83.23 364.79,83.32 365.21,83.5 L365.21,83.5 L365.21,87.64 C365.21,97.24 363.77,102.04 360.89,102.04 C359.81,102.04 358.76,101.71 357.74,101.05 C356.84,100.45 356.105,99.715 355.535,98.845 C354.965,97.975 354.47,96.82 354.05,95.38 C353.27,92.92 352.76,90.04 352.52,86.74 C352.34,83.2 352.25,80.41 352.25,78.37 L352.250625,78.1170312 C352.260208,76.1356771 352.38,73.19 352.61,69.28 C352.97,64.9 353.63,60.85 354.59,57.13 C355.13,55.21 355.79,53.71 356.57,52.63 C357.35,51.55 358.25,51.01 359.27,51.01 C359.63,51.01 359.93,51.04 360.17,51.1 C360.47,51.16 360.8,51.19 361.16,51.19 C361.94,51.19 362.615,50.965 363.185,50.515 C363.755,50.065 364.04,49.48 364.04,48.76 C364.04,47.26 362.75,46.51 360.17,46.51 C358.73,46.51 357.47,46.72 356.39,47.14 C354.11,47.92 352.34,49.33 351.08,51.37 C349.76,53.41 348.83,55.78 348.29,58.48 C347.63,61.48 347.24,64.33 347.12,67.03 C347,69.25 346.94,72.1 346.94,75.58 L346.94,84.4 C347,85.96 347.12,87.82 347.3,89.98 C347.48,92.14 347.72,93.79 348.02,94.93 C348.32,96.43 348.8,97.99 349.46,99.61 C350.12,101.23 350.84,102.46 351.62,103.3 C352.58,104.32 353.75,105.145 355.13,105.775 C356.51,106.405 358.04,106.72 359.72,106.72 Z M390.95,107.17 C392.03,107.17 392.945,106.945 393.695,106.495 C394.445,106.045 394.82,105.4 394.82,104.56 C394.82,103.12 393.68,102.4 391.4,102.4 C389.96,102.4 388.73,102.43 387.71,102.49 L387.71,102.49 L384.74,102.58 C384.627742,102.58 384.567992,101.109781 384.560749,98.1693444 L384.560558,97.288781 C384.568368,95.4898967 384.658182,92.8436364 384.83,89.35 C384.89,86.95 384.92,84.25 384.92,81.25 C384.92,78.25 384.86,75.97 384.74,74.41 L384.74,74.41 L386.99,74.41 C387.59,74.53 388.43,74.59 389.51,74.59 C390.35,74.59 391.04,74.365 391.58,73.915 C392.12,73.465 392.39,72.91 392.39,72.25 C392.39,70.57 390.95,69.73 388.07,69.73 C387.35,69.73 386.75,69.76 386.27,69.82 L386.27,69.82 L384.83,69.91 L384.56,68.47 C384.56,67.03 384.65,64.87 384.83,61.99 C384.89,60.07 384.92,57.91 384.92,55.51 C384.92,53.83 384.89,52.54 384.83,51.64 C386.87,51.94 389.15,52.54 391.67,53.44 C392.39,53.14 393.005,52.735 393.515,52.225 C394.025,51.715 394.28,51.16 394.28,50.56 C394.28,49.48 392.975,48.55 390.365,47.77 C387.755,46.99 385.46,46.6 383.48,46.6 C380.96,46.6 379.7,48.73 379.7,52.99 C379.7,53.77 379.79,55.03 379.97,56.77 C380.15,58.45 380.24,59.71 380.24,60.55 C380.24,64.09 380.12,68.47 379.88,73.69 C379.7,79.51 379.61,83.89 379.61,86.83 L379.61,86.83 L379.79,92.59 C379.97,95.17 380.06,97.09 380.06,98.35 C380.06,99.07 380.09,99.7 380.15,100.24 L380.15,100.24 L380.15,104.38 C380.21,105.16 380.555,105.82 381.185,106.36 C381.815,106.9 382.52,107.17 383.3,107.17 L383.3,107.17 L390.95,107.17 Z M429.29,106.27 C429.71,106.27 430.79,106.03 432.53,105.55 C433.37,104.17 434.09,98.08 434.69,87.28 C435.29,76.48 435.65,66.46 435.77,57.22 L435.77,57.22 L435.77,50.47 C435.77,49.45 435.545,48.61 435.095,47.95 C434.645,47.29 434,46.96 433.16,46.96 C431.72,46.96 431,47.86 431,49.66 C431,50.08 431.03,50.47 431.09,50.83 L431.09,50.83 L431.09,52 C431.09,69.58 430.49,84.82 429.29,97.72 C428.57,95.62 427.52,92.14 426.14,87.28 L426.14,87.28 L425.24,84.04 C423.02,76.18 421.235,70.12 419.885,65.86 C418.535,61.6 417.02,57.55 415.34,53.71 C413.24,48.91 411.5,46.51 410.12,46.51 C410,46.51 409.76,46.57 409.4,46.69 L409.4,46.69 L409.4,46.15 C407.24,47.77 406.16,49.99 406.16,52.81 C406.16,54.61 406.07,57.4 405.89,61.18 C405.71,64.84 405.62,67.63 405.62,69.55 L405.6204,70.6828 C405.624133,75.9356 405.654,80.718 405.71,85.03 L405.71,85.03 L405.8,100.42 C405.8,104.08 406.76,105.91 408.68,105.91 C409.46,105.91 410.12,105.64 410.66,105.1 C411.2,104.56 411.47,103.9 411.47,103.12 C411.47,102.82 411.38,102.52 411.2,102.22 C411.02,101.92 410.9,101.71 410.84,101.59 L410.84,101.59 L410.48,100.96 L410.48,55.69 C412.82,61.21 416.045,69.73 420.155,81.25 C424.265,92.77 426.32,99.52 426.32,101.5 L426.32,101.5 L426.32,101.95 L426.86,103.66 C427.04,104.62 427.31,105.295 427.67,105.685 C428.03,106.075 428.57,106.27 429.29,106.27 Z" id="erfindungen" stroke="#0271BB" stroke-width="2" fill="#0271BB" fill-rule="nonzero"></path>
        <g id="Group-2" transform="translate(475.000000, 20.000000)">
            <path d="M43.7753486,101.957632 C44.0211132,92.7071124 42.5271659,85.6016131 37.2145638,77.8352054 C30.7566292,68.3944545 26.6998212,68.7058738 25.5744052,58.5372939 C24.2885319,46.9189194 24.854231,39.9902988 30.471188,29.9528516 C40.0416599,12.8505119 64.4811165,12.2545257 77.561681,23.8942784 C85.081371,30.5856816 87.0722152,46.0291836 85.4981425,55.4218611 C83.2598863,68.7777999 76.5495553,71.7710079 71.0008397,84.0320678 C65.5771489,96.0168589 75.0124526,105.612851 58.0908517,107.144408 C47.9389678,108.063245 50.6033639,108.839942 45.0751859,106.134681 L43.7753486,101.957632 Z" id="Path-5" fill="#0271BB"></path>
            <path d="M42,94 C56.488818,92.5539393 48.1688839,93.0368195 67,93.2588239" id="Path-6" stroke="#FFFFFF" stroke-width="2"></path>
            <path d="M62,29 C78.393131,33.6525601 80.5373019,49.6849676 75.780122,63" id="Path-7" stroke="#FFFFFF" stroke-width="3"></path>
            <path d="M15,83 C19,80.3333333 23,77.6666667 27,75" id="Path-8" stroke="#0271BB" stroke-width="3"></path>
            <path d="M0,53 C5,52.6666667 10,52.3333333 15,52" id="Path-9" stroke="#0271BB" stroke-width="3"></path>
            <path d="M5,12 C9.66666694,15.3333335 14.3333331,18.6666665 19,22" id="Path-10" stroke="#0271BB" stroke-width="3"></path>
            <line x1="27" y1="0" x2="35.6750793" y2="11.6791178" id="Path-11" stroke="#0271BB" stroke-width="3"></line>
            <path d="M86,10 C90.8941928,8.85448461 87.1082782,10.0802546 96,1" id="Path-13" stroke="#0271BB" stroke-width="3"></path>
            <path d="M96,31 C110.811513,30.7480747 103.138004,31.0515731 119,30" id="Path-14" stroke="#0271BB" stroke-width="3"></path>
            <path d="M103,55 C107.333333,55.3333333 111.666667,55.6666667 116,56" id="Path-15" stroke="#0271BB" stroke-width="3"></path>
            <path d="M96,78 C99.6666667,83 103.333333,88 107,93" id="Path-16" stroke="#0271BB" stroke-width="3"></path>
        </g>
    </g>
</svg>