<?xml version="1.0" encoding="UTF-8"?>
<svg width="689px" height="149px" viewBox="0 0 689 149" version="1.1" xmlns="http://www.w3.org/2000/svg" xmlns:xlink="http://www.w3.org/1999/xlink">
    <title>Evaluation-grau</title>
    <defs>
        <path d="M30.886,89.963654 C31.726,89.963654 32.65,89.903654 33.658,89.783654 L33.658,89.783654 L34.45,89.747654 C35.29,89.675654 35.938,89.639654 36.394,89.639654 C36.706,89.399654 36.862,89.135654 36.862,88.847654 C36.862,88.535654 36.61,88.199654 36.106,87.839654 C34.642,87.839654 33.226,87.959654 31.858,88.199654 C32.194,87.191654 32.734,85.751654 33.478,83.879654 C34.102,82.343654 34.726,80.723654 35.35,79.019654 C35.902,77.531654 36.376,75.833654 36.772,73.925654 C37.168,72.017654 37.366,70.247654 37.366,68.615654 L37.366,68.615654 L37.366,67.643654 C37.342,67.475654 37.324,67.205654 37.312,66.833654 C37.3,66.461654 37.27,66.059654 37.222,65.627654 C37.054,64.739654 36.874,64.103654 36.682,63.719654 C36.322,63.047654 35.938,62.591654 35.53,62.351654 C34.978,61.991654 34.294,61.811654 33.478,61.811654 L33.478,61.811654 L33.478,61.847654 C32.974,61.847654 32.542,62.039654 32.182,62.423654 C31.51,63.191654 31.174,64.139654 31.174,65.267654 C31.174,66.011654 31.462,66.383654 32.038,66.383654 C32.326,66.383654 32.566,66.257654 32.758,66.005654 C32.95,65.753654 33.07,65.435654 33.118,65.051654 C33.262,64.115654 33.526,63.551654 33.91,63.359654 C35.062,63.431654 35.638,64.967654 35.638,67.967654 C35.638,70.775654 35.314,73.439654 34.666,75.959654 C34.018,78.479654 32.986,81.311654 31.57,84.455654 C31.426,84.743654 31.246,85.211654 31.03,85.859654 C30.55,87.203654 30.07,88.163654 29.59,88.739654 L29.59,88.739654 L29.59,88.883654 C29.59,89.195654 29.716,89.453654 29.968,89.657654 C30.22,89.861654 30.526,89.963654 30.886,89.963654 Z" id="path-1"></path>
    </defs>
    <g id="Evaluation-grau" stroke="none" stroke-width="1" fill="none" fill-rule="evenodd">
        <path d="M7.56383635,75.2097342 C7.70944739,84.8575629 9.18816861,92.0122531 12,96.673805 C16.2177471,103.666133 18.1635961,106.48871 24.579904,106.48871 C30.996212,106.48871 36.2589161,109.889112 43.3985454,106.48871 C50.5381746,103.088308 56.7493494,104.699724 58.8746747,93.2129019 C61,81.7260796 61,78.7509946 61,69.6387071 C61,60.5264195 49.7970907,47.5759323 43.3985454,47.5759323 C37,47.5759323 29.1341164,44.0300846 24.579904,47.5759323 C20.0256917,51.12178 12.2600743,58.2468496 10.6823107,61.0305882 C9.63046828,62.886414 8.59097683,67.612796 7.56383635,75.2097342 Z" id="Path-4-Copy-6" fill="#3B515B"></path>
        <g id="2" fill-rule="nonzero" fill="#FFFFFF">
            <use xlink:href="#path-1"></use>
            <use stroke="#FFFFFF" stroke-width="3" xlink:href="#path-1"></use>
        </g>
        <path d="M114.28,105.17 C115.36,105.17 116.275,104.945 117.025,104.495 C117.775,104.045 118.15,103.4 118.15,102.56 C118.15,101.12 117.01,100.4 114.73,100.4 C113.29,100.4 112.06,100.43 111.04,100.49 L111.04,100.49 L108.07,100.58 C107.95,100.58 107.89,98.9 107.89,95.54 C107.89,93.74 107.98,91.01 108.16,87.35 C108.22,84.95 108.25,82.25 108.25,79.25 C108.25,76.25 108.19,73.97 108.07,72.41 L108.07,72.41 L110.32,72.41 C110.92,72.53 111.76,72.59 112.84,72.59 C113.68,72.59 114.37,72.365 114.91,71.915 C115.45,71.465 115.72,70.91 115.72,70.25 C115.72,68.57 114.28,67.73 111.4,67.73 C110.68,67.73 110.08,67.76 109.6,67.82 L109.6,67.82 L108.16,67.91 L107.89,66.47 C107.89,65.03 107.98,62.87 108.16,59.99 C108.22,58.07 108.25,55.91 108.25,53.51 C108.25,51.83 108.22,50.54 108.16,49.64 C110.2,49.94 112.48,50.54 115,51.44 C115.72,51.14 116.335,50.735 116.845,50.225 C117.355,49.715 117.61,49.16 117.61,48.56 C117.61,47.48 116.305,46.55 113.695,45.77 C111.085,44.99 108.79,44.6 106.81,44.6 C104.29,44.6 103.03,46.73 103.03,50.99 C103.03,51.77 103.12,53.03 103.3,54.77 C103.48,56.45 103.57,57.71 103.57,58.55 C103.57,62.09 103.45,66.47 103.21,71.69 C103.03,77.51 102.94,81.89 102.94,84.83 L102.94,84.83 L103.12,90.59 C103.3,93.17 103.39,95.09 103.39,96.35 C103.39,97.07 103.42,97.7 103.48,98.24 L103.48,98.24 L103.48,102.38 C103.54,103.16 103.885,103.82 104.515,104.36 C105.145,104.9 105.85,105.17 106.63,105.17 L106.63,105.17 L114.28,105.17 Z M136.69,105.08 C138.07,105.08 139.3,104.09 140.38,102.11 C141.46,100.13 142.33,97.4 142.99,93.92 C144.01,88.16 144.76,81.65 145.24,74.39 C145.48,71.15 145.735,68.78 146.005,67.28 C146.275,65.78 146.83,63.53 147.67,60.53 C148.69,57.05 149.455,54.065 149.965,51.575 C150.475,49.085 150.73,46.76 150.73,44.6 C150.73,44.06 150.52,43.595 150.1,43.205 C149.68,42.815 149.2,42.62 148.66,42.62 L148.66,42.62 L146.68,42.62 C146.02,46.52 144.88,53.81 143.26,64.49 C141.28,76.97 139.66,86.51 138.4,93.11 C138.22,92.15 138.01,90.56 137.77,88.34 L137.77,88.34 L136.69,80.33 L136.15,76.82 C135.13,69.74 134.26,64.49 133.54,61.07 C132.76,57.47 132.04,54.455 131.38,52.025 C130.72,49.595 130,47.66 129.22,46.22 C128.44,44.72 127.6,43.97 126.7,43.97 C126.16,43.97 125.665,44.18 125.215,44.6 C124.765,45.02 124.54,45.5 124.54,46.04 C124.54,46.94 125.08,49.07 126.16,52.43 C126.58,53.69 126.85,54.62 126.97,55.22 C129.73,65.9 131.755,74.93 133.045,82.31 C134.335,89.69 134.98,96.83 134.98,103.73 L134.98,103.73 L136.69,105.08 Z M177.46,104.81 C178.42,104.45 178.9,103.61 178.9,102.29 L178.9,102.29 L178.9,102.2 C178.9,101.36 178.63,99.5 178.09,96.62 C177.49,93.44 177.19,91.64 177.19,91.22 C177.19,90.8 177.04,89.9 176.74,88.52 C176.44,87.02 176.29,86.09 176.29,85.73 C176.29,82.01 175.69,75.53 174.49,66.29 C173.23,57.29 172.6,50.51 172.6,45.95 C172.6,45.23 172.3,44.675 171.7,44.285 C171.1,43.895 170.38,43.7 169.54,43.7 L169.54,43.7 L166.48,43.7 C166,44.36 165.655,45.35 165.445,46.67 C165.235,47.99 165.04,49.76 164.86,51.98 C164.8,53.06 164.74,53.885 164.68,54.455 C164.62,55.025 164.59,55.43 164.59,55.67 C162.55,70.67 159.55,85.88 155.59,101.3 L155.59,101.3 L155.5,101.66 L155.32,102.11 C155.32,102.77 155.62,103.325 156.22,103.775 C156.82,104.225 157.48,104.45 158.2,104.45 C158.98,104.45 159.58,104.18 160,103.64 C160.78,102.68 161.35,100.73 161.71,97.79 C162.37,93.59 162.88,90.8 163.24,89.42 L163.24,89.42 L172.15,90.77 L172.51,92.66 C173.11,96.98 173.41,100.04 173.41,101.84 C173.41,102.98 173.74,103.76 174.4,104.18 C175.06,104.6 176.08,104.81 177.46,104.81 Z M171.52,87.53 C167.14,87.17 164.5,86.69 163.6,86.09 C164.56,78.89 166.33,68.24 168.91,54.14 L168.91,54.14 L169.81,63.5 C170.77,71.9 171.25,78.8 171.25,84.2 C171.25,85.52 171.34,86.63 171.52,87.53 Z M200.5,105.44 C201.28,105.32 201.94,105.05 202.48,104.63 C203.02,104.21 203.29,103.7 203.29,103.1 C203.29,101.3 201.67,100.4 198.43,100.4 C197.59,100.4 196.9,100.43 196.36,100.49 C195.88,100.49 195.505,100.505 195.235,100.535 C194.965,100.565 194.77,100.58 194.65,100.58 C192.67,100.58 191.68,98.51 191.68,94.37 C191.68,91.67 191.74,89.27 191.86,87.17 L191.86,87.17 L192.04,80.06 L192.04,78.98 C192.04,77.36 192.19,76.1 192.49,75.2 C192.49,71.18 192.46,67.58 192.4,64.4 C192.34,61.16 192.31,57.53 192.31,53.51 C192.31,52.73 192.4,51.59 192.58,50.09 C192.76,48.53 192.85,47.39 192.85,46.67 C192.85,46.07 192.625,45.545 192.175,45.095 C191.725,44.645 191.2,44.42 190.6,44.42 C188.5,44.42 187.45,47.27 187.45,52.97 C187.45,54.83 187.63,57.65 187.99,61.43 L187.99,61.43 L187.99,62.06 C187.99,66.5 187.81,73.19 187.45,82.13 C187.03,90.53 186.82,97.25 186.82,102.29 C186.82,103.01 187.075,103.685 187.585,104.315 C188.095,104.945 188.71,105.26 189.43,105.26 C190.51,105.26 191.53,104.96 192.49,104.36 C195.67,104.36 198.34,104.72 200.5,105.44 Z M220.39,105.35 C228.13,105.35 232,92.03 232,65.39 C232,65.09 231.97,64.82 231.91,64.58 L231.91,64.58 L231.91,63.86 L232.09,60.08 C232.21,59 232.27,57.77 232.27,56.39 C232.27,55.13 232.39,53.63 232.63,51.89 C232.81,49.79 232.9,48.26 232.9,47.3 C232.9,46.28 232.87,45.59 232.81,45.23 C232.69,44.63 232.405,44.105 231.955,43.655 C231.505,43.205 230.89,42.98 230.11,42.98 C229.15,42.98 228.505,43.145 228.175,43.475 C227.845,43.805 227.68,44.33 227.68,45.05 C227.68,45.35 227.71,45.59 227.77,45.77 L227.77,45.77 L227.769352,52.583558 C227.726584,84.221186 225.5668,100.04 221.29,100.04 C217.51,100.04 215.62,97.82 215.62,93.38 C215.62,91.94 215.41,88.76 214.99,83.84 C214.57,79.88 214.36,76.7 214.36,74.3 L214.36,74.3 L214.36,49.82 C214.36,48.56 214.075,47.39 213.505,46.31 C212.935,45.23 212.29,44.69 211.57,44.69 C210.85,44.69 210.22,45.32 209.68,46.58 C209.68,47.06 209.74,48.44 209.86,50.72 C209.86,51.56 209.89,52.16 209.95,52.52 L209.95,52.52 L210.04,59.45 C210.04,68.81 210.13,76.73 210.31,83.21 C210.31,87.05 210.52,90.35 210.94,93.11 C211.36,96.29 212.29,99.14 213.73,101.66 C214.45,102.86 215.38,103.775 216.52,104.405 C217.66,105.035 218.95,105.35 220.39,105.35 Z M260.98,104.81 C261.94,104.45 262.42,103.61 262.42,102.29 L262.42,102.29 L262.42,102.2 C262.42,101.36 262.15,99.5 261.61,96.62 C261.01,93.44 260.71,91.64 260.71,91.22 C260.71,90.8 260.56,89.9 260.26,88.52 C259.96,87.02 259.81,86.09 259.81,85.73 C259.81,82.01 259.21,75.53 258.01,66.29 C256.75,57.29 256.12,50.51 256.12,45.95 C256.12,45.23 255.82,44.675 255.22,44.285 C254.62,43.895 253.9,43.7 253.06,43.7 L253.06,43.7 L250,43.7 C249.52,44.36 249.175,45.35 248.965,46.67 C248.755,47.99 248.56,49.76 248.38,51.98 C248.32,53.06 248.26,53.885 248.2,54.455 C248.14,55.025 248.11,55.43 248.11,55.67 C246.07,70.67 243.07,85.88 239.11,101.3 L239.11,101.3 L239.02,101.66 L238.84,102.11 C238.84,102.77 239.14,103.325 239.74,103.775 C240.34,104.225 241,104.45 241.72,104.45 C242.5,104.45 243.1,104.18 243.52,103.64 C244.3,102.68 244.87,100.73 245.23,97.79 C245.89,93.59 246.4,90.8 246.76,89.42 L246.76,89.42 L255.67,90.77 L256.03,92.66 C256.63,96.98 256.93,100.04 256.93,101.84 C256.93,102.98 257.26,103.76 257.92,104.18 C258.58,104.6 259.6,104.81 260.98,104.81 Z M255.04,87.53 C250.66,87.17 248.02,86.69 247.12,86.09 C248.08,78.89 249.85,68.24 252.43,54.14 L252.43,54.14 L253.33,63.5 C254.29,71.9 254.77,78.8 254.77,84.2 C254.77,85.52 254.86,86.63 255.04,87.53 Z M276.82,103.73 C277.6,103.73 278.305,103.46 278.935,102.92 C279.565,102.38 279.88,101.75 279.88,101.03 C279.88,94.97 279.4,86.45 278.44,75.47 C277.42,63.77 276.91,55.25 276.91,49.91 L276.91,49.91 L277,49.46 L277.09,49.01 L278.89,49.37 C279.91,49.55 280.69,49.64 281.23,49.64 C282.01,49.64 282.7,49.415 283.3,48.965 C283.9,48.515 284.2,47.93 284.2,47.21 C284.2,45.77 283.27,45.05 281.41,45.05 L281.41,45.05 L279.97,45.05 C278.17,45.05 276.13,44.9 273.85,44.6 C271.45,44.36 269.41,44.24 267.73,44.24 C267.07,44.24 266.425,44.435 265.795,44.825 C265.165,45.215 264.85,45.65 264.85,46.13 C264.85,46.73 265.18,47.27 265.84,47.75 C266.8,48.35 269.02,48.71 272.5,48.83 C272.62,52.37 273.04,60.38 273.76,72.86 C274.48,85.34 274.93,91.91 275.11,92.57 L275.11,92.57 L275.02,95.63 C275.02,96.89 275.05,98.03 275.11,99.05 L275.11,99.05 L275.2,102.56 L276.82,103.73 Z M297.7,103.91 C298.24,103.91 299.47,103.85 301.39,103.73 C302.29,103.73 302.905,103.715 303.235,103.685 C303.565,103.655 303.76,103.64 303.82,103.64 L303.82,103.64 L306.07,102.11 L306.07,101.57 C306.07,99.47 304.81,98.42 302.29,98.42 C301.45,98.42 300.85,98.45 300.49,98.51 L300.49,98.51 L300.49,95.09 C300.49,92.21 300.34,89.39 300.04,86.63 C299.68,82.43 299.44,79.25 299.32,77.09 C298.6,65.39 298.24,56.63 298.24,50.81 C298.24,50.09 298.375,49.595 298.645,49.325 C298.915,49.055 299.35,48.92 299.95,48.92 L299.95,48.92 L300.67,48.92 C300.91,48.98 301.21,49.01 301.57,49.01 C302.17,49.01 302.665,48.77 303.055,48.29 C303.445,47.81 303.64,47.24 303.64,46.58 C303.64,45.92 303.385,45.335 302.875,44.825 C302.365,44.315 301.75,44.06 301.03,44.06 C299.17,44.06 297.04,44.3 294.64,44.78 C293.26,45.02 292.12,45.41 291.22,45.95 C290.32,46.49 289.87,47.12 289.87,47.84 C289.87,49.28 290.59,50 292.03,50 C292.45,50 293.14,49.88 294.1,49.64 C294.28,50.96 294.37,52.61 294.37,54.59 L294.37,54.59 L294.28,59.18 C294.22,60.56 294.19,62.09 294.19,63.77 C294.19,68.45 294.46,75.38 295,84.56 C295.24,88.28 295.45,90.86 295.63,92.3 C295.75,94.46 295.81,96.05 295.81,97.07 C295.81,97.85 295.72,98.39 295.54,98.69 C295.36,98.99 295.03,99.14 294.55,99.14 L294.55,99.14 L293.65,99.05 L292.66,99.05 C290.8,99.05 289.87,99.77 289.87,101.21 C289.87,103.01 292.48,103.91 297.7,103.91 Z M324.07,105.71 C332.11,105.71 336.13,97.07 336.13,79.79 L336.13,79.79 L336.04,74.66 C335.98,73.16 335.95,71.48 335.95,69.62 L335.95,69.62 L335.95,68.9 C335.95,66.08 335.77,63.41 335.41,60.89 C335.05,58.43 334.45,56.105 333.61,53.915 C332.77,51.725 331.75,49.88 330.55,48.38 C329.23,46.82 327.61,45.605 325.69,44.735 C323.77,43.865 321.61,43.43 319.21,43.43 C318.37,43.43 317.62,43.745 316.96,44.375 C316.3,45.005 315.76,45.92 315.34,47.12 C314.26,49.82 313.57,52.61 313.27,55.49 C312.85,59.69 312.61,62.75 312.55,64.67 L312.55,64.67 L312.46,70.97 L312.46,72.59 C312.52,72.59 312.55,72.74 312.55,73.04 L312.55,73.04 L312.55,74.66 C312.49,75.14 312.46,75.74 312.46,76.46 C312.46,80.24 312.73,84.17 313.27,88.25 C313.69,92.57 314.77,96.56 316.51,100.22 C317.35,101.9 318.43,103.235 319.75,104.225 C321.07,105.215 322.51,105.71 324.07,105.71 Z M323.71,101.93 C321.85,101.93 320.44,99.71 319.48,95.27 C318.52,91.01 317.92,86.63 317.68,82.13 C317.5,78.95 317.41,75.74 317.41,72.5 C317.41,71 317.47,69.62 317.59,68.36 L317.59,68.36 L317.77,64.22 L317.77,61.79 C317.71,61.01 317.68,60.05 317.68,58.91 C317.68,55.97 317.98,53.57 318.58,51.71 C319.24,49.37 320.59,48.2 322.63,48.2 C324.67,48.2 326.395,49.04 327.805,50.72 C329.215,52.4 329.98,54.38 330.1,56.66 L330.1,56.66 L330.100864,58.559216 C330.114688,60.837872 330.2944,64.1948 330.64,68.63 C331.06,73.01 331.27,76.55 331.27,79.25 C331.27,81.47 331.12,84.11 330.82,87.17 C330.58,90.71 329.89,94.01 328.75,97.07 C328.27,98.57 327.58,99.755 326.68,100.625 C325.78,101.495 324.79,101.93 323.71,101.93 Z M370.51,104.27 C370.93,104.27 372.01,104.03 373.75,103.55 C374.59,102.17 375.31,96.08 375.91,85.28 C376.51,74.48 376.87,64.46 376.99,55.22 L376.99,55.22 L376.99,48.47 C376.99,47.45 376.765,46.61 376.315,45.95 C375.865,45.29 375.22,44.96 374.38,44.96 C372.94,44.96 372.22,45.86 372.22,47.66 C372.22,48.08 372.25,48.47 372.31,48.83 L372.31,48.83 L372.31,50 C372.31,67.58 371.71,82.82 370.51,95.72 C369.79,93.62 368.74,90.14 367.36,85.28 L367.36,85.28 L366.46,82.04 C364.24,74.18 362.455,68.12 361.105,63.86 C359.755,59.6 358.24,55.55 356.56,51.71 C354.46,46.91 352.72,44.51 351.34,44.51 C351.22,44.51 350.98,44.57 350.62,44.69 L350.62,44.69 L350.62,44.15 C348.46,45.77 347.38,47.99 347.38,50.81 C347.38,52.61 347.29,55.4 347.11,59.18 C346.93,62.84 346.84,65.63 346.84,67.55 C346.84,73.25 346.87,78.41 346.93,83.03 L346.93,83.03 L347.02,98.42 C347.02,102.08 347.98,103.91 349.9,103.91 C350.68,103.91 351.34,103.64 351.88,103.1 C352.42,102.56 352.69,101.9 352.69,101.12 C352.69,100.82 352.6,100.52 352.42,100.22 C352.24,99.92 352.12,99.71 352.06,99.59 L352.06,99.59 L351.7,98.96 L351.7,53.69 C354.04,59.21 357.265,67.73 361.375,79.25 C365.485,90.77 367.54,97.52 367.54,99.5 L367.54,99.5 L367.54,99.95 L368.08,101.66 C368.26,102.62 368.53,103.295 368.89,103.685 C369.25,104.075 369.79,104.27 370.51,104.27 Z" id="evaluation" stroke="#3B515B" stroke-width="2" fill="#3B515B" fill-rule="nonzero"></path>
    </g>
</svg>