<?xml version="1.0" encoding="UTF-8"?>
<svg width="689px" height="149px" viewBox="0 0 689 149" version="1.1" xmlns="http://www.w3.org/2000/svg" xmlns:xlink="http://www.w3.org/1999/xlink">
    <title>Finanzierung-grau</title>
    <defs>
        <path d="M30.886,89.963654 C31.726,89.963654 32.65,89.903654 33.658,89.783654 L33.658,89.783654 L34.45,89.747654 C35.29,89.675654 35.938,89.639654 36.394,89.639654 C36.706,89.399654 36.862,89.135654 36.862,88.847654 C36.862,88.535654 36.61,88.199654 36.106,87.839654 C34.642,87.839654 33.226,87.959654 31.858,88.199654 C32.194,87.191654 32.734,85.751654 33.478,83.879654 C34.102,82.343654 34.726,80.723654 35.35,79.019654 C35.902,77.531654 36.376,75.833654 36.772,73.925654 C37.168,72.017654 37.366,70.247654 37.366,68.615654 L37.366,68.615654 L37.366,67.643654 C37.342,67.475654 37.324,67.205654 37.312,66.833654 C37.3,66.461654 37.27,66.059654 37.222,65.627654 C37.054,64.739654 36.874,64.103654 36.682,63.719654 C36.322,63.047654 35.938,62.591654 35.53,62.351654 C34.978,61.991654 34.294,61.811654 33.478,61.811654 L33.478,61.811654 L33.478,61.847654 C32.974,61.847654 32.542,62.039654 32.182,62.423654 C31.51,63.191654 31.174,64.139654 31.174,65.267654 C31.174,66.011654 31.462,66.383654 32.038,66.383654 C32.326,66.383654 32.566,66.257654 32.758,66.005654 C32.95,65.753654 33.07,65.435654 33.118,65.051654 C33.262,64.115654 33.526,63.551654 33.91,63.359654 C35.062,63.431654 35.638,64.967654 35.638,67.967654 C35.638,70.775654 35.314,73.439654 34.666,75.959654 C34.018,78.479654 32.986,81.311654 31.57,84.455654 C31.426,84.743654 31.246,85.211654 31.03,85.859654 C30.55,87.203654 30.07,88.163654 29.59,88.739654 L29.59,88.739654 L29.59,88.883654 C29.59,89.195654 29.716,89.453654 29.968,89.657654 C30.22,89.861654 30.526,89.963654 30.886,89.963654 Z" id="path-1"></path>
    </defs>
    <g id="Finanzierung-grau" stroke="none" stroke-width="1" fill="none" fill-rule="evenodd">
        <path d="M7.56383635,75.2097342 C7.70944739,84.8575629 9.18816861,92.0122531 12,96.673805 C16.2177471,103.666133 18.1635961,106.48871 24.579904,106.48871 C30.996212,106.48871 36.2589161,109.889112 43.3985454,106.48871 C50.5381746,103.088308 56.7493494,104.699724 58.8746747,93.2129019 C61,81.7260796 61,78.7509946 61,69.6387071 C61,60.5264195 49.7970907,47.5759323 43.3985454,47.5759323 C37,47.5759323 29.1341164,44.0300846 24.579904,47.5759323 C20.0256917,51.12178 12.2600743,58.2468496 10.6823107,61.0305882 C9.63046828,62.886414 8.59097683,67.612796 7.56383635,75.2097342 Z" id="Path-4-Copy-6" fill="#3B515B"></path>
        <g id="2" fill-rule="nonzero" fill="#FFFFFF">
            <use xlink:href="#path-1"></use>
            <use stroke="#FFFFFF" stroke-width="3" xlink:href="#path-1"></use>
        </g>
        <path d="M111.211511,102.286331 C112.757794,102.286331 113.530935,100.977938 113.530935,98.3611511 L113.530935,98.3611511 L113.530935,73.1151079 C114.423022,73.41247 115.582734,73.5611511 117.010072,73.5611511 C117.902158,73.5611511 118.660432,73.3232614 119.284892,72.847482 C119.909353,72.3717026 120.221583,71.7472422 120.221583,70.9741007 C120.221583,69.4278177 118.764508,68.6546763 115.85036,68.6546763 L115.85036,68.6546763 L114.244604,68.6546763 L114.244604,66.2460432 C114.244604,63.5697842 114.393285,60.5664269 114.690647,57.2359712 C114.928537,53.6676259 115.047482,50.723741 115.047482,48.4043165 L115.047482,48.4043165 L115.047482,47.3338129 L116.117986,47.3338129 C118.080576,47.3338129 119.626859,47.6311751 120.756835,48.2258993 C123.789928,48.2258993 125.306475,47.3932854 125.306475,45.7280576 C125.306475,44.9549161 124.845564,44.3007194 123.923741,43.7654676 C123.001918,43.2302158 121.767866,42.8436451 120.221583,42.6057554 C117.842686,42.2489209 115.61247,42.0705036 113.530935,42.0705036 C112.638849,42.0705036 111.850839,42.3083933 111.166906,42.7841727 C110.482974,43.259952 110.141007,43.9141487 110.141007,44.7467626 C110.141007,47.0067146 110.022062,51.0508393 109.784173,56.8791367 L109.784173,56.8791367 L109.784173,59.0201439 C109.665228,61.1611511 109.457074,67.5544365 109.159712,78.2 C108.86235,88.4292566 108.475779,96.0119904 108,100.948201 C109.248921,101.840288 110.319424,102.286331 111.211511,102.286331 Z M135.833094,101.394245 C136.368345,101.394245 137.58753,101.334772 139.490647,101.215827 C140.382734,101.215827 140.992326,101.200959 141.319424,101.171223 C141.646523,101.141487 141.839808,101.126619 141.899281,101.126619 L141.899281,101.126619 L144.129496,99.6100719 L144.129496,99.0748201 C144.129496,96.9932854 142.880576,95.952518 140.382734,95.952518 C139.55012,95.952518 138.955396,95.9822542 138.598561,96.0417266 L138.598561,96.0417266 L138.598561,92.6517986 C138.598561,89.7971223 138.44988,87.0019185 138.152518,84.2661871 C137.795683,80.1031175 137.557794,76.9510791 137.438849,74.8100719 C136.72518,63.2129496 136.368345,54.529976 136.368345,48.7611511 C136.368345,48.047482 136.502158,47.5568345 136.769784,47.2892086 C137.03741,47.0215827 137.468585,46.8877698 138.063309,46.8877698 L138.063309,46.8877698 L138.776978,46.8877698 C139.014868,46.9472422 139.31223,46.9769784 139.669065,46.9769784 C140.263789,46.9769784 140.754436,46.7390887 141.141007,46.2633094 C141.527578,45.78753 141.720863,45.222542 141.720863,44.5683453 C141.720863,43.9141487 141.468106,43.3342926 140.96259,42.828777 C140.457074,42.3232614 139.847482,42.0705036 139.133813,42.0705036 C137.290168,42.0705036 135.178897,42.3083933 132.8,42.7841727 C131.432134,43.0220624 130.302158,43.4086331 129.410072,43.9438849 C128.517986,44.4791367 128.071942,45.1035971 128.071942,45.8172662 C128.071942,47.2446043 128.785612,47.9582734 130.21295,47.9582734 C130.629257,47.9582734 131.313189,47.8393285 132.264748,47.6014388 C132.443165,48.9098321 132.532374,50.5453237 132.532374,52.5079137 L132.532374,52.5079137 L132.443165,57.057554 C132.383693,58.4254197 132.353957,59.9419664 132.353957,61.6071942 C132.353957,66.2460432 132.621583,73.1151079 133.156835,82.2143885 C133.394724,85.9016787 133.602878,88.4589928 133.781295,89.8863309 C133.90024,92.0273381 133.959712,93.6033573 133.959712,94.6143885 C133.959712,95.38753 133.870504,95.9227818 133.692086,96.2201439 C133.513669,96.517506 133.186571,96.6661871 132.710791,96.6661871 L132.710791,96.6661871 L131.818705,96.5769784 L130.83741,96.5769784 C128.993765,96.5769784 128.071942,97.2906475 128.071942,98.7179856 C128.071942,100.502158 130.658993,101.394245 135.833094,101.394245 Z M111.211511,102.286331 C112.757794,102.286331 113.530935,100.977938 113.530935,98.3611511 L113.530935,98.3611511 L113.530935,73.1151079 C114.423022,73.41247 115.582734,73.5611511 117.010072,73.5611511 C117.902158,73.5611511 118.660432,73.3232614 119.284892,72.847482 C119.909353,72.3717026 120.221583,71.7472422 120.221583,70.9741007 C120.221583,69.4278177 118.764508,68.6546763 115.85036,68.6546763 L115.85036,68.6546763 L114.244604,68.6546763 L114.244604,66.2460432 C114.244604,63.5697842 114.393285,60.5664269 114.690647,57.2359712 C114.928537,53.6676259 115.047482,50.723741 115.047482,48.4043165 L115.047482,48.4043165 L115.047482,47.3338129 L116.117986,47.3338129 C118.080576,47.3338129 119.626859,47.6311751 120.756835,48.2258993 C123.789928,48.2258993 125.306475,47.3932854 125.306475,45.7280576 C125.306475,44.9549161 124.845564,44.3007194 123.923741,43.7654676 C123.001918,43.2302158 121.767866,42.8436451 120.221583,42.6057554 C117.842686,42.2489209 115.61247,42.0705036 113.530935,42.0705036 C112.638849,42.0705036 111.850839,42.3083933 111.166906,42.7841727 C110.482974,43.259952 110.141007,43.9141487 110.141007,44.7467626 C110.141007,47.0067146 110.022062,51.0508393 109.784173,56.8791367 L109.784173,56.8791367 L109.784173,59.0201439 C109.665228,61.1611511 109.457074,67.5544365 109.159712,78.2 C108.86235,88.4292566 108.475779,96.0119904 108,100.948201 C109.248921,101.840288 110.319424,102.286331 111.211511,102.286331 Z M135.833094,101.394245 C136.368345,101.394245 137.58753,101.334772 139.490647,101.215827 C140.382734,101.215827 140.992326,101.200959 141.319424,101.171223 C141.646523,101.141487 141.839808,101.126619 141.899281,101.126619 L141.899281,101.126619 L144.129496,99.6100719 L144.129496,99.0748201 C144.129496,96.9932854 142.880576,95.952518 140.382734,95.952518 C139.55012,95.952518 138.955396,95.9822542 138.598561,96.0417266 L138.598561,96.0417266 L138.598561,92.6517986 C138.598561,89.7971223 138.44988,87.0019185 138.152518,84.2661871 C137.795683,80.1031175 137.557794,76.9510791 137.438849,74.8100719 C136.72518,63.2129496 136.368345,54.529976 136.368345,48.7611511 C136.368345,48.047482 136.502158,47.5568345 136.769784,47.2892086 C137.03741,47.0215827 137.468585,46.8877698 138.063309,46.8877698 L138.063309,46.8877698 L138.776978,46.8877698 C139.014868,46.9472422 139.31223,46.9769784 139.669065,46.9769784 C140.263789,46.9769784 140.754436,46.7390887 141.141007,46.2633094 C141.527578,45.78753 141.720863,45.222542 141.720863,44.5683453 C141.720863,43.9141487 141.468106,43.3342926 140.96259,42.828777 C140.457074,42.3232614 139.847482,42.0705036 139.133813,42.0705036 C137.290168,42.0705036 135.178897,42.3083933 132.8,42.7841727 C131.432134,43.0220624 130.302158,43.4086331 129.410072,43.9438849 C128.517986,44.4791367 128.071942,45.1035971 128.071942,45.8172662 C128.071942,47.2446043 128.785612,47.9582734 130.21295,47.9582734 C130.629257,47.9582734 131.313189,47.8393285 132.264748,47.6014388 C132.443165,48.9098321 132.532374,50.5453237 132.532374,52.5079137 L132.532374,52.5079137 L132.443165,57.057554 C132.383693,58.4254197 132.353957,59.9419664 132.353957,61.6071942 C132.353957,66.2460432 132.621583,73.1151079 133.156835,82.2143885 C133.394724,85.9016787 133.602878,88.4589928 133.781295,89.8863309 C133.90024,92.0273381 133.959712,93.6033573 133.959712,94.6143885 C133.959712,95.38753 133.870504,95.9227818 133.692086,96.2201439 C133.513669,96.517506 133.186571,96.6661871 132.710791,96.6661871 L132.710791,96.6661871 L131.818705,96.5769784 L130.83741,96.5769784 C128.993765,96.5769784 128.071942,97.2906475 128.071942,98.7179856 C128.071942,100.502158 130.658993,101.394245 135.833094,101.394245 Z M175.88777,101.751079 C176.304077,101.751079 177.37458,101.513189 179.099281,101.03741 C179.931894,99.6695444 180.645564,93.6330935 181.240288,82.9280576 C181.835012,72.2230216 182.191847,62.2911271 182.310791,53.1323741 L182.310791,53.1323741 L182.310791,46.4417266 C182.310791,45.4306954 182.08777,44.5980815 181.641727,43.9438849 C181.195683,43.2896882 180.556355,42.9625899 179.723741,42.9625899 C178.296403,42.9625899 177.582734,43.8546763 177.582734,45.6388489 C177.582734,46.0551559 177.61247,46.4417266 177.671942,46.7985612 L177.671942,46.7985612 L177.671942,47.9582734 C177.671942,65.383693 177.077218,80.4896882 175.88777,93.276259 C175.174101,91.1947242 174.133333,87.7453237 172.765468,82.9280576 L172.765468,82.9280576 L171.873381,79.7165468 C170.498082,74.8472422 169.29121,70.6748801 168.252765,67.1994604 L167.946285,66.1777428 C167.443906,64.5097272 166.983633,63.0159472 166.565468,61.6964029 C165.227338,57.4738609 163.725659,53.4594724 162.060432,49.6532374 C159.978897,44.8954436 158.254197,42.5165468 156.886331,42.5165468 C156.767386,42.5165468 156.529496,42.5760192 156.172662,42.694964 L156.172662,42.694964 L156.172662,42.1597122 C154.031655,43.7654676 152.961151,45.9659472 152.961151,48.7611511 C152.961151,50.5453237 152.871942,53.3107914 152.693525,57.057554 C152.515108,60.6853717 152.425899,63.4508393 152.425899,65.3539568 L152.426296,66.4767962 C152.429996,71.6834085 152.4596,76.423757 152.515108,80.6978417 L152.515108,80.6978417 L152.604317,95.952518 C152.604317,99.5803357 153.555875,101.394245 155.458993,101.394245 C156.232134,101.394245 156.886331,101.126619 157.421583,100.591367 C157.956835,100.056115 158.22446,99.4019185 158.22446,98.628777 C158.22446,98.3314149 158.135252,98.0340528 157.956835,97.7366906 C157.778417,97.4393285 157.659472,97.2311751 157.6,97.1122302 L157.6,97.1122302 L157.243165,96.4877698 L157.243165,51.6158273 C158.526251,54.642594 160.077784,58.5793507 161.897764,63.4260973 L162.322525,64.560731 C163.682691,68.2048908 165.186214,72.3350069 166.833094,76.9510791 C170.906954,88.3697842 172.943885,95.0604317 172.943885,97.0230216 L172.943885,97.0230216 L172.943885,97.4690647 L173.479137,99.1640288 C173.657554,100.115588 173.92518,100.784652 174.282014,101.171223 C174.638849,101.557794 175.174101,101.751079 175.88777,101.751079 Z M211.838849,102.286331 C212.790408,101.929496 213.266187,101.096882 213.266187,99.7884892 L213.266187,99.7884892 L213.266187,99.6992806 C213.266187,98.8666667 212.998561,97.0230216 212.463309,94.1683453 C211.868585,91.016307 211.571223,89.2321343 211.571223,88.8158273 C211.571223,88.3995204 211.422542,87.5074341 211.12518,86.1395683 C210.827818,84.6527578 210.679137,83.7309353 210.679137,83.3741007 C210.679137,79.6868106 210.084412,73.263789 208.894964,64.105036 C207.646043,55.1841727 207.021583,48.463789 207.021583,43.9438849 C207.021583,43.2302158 206.724221,42.6800959 206.129496,42.2935252 C205.534772,41.9069544 204.821103,41.7136691 203.988489,41.7136691 L203.988489,41.7136691 L200.955396,41.7136691 C200.479616,42.3678657 200.13765,43.3491607 199.929496,44.657554 C199.721343,45.9659472 199.528058,47.7203837 199.34964,49.9208633 C199.290168,50.9913669 199.230695,51.8091127 199.171223,52.3741007 C199.111751,52.9390887 199.082014,53.3405276 199.082014,53.5784173 C197.059952,68.4465228 194.086331,83.5227818 190.161151,98.8071942 L190.161151,98.8071942 L190.071942,99.1640288 L189.893525,99.6100719 C189.893525,100.264269 190.190887,100.814388 190.785612,101.260432 C191.380336,101.706475 192.034532,101.929496 192.748201,101.929496 C193.521343,101.929496 194.116067,101.661871 194.532374,101.126619 C195.305516,100.17506 195.870504,98.2422062 196.227338,95.3280576 C196.881535,91.164988 197.38705,88.3995204 197.743885,87.0316547 L197.743885,87.0316547 L206.57554,88.3697842 L206.932374,90.2431655 C207.527098,94.5251799 207.82446,97.5582734 207.82446,99.342446 C207.82446,100.472422 208.151559,101.245564 208.805755,101.661871 C209.459952,102.078177 210.470983,102.286331 211.838849,102.286331 Z M205.951079,85.1582734 C201.609592,84.8014388 198.992806,84.3256595 198.100719,83.7309353 C199.052278,76.5942446 200.806715,66.0378897 203.364029,52.0618705 L203.364029,52.0618705 L204.256115,61.3395683 C205.207674,69.6657074 205.683453,76.505036 205.683453,81.857554 C205.683453,83.1659472 205.772662,84.2661871 205.951079,85.1582734 Z M245.292086,101.751079 C245.708393,101.751079 246.778897,101.513189 248.503597,101.03741 C249.336211,99.6695444 250.04988,93.6330935 250.644604,82.9280576 C251.239329,72.2230216 251.596163,62.2911271 251.715108,53.1323741 L251.715108,53.1323741 L251.715108,46.4417266 C251.715108,45.4306954 251.492086,44.5980815 251.046043,43.9438849 C250.6,43.2896882 249.960671,42.9625899 249.128058,42.9625899 C247.700719,42.9625899 246.98705,43.8546763 246.98705,45.6388489 C246.98705,46.0551559 247.016787,46.4417266 247.076259,46.7985612 L247.076259,46.7985612 L247.076259,47.9582734 C247.076259,65.383693 246.481535,80.4896882 245.292086,93.276259 C244.578417,91.1947242 243.53765,87.7453237 242.169784,82.9280576 L242.169784,82.9280576 L241.277698,79.7165468 C239.902398,74.8472422 238.695526,70.6748801 237.657082,67.1994604 L237.350601,66.1777428 C236.848222,64.5097272 236.38795,63.0159472 235.969784,61.6964029 C234.631655,57.4738609 233.129976,53.4594724 231.464748,49.6532374 C229.383213,44.8954436 227.658513,42.5165468 226.290647,42.5165468 C226.171703,42.5165468 225.933813,42.5760192 225.576978,42.694964 L225.576978,42.694964 L225.576978,42.1597122 C223.435971,43.7654676 222.365468,45.9659472 222.365468,48.7611511 C222.365468,50.5453237 222.276259,53.3107914 222.097842,57.057554 C221.919424,60.6853717 221.830216,63.4508393 221.830216,65.3539568 L221.830612,66.4767962 C221.834313,71.6834085 221.863917,76.423757 221.919424,80.6978417 L221.919424,80.6978417 L222.008633,95.952518 C222.008633,99.5803357 222.960192,101.394245 224.863309,101.394245 C225.636451,101.394245 226.290647,101.126619 226.825899,100.591367 C227.361151,100.056115 227.628777,99.4019185 227.628777,98.628777 C227.628777,98.3314149 227.539568,98.0340528 227.361151,97.7366906 C227.182734,97.4393285 227.063789,97.2311751 227.004317,97.1122302 L227.004317,97.1122302 L226.647482,96.4877698 L226.647482,51.6158273 C227.930568,54.642594 229.482101,58.5793507 231.302081,63.4260973 L231.726841,64.560731 C233.087007,68.2048908 234.59053,72.3350069 236.23741,76.9510791 C240.311271,88.3697842 242.348201,95.0604317 242.348201,97.0230216 L242.348201,97.0230216 L242.348201,97.4690647 L242.883453,99.1640288 C243.061871,100.115588 243.329496,100.784652 243.686331,101.171223 C244.043165,101.557794 244.578417,101.751079 245.292086,101.751079 Z M265.007194,101.661871 C265.304556,101.661871 265.839808,101.513189 266.61295,101.215827 C267.267146,100.858993 267.772662,100.680576 268.129496,100.680576 L268.129496,100.680576 L270.805755,100.858993 C271.578897,100.918465 272.441247,100.948201 273.392806,100.948201 C274.284892,100.948201 275.028297,100.754916 275.623022,100.368345 C276.217746,99.9817746 276.515108,99.4613909 276.515108,98.8071942 C276.515108,97.3203837 275.325659,96.5769784 272.946763,96.5769784 L272.946763,96.5769784 L272.946763,96.6661871 C272.233094,96.6661871 271.608633,96.6959233 271.073381,96.7553957 L271.073381,96.7553957 L269.2,96.9338129 L267.594245,96.9338129 L271.519424,81.5007194 C274.017266,71.9256595 275.563549,65.0268585 276.158273,60.8043165 C276.455635,59.0796163 277.228777,56.5520384 278.477698,53.2215827 C279.786091,49.4748201 280.440288,46.6498801 280.440288,44.7467626 C280.440288,43.0815348 278.953477,42.2489209 275.979856,42.2489209 C269.43789,42.2489209 266.166906,43.111271 266.166906,44.8359712 C266.166906,45.4901679 266.404796,46.070024 266.880576,46.5755396 C267.356355,47.0810552 267.891607,47.3338129 268.486331,47.3338129 C269.43789,47.3338129 270.716547,47.2446043 272.322302,47.0661871 C273.928058,46.8877698 275.08777,46.7985612 275.801439,46.7985612 C275.147242,49.3558753 273.482014,55.0652278 270.805755,63.9266187 C268.129496,72.4906475 266.092566,79.6868106 264.694964,85.5151079 C263.297362,91.3434053 262.598561,96.0417266 262.598561,99.6100719 C262.598561,100.204796 262.836451,100.695444 263.31223,101.082014 C263.78801,101.468585 264.352998,101.661871 265.007194,101.661871 Z M294.178417,101.394245 C294.713669,101.394245 295.932854,101.334772 297.835971,101.215827 C298.728058,101.215827 299.33765,101.200959 299.664748,101.171223 C299.991847,101.141487 300.185132,101.126619 300.244604,101.126619 L300.244604,101.126619 L302.47482,99.6100719 L302.47482,99.0748201 C302.47482,96.9932854 301.225899,95.952518 298.728058,95.952518 C297.895444,95.952518 297.300719,95.9822542 296.943885,96.0417266 L296.943885,96.0417266 L296.943885,92.6517986 C296.943885,89.7971223 296.795204,87.0019185 296.497842,84.2661871 C296.141007,80.1031175 295.903118,76.9510791 295.784173,74.8100719 C295.070504,63.2129496 294.713669,54.529976 294.713669,48.7611511 C294.713669,48.047482 294.847482,47.5568345 295.115108,47.2892086 C295.382734,47.0215827 295.813909,46.8877698 296.408633,46.8877698 L296.408633,46.8877698 L297.122302,46.8877698 C297.360192,46.9472422 297.657554,46.9769784 298.014388,46.9769784 C298.609113,46.9769784 299.09976,46.7390887 299.486331,46.2633094 C299.872902,45.78753 300.066187,45.222542 300.066187,44.5683453 C300.066187,43.9141487 299.813429,43.3342926 299.307914,42.828777 C298.802398,42.3232614 298.192806,42.0705036 297.479137,42.0705036 C295.635492,42.0705036 293.524221,42.3083933 291.145324,42.7841727 C289.777458,43.0220624 288.647482,43.4086331 287.755396,43.9438849 C286.863309,44.4791367 286.417266,45.1035971 286.417266,45.8172662 C286.417266,47.2446043 287.130935,47.9582734 288.558273,47.9582734 C288.97458,47.9582734 289.658513,47.8393285 290.610072,47.6014388 C290.788489,48.9098321 290.877698,50.5453237 290.877698,52.5079137 L290.877698,52.5079137 L290.788489,57.057554 C290.729017,58.4254197 290.699281,59.9419664 290.699281,61.6071942 C290.699281,66.2460432 290.966906,73.1151079 291.502158,82.2143885 C291.740048,85.9016787 291.948201,88.4589928 292.126619,89.8863309 C292.245564,92.0273381 292.305036,93.6033573 292.305036,94.6143885 C292.305036,95.38753 292.215827,95.9227818 292.03741,96.2201439 C291.858993,96.517506 291.531894,96.6661871 291.056115,96.6661871 L291.056115,96.6661871 L290.164029,96.5769784 L289.182734,96.5769784 C287.339089,96.5769784 286.417266,97.2906475 286.417266,98.7179856 C286.417266,100.502158 289.004317,101.394245 294.178417,101.394245 Z M321.565468,102.643165 C322.635971,102.643165 323.542926,102.420144 324.286331,101.974101 C325.029736,101.528058 325.401439,100.888729 325.401439,100.056115 C325.401439,98.628777 324.271463,97.9151079 322.011511,97.9151079 C320.584173,97.9151079 319.364988,97.9448441 318.353957,98.0043165 L318.353957,98.0043165 L315.410072,98.0935252 C315.291127,98.0935252 315.231655,96.4282974 315.231655,93.0978417 C315.231655,91.3136691 315.320863,88.6076739 315.499281,84.9798561 C315.558753,82.6009592 315.588489,79.9247002 315.588489,76.9510791 C315.588489,73.977458 315.529017,71.717506 315.410072,70.171223 L315.410072,70.171223 L317.640288,70.171223 C318.235012,70.2901679 319.067626,70.3496403 320.138129,70.3496403 C320.970743,70.3496403 321.654676,70.1266187 322.189928,69.6805755 C322.72518,69.2345324 322.992806,68.6844125 322.992806,68.0302158 C322.992806,66.364988 321.565468,65.5323741 318.710791,65.5323741 C317.997122,65.5323741 317.402398,65.5621103 316.926619,65.6215827 L316.926619,65.6215827 L315.499281,65.7107914 L315.231655,64.2834532 C315.231655,62.8561151 315.320863,60.7151079 315.499281,57.8604317 C315.558753,55.9573141 315.588489,53.816307 315.588489,51.4374101 C315.588489,49.7721823 315.558753,48.4935252 315.499281,47.6014388 C317.521343,47.898801 319.781295,48.4935252 322.279137,49.3856115 C322.992806,49.0882494 323.602398,48.6868106 324.107914,48.181295 C324.613429,47.6757794 324.866187,47.1256595 324.866187,46.5309353 C324.866187,45.4604317 323.572662,44.5386091 320.985612,43.7654676 C318.398561,42.9923261 316.123741,42.6057554 314.161151,42.6057554 C311.663309,42.6057554 310.414388,44.7170264 310.414388,48.9395683 C310.414388,49.7127098 310.503597,50.9616307 310.682014,52.6863309 C310.860432,54.3515588 310.94964,55.6004796 310.94964,56.4330935 C310.94964,59.9419664 310.830695,64.2834532 310.592806,69.457554 C310.414388,75.2263789 310.32518,79.5678657 310.32518,82.4820144 L310.32518,82.4820144 L310.503597,88.1913669 C310.682014,90.7486811 310.771223,92.6517986 310.771223,93.9007194 C310.771223,94.6143885 310.800959,95.2388489 310.860432,95.7741007 L310.860432,95.7741007 L310.860432,99.8776978 C310.919904,100.650839 311.261871,101.305036 311.886331,101.840288 C312.510791,102.37554 313.209592,102.643165 313.982734,102.643165 L313.982734,102.643165 L321.565468,102.643165 Z M350.825899,103 C351.420624,103 351.896403,102.776978 352.253237,102.330935 C352.610072,101.884892 352.788489,101.364508 352.788489,100.769784 C352.788489,100.056115 352.491127,99.1045564 351.896403,97.9151079 L351.896403,97.9151079 L351.361151,96.8446043 C350.231175,94.5251799 349.279616,91.9381295 348.506475,89.0834532 C347.733333,86.228777 346.930456,82.5117506 346.097842,77.9323741 L346.097842,77.9323741 L344.848921,71.5985612 L344.402878,69.457554 L345.830216,66.781295 L347.52518,63.5697842 C347.882014,62.8561151 348.209113,61.9194245 348.506475,60.7597122 C348.803837,59.6 348.952518,58.5741007 348.952518,57.6820144 L348.952518,57.6820144 L348.952518,51.4374101 C348.952518,48.463789 347.926619,46.1443645 345.87482,44.4791367 C343.823022,42.8139089 341.191367,41.981295 337.979856,41.981295 C336.017266,41.981295 335.035971,43.4086331 335.035971,46.2633094 C335.035971,50.9021583 335.273861,59.0201439 335.74964,70.6172662 C336.284892,81.5007194 336.552518,89.618705 336.552518,94.971223 L336.552518,94.971223 L336.463309,100.948201 L337.623022,102.286331 L340.120863,102.286331 L341.102158,99.8776978 C339.972182,95.4172662 339.407194,89.2023981 339.407194,81.2330935 L339.407194,81.2330935 L339.407194,76.3266187 C339.466667,74.8992806 339.496403,73.3232614 339.496403,71.5985612 L339.496403,71.5985612 L340.566906,71.5985612 C341.042686,72.7880096 342.142926,77.635012 343.867626,86.1395683 L343.867626,86.1395683 L344.492086,89.1726619 C345.086811,92.4436451 346.008633,95.6254197 347.257554,98.7179856 C348.328058,101.572662 349.517506,103 350.825899,103 Z M339.853237,67.2273381 C339.853237,63.5995204 339.793765,60.2393285 339.67482,57.1467626 L339.67482,57.1467626 L339.496403,46.6201439 L339.67482,45.8172662 L339.853237,45.371223 C340.864269,45.371223 341.711751,45.6239808 342.395683,46.1294964 C343.079616,46.635012 343.570264,47.3635492 343.867626,48.3151079 C344.343405,49.9803357 344.581295,51.7645084 344.581295,53.6676259 C344.581295,56.1654676 344.120384,58.8863309 343.198561,61.8302158 C342.276739,64.7741007 341.161631,66.5731415 339.853237,67.2273381 Z M371.076259,102.821583 C378.748201,102.821583 382.584173,89.618705 382.584173,63.2129496 C382.584173,62.9155875 382.554436,62.6479616 382.494964,62.4100719 L382.494964,62.4100719 L382.494964,61.6964029 L382.673381,57.9496403 C382.792326,56.8791367 382.851799,55.659952 382.851799,54.2920863 C382.851799,53.0431655 382.970743,51.5563549 383.208633,49.8316547 C383.38705,47.7501199 383.476259,46.2335731 383.476259,45.2820144 C383.476259,44.2709832 383.446523,43.5870504 383.38705,43.2302158 C383.268106,42.6354916 382.985612,42.1151079 382.539568,41.6690647 C382.093525,41.2230216 381.483933,41 380.710791,41 C379.759233,41 379.119904,41.1635492 378.792806,41.4906475 C378.465707,41.8177458 378.302158,42.3381295 378.302158,43.0517986 C378.302158,43.3491607 378.331894,43.5870504 378.391367,43.7654676 L378.391367,43.7654676 L378.391367,49.5640288 C378.391367,81.5601918 376.25036,97.5582734 371.968345,97.5582734 C368.221583,97.5582734 366.348201,95.3577938 366.348201,90.9568345 C366.348201,89.5294964 366.140048,86.377458 365.723741,81.5007194 C365.307434,77.5755396 365.099281,74.4235012 365.099281,72.0446043 L365.099281,72.0446043 L365.099281,47.7798561 C365.099281,46.5309353 364.816787,45.371223 364.251799,44.3007194 C363.686811,43.2302158 363.047482,42.694964 362.333813,42.694964 C361.620144,42.694964 360.995683,43.3194245 360.460432,44.5683453 C360.460432,45.0441247 360.519904,46.4119904 360.638849,48.6719424 C360.638849,49.5045564 360.668585,50.0992806 360.728058,50.4561151 L360.728058,50.4561151 L360.817266,57.3251799 C360.817266,66.6028777 360.906475,74.4532374 361.084892,80.876259 C361.084892,84.682494 361.293046,87.9534772 361.709353,90.6892086 C362.125659,93.841247 363.047482,96.6661871 364.47482,99.1640288 C365.188489,100.353477 366.110312,101.260432 367.240288,101.884892 C368.370264,102.509353 369.648921,102.821583 371.076259,102.821583 Z M418.089209,101.751079 C418.505516,101.751079 419.576019,101.513189 421.300719,101.03741 C422.133333,99.6695444 422.847002,93.6330935 423.441727,82.9280576 C424.036451,72.2230216 424.393285,62.2911271 424.51223,53.1323741 L424.51223,53.1323741 L424.51223,46.4417266 C424.51223,45.4306954 424.289209,44.5980815 423.843165,43.9438849 C423.397122,43.2896882 422.757794,42.9625899 421.92518,42.9625899 C420.497842,42.9625899 419.784173,43.8546763 419.784173,45.6388489 C419.784173,46.0551559 419.813909,46.4417266 419.873381,46.7985612 L419.873381,46.7985612 L419.873381,47.9582734 C419.873381,65.383693 419.278657,80.4896882 418.089209,93.276259 C417.37554,91.1947242 416.334772,87.7453237 414.966906,82.9280576 L414.966906,82.9280576 L414.07482,79.7165468 C412.69952,74.8472422 411.492648,70.6748801 410.454204,67.1994604 L410.147724,66.1777428 C409.645344,64.5097272 409.185072,63.0159472 408.766906,61.6964029 C407.428777,57.4738609 405.927098,53.4594724 404.261871,49.6532374 C402.180336,44.8954436 400.455635,42.5165468 399.08777,42.5165468 C398.968825,42.5165468 398.730935,42.5760192 398.374101,42.694964 L398.374101,42.694964 L398.374101,42.1597122 C396.233094,43.7654676 395.16259,45.9659472 395.16259,48.7611511 C395.16259,50.5453237 395.073381,53.3107914 394.894964,57.057554 C394.716547,60.6853717 394.627338,63.4508393 394.627338,65.3539568 L394.627735,66.4767962 C394.631435,71.6834085 394.661039,76.423757 394.716547,80.6978417 L394.716547,80.6978417 L394.805755,95.952518 C394.805755,99.5803357 395.757314,101.394245 397.660432,101.394245 C398.433573,101.394245 399.08777,101.126619 399.623022,100.591367 C400.158273,100.056115 400.425899,99.4019185 400.425899,98.628777 C400.425899,98.3314149 400.336691,98.0340528 400.158273,97.7366906 C399.979856,97.4393285 399.860911,97.2311751 399.801439,97.1122302 L399.801439,97.1122302 L399.444604,96.4877698 L399.444604,51.6158273 C400.72769,54.642594 402.279223,58.5793507 404.099203,63.4260973 L404.523964,64.560731 C405.88413,68.2048908 407.387652,72.3350069 409.034532,76.9510791 C413.108393,88.3697842 415.145324,95.0604317 415.145324,97.0230216 L415.145324,97.0230216 L415.145324,97.4690647 L415.680576,99.1640288 C415.858993,100.115588 416.126619,100.784652 416.483453,101.171223 C416.840288,101.557794 417.37554,101.751079 418.089209,101.751079 Z M448.063309,102.197122 C450.917986,102.197122 453.341487,101.379376 455.333813,99.7438849 C457.326139,98.1083933 458.322302,95.8633094 458.322302,93.0086331 L458.322302,93.0086331 L458.143885,88.2805755 C457.965468,86.1395683 457.876259,84.5635492 457.876259,83.552518 C457.876259,82.8388489 458.054676,81.7683453 458.411511,80.3410072 C458.708873,78.7352518 458.857554,77.6647482 458.857554,77.1294964 C458.857554,75.2858513 456.181295,74.3640288 450.828777,74.3640288 L450.828777,74.3640288 L449.579856,74.3640288 L449.579856,74.2748201 C448.68777,74.2748201 447.959233,74.4978417 447.394245,74.9438849 C446.829257,75.3899281 446.546763,76.0292566 446.546763,76.8618705 C446.546763,78.2297362 447.58753,78.9136691 449.669065,78.9136691 L449.669065,78.9136691 L451.453237,78.9136691 C452.404796,78.9136691 453.088729,79.0028777 453.505036,79.181295 L453.505036,79.181295 L453.505036,83.2848921 C453.505036,92.8004796 452.077698,97.5582734 449.223022,97.5582734 C448.152518,97.5582734 447.111751,97.2311751 446.100719,96.5769784 C445.208633,95.9822542 444.480096,95.253717 443.915108,94.3913669 C443.35012,93.5290168 442.859472,92.3841727 442.443165,90.9568345 C441.670024,88.5184652 441.164508,85.663789 440.926619,82.3928058 C440.748201,78.8839329 440.658993,76.1184652 440.658993,74.0964029 L440.659612,73.8456585 C440.669111,71.8817263 440.78785,68.9619504 441.015827,65.0863309 C441.372662,60.7448441 442.026859,56.7304556 442.978417,53.0431655 C443.513669,51.140048 444.167866,49.6532374 444.941007,48.5827338 C445.714149,47.5122302 446.606235,46.9769784 447.617266,46.9769784 C447.974101,46.9769784 448.271463,47.0067146 448.509353,47.0661871 C448.806715,47.1256595 449.133813,47.1553957 449.490647,47.1553957 C450.263789,47.1553957 450.932854,46.9323741 451.497842,46.4863309 C452.06283,46.0402878 452.345324,45.4604317 452.345324,44.7467626 C452.345324,43.259952 451.066667,42.5165468 448.509353,42.5165468 C447.082014,42.5165468 445.833094,42.7247002 444.76259,43.1410072 C442.502638,43.9141487 440.748201,45.3117506 439.499281,47.3338129 C438.190887,49.3558753 437.269065,51.705036 436.733813,54.381295 C436.079616,57.3549161 435.693046,60.1798561 435.574101,62.8561151 C435.455156,65.0565947 435.395683,67.8815348 435.395683,71.3309353 L435.395683,80.0733813 C435.455156,81.6196643 435.574101,83.4633094 435.752518,85.6043165 C435.930935,87.7453237 436.168825,89.3808153 436.466187,90.5107914 C436.763549,91.9976019 437.239329,93.5438849 437.893525,95.1496403 C438.547722,96.7553957 439.261391,97.9745803 440.034532,98.8071942 C440.986091,99.8182254 442.145803,100.635971 443.513669,101.260432 C444.881535,101.884892 446.398082,102.197122 448.063309,102.197122 Z" id="ffinanzierung" stroke="#3B515B" stroke-width="2" fill="#3B515B" fill-rule="nonzero"></path>
    </g>
</svg>