<?xml version="1.0" encoding="UTF-8"?>
<svg width="689px" height="149px" viewBox="0 0 689 149" version="1.1" xmlns="http://www.w3.org/2000/svg" xmlns:xlink="http://www.w3.org/1999/xlink">
    <title>foundation-grau</title>
    <defs>
        <path d="M33.82,90.0971963 C34.996,90.0971963 35.836,89.7011963 36.34,88.9091963 C36.868,88.1651963 37.216,87.2891963 37.384,86.2811963 C37.504,85.3451963 37.564,84.3851963 37.564,83.4011963 C37.564,81.8171963 37.372,80.0171963 36.988,78.0011963 C36.772,76.9211963 36.448,75.9731963 36.016,75.1571963 C35.584,74.3411963 35.092,73.7651963 34.54,73.4291963 L34.54,73.4291963 L35.08,72.6371963 C35.344,72.3251963 35.536,72.0371963 35.656,71.7731963 C35.776,71.5811963 35.89,71.3171963 35.998,70.9811963 C36.106,70.6451963 36.16,70.3091963 36.16,69.9731963 C36.16,69.1091963 36.136,68.4491963 36.088,67.9931963 C36.04,67.3451963 35.932,66.6551963 35.764,65.9231963 C35.596,65.1911963 35.392,64.5491963 35.152,63.9971963 C34.888,63.4211963 34.528,62.9591963 34.072,62.6111963 C33.616,62.2631963 33.112,62.0891963 32.56,62.0891963 C31.768,62.0891963 31.066,62.3411963 30.454,62.8451963 C29.842,63.3491963 29.368,64.0211963 29.032,64.8611963 C29.08,65.1491963 29.206,65.3831963 29.41,65.5631963 C29.614,65.7431963 29.848,65.8331963 30.112,65.8331963 C30.424,65.8331963 30.688,65.7311963 30.904,65.5271963 C31.12,65.3231963 31.264,65.0771963 31.336,64.7891963 C31.432,64.5011963 31.582,64.2611963 31.786,64.0691963 C31.99,63.8771963 32.224,63.7811963 32.488,63.7811963 C32.848,63.7811963 33.166,64.0091963 33.442,64.4651963 C33.718,64.9211963 33.916,65.5091963 34.036,66.2291963 C34.252,67.4291963 34.36,68.5211963 34.36,69.5051963 C34.36,70.0091963 34.252,70.5191963 34.036,71.0351963 C33.82,71.5511963 33.556,71.9771963 33.244,72.3131963 C32.452,73.1051963 32.056,73.7051963 32.056,74.1131963 C32.056,74.3531963 32.164,74.5331963 32.38,74.6531963 C32.596,74.7731963 32.86,74.8331963 33.172,74.8331963 C33.364,74.8331963 33.484,74.8211963 33.532,74.7971963 C34.54,76.0451963 35.188,77.6291963 35.476,79.5491963 C35.596,80.4371963 35.668,81.1811963 35.692,81.7811963 C35.716,82.3811963 35.728,83.3051963 35.728,84.5531963 C35.728,87.2651963 34.996,88.6211963 33.532,88.6211963 C33.244,88.6211963 33.01,88.5671963 32.83,88.4591963 C32.65,88.3511963 32.464,88.2011963 32.272,88.0091963 C32.128,87.8651963 31.96,87.7931963 31.768,87.7931963 C31.504,87.7931963 31.336,87.8351963 31.264,87.9191963 C31.192,88.0031963 31.156,88.1651963 31.156,88.4051963 C31.156,88.7891963 31.324,89.1131963 31.66,89.3771963 C32.212,89.8571963 32.932,90.0971963 33.82,90.0971963 Z" id="path-1"></path>
    </defs>
    <g id="foundation-grau" stroke="none" stroke-width="1" fill="none" fill-rule="evenodd">
        <path d="M7.56383635,75.2097342 C7.70944739,84.8575629 9.18816861,92.0122531 12,96.673805 C16.2177471,103.666133 18.1635961,106.48871 24.579904,106.48871 C30.996212,106.48871 36.2589161,109.889112 43.3985454,106.48871 C50.5381746,103.088308 56.7493494,104.699724 58.8746747,93.2129019 C61,81.7260796 61,78.7509946 61,69.6387071 C61,60.5264195 49.7970907,47.5759323 43.3985454,47.5759323 C37,47.5759323 29.1341164,44.0300846 24.579904,47.5759323 C20.0256917,51.12178 12.2600743,58.2468496 10.6823107,61.0305882 C9.63046828,62.886414 8.59097683,67.612796 7.56383635,75.2097342 Z" id="Path-4-Copy-6" fill="#3B515B"></path>
        <g id="3" fill-rule="nonzero" fill="#FFFFFF">
            <use xlink:href="#path-1"></use>
            <use stroke="#FFFFFF" stroke-width="3" xlink:href="#path-1"></use>
        </g>
        <path d="M105.38,101.81 C106.94,101.81 107.72,100.49 107.72,97.85 L107.72,97.85 L107.72,72.38 C108.62,72.68 109.79,72.83 111.23,72.83 C112.13,72.83 112.895,72.59 113.525,72.11 C114.155,71.63 114.47,71 114.47,70.22 C114.47,68.66 113,67.88 110.06,67.88 L110.06,67.88 L108.44,67.88 L108.44,65.45 C108.44,62.75 108.59,59.72 108.89,56.36 C109.13,52.76 109.25,49.79 109.25,47.45 L109.25,47.45 L109.25,46.37 L110.33,46.37 C112.31,46.37 113.87,46.67 115.01,47.27 C118.07,47.27 119.6,46.43 119.6,44.75 C119.6,43.97 119.135,43.31 118.205,42.77 C117.275,42.23 116.03,41.84 114.47,41.6 C112.07,41.24 109.82,41.06 107.72,41.06 C106.82,41.06 106.025,41.3 105.335,41.78 C104.645,42.26 104.3,42.92 104.3,43.76 C104.3,46.04 104.18,50.12 103.94,56 L103.94,56 L103.94,58.16 C103.82,60.32 103.61,66.77 103.31,77.51 C103.01,87.83 102.62,95.48 102.14,100.46 C103.4,101.36 104.48,101.81 105.38,101.81 Z M136.25,102.71 C144.29,102.71 148.31,94.07 148.31,76.79 L148.31,76.79 L148.22,71.66 C148.16,70.16 148.13,68.48 148.13,66.62 L148.13,66.62 L148.13,65.9 C148.13,63.08 147.95,60.41 147.59,57.89 C147.23,55.43 146.63,53.105 145.79,50.915 C144.95,48.725 143.93,46.88 142.73,45.38 C141.41,43.82 139.79,42.605 137.87,41.735 C135.95,40.865 133.79,40.43 131.39,40.43 C130.55,40.43 129.8,40.745 129.14,41.375 C128.48,42.005 127.94,42.92 127.52,44.12 C126.44,46.82 125.75,49.61 125.45,52.49 C125.03,56.69 124.79,59.75 124.73,61.67 L124.73,61.67 L124.64,67.97 L124.64,69.59 C124.7,69.59 124.73,69.74 124.73,70.04 L124.73,70.04 L124.73,71.66 C124.67,72.14 124.64,72.74 124.64,73.46 C124.64,77.24 124.91,81.17 125.45,85.25 C125.87,89.57 126.95,93.56 128.69,97.22 C129.53,98.9 130.61,100.235 131.93,101.225 C133.25,102.215 134.69,102.71 136.25,102.71 Z M135.89,98.93 C134.03,98.93 132.62,96.71 131.66,92.27 C130.7,88.01 130.1,83.63 129.86,79.13 C129.68,75.95 129.59,72.74 129.59,69.5 C129.59,68 129.65,66.62 129.77,65.36 L129.77,65.36 L129.95,61.22 L129.95,58.79 C129.89,58.01 129.86,57.05 129.86,55.91 C129.86,52.97 130.16,50.57 130.76,48.71 C131.42,46.37 132.77,45.2 134.81,45.2 C136.85,45.2 138.575,46.04 139.985,47.72 C141.395,49.4 142.16,51.38 142.28,53.66 L142.28,53.66 L142.280864,55.559216 C142.294688,57.837872 142.4744,61.1948 142.82,65.63 C143.24,70.01 143.45,73.55 143.45,76.25 C143.45,78.47 143.3,81.11 143,84.17 C142.76,87.71 142.07,91.01 140.93,94.07 C140.45,95.57 139.76,96.755 138.86,97.625 C137.96,98.495 136.97,98.93 135.89,98.93 Z M167.75,102.35 C175.49,102.35 179.36,89.03 179.36,62.39 C179.36,62.09 179.33,61.82 179.27,61.58 L179.27,61.58 L179.27,60.86 L179.45,57.08 C179.57,56 179.63,54.77 179.63,53.39 C179.63,52.13 179.75,50.63 179.99,48.89 C180.17,46.79 180.26,45.26 180.26,44.3 C180.26,43.28 180.23,42.59 180.17,42.23 C180.05,41.63 179.765,41.105 179.315,40.655 C178.865,40.205 178.25,39.98 177.47,39.98 C176.51,39.98 175.865,40.145 175.535,40.475 C175.205,40.805 175.04,41.33 175.04,42.05 C175.04,42.35 175.07,42.59 175.13,42.77 L175.13,42.77 L175.13,48.62 C175.13,80.9 172.97,97.04 168.65,97.04 C164.87,97.04 162.98,94.82 162.98,90.38 C162.98,88.94 162.77,85.76 162.35,80.84 C161.93,76.88 161.72,73.7 161.72,71.3 L161.72,71.3 L161.72,46.82 C161.72,45.56 161.435,44.39 160.865,43.31 C160.295,42.23 159.65,41.69 158.93,41.69 C158.21,41.69 157.58,42.32 157.04,43.58 C157.04,44.06 157.1,45.44 157.22,47.72 C157.22,48.56 157.25,49.16 157.31,49.52 L157.31,49.52 L157.4,56.45 C157.4,65.81 157.49,73.73 157.67,80.21 C157.67,84.05 157.88,87.35 158.3,90.11 C158.72,93.29 159.65,96.14 161.09,98.66 C161.81,99.86 162.74,100.775 163.88,101.405 C165.02,102.035 166.31,102.35 167.75,102.35 Z M215.18,101.27 C215.6,101.27 216.68,101.03 218.42,100.55 C219.26,99.17 219.98,93.08 220.58,82.28 C221.18,71.48 221.54,61.46 221.66,52.22 L221.66,52.22 L221.66,45.47 C221.66,44.45 221.435,43.61 220.985,42.95 C220.535,42.29 219.89,41.96 219.05,41.96 C217.61,41.96 216.89,42.86 216.89,44.66 C216.89,45.08 216.92,45.47 216.98,45.83 L216.98,45.83 L216.98,47 C216.98,64.58 216.38,79.82 215.18,92.72 C214.46,90.62 213.41,87.14 212.03,82.28 L212.03,82.28 L211.13,79.04 C208.91,71.18 207.125,65.12 205.775,60.86 C204.425,56.6 202.91,52.55 201.23,48.71 C199.13,43.91 197.39,41.51 196.01,41.51 C195.89,41.51 195.65,41.57 195.29,41.69 L195.29,41.69 L195.29,41.15 C193.13,42.77 192.05,44.99 192.05,47.81 C192.05,49.61 191.96,52.4 191.78,56.18 C191.6,59.84 191.51,62.63 191.51,64.55 L191.5104,65.6828 C191.514133,70.9356 191.544,75.718 191.6,80.03 L191.6,80.03 L191.69,95.42 C191.69,99.08 192.65,100.91 194.57,100.91 C195.35,100.91 196.01,100.64 196.55,100.1 C197.09,99.56 197.36,98.9 197.36,98.12 C197.36,97.82 197.27,97.52 197.09,97.22 C196.91,96.92 196.79,96.71 196.73,96.59 L196.73,96.59 L196.37,95.96 L196.37,50.69 C198.71,56.21 201.935,64.73 206.045,76.25 C210.155,87.77 212.21,94.52 212.21,96.5 L212.21,96.5 L212.21,96.95 L212.75,98.66 C212.93,99.62 213.2,100.295 213.56,100.685 C213.92,101.075 214.46,101.27 215.18,101.27 Z M243.08,101.54 C244.76,100.64 246.14,99.74 247.22,98.84 C249.5,96.86 251.24,94.61 252.44,92.09 C253.46,89.75 254.15,87.08 254.51,84.08 C254.75,81.86 254.87,78.83 254.87,74.99 L254.87,74.99 L254.87,70.04 L254.96,67.61 C255.02,66.95 255.05,66.23 255.05,65.45 C255.05,63.29 254.78,61.1 254.24,58.88 C253.22,54.5 251.12,50.48 247.94,46.82 C246.44,45.14 244.715,43.835 242.765,42.905 C240.815,41.975 238.79,41.51 236.69,41.51 C235.91,41.51 235.19,41.81 234.53,42.41 C233.87,43.01 233.54,43.7 233.54,44.48 C233.54,45.44 233.69,48.11 233.99,52.49 C234.35,56.51 234.53,59.48 234.53,61.4 C234.53,66.62 234.5,71.33 234.44,75.53 L234.44,75.53 L234.26,89.75 C234.26,97.61 235.04,101.54 236.6,101.54 L236.6,101.54 L243.08,101.54 Z M240.56,96.95 L240.56,94.79 C240.56,89.87 240.35,83.24 239.93,74.9 C239.45,65.48 239.21,58.88 239.21,55.1 C239.21,51.56 239.42,48.44 239.84,45.74 C246.86,46.52 250.37,55.97 250.37,74.09 C250.37,75.47 250.34,76.52 250.28,77.24 C250.16,80.06 249.83,82.82 249.29,85.52 C249.05,86.9 248.675,88.325 248.165,89.795 C247.655,91.265 247.1,92.48 246.5,93.44 C245.78,94.52 244.91,95.375 243.89,96.005 C242.87,96.635 241.76,96.95 240.56,96.95 L240.56,96.95 Z M282.59,101.81 C283.55,101.45 284.03,100.61 284.03,99.29 L284.03,99.29 L284.03,99.2 C284.03,98.36 283.76,96.5 283.22,93.62 C282.62,90.44 282.32,88.64 282.32,88.22 C282.32,87.8 282.17,86.9 281.87,85.52 C281.57,84.02 281.42,83.09 281.42,82.73 C281.42,79.01 280.82,72.53 279.62,63.29 C278.36,54.29 277.73,47.51 277.73,42.95 C277.73,42.23 277.43,41.675 276.83,41.285 C276.23,40.895 275.51,40.7 274.67,40.7 L274.67,40.7 L271.61,40.7 C271.13,41.36 270.785,42.35 270.575,43.67 C270.365,44.99 270.17,46.76 269.99,48.98 C269.93,50.06 269.87,50.885 269.81,51.455 C269.75,52.025 269.72,52.43 269.72,52.67 C267.68,67.67 264.68,82.88 260.72,98.3 L260.72,98.3 L260.63,98.66 L260.45,99.11 C260.45,99.77 260.75,100.325 261.35,100.775 C261.95,101.225 262.61,101.45 263.33,101.45 C264.11,101.45 264.71,101.18 265.13,100.64 C265.91,99.68 266.48,97.73 266.84,94.79 C267.5,90.59 268.01,87.8 268.37,86.42 L268.37,86.42 L277.28,87.77 L277.64,89.66 C278.24,93.98 278.54,97.04 278.54,98.84 C278.54,99.98 278.87,100.76 279.53,101.18 C280.19,101.6 281.21,101.81 282.59,101.81 Z M276.65,84.53 C272.27,84.17 269.63,83.69 268.73,83.09 C269.69,75.89 271.46,65.24 274.04,51.14 L274.04,51.14 L274.94,60.5 C275.9,68.9 276.38,75.8 276.38,81.2 C276.38,82.52 276.47,83.63 276.65,84.53 Z M298.43,100.73 C299.21,100.73 299.915,100.46 300.545,99.92 C301.175,99.38 301.49,98.75 301.49,98.03 C301.49,91.97 301.01,83.45 300.05,72.47 C299.03,60.77 298.52,52.25 298.52,46.91 L298.52,46.91 L298.7,46.01 L300.5,46.37 C301.52,46.55 302.3,46.64 302.84,46.64 C303.62,46.64 304.31,46.415 304.91,45.965 C305.51,45.515 305.81,44.93 305.81,44.21 C305.81,42.77 304.88,42.05 303.02,42.05 L303.02,42.05 L301.58,42.05 C299.78,42.05 297.74,41.9 295.46,41.6 C293.06,41.36 291.02,41.24 289.34,41.24 C288.68,41.24 288.035,41.435 287.405,41.825 C286.775,42.215 286.46,42.65 286.46,43.13 C286.46,43.73 286.79,44.27 287.45,44.75 C288.41,45.35 290.63,45.71 294.11,45.83 C294.23,49.37 294.65,57.38 295.37,69.86 C296.09,82.34 296.54,88.91 296.72,89.57 L296.72,89.57 L296.63,92.63 C296.63,93.89 296.66,95.03 296.72,96.05 L296.72,96.05 L296.81,99.56 L298.43,100.73 Z M319.31,100.91 C319.85,100.91 321.08,100.85 323,100.73 C323.9,100.73 324.515,100.715 324.845,100.685 C325.175,100.655 325.37,100.64 325.43,100.64 L325.43,100.64 L327.68,99.11 L327.68,98.57 C327.68,96.47 326.42,95.42 323.9,95.42 C323.06,95.42 322.46,95.45 322.1,95.51 L322.1,95.51 L322.1,92.09 C322.1,89.21 321.95,86.39 321.65,83.63 C321.29,79.43 321.05,76.25 320.93,74.09 C320.21,62.39 319.85,53.63 319.85,47.81 C319.85,47.09 319.985,46.595 320.255,46.325 C320.525,46.055 320.96,45.92 321.56,45.92 L321.56,45.92 L322.28,45.92 C322.52,45.98 322.82,46.01 323.18,46.01 C323.78,46.01 324.275,45.77 324.665,45.29 C325.055,44.81 325.25,44.24 325.25,43.58 C325.25,42.92 324.995,42.335 324.485,41.825 C323.975,41.315 323.36,41.06 322.64,41.06 C320.78,41.06 318.65,41.3 316.25,41.78 C314.87,42.02 313.73,42.41 312.83,42.95 C311.93,43.49 311.48,44.12 311.48,44.84 C311.48,46.28 312.2,47 313.64,47 C314.06,47 314.75,46.88 315.71,46.64 C315.89,47.96 315.98,49.61 315.98,51.59 L315.98,51.59 L315.89,56.18 C315.83,57.56 315.8,59.09 315.8,60.77 C315.8,65.45 316.07,72.38 316.61,81.56 C316.85,85.28 317.06,87.86 317.24,89.3 C317.36,91.46 317.42,93.05 317.42,94.07 C317.42,94.85 317.33,95.39 317.15,95.69 C316.97,95.99 316.64,96.14 316.16,96.14 L316.16,96.14 L315.26,96.05 L314.27,96.05 C312.41,96.05 311.48,96.77 311.48,98.21 C311.48,100.01 314.09,100.91 319.31,100.91 Z M345.68,102.71 C353.72,102.71 357.74,94.07 357.74,76.79 L357.74,76.79 L357.65,71.66 C357.59,70.16 357.56,68.48 357.56,66.62 L357.56,66.62 L357.56,65.9 C357.56,63.08 357.38,60.41 357.02,57.89 C356.66,55.43 356.06,53.105 355.22,50.915 C354.38,48.725 353.36,46.88 352.16,45.38 C350.84,43.82 349.22,42.605 347.3,41.735 C345.38,40.865 343.22,40.43 340.82,40.43 C339.98,40.43 339.23,40.745 338.57,41.375 C337.91,42.005 337.37,42.92 336.95,44.12 C335.87,46.82 335.18,49.61 334.88,52.49 C334.46,56.69 334.22,59.75 334.16,61.67 L334.16,61.67 L334.07,67.97 L334.07,69.59 C334.13,69.59 334.16,69.74 334.16,70.04 L334.16,70.04 L334.16,71.66 C334.1,72.14 334.07,72.74 334.07,73.46 C334.07,77.24 334.34,81.17 334.88,85.25 C335.3,89.57 336.38,93.56 338.12,97.22 C338.96,98.9 340.04,100.235 341.36,101.225 C342.68,102.215 344.12,102.71 345.68,102.71 Z M345.32,98.93 C343.46,98.93 342.05,96.71 341.09,92.27 C340.13,88.01 339.53,83.63 339.29,79.13 C339.11,75.95 339.02,72.74 339.02,69.5 C339.02,68 339.08,66.62 339.2,65.36 L339.2,65.36 L339.38,61.22 L339.38,58.79 C339.32,58.01 339.29,57.05 339.29,55.91 C339.29,52.97 339.59,50.57 340.19,48.71 C340.85,46.37 342.2,45.2 344.24,45.2 C346.28,45.2 348.005,46.04 349.415,47.72 C350.825,49.4 351.59,51.38 351.71,53.66 L351.71,53.66 L351.710864,55.559216 C351.724688,57.837872 351.9044,61.1948 352.25,65.63 C352.67,70.01 352.88,73.55 352.88,76.25 C352.88,78.47 352.73,81.11 352.43,84.17 C352.19,87.71 351.5,91.01 350.36,94.07 C349.88,95.57 349.19,96.755 348.29,97.625 C347.39,98.495 346.4,98.93 345.32,98.93 Z M392.12,101.27 C392.54,101.27 393.62,101.03 395.36,100.55 C396.2,99.17 396.92,93.08 397.52,82.28 C398.12,71.48 398.48,61.46 398.6,52.22 L398.6,52.22 L398.6,45.47 C398.6,44.45 398.375,43.61 397.925,42.95 C397.475,42.29 396.83,41.96 395.99,41.96 C394.55,41.96 393.83,42.86 393.83,44.66 C393.83,45.08 393.86,45.47 393.92,45.83 L393.92,45.83 L393.92,47 C393.92,64.58 393.32,79.82 392.12,92.72 C391.4,90.62 390.35,87.14 388.97,82.28 L388.97,82.28 L388.07,79.04 C385.85,71.18 384.065,65.12 382.715,60.86 C381.365,56.6 379.85,52.55 378.17,48.71 C376.07,43.91 374.33,41.51 372.95,41.51 C372.83,41.51 372.59,41.57 372.23,41.69 L372.23,41.69 L372.23,41.15 C370.07,42.77 368.99,44.99 368.99,47.81 C368.99,49.61 368.9,52.4 368.72,56.18 C368.54,59.84 368.45,62.63 368.45,64.55 L368.4504,65.6828 C368.454133,70.9356 368.484,75.718 368.54,80.03 L368.54,80.03 L368.63,95.42 C368.63,99.08 369.59,100.91 371.51,100.91 C372.29,100.91 372.95,100.64 373.49,100.1 C374.03,99.56 374.3,98.9 374.3,98.12 C374.3,97.82 374.21,97.52 374.03,97.22 C373.85,96.92 373.73,96.71 373.67,96.59 L373.67,96.59 L373.31,95.96 L373.31,50.69 C375.65,56.21 378.875,64.73 382.985,76.25 C387.095,87.77 389.15,94.52 389.15,96.5 L389.15,96.5 L389.15,96.95 L389.69,98.66 C389.87,99.62 390.14,100.295 390.5,100.685 C390.86,101.075 391.4,101.27 392.12,101.27 Z" id="foundation" stroke="#3B515B" stroke-width="2" fill="#3B515B" fill-rule="nonzero"></path>
    </g>
</svg>