<?xml version="1.0" encoding="UTF-8"?>
<svg width="689px" height="149px" viewBox="0 0 689 149" version="1.1" xmlns="http://www.w3.org/2000/svg" xmlns:xlink="http://www.w3.org/1999/xlink">
    <title>Funding-blau</title>
    <defs>
        <path d="M30.886,89.963654 C31.726,89.963654 32.65,89.903654 33.658,89.783654 L33.658,89.783654 L34.45,89.747654 C35.29,89.675654 35.938,89.639654 36.394,89.639654 C36.706,89.399654 36.862,89.135654 36.862,88.847654 C36.862,88.535654 36.61,88.199654 36.106,87.839654 C34.642,87.839654 33.226,87.959654 31.858,88.199654 C32.194,87.191654 32.734,85.751654 33.478,83.879654 C34.102,82.343654 34.726,80.723654 35.35,79.019654 C35.902,77.531654 36.376,75.833654 36.772,73.925654 C37.168,72.017654 37.366,70.247654 37.366,68.615654 L37.366,68.615654 L37.366,67.643654 C37.342,67.475654 37.324,67.205654 37.312,66.833654 C37.3,66.461654 37.27,66.059654 37.222,65.627654 C37.054,64.739654 36.874,64.103654 36.682,63.719654 C36.322,63.047654 35.938,62.591654 35.53,62.351654 C34.978,61.991654 34.294,61.811654 33.478,61.811654 L33.478,61.811654 L33.478,61.847654 C32.974,61.847654 32.542,62.039654 32.182,62.423654 C31.51,63.191654 31.174,64.139654 31.174,65.267654 C31.174,66.011654 31.462,66.383654 32.038,66.383654 C32.326,66.383654 32.566,66.257654 32.758,66.005654 C32.95,65.753654 33.07,65.435654 33.118,65.051654 C33.262,64.115654 33.526,63.551654 33.91,63.359654 C35.062,63.431654 35.638,64.967654 35.638,67.967654 C35.638,70.775654 35.314,73.439654 34.666,75.959654 C34.018,78.479654 32.986,81.311654 31.57,84.455654 C31.426,84.743654 31.246,85.211654 31.03,85.859654 C30.55,87.203654 30.07,88.163654 29.59,88.739654 L29.59,88.739654 L29.59,88.883654 C29.59,89.195654 29.716,89.453654 29.968,89.657654 C30.22,89.861654 30.526,89.963654 30.886,89.963654 Z" id="path-1"></path>
    </defs>
    <g id="Funding-blau" stroke="none" stroke-width="1" fill="none" fill-rule="evenodd">
        <path d="M383.08252,89.5400085 C403.08252,89.2066752 423.08252,88.8733419 443.08252,88.5400085" id="Path-33" stroke="#0271BB" stroke-width="3" transform="translate(413.082520, 89.040009) scale(1, -1) translate(-413.082520, -89.040009) "></path>
        <path d="M441.619385,86.6874542 C441.798869,78.6874542 441.978353,70.6874542 442.157837,62.6874542" id="Path-34" stroke="#0271BB" stroke-width="3"></path>
        <path d="M7.56383635,75.2097342 C7.70944739,84.8575629 9.18816861,92.0122531 12,96.673805 C16.2177471,103.666133 18.1635961,106.48871 24.579904,106.48871 C30.996212,106.48871 36.2589161,109.889112 43.3985454,106.48871 C50.5381746,103.088308 56.7493494,104.699724 58.8746747,93.2129019 C61,81.7260796 61,78.7509946 61,69.6387071 C61,60.5264195 49.7970907,47.5759323 43.3985454,47.5759323 C37,47.5759323 29.1341164,44.0300846 24.579904,47.5759323 C20.0256917,51.12178 12.2600743,58.2468496 10.6823107,61.0305882 C9.63046828,62.886414 8.59097683,67.612796 7.56383635,75.2097342 Z" id="Path-4-Copy-6" fill="#0271BB"></path>
        <g id="2" fill-rule="nonzero" fill="#FFFFFF">
            <use xlink:href="#path-1"></use>
            <use stroke="#FFFFFF" stroke-width="3" xlink:href="#path-1"></use>
        </g>
        <path d="M477.354237,51.2916199 C478.13779,63.1632973 479.63219,75.0093768 479.704895,86.9066522 C479.773071,98.0629132 475.770907,109.345591 477.776073,120.320457 C478.399244,123.731253 483.489776,124.41922 486.76622,125.55536 C499.751581,130.058166 513.616007,129.441922 527.082096,128.958086 C532.010941,128.780994 536.942293,128.263246 541.792593,127.369282 C544.244592,126.917352 548.392463,127.389834 548.867842,124.942734 C550.290617,117.618738 546.876299,110.131719 546.589491,102.676372 C545.948735,86.0204275 546.254937,69.3415278 546.087661,52.6741056" id="Path-23" stroke="#0271BB" stroke-width="4"></path>
        <path d="M479.213226,71.3880857 C500.751413,82.0638643 523.797196,79.3001754 545.213226,70.2916199" id="Path-25" stroke="#0271BB" stroke-width="2"></path>
        <path d="M481.213226,92.2954217 C504.69755,98.2862387 522.720437,97.4793735 545.213226,90.2916199" id="Path-26" stroke="#0271BB" stroke-width="2"></path>
        <path d="M479.213226,106.328802 C502.135936,113.908351 523.316362,112.200251 546.213226,105.29162" id="Path-27" stroke="#0271BB" stroke-width="2"></path>
        <path d="M479.593248,46.0083706 C473.546257,51.1956069 480.145405,54.1923502 486.877772,56.7887381 C501.915195,62.5880324 521.747186,62.4840523 537.313482,58.2003137 C552.564028,54.0034674 546.004457,45.1546976 534.16618,43.3544749 C517.026113,40.7480197 496.784918,37.3072061 481.041406,45.0316575 L479.593248,46.0083706 Z" id="Path-19" stroke="#0271BB" stroke-width="4"></path>
        <path d="M414.402264,100.880662 C422.536659,84.4198162 419.765053,83.6596836 437.126164,74.7263922 C467.552039,59.0705264 498.920045,87.4632179 492.327099,119.320966 C488.561613,137.516155 462.831992,152.600214 444.890526,147.169029 C424.474605,140.988785 416.496449,123.744111 414.213226,104.927011 L414.402264,100.880662 Z" id="Path-20" fill="#0271BB"></path>
        <path d="M468.462203,93.9550574 C461.426232,81.3954844 444.211563,88.7514603 438.690291,98.292163 C424.497609,122.816972 457.309231,139.780377 473.213226,118.832047" id="Path-28" stroke="#FFFFFF" stroke-width="5"></path>
        <path d="M430.213226,106.29162 C454.982305,103.896864 443.977623,103.953317 463.213226,104.902448" id="Path-29" stroke="#FFFFFF" stroke-width="5"></path>
        <path d="M432.213226,114.780161 C442.213226,114.454467 452.213226,114.128773 462.213226,113.803079" id="Path-30" stroke="#FFFFFF" stroke-width="4"></path>
        <path d="M382,2 C382.333333,31.3333333 382.666667,60.6666667 383,90" id="Path-32" stroke="#0271BB" stroke-width="3"></path>
        <path d="M425.837433,52.9715337 C430.333093,57.4895038 434.828754,62.0074739 439.324414,66.525444 L470.837433,34.1246058 L457.310692,20.525444 L425.837433,52.9715337 Z" id="Path-45" stroke="#0271BB" stroke-width="2" fill="#0271BB" transform="translate(448.337433, 43.525444) rotate(-5.000000) translate(-448.337433, -43.525444) "></path>
        <path d="M428.172054,55.5131025 C418.027987,80.6088908 413.633914,76.6104519 441.3685,67.495569" id="Path-46" stroke="#0271BB" stroke-width="2" transform="translate(430.868500, 65.013102) rotate(-5.000000) translate(-430.868500, -65.013102) "></path>
        <path d="M504.213226,101.29162 C504.750543,112.68883 503.975129,124.221928 505.825176,135.48325 C507.625272,146.440519 550.402046,144.258995 554.012966,143.827416 C560.785016,143.018018 569.774633,144.825203 574.010853,139.526054 C576.670364,136.199233 574.15977,110.490938 573.666348,104.144881" id="Path-21" stroke="#0271BB" stroke-width="4" fill="#FFFEFE"></path>
        <path d="M505.213226,119.29162 C524.961704,132.901518 553.85741,131.875994 574.213226,120.704266" id="Path-24" stroke="#0271BB" stroke-width="2"></path>
        <path d="M505.213226,101.7959 C521.228437,116.537941 549.609836,113.404025 568.467088,106.611772 C586.342759,100.173077 557.359167,87.7999066 551.253168,87.4209319 C542.932107,86.9044771 534.498446,87.9837794 526.351696,89.7893689 C513.401107,92.6596482 512.696162,94.1591093 505.58446,100.513662 L505.213226,101.7959 Z" id="Path-22" stroke="#0271BB" stroke-width="4" fill="#FFFFFF"></path>
        <path d="M430,2 C434.778007,6.02408322 444.518146,10.7860545 442.799012,20" id="Path-35" stroke="#0271BB" stroke-width="3"></path>
        <path d="M428.404306,2 C426.048979,32.1862211 424.103587,19.1687852 445,19.4233263" id="Path-37" stroke="#0271BB" stroke-width="3"></path>
        <path d="M392,54.0965033 C397.734719,47.8183831 389.110108,55.8022416 405.38151,54.9329442 C408.414053,54.7709311 410.259329,51.31881 413.232424,50.7557052 L423.453288,50.1002545 C424.937805,49.8190866 426.484429,50.212722 428,50.2689558" id="Path-39" stroke="#0271BB" stroke-width="2"></path>
        <path d="M392,38.0965033 C397.734719,31.8183831 389.110108,39.8022416 405.38151,38.9329442 C408.414053,38.7709311 410.259329,35.31881 413.232424,34.7557052 L423.453288,34.1002545 C424.937805,33.8190866 426.484429,34.212722 428,34.2689558" id="Path-39-Copy" stroke="#0271BB" stroke-width="2" transform="translate(410.000000, 36.500000) rotate(190.000000) translate(-410.000000, -36.500000) "></path>
        <path d="M392,44.8715639 C399.701103,40.3027056 409.8611,48.5452811 419,43" id="Path-40" stroke="#0271BB" stroke-width="2"></path>
        <path d="M443.420723,19 C443.473574,28.6666667 443.526426,38.3333333 443.579277,48" id="Path-31" stroke="#0271BB" stroke-width="3"></path>
        <path d="M457.837433,18.7714094 L470.289502,32.525444 C472.484311,29.2719754 473.933891,26.4522718 474.63824,24.0663332 C475.694765,20.4874253 478.119472,12.9537498 470.289502,13.5599557 C465.069521,13.9640929 460.918831,15.4496951 457.837433,18.0167622 L457.837433,18.7714094 Z" id="Path-42" fill="#0271BB" transform="translate(466.837433, 23.025444) rotate(-5.000000) translate(-466.837433, -23.025444) "></path>
        <path d="M454.837433,17.525444 C460.5041,22.8587777 466.170766,28.1921104 471.837433,33.525444" id="Path-47" stroke="#FFFFFF" stroke-width="2" fill="#0271BB" transform="translate(463.337433, 25.525444) rotate(-5.000000) translate(-463.337433, -25.525444) "></path>
        <path d="M381,2.94181824 C397.666667,2.64727275 414.333333,2.35272725 431,2.05818176" id="Path-36" stroke="#0271BB" stroke-width="3"></path>
        <path d="M111.38,102.81 C112.94,102.81 113.72,101.49 113.72,98.85 L113.72,98.85 L113.72,73.38 C114.62,73.68 115.79,73.83 117.23,73.83 C118.13,73.83 118.895,73.59 119.525,73.11 C120.155,72.63 120.47,72 120.47,71.22 C120.47,69.66 119,68.88 116.06,68.88 L116.06,68.88 L114.44,68.88 L114.44,66.45 C114.44,63.75 114.59,60.72 114.89,57.36 C115.13,53.76 115.25,50.79 115.25,48.45 L115.25,48.45 L115.25,47.37 L116.33,47.37 C118.31,47.37 119.87,47.67 121.01,48.27 C124.07,48.27 125.6,47.43 125.6,45.75 C125.6,44.97 125.135,44.31 124.205,43.77 C123.275,43.23 122.03,42.84 120.47,42.6 C118.07,42.24 115.82,42.06 113.72,42.06 C112.82,42.06 112.025,42.3 111.335,42.78 C110.645,43.26 110.3,43.92 110.3,44.76 C110.3,47.04 110.18,51.12 109.94,57 L109.94,57 L109.94,59.16 C109.82,61.32 109.61,67.77 109.31,78.51 C109.01,88.83 108.62,96.48 108.14,101.46 C109.4,102.36 110.48,102.81 111.38,102.81 Z M141.35,103.35 C149.09,103.35 152.96,90.03 152.96,63.39 C152.96,63.09 152.93,62.82 152.87,62.58 L152.87,62.58 L152.87,61.86 L153.05,58.08 C153.17,57 153.23,55.77 153.23,54.39 C153.23,53.13 153.35,51.63 153.59,49.89 C153.77,47.79 153.86,46.26 153.86,45.3 C153.86,44.28 153.83,43.59 153.77,43.23 C153.65,42.63 153.365,42.105 152.915,41.655 C152.465,41.205 151.85,40.98 151.07,40.98 C150.11,40.98 149.465,41.145 149.135,41.475 C148.805,41.805 148.64,42.33 148.64,43.05 C148.64,43.35 148.67,43.59 148.73,43.77 L148.73,43.77 L148.73,49.62 C148.73,81.9 146.57,98.04 142.25,98.04 C138.47,98.04 136.58,95.82 136.58,91.38 C136.58,89.94 136.37,86.76 135.95,81.84 C135.53,77.88 135.32,74.7 135.32,72.3 L135.32,72.3 L135.32,47.82 C135.32,46.56 135.035,45.39 134.465,44.31 C133.895,43.23 133.25,42.69 132.53,42.69 C131.81,42.69 131.18,43.32 130.64,44.58 C130.64,45.06 130.7,46.44 130.82,48.72 C130.82,49.56 130.85,50.16 130.91,50.52 L130.91,50.52 L131,57.45 C131,66.81 131.09,74.73 131.27,81.21 C131.27,85.05 131.48,88.35 131.9,91.11 C132.32,94.29 133.25,97.14 134.69,99.66 C135.41,100.86 136.34,101.775 137.48,102.405 C138.62,103.035 139.91,103.35 141.35,103.35 Z M188.78,102.27 C189.2,102.27 190.28,102.03 192.02,101.55 C192.86,100.17 193.58,94.08 194.18,83.28 C194.78,72.48 195.14,62.46 195.26,53.22 L195.26,53.22 L195.26,46.47 C195.26,45.45 195.035,44.61 194.585,43.95 C194.135,43.29 193.49,42.96 192.65,42.96 C191.21,42.96 190.49,43.86 190.49,45.66 C190.49,46.08 190.52,46.47 190.58,46.83 L190.58,46.83 L190.58,48 C190.58,65.58 189.98,80.82 188.78,93.72 C188.06,91.62 187.01,88.14 185.63,83.28 L185.63,83.28 L184.73,80.04 C182.51,72.18 180.725,66.12 179.375,61.86 C178.025,57.6 176.51,53.55 174.83,49.71 C172.73,44.91 170.99,42.51 169.61,42.51 C169.49,42.51 169.25,42.57 168.89,42.69 L168.89,42.69 L168.89,42.15 C166.73,43.77 165.65,45.99 165.65,48.81 C165.65,50.61 165.56,53.4 165.38,57.18 C165.2,60.84 165.11,63.63 165.11,65.55 L165.1104,66.6828 C165.114133,71.9356 165.144,76.718 165.2,81.03 L165.2,81.03 L165.29,96.42 C165.29,100.08 166.25,101.91 168.17,101.91 C168.95,101.91 169.61,101.64 170.15,101.1 C170.69,100.56 170.96,99.9 170.96,99.12 C170.96,98.82 170.87,98.52 170.69,98.22 C170.51,97.92 170.39,97.71 170.33,97.59 L170.33,97.59 L169.97,96.96 L169.97,51.69 C172.31,57.21 175.535,65.73 179.645,77.25 C183.755,88.77 185.81,95.52 185.81,97.5 L185.81,97.5 L185.81,97.95 L186.35,99.66 C186.53,100.62 186.8,101.295 187.16,101.685 C187.52,102.075 188.06,102.27 188.78,102.27 Z M216.68,102.54 C218.36,101.64 219.74,100.74 220.82,99.84 C223.1,97.86 224.84,95.61 226.04,93.09 C227.06,90.75 227.75,88.08 228.11,85.08 C228.35,82.86 228.47,79.83 228.47,75.99 L228.47,75.99 L228.47,71.04 L228.56,68.61 C228.62,67.95 228.65,67.23 228.65,66.45 C228.65,64.29 228.38,62.1 227.84,59.88 C226.82,55.5 224.72,51.48 221.54,47.82 C220.04,46.14 218.315,44.835 216.365,43.905 C214.415,42.975 212.39,42.51 210.29,42.51 C209.51,42.51 208.79,42.81 208.13,43.41 C207.47,44.01 207.14,44.7 207.14,45.48 C207.14,46.44 207.29,49.11 207.59,53.49 C207.95,57.51 208.13,60.48 208.13,62.4 C208.13,67.62 208.1,72.33 208.04,76.53 L208.04,76.53 L207.86,90.75 C207.86,98.61 208.64,102.54 210.2,102.54 L210.2,102.54 L216.68,102.54 Z M214.16,97.95 L214.16,95.79 C214.16,90.87 213.95,84.24 213.53,75.9 C213.05,66.48 212.81,59.88 212.81,56.1 C212.81,52.56 213.02,49.44 213.44,46.74 C220.46,47.52 223.97,56.97 223.97,75.09 C223.97,76.47 223.94,77.52 223.88,78.24 C223.76,81.06 223.43,83.82 222.89,86.52 C222.65,87.9 222.275,89.325 221.765,90.795 C221.255,92.265 220.7,93.48 220.1,94.44 C219.38,95.52 218.51,96.375 217.49,97.005 C216.47,97.635 215.36,97.95 214.16,97.95 L214.16,97.95 Z M242.96,101.91 C243.5,101.91 244.73,101.85 246.65,101.73 C247.55,101.73 248.165,101.715 248.495,101.685 C248.825,101.655 249.02,101.64 249.08,101.64 L249.08,101.64 L251.33,100.11 L251.33,99.57 C251.33,97.47 250.07,96.42 247.55,96.42 C246.71,96.42 246.11,96.45 245.75,96.51 L245.75,96.51 L245.75,93.09 C245.75,90.21 245.6,87.39 245.3,84.63 C244.94,80.43 244.7,77.25 244.58,75.09 C243.86,63.39 243.5,54.63 243.5,48.81 C243.5,48.09 243.635,47.595 243.905,47.325 C244.175,47.055 244.61,46.92 245.21,46.92 L245.21,46.92 L245.93,46.92 C246.17,46.98 246.47,47.01 246.83,47.01 C247.43,47.01 247.925,46.77 248.315,46.29 C248.705,45.81 248.9,45.24 248.9,44.58 C248.9,43.92 248.645,43.335 248.135,42.825 C247.625,42.315 247.01,42.06 246.29,42.06 C244.43,42.06 242.3,42.3 239.9,42.78 C238.52,43.02 237.38,43.41 236.48,43.95 C235.58,44.49 235.13,45.12 235.13,45.84 C235.13,47.28 235.85,48 237.29,48 C237.71,48 238.4,47.88 239.36,47.64 C239.54,48.96 239.63,50.61 239.63,52.59 L239.63,52.59 L239.54,57.18 C239.48,58.56 239.45,60.09 239.45,61.77 C239.45,66.45 239.72,73.38 240.26,82.56 C240.5,86.28 240.71,88.86 240.89,90.3 C241.01,92.46 241.07,94.05 241.07,95.07 C241.07,95.85 240.98,96.39 240.8,96.69 C240.62,96.99 240.29,97.14 239.81,97.14 L239.81,97.14 L238.91,97.05 L237.92,97.05 C236.06,97.05 235.13,97.77 235.13,99.21 C235.13,101.01 237.74,101.91 242.96,101.91 Z M283.37,102.27 C283.79,102.27 284.87,102.03 286.61,101.55 C287.45,100.17 288.17,94.08 288.77,83.28 C289.37,72.48 289.73,62.46 289.85,53.22 L289.85,53.22 L289.85,46.47 C289.85,45.45 289.625,44.61 289.175,43.95 C288.725,43.29 288.08,42.96 287.24,42.96 C285.8,42.96 285.08,43.86 285.08,45.66 C285.08,46.08 285.11,46.47 285.17,46.83 L285.17,46.83 L285.17,48 C285.17,65.58 284.57,80.82 283.37,93.72 C282.65,91.62 281.6,88.14 280.22,83.28 L280.22,83.28 L279.32,80.04 C277.1,72.18 275.315,66.12 273.965,61.86 C272.615,57.6 271.1,53.55 269.42,49.71 C267.32,44.91 265.58,42.51 264.2,42.51 C264.08,42.51 263.84,42.57 263.48,42.69 L263.48,42.69 L263.48,42.15 C261.32,43.77 260.24,45.99 260.24,48.81 C260.24,50.61 260.15,53.4 259.97,57.18 C259.79,60.84 259.7,63.63 259.7,65.55 L259.7004,66.6828 C259.704133,71.9356 259.734,76.718 259.79,81.03 L259.79,81.03 L259.88,96.42 C259.88,100.08 260.84,101.91 262.76,101.91 C263.54,101.91 264.2,101.64 264.74,101.1 C265.28,100.56 265.55,99.9 265.55,99.12 C265.55,98.82 265.46,98.52 265.28,98.22 C265.1,97.92 264.98,97.71 264.92,97.59 L264.92,97.59 L264.56,96.96 L264.56,51.69 C266.9,57.21 270.125,65.73 274.235,77.25 C278.345,88.77 280.4,95.52 280.4,97.5 L280.4,97.5 L280.4,97.95 L280.94,99.66 C281.12,100.62 281.39,101.295 281.75,101.685 C282.11,102.075 282.65,102.27 283.37,102.27 Z M313.61,102.72 C316.49,102.72 318.935,101.895 320.945,100.245 C322.955,98.595 323.96,96.33 323.96,93.45 L323.96,93.45 L323.78,88.68 C323.6,86.52 323.51,84.93 323.51,83.91 C323.51,83.19 323.69,82.11 324.05,80.67 C324.35,79.05 324.5,77.97 324.5,77.43 C324.5,75.57 321.8,74.64 316.4,74.64 L316.4,74.64 L315.14,74.64 L315.14,74.55 C314.24,74.55 313.505,74.775 312.935,75.225 C312.365,75.675 312.08,76.32 312.08,77.16 C312.08,78.54 313.13,79.23 315.23,79.23 L315.23,79.23 L317.03,79.23 C317.99,79.23 318.68,79.32 319.1,79.5 L319.1,79.5 L319.1,83.64 C319.1,93.24 317.66,98.04 314.78,98.04 C313.7,98.04 312.65,97.71 311.63,97.05 C310.73,96.45 309.995,95.715 309.425,94.845 C308.855,93.975 308.36,92.82 307.94,91.38 C307.16,88.92 306.65,86.04 306.41,82.74 C306.23,79.2 306.14,76.41 306.14,74.37 L306.140625,74.1170312 C306.150208,72.1356771 306.27,69.19 306.5,65.28 C306.86,60.9 307.52,56.85 308.48,53.13 C309.02,51.21 309.68,49.71 310.46,48.63 C311.24,47.55 312.14,47.01 313.16,47.01 C313.52,47.01 313.82,47.04 314.06,47.1 C314.36,47.16 314.69,47.19 315.05,47.19 C315.83,47.19 316.505,46.965 317.075,46.515 C317.645,46.065 317.93,45.48 317.93,44.76 C317.93,43.26 316.64,42.51 314.06,42.51 C312.62,42.51 311.36,42.72 310.28,43.14 C308,43.92 306.23,45.33 304.97,47.37 C303.65,49.41 302.72,51.78 302.18,54.48 C301.52,57.48 301.13,60.33 301.01,63.03 C300.89,65.25 300.83,68.1 300.83,71.58 L300.83,80.4 C300.89,81.96 301.01,83.82 301.19,85.98 C301.37,88.14 301.61,89.79 301.91,90.93 C302.21,92.43 302.69,93.99 303.35,95.61 C304.01,97.23 304.73,98.46 305.51,99.3 C306.47,100.32 307.64,101.145 309.02,101.775 C310.4,102.405 311.93,102.72 313.61,102.72 Z" id="funding" stroke="#0271BB" stroke-width="2" fill="#0271BB" fill-rule="nonzero"></path>
    </g>
</svg>