<?xml version="1.0" encoding="UTF-8"?>
<svg width="18px" height="22px" viewBox="0 0 18 22" version="1.1" xmlns="http://www.w3.org/2000/svg" xmlns:xlink="http://www.w3.org/1999/xlink">
    <title>Gebaerdensprche</title>
    <defs>
        <polygon id="path-1" points="0.301031804 0.171678571 14.2314894 0.171678571 14.2314894 14.4538036 0.301031804 14.4538036"></polygon>
        <polygon id="path-3" points="7.65957447e-05 0.0133964286 15.7985251 0.0133964286 15.7985251 13.75 7.65957447e-05 13.75"></polygon>
    </defs>
    <g id="Gebaerdensprche" stroke="none" stroke-width="1" fill="none" fill-rule="evenodd">
        <g id="Group-11">
            <path d="M6.90928085,14.4059536 C6.85528085,14.4059536 6.8093234,14.4012393 6.76872766,14.3922036 C6.53319574,14.3372036 6.13911064,14.303025 6.13528085,14.303025 L5.97711064,14.289275 L5.91545106,14.1392036 C5.24485532,12.5112036 4.57962128,11.7439536 4.26021702,11.3750607 C4.07906809,11.1660607 3.97949362,11.0513464 4.01894043,10.876525 L4.0499617,10.7405964 L4.19817447,10.6651679 C4.27362128,10.6062393 4.53481277,10.1909893 4.64625957,10.0138107 C4.73894043,9.86648929 4.79485532,9.77731071 4.84004681,9.71956071 C4.90094043,9.43434643 5.04570638,8.11631071 5.1066,7.46259643 C5.14642979,7.02888214 5.27740851,6.74759643 5.37315319,6.54213214 C5.40379149,6.47613214 5.43251489,6.41563214 5.45434468,6.355525 C5.55621702,6.072275 5.78983404,5.26534643 5.79825957,5.12391786 C5.79519574,4.99938214 5.83004681,4.83634643 5.85800426,4.70513214 C5.86719574,4.66231071 5.8752383,4.62656071 5.87791915,4.60534643 C5.8752383,4.59984643 5.86949362,4.50359643 6.18430213,3.70295357 C6.18085532,3.69706071 6.17740851,3.561525 6.15979149,3.48570357 C6.12111064,3.31559643 6.12570638,2.94670357 6.15557872,2.742025 C6.2172383,2.31341786 6.50294043,2.249775 6.66838723,2.249775 L6.70745106,2.25056071 C6.89013191,2.25723929 7.22983404,2.26981071 7.50864255,2.72788214 C7.69477021,3.03313214 7.71889787,3.38395357 7.74034468,3.693525 C7.74762128,3.80195357 7.75489787,3.90998929 7.76945106,4.01448929 C7.82919574,4.44270357 7.74991915,5.03120357 7.74685532,5.05595357 C7.74149362,5.08620357 7.66413191,5.50656071 7.58906809,5.74738214 C7.55077021,5.86956071 7.51630213,6.23531071 7.5006,6.49498929 C7.51400426,6.526025 7.52625957,6.56216786 7.53315319,6.59948929 C7.53391915,6.60341786 7.53545106,6.60813214 7.53736596,6.61323929 C7.67791915,6.54684643 7.98506809,6.37831071 8.28877021,6.19248929 C8.32477021,6.165775 8.45077021,6.02788214 8.51128085,5.96148929 C8.55302553,5.91591786 8.59017447,5.87506071 8.61736596,5.84716786 C8.70813191,5.75484643 9.28681277,5.16556071 9.34157872,5.10584643 C9.37183404,5.06695357 9.50970638,4.859525 9.64413191,4.65838214 C9.93672766,4.22113214 9.95051489,4.20345357 9.98574894,4.17123929 C10.0010681,4.14688214 10.1132809,3.96970357 10.2078766,3.82159643 C10.2726,3.71984643 10.3955362,3.53245357 10.3955362,3.53245357 C10.5383872,3.31323929 10.6774085,3.10816786 10.8137489,3.01270357 C10.8987702,2.95298929 11.1572809,2.68584643 11.4682596,2.30988214 C11.6720043,2.06434643 11.8600468,1.88166786 12.0254936,1.72059643 C12.1028553,1.64595357 12.1744723,1.57641786 12.2391957,1.50806071 C12.4448553,1.290025 12.9120894,0.873596429 12.9320043,0.855917857 C12.9871532,0.815846429 13.2257489,0.662239286 13.5083872,0.662239286 C13.7362596,0.662239286 13.9311957,0.759275 14.0732809,0.942739286 C14.3658766,1.32066786 14.3383021,1.75281071 13.997834,2.128775 C13.890217,2.24938214 13.2920043,2.992275 13.0706426,3.26845357 C13.0553234,3.28573929 12.5448128,3.85420357 12.3514085,4.26670357 C12.2284723,4.52795357 11.9741745,4.83673929 11.7053234,5.16359643 C11.477834,5.439775 11.2426851,5.72538214 11.1484723,5.91748929 C11.1312383,5.95245357 11.117834,5.98623929 11.1071106,6.01884643 C11.2645149,5.868775 11.6360043,5.48181071 11.7359617,5.36120357 C11.8140894,5.26809643 11.9737915,5.10309643 12.1116638,4.96088214 C12.1794511,4.89134643 12.2414936,4.82770357 12.2843872,4.78173929 C12.414217,4.64266786 12.5122596,4.592775 12.5988128,4.54838214 L12.665834,4.513025 C12.7094936,4.488275 12.7945149,4.42463214 12.8906426,4.35431071 C13.0599191,4.229775 13.2349404,4.10170357 13.3555787,4.04081071 C13.4325574,4.00270357 13.729366,3.76306071 13.8886851,3.63420357 C14.0870681,3.473525 14.1935362,3.38788214 14.2567277,3.35056071 C14.3570681,3.29123929 14.7706851,2.98991786 15.0498766,2.73495357 C15.2892383,2.51691786 15.5783872,2.39198929 15.8430255,2.39198929 C16.1183872,2.39198929 16.357366,2.52084643 16.5335362,2.76481071 C16.715834,3.01663214 16.7257915,3.24998929 16.7020468,3.40084643 C16.6465149,3.75638214 16.3711532,3.971275 16.3160043,4.01095357 C16.2918766,4.02863214 16.2635362,4.05456071 16.2321319,4.08284643 C16.1371532,4.16731071 16.0073234,4.28320357 15.8384298,4.35981071 C15.7522596,4.40223929 15.4546851,4.68588214 15.294983,4.83831071 C15.1494511,4.97738214 15.0177064,5.10191786 14.9437915,5.15848929 C14.7591957,5.29913214 14.125366,5.84638214 14.0579617,5.91591786 L14.0039617,5.976025 C13.8147702,6.190525 13.6167702,6.40306071 13.4302596,6.54056071 C13.4674085,6.52838214 13.5034085,6.51856071 13.5374936,6.51148929 C13.6489404,6.48870357 13.9472809,6.31584643 14.0457064,6.259275 C14.0977915,6.229025 14.1345574,6.20859643 14.1471957,6.20309643 L14.1743872,6.18031071 C14.2720468,6.10841786 14.4754085,5.95913214 14.8323447,5.76545357 L15.0939191,5.62559643 C15.4114085,5.45784643 15.7112809,5.29873929 15.8120043,5.17931071 C15.9406851,5.02570357 16.283834,4.78056071 16.6545574,4.78056071 C16.9356638,4.78056071 17.165834,4.92473929 17.3033234,5.186775 C17.4251106,5.41934643 17.4480894,5.66959643 17.3699617,5.91041786 C17.2634936,6.24120357 16.9908128,6.47613214 16.8437489,6.54684643 C16.7476213,6.59241786 16.5331532,6.748775 16.3439617,6.88706071 L16.2650681,6.94481071 C16.0670681,7.08898929 15.6775787,7.34316786 15.3643021,7.54784643 L15.1218766,7.70656071 C15.0165574,7.77570357 14.8894085,7.868025 14.7515362,7.96898929 C14.4666,8.17641786 14.1437489,8.41134643 13.8496213,8.56573929 C13.5888128,8.70245357 13.2617489,8.90320357 12.9986426,9.06388214 C12.8412383,9.160525 12.701834,9.245775 12.6018766,9.30234643 C12.5474936,9.333775 12.5524723,9.34909643 12.5551532,9.358525 C12.576983,9.43631071 12.6007277,9.50584643 12.6179617,9.54631071 L12.6191106,9.54631071 C12.648217,9.54631071 12.720983,9.53138214 12.8776213,9.45673929 C13.2893234,9.26031071 13.4930681,9.163275 13.6891532,9.11966786 C13.7691957,9.10238214 13.8465574,9.09688214 13.9304298,9.09216786 C14.0330681,9.086275 14.1295787,9.08038214 14.2540468,9.04148929 C14.5071957,8.962525 15.6607277,8.62270357 15.6791106,8.61759643 C15.6787277,8.61759643 15.8859191,8.54766786 16.0119191,8.49934643 C16.1689404,8.440025 16.446983,8.40820357 16.500983,8.40270357 L16.5603447,8.39916786 C16.8223021,8.39916786 17.0451957,8.55473929 17.1562596,8.81520357 C17.3538766,9.27406071 17.1060894,9.60445357 17.0003872,9.74588214 C16.8851106,9.90066786 16.4584723,10.1022036 15.7327277,10.3438107 C15.3060894,10.466775 14.8059191,10.6219536 14.7228128,10.664775 C14.7044298,10.678525 14.6048553,10.7476679 13.531366,11.0713821 C13.1368979,11.190025 12.6597064,11.3640607 12.5356213,11.4469536 C12.4494511,11.5923107 12.253366,11.742775 11.8891532,12.0146321 C11.7466851,12.1210964 11.5942596,12.235025 11.4510255,12.3501321 C11.2181745,12.5379179 10.8064723,12.7834536 10.4081745,13.0211321 C10.0420468,13.2395607 9.66328085,13.4654536 9.5292383,13.5864536 C9.18417447,13.8979893 8.3286,14.1069893 8.23208936,14.1301679 C8.1486,14.1549179 7.28804681,14.4059536 6.90928085,14.4059536" id="Fill-1" fill="#4e4e4e"></path>
            <g id="Group-5" transform="translate(3.446809, 0.221296)">
                <mask id="mask-2" fill="#4e4e4e">
                    <use xlink:href="#path-1"></use>
                </mask>
                <g id="Clip-4"></g>
                <path d="M10.0615404,0.171482143 L10.0615404,0.171482143 C9.71034894,0.171482143 9.42464681,0.350625 9.37064681,0.386375 L9.34039149,0.406803571 L9.31281702,0.431160714 C9.29290213,0.449232143 8.81685957,0.873125 8.60277447,1.10019643 C8.54149787,1.16501786 8.4725617,1.23180357 8.39826383,1.30369643 C8.23626383,1.461625 8.03443404,1.65766071 7.82149787,1.91419643 C7.51741277,2.28151786 7.28073191,2.523125 7.21639149,2.57066071 C7.04405106,2.69205357 6.88779574,2.91951786 6.73039149,3.16151786 L6.69209362,3.21966071 C6.66796596,3.25501786 6.60860426,3.34733929 6.54158298,3.45223214 C6.47724255,3.55280357 6.36158298,3.73391071 6.3198383,3.79401786 C6.27426383,3.84705357 6.2064766,3.94723214 5.98051915,4.28508929 C5.8824766,4.43201786 5.73694468,4.64926786 5.69060426,4.71369643 C5.60941277,4.79894643 5.20651915,5.21026786 4.98668936,5.43380357 C4.95605106,5.46523214 4.91660426,5.50844643 4.8725617,5.556375 C4.82507234,5.608625 4.72971064,5.713125 4.68681702,5.75280357 C4.57039149,5.82351786 4.45128511,5.89266071 4.34251915,5.95394643 C4.35860426,5.79169643 4.37698723,5.65851786 4.39230638,5.60901786 C4.47081702,5.355625 4.54741277,4.943125 4.55622128,4.89676786 L4.55813617,4.88458929 L4.56005106,4.87241071 C4.56885957,4.80601786 4.64660426,4.21280357 4.58226383,3.755125 C4.56885957,3.65691071 4.56234894,3.55555357 4.55545532,3.45341071 C4.53285957,3.12969643 4.50528511,2.72623214 4.28468936,2.36401786 C3.93158298,1.78455357 3.46817872,1.76726786 3.27017872,1.76019643 L3.22154043,1.75901786 C2.8979234,1.75901786 2.52566809,1.94876786 2.44907234,2.481875 C2.41958298,2.682625 2.40579574,3.09866071 2.45711489,3.32455357 C2.46324255,3.35166071 2.46745532,3.40666071 2.46822128,3.447125 C2.22464681,4.07255357 2.17524255,4.26308929 2.16834894,4.36248214 C2.16451915,4.38016071 2.1599234,4.40216071 2.1545617,4.426125 C2.11894468,4.59348214 2.08907234,4.745125 2.08868936,4.88773214 C2.06226383,5.06766071 1.84894468,5.79680357 1.76124255,6.040375 C1.74209362,6.09380357 1.71643404,6.14683929 1.68962553,6.20458929 C1.58545532,6.428125 1.44260426,6.73455357 1.39817872,7.21619643 C1.33460426,7.899375 1.20707234,9.04455357 1.14694468,9.387125 C1.0998383,9.45391071 1.04660426,9.53798214 0.978817021,9.64641071 C0.886519149,9.79294643 0.678178723,10.1249107 0.581668085,10.2294107 C0.447242553,10.3079821 0.351880851,10.437625 0.316646809,10.5939821 C0.246178723,10.9047321 0.426178723,11.1125536 0.616902128,11.3325536 C0.927114894,11.6904464 1.57281702,12.4356964 2.2265617,14.0228393 L2.35026383,14.3225893 L2.66660426,14.3500893 C2.77154043,14.359125 3.08366809,14.3917321 3.26405106,14.4337679 C3.32379574,14.4475179 3.38890213,14.4538036 3.46243404,14.4538036 C3.85843404,14.4538036 4.66651915,14.224375 4.85839149,14.1678036 C5.11000851,14.1076964 5.88707234,13.899875 6.25588085,13.567125 C6.37039149,13.4638036 6.77137021,13.2249464 7.09345532,13.0324464 C7.49941277,12.7904464 7.91915745,12.5398036 8.16617872,12.3410179 C8.30673191,12.2270893 8.45724255,12.1155179 8.59702979,12.0110179 C8.94937021,11.7478036 9.15196596,11.592625 9.27030638,11.4311607 C9.41890213,11.3557321 9.80264681,11.2154821 10.1580511,11.108625 C11.0978809,10.825375 11.3154128,10.7314821 11.400434,10.6815893 C11.5195404,10.6324821 11.9749021,10.4918393 12.3463915,10.385375 L12.3567319,10.3822321 L12.3670723,10.3786964 C13.5386043,9.98858929 13.6898809,9.78508929 13.7630298,9.68726786 C13.8725617,9.54073214 14.2103489,9.09051786 13.9491574,8.48433929 C13.7680085,8.06044643 13.398817,7.90880357 13.1134979,7.90880357 C13.0644766,7.90880357 13.0296255,7.91273214 13.0139234,7.91469643 C12.9170298,7.92569643 12.6481787,7.959875 12.4769872,8.02430357 C12.3643915,8.06791071 12.1916681,8.12605357 12.1506894,8.13980357 C12.0388596,8.17280357 10.9730298,8.48708929 10.7309872,8.56251786 C10.6440511,8.59001786 10.5747319,8.59551786 10.4916255,8.600625 C10.501583,8.595125 10.5119234,8.589625 10.5222638,8.58451786 C10.8336255,8.42108929 11.1641362,8.179875 11.4563489,7.96733929 C11.5907745,7.86951786 11.7140936,7.77916071 11.8163489,7.712375 L12.0580085,7.55405357 C12.373966,7.34780357 12.7665191,7.09126786 12.9702638,6.94316071 L13.0487745,6.88580357 C13.2111574,6.76755357 13.4332851,6.60491071 13.5060511,6.57033929 C13.7021362,6.47605357 14.0387745,6.18730357 14.172434,5.77401786 C14.2739234,5.46091071 14.244434,5.13758929 14.0877957,4.83823214 C13.9051149,4.48976786 13.5841787,4.28980357 13.2077106,4.28980357 C12.7458383,4.28980357 12.3310723,4.58483929 12.1652426,4.783625 C12.1223489,4.83273214 11.9829447,4.91719643 11.8259234,5.00441071 C11.8826043,4.95176786 11.9484766,4.88930357 12.0269872,4.81426786 C12.1663915,4.68148214 12.4222213,4.437125 12.5126043,4.37780357 C12.7106043,4.28508929 12.858434,4.15269643 12.9576255,4.06469643 C12.9817532,4.04269643 13.002817,4.02266071 13.0223489,4.008125 C13.2222638,3.86394643 13.4585617,3.58030357 13.5144766,3.22280357 C13.5462638,3.02008929 13.5343915,2.71051786 13.2973277,2.382875 C13.0732851,2.07251786 12.7531149,1.901625 12.3961787,1.901625 C12.067966,1.901625 11.7156255,2.05130357 11.4291574,2.31216071 C11.1522638,2.56476786 10.7547319,2.85116071 10.6789021,2.89594643 C10.5996255,2.94269643 10.4931574,3.02794643 10.2790723,3.20119643 C10.1339234,3.31866071 9.86430638,3.53669643 9.78732766,3.58108929 C9.66324255,3.64276786 9.50315745,3.75826786 9.29060426,3.91383929 C9.28677447,3.91658929 9.28294468,3.91973214 9.27873191,3.922875 C9.45758298,3.647875 9.70996596,3.34851786 9.80609362,3.24205357 L9.81681702,3.23026786 L9.82639149,3.21808929 C10.1323915,2.836625 10.6524766,2.19233929 10.7463064,2.08744643 C11.1683489,1.62151786 11.202434,1.032625 10.8320936,0.554125 C10.6417532,0.307410714 10.3679234,0.171482143 10.0615404,0.171482143 M10.0615404,0.710089286 C10.1852426,0.710089286 10.3158383,0.752910714 10.4207745,0.888839286 C10.7068596,1.25851786 10.4973702,1.57083929 10.3587319,1.72405357 C10.2212426,1.87844643 9.4212,2.87591071 9.4212,2.87591071 C9.4212,2.87591071 8.8812,3.47383929 8.66826383,3.92876786 C8.4545617,4.38173214 7.68745532,5.12658929 7.46724255,5.57483929 C7.24626383,6.023875 7.44924255,6.37076786 7.44924255,6.37076786 C7.44924255,6.37076786 7.65490213,6.15194643 7.76788085,6.05923214 C7.88162553,5.96691071 8.37681702,5.44991071 8.48902979,5.314375 C8.60200851,5.179625 8.89881702,4.88380357 9.02673191,4.74708929 C9.15426383,4.60998214 9.22473191,4.59583929 9.34498723,4.527875 C9.46600851,4.459125 9.85205106,4.14798214 10.0240085,4.06155357 C10.1967319,3.97591071 10.8202213,3.43416071 10.9408596,3.36266071 C11.0626468,3.29076786 11.4896681,2.97805357 11.7776681,2.71483929 C11.941583,2.56555357 12.1702213,2.43983929 12.3961787,2.43983929 C12.5677532,2.44023214 12.7377957,2.51291071 12.8756681,2.70383929 C13.1950723,3.14541071 12.8220511,3.49426786 12.7182638,3.56930357 C12.6160085,3.64355357 12.4769872,3.80541071 12.2854979,3.89223214 C12.0940085,3.97866071 11.5249021,4.57933929 11.3395404,4.72155357 C11.1537957,4.86298214 10.4958383,5.43026786 10.4238383,5.50608929 C10.3506894,5.58230357 9.99758298,6.01208929 9.74405106,6.15744643 C9.49090213,6.30241071 9.25537021,6.590375 9.10102979,6.65676786 C8.94745532,6.72316071 8.49362553,7.192625 8.40554043,7.29358929 C8.31745532,7.39455357 8.42315745,7.75676786 8.42315745,7.75676786 L8.82375319,7.431875 C8.82375319,7.431875 9.44226383,6.920375 9.54107234,6.84455357 C9.63988085,6.76873214 9.94741277,6.59430357 10.141966,6.55423214 C10.3372851,6.51455357 10.7612426,6.24858929 10.8056681,6.22855357 C10.8512426,6.20930357 11.0327745,6.03998214 11.508434,5.78226786 C11.9837106,5.52455357 12.3992426,5.32969643 12.5639234,5.13405357 C12.6654128,5.01266071 12.9453702,4.82841071 13.2077106,4.82841071 C13.3685617,4.82841071 13.5229021,4.89755357 13.6251574,5.09280357 C13.8943915,5.60744643 13.4160511,6.01876786 13.2854553,6.081625 C13.1548596,6.14369643 12.9151149,6.32283929 12.6661787,6.50394643 C12.4183915,6.68426786 11.8492851,7.05041071 11.5333277,7.258625 C11.2162213,7.46644643 10.7037957,7.88366071 10.2832851,8.10483929 C9.86239149,8.325625 9.29826383,8.69176786 9.02788085,8.84576786 C8.75749787,9.00016071 8.86549787,9.23941071 8.86549787,9.23941071 C8.86549787,9.23941071 8.93596596,9.51794643 9.01409362,9.55055357 C9.0539234,9.56744643 9.08839149,9.59769643 9.16575319,9.59769643 C9.23928511,9.59769643 9.35111489,9.57058929 9.54145532,9.47944643 C9.93400851,9.29244643 10.1297106,9.19894643 10.2978383,9.161625 C10.465966,9.12548214 10.6298809,9.15769643 10.8841787,9.07755357 C11.1380936,8.99819643 12.3050298,8.65483929 12.3050298,8.65483929 C12.3050298,8.65483929 12.5248596,8.58098214 12.6573702,8.52991071 C12.7898809,8.48041071 13.0813277,8.44898214 13.0813277,8.44898214 C13.0813277,8.44898214 13.093583,8.44701786 13.1134979,8.44701786 C13.1877957,8.44701786 13.3708596,8.47176786 13.4689021,8.70158929 C13.5945191,8.993875 13.4712,9.19266071 13.345583,9.36041071 C13.2207319,9.52816071 12.2046894,9.86641071 12.2046894,9.86641071 C12.2046894,9.86641071 11.239966,10.143375 11.1426894,10.2117321 C11.0446468,10.2800893 10.0106043,10.591625 10.0106043,10.591625 C10.0106043,10.591625 8.94132766,10.913375 8.8739234,11.0677679 C8.80690213,11.2225536 8.28068936,11.5635536 7.84217872,11.917125 C7.40366809,12.2703036 6.21490213,12.8874821 5.90928511,13.1624821 C5.60366809,13.4386607 4.72626383,13.6464821 4.72626383,13.6464821 C4.72626383,13.6464821 3.81515745,13.9151964 3.46243404,13.9151964 C3.42988085,13.9151964 3.40154043,13.9132321 3.37971064,13.908125 C3.12273191,13.8484107 2.71026383,13.8134464 2.71026383,13.8134464 C1.69154043,11.3392321 0.65826383,10.7735179 0.850519149,10.6929821 C1.05158298,10.608125 1.56017872,9.66880357 1.62068936,9.64444643 C1.6812,9.62048214 1.8719234,7.79526786 1.92132766,7.266875 C1.96996596,6.73808929 2.16337021,6.47841071 2.25375319,6.227375 C2.34413617,5.97594643 2.61796596,5.061375 2.61375319,4.90266071 C2.6099234,4.74355357 2.69609362,4.44930357 2.69264681,4.39823214 C2.68958298,4.34794643 2.96226383,3.62980357 2.98102979,3.58226786 C3.0005617,3.53551786 2.99711489,3.32691071 2.96839149,3.20198214 C2.94005106,3.07705357 2.94158298,2.74548214 2.96839149,2.56044643 C2.99405106,2.38169643 3.06413617,2.297625 3.22154043,2.297625 C3.22651915,2.297625 3.23188085,2.297625 3.23724255,2.29801786 C3.40613617,2.30430357 3.62864681,2.303125 3.83928511,2.64923214 C4.04954043,2.99455357 4.00741277,3.43533929 4.0625617,3.83133929 C4.11809362,4.22694643 4.03996596,4.797375 4.03996596,4.797375 C4.03996596,4.797375 3.96337021,5.21616071 3.89213617,5.44441071 C3.82128511,5.67148214 3.78796596,6.32991071 3.78796596,6.32991071 C3.78796596,6.32991071 3.82051915,6.38530357 3.8285617,6.42930357 C3.83660426,6.47330357 3.89251915,6.65716071 4.00817872,6.68858929 C4.01200851,6.689375 4.01622128,6.69016071 4.02158298,6.69016071 C4.17324255,6.69016071 4.89937021,6.24976786 4.97634894,6.202625 C5.05562553,6.15508929 5.26588085,5.90916071 5.35626383,5.81605357 C5.44702979,5.724125 6.03030638,5.12973214 6.0858383,5.06923214 C6.14022128,5.009125 6.67868936,4.18294643 6.71430638,4.14994643 C6.74954043,4.11773214 7.05745532,3.62273214 7.12179574,3.52923214 C7.18575319,3.436125 7.3872,3.103375 7.51511489,3.01380357 C7.64226383,2.92383929 7.93102979,2.61426786 8.22171064,2.26305357 C8.51315745,1.91144643 8.77971064,1.68673214 8.98039149,1.47458929 C9.18107234,1.26166071 9.65711489,0.837767857 9.65711489,0.837767857 C9.65711489,0.837767857 9.84860426,0.710089286 10.0615404,0.710089286" id="Fill-3" fill="#ffffff" mask="url(#mask-2)"></path>
            </g>
            <path d="M9.62360426,21.5590964 C9.5489234,21.5590964 9.47462553,21.5508464 9.40300851,21.5394536 C9.21458298,21.510775 8.83581702,21.2259536 8.27705106,20.6936321 C7.96454043,20.3707036 7.5888383,19.9970964 7.51185957,19.9436679 C7.49117872,19.9338464 7.38432766,19.8784536 6.58696596,19.0734893 C6.29207234,18.7753107 5.90832766,18.4288107 5.78041277,18.3616321 C5.60079574,18.3494536 5.37598723,18.2457393 4.98228511,18.0583464 C4.82334894,17.982525 4.6529234,17.9015964 4.48632766,17.8297036 C4.21441277,17.7126321 3.80615745,17.4635607 3.4109234,17.2227393 C3.0455617,16.9999893 2.6675617,16.7693821 2.49905106,16.7080964 C2.06590213,16.5501679 1.47190213,15.8846679 1.40564681,15.8088464 C1.15900851,15.5585964 0.555051064,14.9198107 0.471178723,14.6255607 C0.403008511,14.3867036 0.240625532,14.0185964 0.239093617,14.0150607 L0.271646809,13.7380964 C1.33364681,12.3438464 1.66377447,11.374275 1.82232766,10.9083464 C1.91500851,10.6360964 1.98164681,10.439275 2.20875319,10.439275 L2.39602979,10.5084179 C2.48373191,10.5484893 2.96666809,10.5807036 3.17271064,10.5944536 C3.3515617,10.6066321 3.45611489,10.6137036 3.52658298,10.6274536 C3.73913617,10.5622393 4.96926383,10.035025 5.56671064,9.76670357 C5.95505106,9.592275 6.25798723,9.57263214 6.47934894,9.55848929 C6.55096596,9.553775 6.61645532,9.55023929 6.67849787,9.540025 C6.97032766,9.49366786 7.77190213,9.31138214 7.89637021,9.25009643 C7.99288085,9.19156071 8.13037021,9.146775 8.28585957,9.09884643 C8.32530638,9.08666786 8.35862553,9.07723929 8.37777447,9.06938214 C8.47505106,9.00259643 9.28849787,8.90673929 9.29654043,8.90595357 C9.29500851,8.90045357 9.41028511,8.83013214 9.46773191,8.77670357 C9.59143404,8.66238214 9.90739149,8.48756071 10.096583,8.41331071 C10.186583,8.37795357 10.2670085,8.36106071 10.3420723,8.36106071 C10.4504553,8.36106071 10.6503702,8.39916786 10.7786681,8.65531071 C10.8675191,8.83288214 11.0230085,9.144025 10.7687106,9.61820357 C10.5986681,9.93366786 10.311434,10.125775 10.0582851,10.2954893 C9.96943404,10.3548107 9.88096596,10.4137393 9.79900851,10.477775 C9.46237021,10.7402036 8.92275319,10.9547036 8.90015745,10.9637393 C8.87258298,10.9735607 8.4762,11.1090964 8.23415745,11.1582036 C8.11198723,11.1833464 7.78339149,11.3306679 7.55437021,11.4434179 C7.53368936,11.470525 7.50841277,11.4995964 7.47930638,11.5243464 C7.47777447,11.525525 7.47624255,11.5270964 7.47471064,11.5290607 C7.60109362,11.6276679 7.86343404,11.8036679 8.19585957,12.0032393 C8.23377447,12.0209179 8.4114766,12.0664893 8.49688085,12.0884893 C8.55700851,12.1038107 8.61177447,12.1179536 8.64968936,12.1289536 C8.77185957,12.1654893 9.55466809,12.397275 9.63164681,12.4169179 C9.68411489,12.4267393 9.93305106,12.4499179 10.1720298,12.4730964 C10.6775617,12.5218107 10.6993915,12.5261321 10.743817,12.5418464 C10.7698596,12.5434179 10.9720723,12.5571679 11.1432638,12.5693464 C11.2635191,12.5783821 11.4890936,12.5976321 11.4890936,12.5976321 C11.7441574,12.6196321 11.9850511,12.6451679 12.1321149,12.7205964 C12.2247957,12.7677393 12.5779021,12.870275 13.048966,12.9657393 C13.3576468,13.0289893 13.6046681,13.1087393 13.822583,13.1794536 C13.9236894,13.2120607 14.0171362,13.2423107 14.1067532,13.2670607 C14.3924553,13.3448464 14.974583,13.5620964 14.9994766,13.5711321 C15.279434,13.720025 15.6911362,14.1120964 15.4801149,14.6365607 C15.3372638,14.987775 15.0642,15.1814536 14.7103277,15.1814536 C14.6218596,15.1814536 14.5314766,15.169275 14.433817,15.1453107 C14.2771787,15.1072036 13.3542,14.9315964 13.011817,14.8671679 C12.9907532,14.8624536 12.3538596,14.7057036 11.9038596,14.7057036 C11.8720723,14.7057036 11.7594766,14.7104179 11.7319021,14.7104179 C11.4580723,14.7104179 11.0888809,14.6361679 10.7319447,14.5646679 C10.4060298,14.4990607 10.0690085,14.4314893 9.8549234,14.4314893 C9.80666809,14.4334536 9.76185957,14.4389536 9.72126383,14.4468107 C9.93151915,14.5159536 10.4305404,14.6581679 10.5791362,14.6888107 C10.6959447,14.7123821 10.9165404,14.776025 11.1057319,14.831025 C11.1968809,14.8573464 11.2803702,14.8820964 11.3393489,14.8978107 C11.5224128,14.9480964 11.608966,15.0089893 11.6924553,15.0679179 L11.7541149,15.1103464 C11.7970085,15.1378464 11.8939021,15.1834179 12.0019021,15.2360607 C12.1884128,15.3272036 12.381434,15.4210964 12.4913489,15.499275 C12.5606681,15.548775 12.8950085,15.6921679 13.0945404,15.7778107 C13.3293064,15.8783821 13.4545404,15.9329893 13.516966,15.9710964 C13.6165404,16.0323821 14.0761149,16.2574893 14.4273064,16.3832036 C14.5881574,16.4409536 14.9803277,16.6173464 15.1438596,17.0082393 C15.2384553,17.2337393 15.2311787,17.4824179 15.1231787,17.726775 C14.9787957,18.0555964 14.7160723,18.2367036 14.3840298,18.2367036 C14.1730085,18.2367036 14.0041149,18.1620607 13.9577745,18.139275 C13.9290511,18.1251321 13.893434,18.1125607 13.8536043,18.0976321 C13.7352638,18.0536321 13.5732638,17.993525 13.4262,17.8795964 C13.3484553,17.8226321 12.9627957,17.6941679 12.7552213,17.625025 C12.5656468,17.561775 12.3948383,17.5044179 12.310583,17.465525 C12.0980298,17.3673107 11.3255617,17.0659893 11.2363277,17.0404536 L11.1601149,17.0215964 C10.8847532,16.9559893 10.6067106,16.8817393 10.3983702,16.780775 C10.4270936,16.808275 10.4531362,16.8361679 10.4753489,16.863275 C10.5477319,16.951275 10.8387957,17.1339536 10.9341574,17.1940607 C10.9877745,17.2278464 11.0245404,17.2522036 11.0356468,17.2612393 L11.0647532,17.2714536 C11.1735191,17.3244893 11.3998596,17.4340964 11.7399447,17.6603821 L11.9976894,17.8352036 C12.2906681,18.0343821 12.5671787,18.2233464 12.7153915,18.2543821 C12.9516894,18.3030964 13.3530511,18.5340964 13.5020298,18.8939536 C13.5970085,19.1233821 13.5728809,19.3720607 13.4338596,19.5944179 C13.2607532,19.8713821 12.9873064,20.0242036 12.6640723,20.0242036 C12.4109234,20.0242036 12.1692638,19.9307036 12.0520723,19.844275 C11.9682,19.7814179 11.7476043,19.6729893 11.5339021,19.5688821 L11.4312638,19.5182036 C11.2160298,19.4133107 10.8173489,19.1917393 10.4971787,19.0133821 L10.2275617,18.8637036 C10.1180298,18.8032036 9.97824255,18.7352393 9.8262,18.6605964 C9.51024255,18.5058107 9.15254043,18.3302036 8.87679574,18.1416321 C8.62632766,17.9695607 8.28815745,17.7688107 8.01624255,17.6065607 C7.86726383,17.5185607 7.73551915,17.4403821 7.64322128,17.3818464 C7.61488085,17.3633821 7.59496596,17.3574893 7.58615745,17.3574893 L7.54900851,17.3924536 C7.51109362,17.429775 7.46743404,17.4796679 7.44254043,17.5138464 C7.45479574,17.5378107 7.50113617,17.5955607 7.64475319,17.7028107 C8.01049787,17.974275 8.19432766,18.1109893 8.32722128,18.2677393 C8.38007234,18.3298107 8.42258298,18.3965964 8.46700851,18.469275 C8.52215745,18.5580607 8.57385957,18.6417393 8.66807234,18.7352393 C8.85764681,18.9238107 9.70671064,19.7908464 9.72164681,19.8061679 C9.72202979,19.8061679 9.88288085,19.9582036 9.98513617,20.047775 C10.1111362,20.1589536 10.2731362,20.3930964 10.3041574,20.4386679 C10.3956894,20.5600607 10.5167106,20.8955607 10.2719872,21.2259536 C10.1088383,21.4471321 9.89054043,21.5590964 9.62360426,21.5590964" id="Fill-6" fill="#4e4e4e"></path>
            <g id="Group-10" transform="translate(0.000000, 8.078439)">
                <mask id="mask-4" fill="#4e4e4e">
                    <use xlink:href="#path-3"></use>
                </mask>
                <g id="Clip-9"></g>
                <path d="M10.342417,0.0133964286 C10.234417,0.0133964286 10.1237362,0.0361821429 10.0042468,0.0825392857 C9.81199149,0.157967857 9.45888511,0.343789286 9.29190638,0.498182143 C9.27199149,0.517039286 9.2268,0.547682143 9.19194894,0.568896429 C8.50297021,0.651789286 8.30918298,0.722896429 8.23756596,0.761789286 C8.26475745,0.746467857 8.2835234,0.739396429 8.28582128,0.738610714 C8.26782128,0.745289286 8.24139574,0.752753571 8.21037447,0.762575 C8.04875745,0.812075 7.90399149,0.859217857 7.78105532,0.929539286 C7.6140766,0.992789286 6.88948085,1.15543214 6.63901277,1.19511071 C6.58309787,1.20414643 6.52526809,1.20728929 6.46284255,1.21121786 C6.22194894,1.22653929 5.89182128,1.24775357 5.46097021,1.441825 C4.91292766,1.68814643 3.82067234,2.15643214 3.48901277,2.27193214 C3.41011915,2.26211071 3.31360851,2.255825 3.18990638,2.247575 C3.01948085,2.23578929 2.63267234,2.20986071 2.49671489,2.17411071 C2.40977872,2.11989643 2.31135319,2.09161071 2.20909787,2.09161071 L2.20871489,2.09161071 C1.79548085,2.09161071 1.66756596,2.46718214 1.57411915,2.74100357 C1.42054468,3.193575 1.10037447,4.13486071 0.0648,5.49336071 L7.65957447e-05,6.04728929 C0.0433531915,6.14550357 0.167055319,6.43975357 0.218757447,6.62203929 C0.293055319,6.881325 0.629693617,7.31896786 1.22024681,7.92200357 C1.39450213,8.11921786 1.94867234,8.71439643 2.41092766,8.883325 C2.55531064,8.93596786 2.9555234,9.17993214 3.27684255,9.375575 C3.67973617,9.62150357 4.09603404,9.87528929 4.38518298,9.999825 C4.54833191,10.0701464 4.71531064,10.1498964 4.87156596,10.2241464 C5.26909787,10.4135036 5.49926809,10.5191821 5.69650213,10.547075 C5.83245957,10.6437179 6.1380766,10.9198964 6.40194894,11.1866464 C7.10165106,11.8922179 7.28624681,12.0411107 7.36935319,12.092575 C7.46892766,12.175075 7.81054468,12.5152893 8.08284255,12.7969679 L8.09854468,12.8122893 C9.0000766,13.6722536 9.24594894,13.709575 9.36428936,13.7276464 C9.43284255,13.7382536 9.52399149,13.7500393 9.62356596,13.7500393 C10.0639915,13.7500393 10.3332255,13.5107893 10.4814383,13.3104321 C10.7721191,12.9171821 10.703183,12.4622536 10.5147574,12.1990393 C10.4492681,12.103575 10.2945447,11.8871107 10.1559064,11.7649321 C10.0670553,11.6867536 9.93262979,11.5606464 9.89969362,11.5296107 C9.81505532,11.4431821 9.03224681,10.6437179 8.85109787,10.4637893 C8.78484255,10.3981821 8.7461617,10.3384679 8.70135319,10.2669679 C8.71131064,10.2732536 8.72126809,10.280325 8.73084255,10.2866107 C9.02228936,10.4861821 9.38918298,10.6661107 9.7128,10.8252179 C9.86062979,10.8975036 9.99658723,10.9638964 10.1030553,11.0224321 L10.3711404,11.1709321 C10.7112255,11.3602893 11.0968851,11.5747893 11.3190128,11.6832179 L11.4212681,11.7335036 C11.5951404,11.8183607 11.8329702,11.9350393 11.8957787,11.9817893 C12.0543319,12.0992536 12.3511404,12.2151464 12.664034,12.2151464 C13.079566,12.2151464 13.4315234,12.018325 13.6548,11.6612179 C13.8420766,11.3618607 13.8734809,11.0236107 13.7436511,10.7105036 C13.5468,10.2351464 13.0393532,9.96839643 12.7659064,9.911825 C12.7038638,9.89728929 12.5644596,9.812825 12.4147149,9.71500357 C12.4870979,9.74053929 12.5721191,9.768825 12.6739915,9.80300357 C12.8543745,9.86271786 13.186417,9.97389643 13.2810128,10.0257536 C13.456034,10.1577536 13.6410128,10.2265036 13.7643319,10.2724679 C13.7949702,10.2838607 13.8225447,10.2928964 13.8447574,10.3035036 C13.9205872,10.340825 14.1250979,10.4272536 14.3839915,10.4272536 C14.8190553,10.4272536 15.1759915,10.184075 15.3625021,9.75939643 C15.5015234,9.444325 15.509566,9.12100357 15.3850979,8.82361071 C15.2410979,8.479075 14.9232255,8.19700357 14.5134383,8.05046786 C14.1656936,7.92593214 13.727183,7.70789643 13.6517362,7.66153929 C13.5739915,7.61361071 13.4487574,7.55939643 13.1959915,7.45096786 C13.0259489,7.37789643 12.7092255,7.24196786 12.6345447,7.19521786 C12.5227149,7.115075 12.3480766,7.02786071 12.1140766,6.914325 C12.1083319,6.911575 12.1018213,6.90843214 12.0956936,6.90528929 C12.4189277,6.93161071 12.7953957,7.01253929 12.935183,7.04711071 L12.9642894,7.05378929 C13.4376511,7.142575 14.2388426,7.29618214 14.3736511,7.32918214 C14.4885447,7.35746786 14.6026723,7.37200357 14.7102894,7.37200357 C15.1702468,7.37200357 15.5390553,7.11311071 15.7221191,6.66211071 C15.9576511,6.07714643 15.6148851,5.51889643 15.1545447,5.269825 L15.0890553,5.23996786 C15.0641617,5.23014643 14.4709277,5.00936071 14.1729702,4.92803929 C14.0890979,4.90446786 13.9987149,4.87539643 13.9014383,4.84396786 C13.6881191,4.77521786 13.4227149,4.68918214 13.1006298,4.62318214 C12.6402894,4.52968214 12.3193532,4.43500357 12.2473532,4.40043214 C12.0604596,4.304575 11.7919915,4.27511071 11.5101191,4.25114643 L11.440034,4.24486071 C11.3967574,4.24014643 11.2860766,4.23150357 11.1612255,4.22246786 C11.0470979,4.213825 10.8425872,4.19889643 10.7698213,4.19103929 C10.7047149,4.17611071 10.5882894,4.164325 10.1965021,4.12661071 C10.0203319,4.109325 9.75914043,4.08418214 9.68101277,4.07318214 C9.54965106,4.03664643 8.95986383,3.86221786 8.72318298,3.79228929 C8.68182128,3.77971786 8.62437447,3.76518214 8.56041702,3.74868214 C8.49339574,3.73139643 8.35973617,3.69721786 8.30497021,3.67836071 C8.18126809,3.60371786 8.06714043,3.53221786 7.96756596,3.46739643 C8.11424681,3.402575 8.2368,3.35425357 8.28658723,3.34403929 C8.53935319,3.292575 8.92884255,3.15978929 8.97250213,3.14486071 L8.99433191,3.13661071 C9.05522553,3.11264643 9.59828936,2.89421786 9.9575234,2.61411071 C10.0352681,2.55361071 10.1183745,2.49821786 10.2018638,2.44243214 C10.4668851,2.26486071 10.7966298,2.044075 10.9980766,1.67046786 C11.3205447,1.06978929 11.1079915,0.645503571 11.0172255,0.464003571 C10.8720766,0.174075 10.6281191,0.0133964286 10.342417,0.0133964286 M10.342417,0.552003571 C10.4297362,0.552003571 10.4940766,0.597967857 10.5450128,0.700110714 C10.6219915,0.854110714 10.7299915,1.05328929 10.5385021,1.41000357 C10.3462468,1.76671786 9.94948085,1.94311071 9.64003404,2.18511071 C9.3294383,2.42750357 8.80590638,2.63375357 8.80590638,2.63375357 C8.80590638,2.63375357 8.4114383,2.76928929 8.18318298,2.81564643 C7.95492766,2.86278929 7.37739574,3.15350357 7.37739574,3.15350357 C7.37739574,3.15350357 7.34599149,3.20928929 7.31228936,3.23796786 C7.27897021,3.26625357 7.15028936,3.40611071 7.17901277,3.52514643 C7.20888511,3.64339643 7.98365106,4.109325 8.06331064,4.15725357 C8.14297021,4.20478929 8.45433191,4.27353929 8.57726809,4.30968214 C8.69982128,4.345825 9.49028936,4.57996786 9.56803404,4.60000357 C9.64539574,4.620825 10.612417,4.70175357 10.6572255,4.71786071 C10.7016511,4.733575 11.2730553,4.76814643 11.3837362,4.780325 C11.494417,4.79250357 11.8754809,4.81175357 12.0148851,4.88325357 C12.1531404,4.953575 12.5568,5.06200357 12.9979915,5.151575 C13.438417,5.24193214 13.7593532,5.371575 14.0381617,5.448575 C14.3165872,5.52439643 14.9094383,5.74596786 14.9094383,5.74596786 C14.9094383,5.74596786 15.4130553,6.01861071 15.2372681,6.455075 C15.113566,6.75993214 14.897566,6.83339643 14.7102894,6.83339643 C14.6298638,6.83339643 14.555183,6.81964643 14.4950553,6.80511071 C14.2970553,6.75678929 13.0588851,6.523825 13.0588851,6.523825 C13.0588851,6.523825 12.3917362,6.35764643 11.9038213,6.35764643 C11.8666723,6.35764643 11.8310553,6.358825 11.7962043,6.36078929 C11.7759064,6.36196786 11.7544596,6.36275357 11.7318638,6.36275357 C11.2378213,6.36275357 10.3366723,6.083825 9.85488511,6.083825 C9.83956596,6.083825 9.82424681,6.083825 9.80969362,6.08461071 C9.32024681,6.10503929 9.12224681,6.45586071 9.12224681,6.45586071 C9.12224681,6.45586071 9.40871489,6.53364643 9.54275745,6.58943214 C9.67641702,6.64639643 10.3577362,6.83928929 10.5277787,6.87425357 C10.6974383,6.90921786 11.0945872,7.03178929 11.2726723,7.07971786 C11.4511404,7.128825 11.4978638,7.18421786 11.6139064,7.25925357 C11.7307149,7.33468214 12.1837787,7.52953929 12.341183,7.64189643 C12.4985872,7.75425357 13.2626298,8.05046786 13.3821191,8.12393214 C13.5019915,8.19739643 13.9772681,8.42878929 14.3407149,8.55921786 C14.7053106,8.68964643 15.1047574,9.037325 14.8841617,9.53743214 C14.7616085,9.81596786 14.5590128,9.88903929 14.3839915,9.88903929 C14.2438213,9.88903929 14.1212681,9.84228929 14.0707149,9.81753929 C13.9569702,9.76175357 13.7513106,9.71539643 13.5847149,9.58614643 C13.4185021,9.45689643 12.629183,9.238075 12.4177787,9.14103929 C12.2079064,9.04400357 11.405183,8.72971786 11.3048426,8.701825 C11.2045021,8.67393214 10.667183,8.56589643 10.4201617,8.40914643 C10.1723745,8.25278929 9.81314043,8.18168214 9.68177872,8.07521786 C9.55041702,7.96953929 8.92922553,7.79118214 8.80054468,7.76093214 C8.79403404,7.75936071 8.78675745,7.758575 8.77948085,7.758575 C8.64620426,7.758575 8.41488511,8.00214643 8.41488511,8.00214643 L8.88709787,8.20328929 C8.88709787,8.20328929 9.62318298,8.509325 9.73539574,8.56078929 C9.84799149,8.61303929 10.1467149,8.803575 10.2753957,8.95914643 C10.4033106,9.114325 10.8368426,9.36536071 10.8747574,9.39561071 C10.9130553,9.42625357 11.1459064,9.507575 11.5970553,9.80811071 C12.0478213,10.1082536 12.4158638,10.387575 12.6625021,10.439825 C12.9083745,10.4905036 13.5192255,10.8794321 13.2128426,11.3705036 C13.0657787,11.605825 12.8559064,11.6761464 12.664034,11.6761464 C12.4545447,11.6761464 12.2668851,11.5924679 12.2056085,11.5468964 C12.0888,11.4596821 11.8199489,11.3323964 11.5445872,11.1968607 C11.2699915,11.0628964 10.6817362,10.7297536 10.3516085,10.5478607 C10.0203319,10.365575 9.41599149,10.1082536 9.02267234,9.83914643 C8.62973617,9.56925357 8.04454468,9.24043214 7.78105532,9.07386071 C7.70675745,9.02671786 7.64165106,9.00943214 7.58611915,9.00943214 C7.44518298,9.00943214 7.3674383,9.11943214 7.3674383,9.11943214 C7.3674383,9.11943214 7.16445957,9.31861071 7.17403404,9.40386071 C7.18399149,9.48911071 7.14109787,9.581825 7.49075745,9.84228929 C7.84156596,10.1031464 8.01582128,10.2327893 8.12918298,10.3663607 C8.24177872,10.4987536 8.29424681,10.6610036 8.48573617,10.8503607 C8.67645957,11.0397179 9.53662979,11.9189321 9.53662979,11.9189321 C9.53662979,11.9189321 9.70667234,12.0796107 9.81428936,12.1738964 C9.9215234,12.2681821 10.0888851,12.5145036 10.0888851,12.5145036 C10.0888851,12.5145036 10.2508851,12.730575 10.0628426,12.9851464 C9.92918298,13.1658607 9.77484255,13.2114321 9.62356596,13.2114321 C9.56190638,13.2114321 9.50062979,13.203575 9.44165106,13.1949321 C9.23828936,13.1638964 8.45586383,12.4178607 8.45586383,12.4178607 C8.45586383,12.4178607 7.7508,11.688325 7.64509787,11.633325 C7.53939574,11.578325 6.77075745,10.8032179 6.77075745,10.8032179 C6.77075745,10.8032179 5.9921617,10.0151464 5.81790638,10.0151464 C5.81637447,10.0151464 5.81484255,10.0155393 5.81331064,10.0155393 C5.80948085,10.0159321 5.80488511,10.016325 5.80028936,10.016325 C5.6214383,10.016325 5.08909787,9.71893214 4.5881617,9.50286071 C4.07458723,9.282075 2.9700766,8.51521786 2.58709787,8.37575357 C2.20411915,8.23628929 1.6001617,7.55036071 1.6001617,7.55036071 C1.6001617,7.55036071 0.797055319,6.73086071 0.722757447,6.47118214 C0.648842553,6.21111071 0.478417021,5.825325 0.478417021,5.825325 C2.01071489,3.81468214 2.06854468,2.63021786 2.20871489,2.63021786 C2.21637447,2.63021786 2.22403404,2.63336071 2.2320766,2.64003929 C2.40288511,2.77989643 3.44994894,2.77989643 3.50011915,2.82153929 C3.50165106,2.82271786 3.50471489,2.82350357 3.50854468,2.82350357 C3.64488511,2.82350357 5.21203404,2.14150357 5.67199149,1.93486071 C6.14573617,1.72193214 6.46245957,1.769075 6.7194383,1.72743214 C6.9768,1.686575 7.88982128,1.48818214 8.02348085,1.40725357 C8.15675745,1.326325 8.44935319,1.25993214 8.49109787,1.23321786 C8.53284255,1.20571786 9.27697021,1.100825 9.32637447,1.09493214 C9.37501277,1.08903929 9.55118298,0.984146429 9.64386383,0.898110714 C9.73654468,0.812075 10.0203319,0.652967857 10.1903745,0.586182143 C10.2478213,0.563789286 10.2979915,0.552003571 10.342417,0.552003571" id="Fill-8" fill="#ffffff" mask="url(#mask-4)"></path>
            </g>
        </g>
    </g>
</svg>