<?xml version="1.0" encoding="UTF-8"?>
<svg width="689px" height="149px" viewBox="0 0 689 149" version="1.1" xmlns="http://www.w3.org/2000/svg" xmlns:xlink="http://www.w3.org/1999/xlink">
    <title>Gruendung-grau</title>
    <defs>
        <path d="M33.82,90.0971963 C34.996,90.0971963 35.836,89.7011963 36.34,88.9091963 C36.868,88.1651963 37.216,87.2891963 37.384,86.2811963 C37.504,85.3451963 37.564,84.3851963 37.564,83.4011963 C37.564,81.8171963 37.372,80.0171963 36.988,78.0011963 C36.772,76.9211963 36.448,75.9731963 36.016,75.1571963 C35.584,74.3411963 35.092,73.7651963 34.54,73.4291963 L34.54,73.4291963 L35.08,72.6371963 C35.344,72.3251963 35.536,72.0371963 35.656,71.7731963 C35.776,71.5811963 35.89,71.3171963 35.998,70.9811963 C36.106,70.6451963 36.16,70.3091963 36.16,69.9731963 C36.16,69.1091963 36.136,68.4491963 36.088,67.9931963 C36.04,67.3451963 35.932,66.6551963 35.764,65.9231963 C35.596,65.1911963 35.392,64.5491963 35.152,63.9971963 C34.888,63.4211963 34.528,62.9591963 34.072,62.6111963 C33.616,62.2631963 33.112,62.0891963 32.56,62.0891963 C31.768,62.0891963 31.066,62.3411963 30.454,62.8451963 C29.842,63.3491963 29.368,64.0211963 29.032,64.8611963 C29.08,65.1491963 29.206,65.3831963 29.41,65.5631963 C29.614,65.7431963 29.848,65.8331963 30.112,65.8331963 C30.424,65.8331963 30.688,65.7311963 30.904,65.5271963 C31.12,65.3231963 31.264,65.0771963 31.336,64.7891963 C31.432,64.5011963 31.582,64.2611963 31.786,64.0691963 C31.99,63.8771963 32.224,63.7811963 32.488,63.7811963 C32.848,63.7811963 33.166,64.0091963 33.442,64.4651963 C33.718,64.9211963 33.916,65.5091963 34.036,66.2291963 C34.252,67.4291963 34.36,68.5211963 34.36,69.5051963 C34.36,70.0091963 34.252,70.5191963 34.036,71.0351963 C33.82,71.5511963 33.556,71.9771963 33.244,72.3131963 C32.452,73.1051963 32.056,73.7051963 32.056,74.1131963 C32.056,74.3531963 32.164,74.5331963 32.38,74.6531963 C32.596,74.7731963 32.86,74.8331963 33.172,74.8331963 C33.364,74.8331963 33.484,74.8211963 33.532,74.7971963 C34.54,76.0451963 35.188,77.6291963 35.476,79.5491963 C35.596,80.4371963 35.668,81.1811963 35.692,81.7811963 C35.716,82.3811963 35.728,83.3051963 35.728,84.5531963 C35.728,87.2651963 34.996,88.6211963 33.532,88.6211963 C33.244,88.6211963 33.01,88.5671963 32.83,88.4591963 C32.65,88.3511963 32.464,88.2011963 32.272,88.0091963 C32.128,87.8651963 31.96,87.7931963 31.768,87.7931963 C31.504,87.7931963 31.336,87.8351963 31.264,87.9191963 C31.192,88.0031963 31.156,88.1651963 31.156,88.4051963 C31.156,88.7891963 31.324,89.1131963 31.66,89.3771963 C32.212,89.8571963 32.932,90.0971963 33.82,90.0971963 Z" id="path-1"></path>
    </defs>
    <g id="Gruendung-grau" stroke="none" stroke-width="1" fill="none" fill-rule="evenodd">
        <path d="M7.56383635,75.2097342 C7.70944739,84.8575629 9.18816861,92.0122531 12,96.673805 C16.2177471,103.666133 18.1635961,106.48871 24.579904,106.48871 C30.996212,106.48871 36.2589161,109.889112 43.3985454,106.48871 C50.5381746,103.088308 56.7493494,104.699724 58.8746747,93.2129019 C61,81.7260796 61,78.7509946 61,69.6387071 C61,60.5264195 49.7970907,47.5759323 43.3985454,47.5759323 C37,47.5759323 29.1341164,44.0300846 24.579904,47.5759323 C20.0256917,51.12178 12.2600743,58.2468496 10.6823107,61.0305882 C9.63046828,62.886414 8.59097683,67.612796 7.56383635,75.2097342 Z" id="Path-4-Copy-6" fill="#3B515B"></path>
        <g id="3" fill-rule="nonzero" fill="#FFFFFF">
            <use xlink:href="#path-1"></use>
            <use stroke="#FFFFFF" stroke-width="3" xlink:href="#path-1"></use>
        </g>
        <path d="M116.072256,102.494987 C119.040651,102.494987 121.560696,101.644666 123.632388,99.9440222 C125.704081,98.2433788 126.739928,95.9088593 126.739928,92.9404637 L126.739928,92.9404637 L126.554403,88.0240584 C126.368878,85.7977616 126.276116,84.1589598 126.276116,83.107653 C126.276116,82.3655541 126.461641,81.2524058 126.83269,79.7682079 C127.141898,78.0984854 127.296502,76.985337 127.296502,76.4287628 C127.296502,74.511674 124.513631,73.5531295 118.947889,73.5531295 L118.947889,73.5531295 L117.649216,73.5531295 L117.649216,73.4603672 C116.721592,73.4603672 115.964033,73.6922731 115.376538,74.1560849 C114.789043,74.6198967 114.495296,75.2846937 114.495296,76.1504757 C114.495296,77.572832 115.577523,78.2840101 117.741978,78.2840101 L117.741978,78.2840101 L119.597226,78.2840101 C120.586691,78.2840101 121.297869,78.3767725 121.73076,78.5622972 L121.73076,78.5622972 L121.73076,82.829366 C121.73076,92.7240181 120.246562,97.6713442 117.278166,97.6713442 C116.165018,97.6713442 115.082791,97.3312156 114.031484,96.6509582 C113.10386,96.0325425 112.346301,95.2749832 111.758806,94.3782803 C111.171311,93.4815775 110.661118,92.2911271 110.228227,90.8069293 C109.424286,88.2714247 108.898633,85.303029 108.651267,81.9017423 C108.465742,78.2530893 108.372979,75.377456 108.372979,73.2748424 L108.373573,73.0247551 C108.383072,70.9824989 108.506557,67.9428617 108.744029,63.9058436 C109.115078,59.3914086 109.795336,55.2171022 110.784801,51.3829245 C111.341375,49.403994 112.021632,47.8579546 112.825573,46.7448062 C113.629513,45.6316579 114.557137,45.0750837 115.608444,45.0750837 C115.979493,45.0750837 116.288701,45.1060045 116.536068,45.1678461 C116.845275,45.2296876 117.185404,45.2606084 117.556454,45.2606084 C118.360394,45.2606084 119.056112,45.0287025 119.643607,44.5648907 C120.231102,44.1010789 120.524849,43.4981235 120.524849,42.7560246 C120.524849,41.2099852 119.195255,40.4369655 116.536068,40.4369655 C115.05187,40.4369655 113.753197,40.653411 112.640048,41.086302 C110.290068,41.8902425 108.465742,43.3435196 107.167069,45.4461331 C105.806554,47.5487467 104.84801,49.991489 104.291435,52.7743599 C103.611178,55.8664387 103.209208,58.8039136 103.085525,61.5867845 C102.961842,63.8749229 102.9,66.8123977 102.9,70.3992091 L102.9,79.4899208 C102.961842,81.0978018 103.085525,83.0148907 103.271049,85.2411874 C103.456574,87.4674842 103.70394,89.1681275 104.013148,90.3431175 C104.322356,91.8891569 104.817089,93.4970378 105.497346,95.1667604 C106.177604,96.836483 106.919702,98.1042353 107.723643,98.9700173 C108.713108,100.021324 109.919019,100.871646 111.341375,101.520982 C112.763731,102.170319 114.340692,102.494987 116.072256,102.494987 Z M152.34234,103.329848 C152.960756,103.329848 153.455489,103.097943 153.826538,102.634131 C154.197587,102.170319 154.383112,101.629205 154.383112,101.010789 C154.383112,100.26869 154.073904,99.2792252 153.455489,98.0423937 L153.455489,98.0423937 L152.898914,96.9292453 C151.723924,94.5174239 150.734459,91.8273153 149.930519,88.8589196 C149.126578,85.890524 148.291717,82.0254255 147.425935,77.2636241 L147.425935,77.2636241 L146.127262,70.6774962 L145.66345,68.4511995 L147.147648,65.6683286 L148.910133,62.3288834 C149.281182,61.5867845 149.621311,60.6127797 149.930519,59.406869 C150.239727,58.2009582 150.394331,57.134191 150.394331,56.2065674 L150.394331,56.2065674 L150.394331,49.7132019 C150.394331,46.6211231 149.327563,44.2093016 147.194029,42.4777375 C145.060495,40.7461734 142.324005,39.8803913 138.98456,39.8803913 C136.943788,39.8803913 135.923402,41.3645891 135.923402,44.3329848 C135.923402,49.1566277 136.170768,57.5980029 136.665501,69.6571102 C137.222075,80.9741187 137.500362,89.4154938 137.500362,94.9812357 L137.500362,94.9812357 L137.4076,101.196314 L138.61351,102.58775 L141.210856,102.58775 L142.231242,100.083166 C141.056253,95.4450475 140.468758,88.9826028 140.468758,80.6958316 L140.468758,80.6958316 L140.468758,75.5939015 C140.530599,74.1097037 140.56152,72.4709019 140.56152,70.6774962 L140.56152,70.6774962 L141.674668,70.6774962 C142.169401,71.9143278 143.31347,76.9544162 145.106876,85.7977616 L145.106876,85.7977616 L145.756212,88.951682 C146.374628,92.3529687 147.333172,95.661493 148.631846,98.877255 C149.744994,101.845651 150.981825,103.329848 152.34234,103.329848 Z M140.932569,66.1321404 C140.932569,62.3598042 140.870728,58.8657552 140.747045,55.6499932 L140.747045,55.6499932 L140.56152,44.7040342 L140.747045,43.869173 L140.932569,43.4053611 C141.983876,43.4053611 142.865119,43.6681878 143.576297,44.1938412 C144.287475,44.7194946 144.797668,45.4770539 145.106876,46.4665192 C145.601608,48.1980833 145.848975,50.0533306 145.848975,52.032261 C145.848975,54.6296072 145.369702,57.4588593 144.411158,60.5200173 C143.452614,63.5811754 142.293084,65.451883 140.932569,66.1321404 Z M165.514596,33.2942634 C166.565903,33.2942634 167.431685,32.9695951 168.111942,32.3202586 C168.792199,31.670922 169.132328,30.8515212 169.132328,29.8620559 C169.132328,28.9962739 168.80766,28.2077938 168.158323,27.4966157 C167.508987,26.7854375 166.751427,26.4298485 165.885645,26.4298485 C164.958022,26.4298485 164.138621,26.7854375 163.427443,27.4966157 C162.716265,28.2077938 162.360676,29.0271947 162.360676,29.9548183 C162.360676,30.8206004 162.685344,31.5936201 163.33468,32.2738774 C163.984017,32.9541348 164.710655,33.2942634 165.514596,33.2942634 Z M180.449337,33.7580752 C181.500643,33.7580752 182.381886,33.433407 183.093064,32.7840704 C183.804242,32.1347339 184.159831,31.315333 184.159831,30.3258678 C184.159831,29.4600857 183.819702,28.6716056 183.139445,27.9604275 C182.459188,27.2492493 181.686168,26.8936603 180.820386,26.8936603 C179.892762,26.8936603 179.073361,27.2492493 178.362183,27.9604275 C177.651005,28.6716056 177.295416,29.4910065 177.295416,30.4186301 C177.295416,31.2844122 177.620084,32.0574319 178.269421,32.7376892 C178.918758,33.4179466 179.645396,33.7580752 180.449337,33.7580752 Z M173.399397,103.144324 C181.37696,103.144324 185.365742,89.4154938 185.365742,61.957834 C185.365742,61.6486261 185.334821,61.370339 185.272979,61.1229727 L185.272979,61.1229727 L185.272979,60.3808738 L185.458504,56.4848545 C185.582187,55.3717061 185.644029,54.1039538 185.644029,52.6815976 C185.644029,51.3829245 185.767712,49.8368851 186.015078,48.0434793 C186.200603,45.8790242 186.293366,44.302064 186.293366,43.3125988 C186.293366,42.261292 186.262445,41.5501138 186.200603,41.1790644 C186.07692,40.5606486 185.783172,40.0195348 185.319361,39.555723 C184.855549,39.0919112 184.221673,38.8600053 183.417732,38.8600053 C182.428267,38.8600053 181.76347,39.0300696 181.423341,39.3701983 C181.083213,39.710327 180.913148,40.2514407 180.913148,40.9935397 C180.913148,41.3027475 180.944069,41.5501138 181.005911,41.7356386 L181.005911,41.7356386 L181.005911,47.7651923 C181.005911,81.0359602 178.779614,97.6713442 174.327021,97.6713442 C170.431001,97.6713442 168.482992,95.3832059 168.482992,90.8069293 C168.482992,89.3227315 168.266546,86.0451279 167.833655,80.9741187 C167.400764,76.8925746 167.184318,73.6149711 167.184318,71.1413081 L167.184318,71.1413081 L167.184318,45.909945 C167.184318,44.6112719 166.890571,43.4053611 166.303076,42.2922128 C165.715581,41.1790644 165.050784,40.6224902 164.308685,40.6224902 C163.566586,40.6224902 162.91725,41.2718268 162.360676,42.5704999 C162.360676,43.0652325 162.422517,44.4875887 162.5462,46.8375686 C162.5462,47.7033507 162.577121,48.3217664 162.638963,48.6928159 L162.638963,48.6928159 L162.731725,55.8355179 C162.731725,65.4828038 162.824487,73.6458919 163.010012,80.3247821 C163.010012,84.282643 163.226458,87.6839297 163.659349,90.5286422 C164.09224,93.8062457 165.050784,96.7437206 166.534982,99.3410668 C167.277081,100.577898 168.235625,101.520982 169.410615,102.170319 C170.585605,102.819655 171.915199,103.144324 173.399397,103.144324 Z M222.285163,102.031175 C222.718054,102.031175 223.831202,101.783809 225.624608,101.289076 C226.49039,99.8667202 227.232489,93.5898002 227.850905,82.4583165 C228.46932,71.3268328 228.84037,60.9992896 228.964053,51.4756868 L228.964053,51.4756868 L228.964053,44.5185095 C228.964053,43.4672027 228.732147,42.6014206 228.268335,41.9211633 C227.804524,41.240906 227.139727,40.9007773 226.273945,40.9007773 C224.789747,40.9007773 224.047648,41.8284009 224.047648,43.6836482 C224.047648,44.1165393 224.078569,44.5185095 224.14041,44.889559 L224.14041,44.889559 L224.14041,46.0954697 C224.14041,64.2150515 223.521994,79.9228119 222.285163,93.2187508 C221.543064,91.0542956 220.460836,87.4674842 219.03848,82.4583165 L219.03848,82.4583165 L218.110856,79.1188714 C215.822718,71.0176249 213.982931,64.7716257 212.591496,60.3808738 C211.20006,55.9901219 209.638561,51.8158155 207.906996,47.8579546 C205.742541,42.9106285 203.949136,40.4369655 202.526779,40.4369655 C202.403096,40.4369655 202.15573,40.498807 201.78468,40.6224902 L201.78468,40.6224902 L201.78468,40.065916 C199.558384,41.7356386 198.445235,44.0237769 198.445235,46.930331 C198.445235,48.7855783 198.352473,51.6612116 198.166948,55.5572309 C197.981423,59.329567 197.888661,62.2052003 197.888661,64.1841307 C197.888661,70.0590805 197.919582,75.377456 197.981423,80.1392574 L197.981423,80.1392574 L198.074186,96.0016217 C198.074186,99.7739578 199.063651,101.660126 201.042581,101.660126 C201.846522,101.660126 202.526779,101.381839 203.083353,100.825265 C203.639928,100.26869 203.918215,99.5884331 203.918215,98.7844926 C203.918215,98.4752847 203.825452,98.1660769 203.639928,97.856869 C203.454403,97.5476611 203.33072,97.3312156 203.268878,97.2075324 L203.268878,97.2075324 L202.897829,96.5581959 L202.897829,49.8987266 C205.30965,55.5881516 208.633635,64.3696555 212.869783,76.2432381 C217.105931,88.1168207 219.224005,95.073998 219.224005,97.1147701 L219.224005,97.1147701 L219.224005,97.5785819 L219.780579,99.3410668 C219.966104,100.330532 220.244391,101.02625 220.61544,101.42822 C220.98649,101.83019 221.543064,102.031175 222.285163,102.031175 Z M251.041496,102.309462 C252.77306,101.381839 254.195416,100.454215 255.308565,99.5265915 C257.658544,97.4858195 259.45195,95.1667604 260.688782,92.5694142 C261.740088,90.1575927 262.451267,87.4056426 262.822316,84.3135638 C263.069682,82.0254255 263.193366,78.9024259 263.193366,74.944565 L263.193366,74.944565 L263.193366,69.842635 L263.286128,67.3380511 C263.347969,66.6577938 263.37889,65.9156949 263.37889,65.1117544 C263.37889,62.8854576 263.100603,60.6282401 262.544029,58.3401018 C261.492722,53.8256667 259.328267,49.6822811 256.050663,45.909945 C254.504624,44.1783808 252.726679,42.8333265 250.716828,41.8747821 C248.706976,40.9162377 246.619823,40.4369655 244.455368,40.4369655 C243.651427,40.4369655 242.909329,40.7461734 242.229071,41.3645891 C241.548814,41.9830049 241.208685,42.694183 241.208685,43.4981235 C241.208685,44.4875887 241.363289,47.2395389 241.672497,51.7539739 C242.043546,55.8973595 242.229071,58.9585175 242.229071,60.937448 C242.229071,66.3176651 242.19815,71.1722288 242.136309,75.5011392 L242.136309,75.5011392 L241.950784,90.1575927 C241.950784,98.2588392 242.754725,102.309462 244.362606,102.309462 L244.362606,102.309462 L251.041496,102.309462 Z M248.44415,97.5785819 L248.443553,94.886429 C248.430833,89.8655063 248.214586,83.1872975 247.794813,74.8518026 C247.30008,65.1426752 247.052714,58.3401018 247.052714,54.4440825 C247.052714,50.7954295 247.26916,47.5796675 247.702051,44.7967966 C254.937515,45.6007371 258.555247,55.3407853 258.555247,74.0169413 C258.555247,75.4392976 258.524326,76.5215252 258.462485,77.2636241 C258.338802,80.1701782 257.998673,83.0148907 257.442099,85.7977616 C257.194733,87.2201179 256.808223,88.6888553 256.282569,90.2039739 C255.756916,91.7190925 255.184881,92.9713845 254.566466,93.9608497 C253.824367,95.073998 252.927664,95.9552405 251.876357,96.6045771 C250.82505,97.2539136 249.680981,97.5785819 248.44415,97.5785819 L248.44415,97.5785819 Z M283.415561,103.144324 C291.393124,103.144324 295.381906,89.4154938 295.381906,61.957834 C295.381906,61.6486261 295.350985,61.370339 295.289144,61.1229727 L295.289144,61.1229727 L295.289144,60.3808738 L295.474668,56.4848545 C295.598351,55.3717061 295.660193,54.1039538 295.660193,52.6815976 C295.660193,51.3829245 295.783876,49.8368851 296.031242,48.0434793 C296.216767,45.8790242 296.30953,44.302064 296.30953,43.3125988 C296.30953,42.261292 296.278609,41.5501138 296.216767,41.1790644 C296.093084,40.5606486 295.799337,40.0195348 295.335525,39.555723 C294.871713,39.0919112 294.237837,38.8600053 293.433896,38.8600053 C292.444431,38.8600053 291.779634,39.0300696 291.439505,39.3701983 C291.099377,39.710327 290.929312,40.2514407 290.929312,40.9935397 C290.929312,41.3027475 290.960233,41.5501138 291.022075,41.7356386 L291.022075,41.7356386 L291.022075,47.7651923 C291.022075,81.0359602 288.795778,97.6713442 284.343185,97.6713442 C280.447165,97.6713442 278.499156,95.3832059 278.499156,90.8069293 C278.499156,89.3227315 278.28271,86.0451279 277.849819,80.9741187 C277.416928,76.8925746 277.200483,73.6149711 277.200483,71.1413081 L277.200483,71.1413081 L277.200483,45.909945 C277.200483,44.6112719 276.906735,43.4053611 276.31924,42.2922128 C275.731745,41.1790644 275.066948,40.6224902 274.324849,40.6224902 C273.58275,40.6224902 272.933414,41.2718268 272.37684,42.5704999 C272.37684,43.0652325 272.438681,44.4875887 272.562364,46.8375686 C272.562364,47.7033507 272.593285,48.3217664 272.655127,48.6928159 L272.655127,48.6928159 L272.747889,55.8355179 C272.747889,65.4828038 272.840651,73.6458919 273.026176,80.3247821 C273.026176,84.282643 273.242622,87.6839297 273.675513,90.5286422 C274.108404,93.8062457 275.066948,96.7437206 276.551146,99.3410668 C277.293245,100.577898 278.251789,101.520982 279.426779,102.170319 C280.601769,102.819655 281.931363,103.144324 283.415561,103.144324 Z M332.301327,102.031175 C332.734218,102.031175 333.847366,101.783809 335.640772,101.289076 C336.506554,99.8667202 337.248653,93.5898002 337.867069,82.4583165 C338.485485,71.3268328 338.856534,60.9992896 338.980217,51.4756868 L338.980217,51.4756868 L338.980217,44.5185095 C338.980217,43.4672027 338.748311,42.6014206 338.284499,41.9211633 C337.820688,41.240906 337.155891,40.9007773 336.290109,40.9007773 C334.805911,40.9007773 334.063812,41.8284009 334.063812,43.6836482 C334.063812,44.1165393 334.094733,44.5185095 334.156574,44.889559 L334.156574,44.889559 L334.156574,46.0954697 C334.156574,64.2150515 333.538158,79.9228119 332.301327,93.2187508 C331.559228,91.0542956 330.477,87.4674842 329.054644,82.4583165 L329.054644,82.4583165 L328.127021,79.1188714 C325.838882,71.0176249 323.999095,64.7716257 322.60766,60.3808738 C321.216224,55.9901219 319.654725,51.8158155 317.92316,47.8579546 C315.758705,42.9106285 313.9653,40.4369655 312.542943,40.4369655 C312.41926,40.4369655 312.171894,40.498807 311.800844,40.6224902 L311.800844,40.6224902 L311.800844,40.065916 C309.574548,41.7356386 308.461399,44.0237769 308.461399,46.930331 C308.461399,48.7855783 308.368637,51.6612116 308.183112,55.5572309 C307.997587,59.329567 307.904825,62.2052003 307.904825,64.1841307 C307.904825,70.0590805 307.935746,75.377456 307.997587,80.1392574 L307.997587,80.1392574 L308.09035,96.0016217 C308.09035,99.7739578 309.079815,101.660126 311.058745,101.660126 C311.862686,101.660126 312.542943,101.381839 313.099517,100.825265 C313.656092,100.26869 313.934379,99.5884331 313.934379,98.7844926 C313.934379,98.4752847 313.841616,98.1660769 313.656092,97.856869 C313.470567,97.5476611 313.346884,97.3312156 313.285042,97.2075324 L313.285042,97.2075324 L312.913993,96.5581959 L312.913993,49.8987266 C315.325814,55.5881516 318.649799,64.3696555 322.885947,76.2432381 C327.122095,88.1168207 329.240169,95.073998 329.240169,97.1147701 L329.240169,97.1147701 L329.240169,97.5785819 L329.796743,99.3410668 C329.982268,100.330532 330.260555,101.02625 330.631604,101.42822 C331.002654,101.83019 331.559228,102.031175 332.301327,102.031175 Z M363.469481,102.494987 C366.437877,102.494987 368.957921,101.644666 371.029614,99.9440222 C373.101307,98.2433788 374.137153,95.9088593 374.137153,92.9404637 L374.137153,92.9404637 L373.951628,88.0240584 C373.766104,85.7977616 373.673341,84.1589598 373.673341,83.107653 C373.673341,82.3655541 373.858866,81.2524058 374.229916,79.7682079 C374.539123,78.0984854 374.693727,76.985337 374.693727,76.4287628 C374.693727,74.511674 371.910856,73.5531295 366.345115,73.5531295 L366.345115,73.5531295 L365.046441,73.5531295 L365.046441,73.4603672 C364.118818,73.4603672 363.361259,73.6922731 362.773764,74.1560849 C362.186269,74.6198967 361.892521,75.2846937 361.892521,76.1504757 C361.892521,77.572832 362.974749,78.2840101 365.139204,78.2840101 L365.139204,78.2840101 L366.994451,78.2840101 C367.983916,78.2840101 368.695094,78.3767725 369.127986,78.5622972 L369.127986,78.5622972 L369.127986,82.829366 C369.127986,92.7240181 367.643788,97.6713442 364.675392,97.6713442 C363.562244,97.6713442 362.480016,97.3312156 361.428709,96.6509582 C360.501086,96.0325425 359.743526,95.2749832 359.156031,94.3782803 C358.568536,93.4815775 358.058343,92.2911271 357.625452,90.8069293 C356.821512,88.2714247 356.295858,85.303029 356.048492,81.9017423 C355.862967,78.2530893 355.770205,75.377456 355.770205,73.2748424 L355.770799,73.0247551 C355.780298,70.9824989 355.903783,67.9428617 356.141255,63.9058436 C356.512304,59.3914086 357.192561,55.2171022 358.182027,51.3829245 C358.738601,49.403994 359.418858,47.8579546 360.222799,46.7448062 C361.026739,45.6316579 361.954363,45.0750837 363.005669,45.0750837 C363.376719,45.0750837 363.685927,45.1060045 363.933293,45.1678461 C364.242501,45.2296876 364.58263,45.2606084 364.953679,45.2606084 C365.75762,45.2606084 366.453337,45.0287025 367.040832,44.5648907 C367.628327,44.1010789 367.922075,43.4981235 367.922075,42.7560246 C367.922075,41.2099852 366.592481,40.4369655 363.933293,40.4369655 C362.449095,40.4369655 361.150422,40.653411 360.037274,41.086302 C357.687294,41.8902425 355.862967,43.3435196 354.564294,45.4461331 C353.20378,47.5487467 352.245235,49.991489 351.688661,52.7743599 C351.008404,55.8664387 350.606433,58.8039136 350.48275,61.5867845 C350.359067,63.8749229 350.297226,66.8123977 350.297226,70.3992091 L350.297226,70.3992091 L350.297226,79.4899208 C350.359067,81.0978018 350.48275,83.0148907 350.668275,85.2411874 C350.8538,87.4674842 351.101166,89.1681275 351.410374,90.3431175 C351.719582,91.8891569 352.214314,93.4970378 352.894572,95.1667604 C353.574829,96.836483 354.316928,98.1042353 355.120869,98.9700173 C356.110334,100.021324 357.316244,100.871646 358.738601,101.520982 C360.160957,102.170319 361.737917,102.494987 363.469481,102.494987 Z" id="gründung" stroke="#3B515B" stroke-width="2" fill="#3B515B" fill-rule="nonzero"></path>
    </g>
</svg>