<?xml version="1.0" encoding="UTF-8"?>
<svg width="24px" height="24px" viewBox="0 0 24 24" version="1.1" xmlns="http://www.w3.org/2000/svg" xmlns:xlink="http://www.w3.org/1999/xlink">
    <title>icon-personen</title>
    <g id="Veranstaltungsbuchung" stroke="none" stroke-width="1" fill="none" fill-rule="evenodd">
        <g id="Buchungsformular-(einfach)-Copy-2" transform="translate(-335, -1523)" stroke="#4E4E4E">
            <g id="icon-personen" transform="translate(339.5275, 1526.4883)">
                <circle id="Oval" cx="3.61810753" cy="2.77597669" r="2.27597669"></circle>
                <path d="M5.22634296,13.4206389 C2.864383,13.4206389 1.12226869,13.4206389 0,13.4206389 C0,12.2394346 0,11.2933877 0,10.5344048 C0,6.42465252 1.5650508,6.84037862 3.62317643,6.84037862 C5.22242853,6.84037862 6.50534392,6.65367748 7.0111999,8.49021728" id="Path"></path>
                <circle id="Oval" cx="10.3333768" cy="5.48425415" r="2.27597669"></circle>
                <path d="M6.71526924,16.1289163 C6.71526924,14.9477121 6.71526924,14.0016652 6.71526924,13.2426823 C6.71526924,9.13292998 8.28032004,9.54865608 10.3384457,9.54865608 C12.382243,9.54865608 13.9093964,9.24373406 13.9582883,13.2464668 C13.9677305,14.0194962 13.9541196,14.9027541 13.9540837,16.1289163 C13.9540837,16.1289163 9.73788474,16.1289163 6.71526924,16.1289163 Z" id="Path-12"></path>
            </g>
        </g>
    </g>
</svg>