<?xml version="1.0" encoding="UTF-8"?>
<svg width="48px" height="49px" viewBox="0 0 48 49" version="1.1" xmlns="http://www.w3.org/2000/svg" xmlns:xlink="http://www.w3.org/1999/xlink">
    <title>Play/Blau</title>
    <defs>
        <path d="M26.0254608,15.7867415 L35.1757036,32.2571785 C35.3098102,32.4985704 35.2228383,32.802972 34.9814464,32.9370786 C34.9071674,32.9783447 34.8235971,33 34.738625,33 L16.4381394,33 C16.161997,33 15.9381394,32.7761424 15.9381394,32.5 C15.9381394,32.4150279 15.9597947,32.3314575 16.0010608,32.2571785 L25.1513035,15.7867415 C25.2854101,15.5453497 25.5898118,15.4583778 25.8312037,15.5924844 C25.9128237,15.6378288 25.9801164,15.7051215 26.0254608,15.7867415 Z" id="path-1"></path>
        <filter x="-12.5%" y="-25.0%" width="135.0%" height="138.9%" filterUnits="objectBoundingBox" id="filter-2">
            <feOffset dx="1" dy="-1" in="SourceAlpha" result="shadowOffsetOuter1"></feOffset>
            <feGaussianBlur stdDeviation="1" in="shadowOffsetOuter1" result="shadowBlurOuter1"></feGaussianBlur>
            <feColorMatrix values="0 0 0 0 0   0 0 0 0 0   0 0 0 0 0  0 0 0 0.2 0" type="matrix" in="shadowBlurOuter1"></feColorMatrix>
        </filter>
    </defs>
    <g id="Layout" stroke="none" stroke-width="1" fill="none" fill-rule="evenodd">
        <g id="Tablet-(16.11.)-Copy" transform="translate(-348.000000, -434.000000)">
            <g id="Group-14" transform="translate(177.000000, 187.664891)">
                <g id="Group-31" transform="translate(20.000000, 0.000000)">
                    <g id="Play/Blau" transform="translate(151.000000, 247.233472)">
                        <circle id="Oval" fill="#0271BB" cx="24" cy="24" r="24"></circle>
                        <g id="Triangle" transform="translate(25.588382, 24.000000) rotate(90.000000) translate(-25.588382, -24.000000) ">
                            <use fill="black" fill-opacity="1" filter="url(#filter-2)" xlink:href="#path-1"></use>
                            <use fill="#FFFFFF" fill-rule="evenodd" xlink:href="#path-1"></use>
                        </g>
                    </g>
                </g>
            </g>
        </g>
    </g>
</svg>