<?xml version="1.0" encoding="UTF-8"?>
<svg width="689px" height="149px" viewBox="0 0 689 149" version="1.1" xmlns="http://www.w3.org/2000/svg" xmlns:xlink="http://www.w3.org/1999/xlink">
    <title>Idea-grau</title>
    <defs>
        <path d="M35.018,90.0590487 C37.754,90.0590487 39.122,89.7110487 39.122,89.0150487 C39.122,88.4150487 38.618,88.1150487 37.61,88.1150487 C37.418,88.1150487 37.274,88.1270487 37.178,88.1510487 C37.01,88.1510487 36.842,88.1630487 36.674,88.1870487 C36.506,88.2110487 36.374,88.2230487 36.278,88.2230487 L36.278,88.0070487 C36.278,85.7990487 36.146,82.9430487 35.882,79.4390487 C35.618,75.4790487 35.486,72.6470487 35.486,70.9430487 C35.486,70.1030487 35.402,68.9990487 35.234,67.6310487 C35.042,66.0950487 34.946,65.0030487 34.946,64.3550487 C34.946,63.9950487 35.018,63.4910487 35.162,62.8430487 C34.97,62.4350487 34.358,62.2310487 33.326,62.2310487 C31.382,62.2310487 30.41,62.5430487 30.41,63.1670487 C30.41,63.6950487 30.758,63.9590487 31.454,63.9590487 L31.886,63.9230487 L32.282,63.9230487 C33.098,63.9230487 33.506,64.4870487 33.506,65.6150487 L33.506,66.2990487 C33.482,66.4910487 33.47,66.6950487 33.47,66.9110487 C33.47,69.1670487 33.65,72.6230487 34.01,77.2790487 C34.37,81.9110487 34.55,85.4150487 34.55,87.7910487 C34.55,88.1990487 34.286,88.4030487 33.758,88.4030487 C33.374,88.4030487 33.122,88.4510487 33.002,88.5470487 C32.882,88.6430487 32.822,88.8230487 32.822,89.0870487 C32.822,89.4950487 32.906,89.7590487 33.074,89.8790487 C33.242,89.9990487 33.53,90.0590487 33.938,90.0590487 L35.018,90.0590487 Z" id="path-1"></path>
    </defs>
    <g id="Idea-grau" stroke="none" stroke-width="1" fill="none" fill-rule="evenodd">
        <path d="M7.56383635,75.2097342 C7.70944739,84.8575629 9.18816861,92.0122531 12,96.673805 C16.2177471,103.666133 18.1635961,106.48871 24.579904,106.48871 C30.996212,106.48871 36.2589161,109.889112 43.3985454,106.48871 C50.5381746,103.088308 56.7493494,104.699724 58.8746747,93.2129019 C61,81.7260796 61,78.7509946 61,69.6387071 C61,60.5264195 49.7970907,47.5759323 43.3985454,47.5759323 C37,47.5759323 29.1341164,44.0300846 24.579904,47.5759323 C20.0256917,51.12178 12.2600743,58.2468496 10.6823107,61.0305882 C9.63046828,62.886414 8.59097683,67.612796 7.56383635,75.2097342 Z" id="Path-4-Copy-6" fill="#3B515B"></path>
        <g id="1" fill-rule="nonzero" fill="#FFFFFF">
            <use xlink:href="#path-1"></use>
            <use stroke="#FFFFFF" stroke-width="3" xlink:href="#path-1"></use>
        </g>
        <path d="M115.99,100.91 C116.53,100.91 117.76,100.85 119.68,100.73 C120.58,100.73 121.195,100.715 121.525,100.685 C121.855,100.655 122.05,100.64 122.11,100.64 L122.11,100.64 L124.36,99.11 L124.36,98.57 C124.36,96.47 123.1,95.42 120.58,95.42 C119.74,95.42 119.14,95.45 118.78,95.51 L118.78,95.51 L118.78,92.09 C118.78,89.21 118.63,86.39 118.33,83.63 C117.97,79.43 117.73,76.25 117.61,74.09 C116.89,62.39 116.53,53.63 116.53,47.81 C116.53,47.09 116.665,46.595 116.935,46.325 C117.205,46.055 117.64,45.92 118.24,45.92 L118.24,45.92 L118.96,45.92 C119.2,45.98 119.5,46.01 119.86,46.01 C120.46,46.01 120.955,45.77 121.345,45.29 C121.735,44.81 121.93,44.24 121.93,43.58 C121.93,42.92 121.675,42.335 121.165,41.825 C120.655,41.315 120.04,41.06 119.32,41.06 C117.46,41.06 115.33,41.3 112.93,41.78 C111.55,42.02 110.41,42.41 109.51,42.95 C108.61,43.49 108.16,44.12 108.16,44.84 C108.16,46.28 108.88,47 110.32,47 C110.74,47 111.43,46.88 112.39,46.64 C112.57,47.96 112.66,49.61 112.66,51.59 L112.66,51.59 L112.57,56.18 C112.51,57.56 112.48,59.09 112.48,60.77 C112.48,65.45 112.75,72.38 113.29,81.56 C113.53,85.28 113.74,87.86 113.92,89.3 C114.04,91.46 114.1,93.05 114.1,94.07 C114.1,94.85 114.01,95.39 113.83,95.69 C113.65,95.99 113.32,96.14 112.84,96.14 L112.84,96.14 L111.94,96.05 L110.95,96.05 C109.09,96.05 108.16,96.77 108.16,98.21 C108.16,100.01 110.77,100.91 115.99,100.91 Z M141.19,101.54 C142.87,100.64 144.25,99.74 145.33,98.84 C147.61,96.86 149.35,94.61 150.55,92.09 C151.57,89.75 152.26,87.08 152.62,84.08 C152.86,81.86 152.98,78.83 152.98,74.99 L152.98,74.99 L152.98,70.04 L153.07,67.61 C153.13,66.95 153.16,66.23 153.16,65.45 C153.16,63.29 152.89,61.1 152.35,58.88 C151.33,54.5 149.23,50.48 146.05,46.82 C144.55,45.14 142.825,43.835 140.875,42.905 C138.925,41.975 136.9,41.51 134.8,41.51 C134.02,41.51 133.3,41.81 132.64,42.41 C131.98,43.01 131.65,43.7 131.65,44.48 C131.65,45.44 131.8,48.11 132.1,52.49 C132.46,56.51 132.64,59.48 132.64,61.4 C132.64,66.62 132.61,71.33 132.55,75.53 L132.55,75.53 L132.37,89.75 C132.37,97.61 133.15,101.54 134.71,101.54 L134.71,101.54 L141.19,101.54 Z M138.67,96.95 L138.67,94.79 C138.67,89.87 138.46,83.24 138.04,74.9 C137.56,65.48 137.32,58.88 137.32,55.1 C137.32,51.56 137.53,48.44 137.95,45.74 C144.97,46.52 148.48,55.97 148.48,74.09 C148.48,75.47 148.45,76.52 148.39,77.24 C148.27,80.06 147.94,82.82 147.4,85.52 C147.16,86.9 146.785,88.325 146.275,89.795 C145.765,91.265 145.21,92.48 144.61,93.44 C143.89,94.52 143.02,95.375 142,96.005 C140.98,96.635 139.87,96.95 138.67,96.95 L138.67,96.95 Z M174.76,102.17 C175.84,102.17 176.755,101.945 177.505,101.495 C178.255,101.045 178.63,100.4 178.63,99.56 C178.63,98.12 177.49,97.4 175.21,97.4 C173.77,97.4 172.54,97.43 171.52,97.49 L171.52,97.49 L168.55,97.58 C168.437742,97.58 168.377992,96.1097815 168.370749,93.1693444 L168.370558,92.288781 C168.378368,90.4898967 168.468182,87.8436364 168.64,84.35 C168.7,81.95 168.73,79.25 168.73,76.25 C168.73,73.25 168.67,70.97 168.55,69.41 L168.55,69.41 L170.8,69.41 C171.4,69.53 172.24,69.59 173.32,69.59 C174.16,69.59 174.85,69.365 175.39,68.915 C175.93,68.465 176.2,67.91 176.2,67.25 C176.2,65.57 174.76,64.73 171.88,64.73 C171.16,64.73 170.56,64.76 170.08,64.82 L170.08,64.82 L168.64,64.91 L168.37,63.47 C168.37,62.03 168.46,59.87 168.64,56.99 C168.7,55.07 168.73,52.91 168.73,50.51 C168.73,48.83 168.7,47.54 168.64,46.64 C170.68,46.94 172.96,47.54 175.48,48.44 C176.2,48.14 176.815,47.735 177.325,47.225 C177.835,46.715 178.09,46.16 178.09,45.56 C178.09,44.48 176.785,43.55 174.175,42.77 C171.565,41.99 169.27,41.6 167.29,41.6 C164.77,41.6 163.51,43.73 163.51,47.99 C163.51,48.77 163.6,50.03 163.78,51.77 C163.96,53.45 164.05,54.71 164.05,55.55 C164.05,59.09 163.93,63.47 163.69,68.69 C163.51,74.51 163.42,78.89 163.42,81.83 L163.42,81.83 L163.6,87.59 C163.78,90.17 163.87,92.09 163.87,93.35 C163.87,94.07 163.9,94.7 163.96,95.24 L163.96,95.24 L163.96,99.38 C164.02,100.16 164.365,100.82 164.995,101.36 C165.625,101.9 166.33,102.17 167.11,102.17 L167.11,102.17 L174.76,102.17 Z M206.26,101.81 C207.22,101.45 207.7,100.61 207.7,99.29 L207.7,99.29 L207.7,99.2 C207.7,98.36 207.43,96.5 206.89,93.62 C206.29,90.44 205.99,88.64 205.99,88.22 C205.99,87.8 205.84,86.9 205.54,85.52 C205.24,84.02 205.09,83.09 205.09,82.73 C205.09,79.01 204.49,72.53 203.29,63.29 C202.03,54.29 201.4,47.51 201.4,42.95 C201.4,42.23 201.1,41.675 200.5,41.285 C199.9,40.895 199.18,40.7 198.34,40.7 L198.34,40.7 L195.28,40.7 C194.8,41.36 194.455,42.35 194.245,43.67 C194.035,44.99 193.84,46.76 193.66,48.98 C193.6,50.06 193.54,50.885 193.48,51.455 C193.42,52.025 193.39,52.43 193.39,52.67 C191.35,67.67 188.35,82.88 184.39,98.3 L184.39,98.3 L184.3,98.66 L184.12,99.11 C184.12,99.77 184.42,100.325 185.02,100.775 C185.62,101.225 186.28,101.45 187,101.45 C187.78,101.45 188.38,101.18 188.8,100.64 C189.58,99.68 190.15,97.73 190.51,94.79 C191.17,90.59 191.68,87.8 192.04,86.42 L192.04,86.42 L200.95,87.77 L201.31,89.66 C201.91,93.98 202.21,97.04 202.21,98.84 C202.21,99.98 202.54,100.76 203.2,101.18 C203.86,101.6 204.88,101.81 206.26,101.81 Z M200.32,84.53 C195.94,84.17 193.3,83.69 192.4,83.09 C193.36,75.89 195.13,65.24 197.71,51.14 L197.71,51.14 L198.61,60.5 C199.57,68.9 200.05,75.8 200.05,81.2 C200.05,82.52 200.14,83.63 200.32,84.53 Z" id="idea" stroke="#3B515B" stroke-width="2" fill="#3B515B" fill-rule="nonzero"></path>
    </g>
</svg>