<?xml version="1.0" encoding="UTF-8"?>
<svg width="689px" height="149px" viewBox="0 0 689 149" version="1.1" xmlns="http://www.w3.org/2000/svg" xmlns:xlink="http://www.w3.org/1999/xlink">
    <title>Idee-blau</title>
    <defs>
        <path d="M35.018,90.0590487 C37.754,90.0590487 39.122,89.7110487 39.122,89.0150487 C39.122,88.4150487 38.618,88.1150487 37.61,88.1150487 C37.418,88.1150487 37.274,88.1270487 37.178,88.1510487 C37.01,88.1510487 36.842,88.1630487 36.674,88.1870487 C36.506,88.2110487 36.374,88.2230487 36.278,88.2230487 L36.278,88.0070487 C36.278,85.7990487 36.146,82.9430487 35.882,79.4390487 C35.618,75.4790487 35.486,72.6470487 35.486,70.9430487 C35.486,70.1030487 35.402,68.9990487 35.234,67.6310487 C35.042,66.0950487 34.946,65.0030487 34.946,64.3550487 C34.946,63.9950487 35.018,63.4910487 35.162,62.8430487 C34.97,62.4350487 34.358,62.2310487 33.326,62.2310487 C31.382,62.2310487 30.41,62.5430487 30.41,63.1670487 C30.41,63.6950487 30.758,63.9590487 31.454,63.9590487 L31.886,63.9230487 L32.282,63.9230487 C33.098,63.9230487 33.506,64.4870487 33.506,65.6150487 L33.506,66.2990487 C33.482,66.4910487 33.47,66.6950487 33.47,66.9110487 C33.47,69.1670487 33.65,72.6230487 34.01,77.2790487 C34.37,81.9110487 34.55,85.4150487 34.55,87.7910487 C34.55,88.1990487 34.286,88.4030487 33.758,88.4030487 C33.374,88.4030487 33.122,88.4510487 33.002,88.5470487 C32.882,88.6430487 32.822,88.8230487 32.822,89.0870487 C32.822,89.4950487 32.906,89.7590487 33.074,89.8790487 C33.242,89.9990487 33.53,90.0590487 33.938,90.0590487 L35.018,90.0590487 Z" id="path-1"></path>
    </defs>
    <g id="Idee-blau" stroke="none" stroke-width="1" fill="none" fill-rule="evenodd">
        <path d="M7.56383635,75.2097342 C7.70944739,84.8575629 9.18816861,92.0122531 12,96.673805 C16.2177471,103.666133 18.1635961,106.48871 24.579904,106.48871 C30.996212,106.48871 36.2589161,109.889112 43.3985454,106.48871 C50.5381746,103.088308 56.7493494,104.699724 58.8746747,93.2129019 C61,81.7260796 61,78.7509946 61,69.6387071 C61,60.5264195 49.7970907,47.5759323 43.3985454,47.5759323 C37,47.5759323 29.1341164,44.0300846 24.579904,47.5759323 C20.0256917,51.12178 12.2600743,58.2468496 10.6823107,61.0305882 C9.63046828,62.886414 8.59097683,67.612796 7.56383635,75.2097342 Z" id="Path-4-Copy-6" fill="#0271BB"></path>
        <g id="Idee_Blau" transform="translate(108.000000, 9.000000)">
            <g transform="translate(116.000000, 0.000000)">
                <path d="M43.7753486,102.038412 C44.0211132,92.7878921 42.5271659,85.6823928 37.2145638,77.9159851 C30.7566292,68.4752342 26.6998212,68.7866535 25.5744052,58.6180736 C24.2885319,46.9996991 24.854231,40.0710785 30.471188,30.0336313 C40.0416599,12.9312916 64.4811165,12.3353054 77.561681,23.9750581 C85.081371,30.6664613 87.0722152,46.1099633 85.4981425,55.5026408 C83.2598863,68.8585796 76.5495553,71.8517876 71.0008397,84.1128475 C65.5771489,96.0976386 75.0124526,105.693631 58.0908517,107.225188 C47.9389678,108.144024 50.6033639,108.920722 45.0751859,106.21546 L43.7753486,102.038412 Z" id="Path-5" fill="#0271BB"></path>
                <path d="M62,29.0807797 C78.393131,33.7333398 80.5373019,49.7657473 75.780122,63.0807797" id="Path-7" stroke="#FFFFFF" stroke-width="3"></path>
                <path d="M15,83.0807797 C19,80.414113 23,77.7474464 27,75.0807797" id="Path-8" stroke="#0271BB" stroke-width="3"></path>
                <path d="M0,53.0807797 C5,52.7474464 10,52.414113 15,52.0807797" id="Path-9" stroke="#0271BB" stroke-width="3"></path>
                <path d="M5,12.0807797 C9.66666694,15.4141132 14.3333331,18.7474462 19,22.0807797" id="Path-10" stroke="#0271BB" stroke-width="3"></path>
                <line x1="27" y1="0.0807796926" x2="35.6750793" y2="11.7598975" id="Path-11" stroke="#0271BB" stroke-width="3"></line>
                <path d="M86,10.0807797 C90.8941928,8.9352643 87.1082782,10.1610343 96,1.08077969" id="Path-13" stroke="#0271BB" stroke-width="3"></path>
                <path d="M96,31.0807797 C110.811513,30.8288544 103.138004,31.1323528 119,30.0807797" id="Path-14" stroke="#0271BB" stroke-width="3"></path>
                <path d="M103,55.0807797 C107.333333,55.414113 111.666667,55.7474464 116,56.0807797" id="Path-15" stroke="#0271BB" stroke-width="3"></path>
                <path d="M96,78.0807797 C99.6666667,83.0807797 103.333333,88.0807797 107,93.0807797" id="Path-16" stroke="#0271BB" stroke-width="3"></path>
                <path d="M42,94.0807797 C56.488818,92.6347189 48.1688839,93.1175992 67,93.3396036" id="Path-6" stroke="#FFFFFF" stroke-width="2"></path>
            </g>
            <path d="M7.94403535,93.1216495 C8.49189985,93.1216495 9.73981345,93.0607757 11.6877761,92.939028 C12.6008837,92.939028 13.2248405,92.9238095 13.5596465,92.8933726 C13.8944526,92.8629357 14.0922926,92.8477172 14.1531664,92.8477172 L14.1531664,92.8477172 L16.4359352,91.2954345 L16.4359352,90.74757 C16.4359352,88.6169858 15.1575847,87.5516937 12.6008837,87.5516937 C11.74865,87.5516937 11.1399116,87.5821306 10.7746686,87.6430044 L10.7746686,87.6430044 L10.7746686,84.1731959 C10.7746686,81.2512518 10.622484,78.3901816 10.3181149,75.5899853 C9.95287187,71.3288169 9.70937653,68.1025037 9.58762887,65.9110457 C8.85714286,54.040648 8.49189985,45.1530682 8.49189985,39.2483063 C8.49189985,38.5178203 8.62886598,38.0156112 8.90279823,37.7416789 C9.17673049,37.4677467 9.61806578,37.3307806 10.2268041,37.3307806 L10.2268041,37.3307806 L10.9572901,37.3307806 C11.2007855,37.3916544 11.5051546,37.4220913 11.8703976,37.4220913 C12.479136,37.4220913 12.9813451,37.178596 13.377025,36.6916053 C13.772705,36.2046146 13.9705449,35.6263132 13.9705449,34.956701 C13.9705449,34.2870889 13.7118311,33.693569 13.1944035,33.1761414 C12.6769759,32.6587138 12.0530191,32.4 11.3225331,32.4 C9.43544428,32.4 7.27442317,32.6434953 4.83946981,33.130486 C3.43937162,33.3739813 2.28276878,33.7696613 1.36966127,34.3175258 C0.456553756,34.8653903 0,35.5045655 0,36.2350515 C0,37.6960236 0.730486009,38.4265096 2.19145803,38.4265096 C2.61757486,38.4265096 3.31762396,38.3047619 4.2916053,38.0612666 C4.4742268,39.4004909 4.56553756,41.0745214 4.56553756,43.0833579 L4.56553756,43.0833579 L4.4742268,47.7402062 C4.41335297,49.1403044 4.38291605,50.6925871 4.38291605,52.3970545 C4.38291605,57.1452135 4.65684831,64.1761414 5.20471281,73.489838 C5.44820815,77.2640157 5.66126657,79.8815906 5.84388807,81.3425626 C5.96563574,83.5340206 6.02650957,85.1471772 6.02650957,86.1820324 C6.02650957,86.9733922 5.93519882,87.5212568 5.75257732,87.8256259 C5.56995582,88.1299951 5.23514973,88.2821797 4.74815906,88.2821797 L4.74815906,88.2821797 L3.83505155,88.1908689 L2.83063328,88.1908689 C0.943544428,88.1908689 0,88.9213549 0,90.382327 C0,92.208542 2.64801178,93.1216495 7.94403535,93.1216495 Z M33.5110457,93.7608247 C35.215513,92.8477172 36.6156112,91.9346097 37.7113402,91.0215022 C40.0245459,89.0126657 41.7898871,86.7298969 43.0073638,84.1731959 C44.0422189,81.7991163 44.742268,79.0902307 45.107511,76.046539 C45.3510064,73.7942072 45.4727541,70.7200785 45.4727541,66.8241532 L45.4727541,66.8241532 L45.4727541,61.8020619 L45.5640648,59.3366716 C45.6249386,58.6670594 45.6553756,57.9365734 45.6553756,57.1452135 C45.6553756,54.9537555 45.3814433,52.7318606 44.8335788,50.4795287 C43.7987236,46.0357388 41.6681394,41.9571919 38.4418262,38.2438881 C36.9199804,36.5394207 35.1698576,35.2154148 33.191458,34.2718704 C31.2130584,33.328326 29.1585665,32.8565538 27.0279823,32.8565538 C26.2366225,32.8565538 25.5061365,33.1609229 24.8365243,33.7696613 C24.1669121,34.3783996 23.832106,35.0784487 23.832106,35.8698085 C23.832106,36.8437899 23.9842906,39.5526755 24.2886598,43.9964654 C24.6539028,48.0750123 24.8365243,51.0882671 24.8365243,53.0362297 C24.8365243,58.3322533 24.8060874,63.1108493 24.7452135,67.3720177 L24.7452135,67.3720177 L24.562592,81.7991163 C24.562592,89.7735886 25.3539519,93.7608247 26.9366716,93.7608247 L26.9366716,93.7608247 L33.5110457,93.7608247 Z M30.9543446,89.1039764 L30.9543446,86.9125184 C30.9543446,81.920864 30.7412862,75.1943054 30.3151694,66.7328424 C29.8281787,57.1756505 29.5846834,50.4795287 29.5846834,46.6444772 C29.5846834,43.052921 29.7977418,39.8874816 30.2238586,37.1481591 C37.3460972,37.9395189 40.9072165,47.5271478 40.9072165,65.9110457 C40.9072165,67.3111438 40.8767796,68.3764359 40.8159057,69.1069219 C40.6941581,71.9679921 40.359352,74.7681885 39.8114875,77.507511 C39.5679921,78.9076092 39.1875307,80.3533628 38.6701031,81.8447717 C38.1526755,83.3361807 37.5895925,84.5688758 36.9808542,85.5428571 C36.2503682,86.6385862 35.3676976,87.5060383 34.3328424,88.1452135 C33.2979872,88.7843888 32.1718213,89.1039764 30.9543446,89.1039764 L30.9543446,89.1039764 Z M67.5699558,94.4 C68.6656848,94.4 69.5940108,94.1717231 70.3549337,93.7151694 C71.1158567,93.2586156 71.4963181,92.6042219 71.4963181,91.7519882 C71.4963181,90.2910162 70.3397153,89.5605302 68.0265096,89.5605302 C66.5655376,89.5605302 65.317624,89.5909671 64.2827688,89.6518409 L64.2827688,89.6518409 L61.269514,89.7431517 C61.155145,89.7431517 61.0944947,88.2390258 61.0875633,85.2307739 L61.0874103,84.3861968 C61.0950052,82.5609023 61.1861433,79.8723272 61.3608247,76.3204713 C61.4216986,73.8855179 61.4521355,71.1461954 61.4521355,68.1025037 C61.4521355,65.058812 61.3912617,62.7456063 61.269514,61.1628866 L61.269514,61.1628866 L63.5522828,61.1628866 C64.1610211,61.2846343 65.0132548,61.3455081 66.1089838,61.3455081 C66.9612175,61.3455081 67.6612666,61.1172312 68.2091311,60.6606775 C68.7569956,60.2041237 69.0309278,59.6410407 69.0309278,58.9714286 C69.0309278,57.2669612 67.5699558,56.4147275 64.6480118,56.4147275 C63.9175258,56.4147275 63.3087874,56.4451645 62.8217968,56.5060383 L62.8217968,56.5060383 L61.3608247,56.597349 L61.0868925,55.136377 C61.0868925,53.675405 61.1782032,51.483947 61.3608247,48.5620029 C61.4216986,46.6140403 61.4521355,44.4225822 61.4521355,41.9876289 C61.4521355,40.2831615 61.4216986,38.9743741 61.3608247,38.0612666 C63.4305351,38.3656357 65.7437408,38.9743741 68.3004418,39.8874816 C69.0309278,39.5831124 69.6548846,39.172214 70.1723122,38.6547865 C70.6897398,38.1373589 70.9484536,37.5742759 70.9484536,36.9655376 C70.9484536,35.8698085 69.6244477,34.9262641 66.9764359,34.1349043 C64.3284242,33.3435444 62,32.9478645 59.9911635,32.9478645 C57.4344624,32.9478645 56.1561119,35.1088856 56.1561119,39.4309278 C56.1561119,40.2222877 56.2474227,41.5006382 56.4300442,43.2659794 C56.6126657,44.9704467 56.7039764,46.2487973 56.7039764,47.1010309 C56.7039764,50.6925871 56.5822288,55.136377 56.3387334,60.4324006 C56.1561119,66.3371625 56.0648012,70.7809524 56.0648012,73.7637703 L56.0648012,73.7637703 L56.2474227,79.6076583 C56.4300442,82.2252332 56.5213549,84.1731959 56.5213549,85.4515464 C56.5213549,86.1820324 56.5517919,86.8212077 56.6126657,87.3690722 L56.6126657,87.3690722 L56.6126657,91.5693667 C56.6735395,92.3607266 57.0235641,93.0303387 57.6627393,93.5782032 C58.3019146,94.1260677 59.0171821,94.4 59.808542,94.4 L59.808542,94.4 L67.5699558,94.4 Z M93.5022091,94.4 C94.5979381,94.4 95.5262641,94.1717231 96.287187,93.7151694 C97.04811,93.2586156 97.4285714,92.6042219 97.4285714,91.7519882 C97.4285714,90.2910162 96.2719686,89.5605302 93.9587629,89.5605302 C92.4977909,89.5605302 91.2498773,89.5909671 90.2150221,89.6518409 L90.2150221,89.6518409 L87.2017673,89.7431517 C87.0873983,89.7431517 87.026748,88.2390258 87.0198166,85.2307739 L87.0196636,84.3861968 C87.0272585,82.5609023 87.1183966,79.8723272 87.2930781,76.3204713 C87.3539519,73.8855179 87.3843888,71.1461954 87.3843888,68.1025037 C87.3843888,65.058812 87.323515,62.7456063 87.2017673,61.1628866 L87.2017673,61.1628866 L89.4845361,61.1628866 C90.0932744,61.2846343 90.9455081,61.3455081 92.0412371,61.3455081 C92.8934708,61.3455081 93.5935199,61.1172312 94.1413844,60.6606775 C94.6892489,60.2041237 94.9631811,59.6410407 94.9631811,58.9714286 C94.9631811,57.2669612 93.5022091,56.4147275 90.5802651,56.4147275 C89.8497791,56.4147275 89.2410407,56.4451645 88.7540501,56.5060383 L88.7540501,56.5060383 L87.2930781,56.597349 L87.0191458,55.136377 C87.0191458,53.675405 87.1104566,51.483947 87.2930781,48.5620029 C87.3539519,46.6140403 87.3843888,44.4225822 87.3843888,41.9876289 C87.3843888,40.2831615 87.3539519,38.9743741 87.2930781,38.0612666 C89.3627884,38.3656357 91.6759941,38.9743741 94.2326951,39.8874816 C94.9631811,39.5831124 95.5871379,39.172214 96.1045655,38.6547865 C96.6219931,38.1373589 96.8807069,37.5742759 96.8807069,36.9655376 C96.8807069,35.8698085 95.556701,34.9262641 92.9086892,34.1349043 C90.2606775,33.3435444 87.9322533,32.9478645 85.9234168,32.9478645 C83.3667158,32.9478645 82.0883652,35.1088856 82.0883652,39.4309278 C82.0883652,40.2222877 82.179676,41.5006382 82.3622975,43.2659794 C82.544919,44.9704467 82.6362297,46.2487973 82.6362297,47.1010309 C82.6362297,50.6925871 82.5144821,55.136377 82.2709867,60.4324006 C82.0883652,66.3371625 81.9970545,70.7809524 81.9970545,73.7637703 L81.9970545,73.7637703 L82.179676,79.6076583 C82.3622975,82.2252332 82.4536082,84.1731959 82.4536082,85.4515464 C82.4536082,86.1820324 82.4840452,86.8212077 82.544919,87.3690722 L82.544919,87.3690722 L82.544919,91.5693667 C82.6057928,92.3607266 82.9558174,93.0303387 83.5949926,93.5782032 C84.2341679,94.1260677 84.9494354,94.4 85.7407953,94.4 L85.7407953,94.4 L93.5022091,94.4 Z" id="idee" stroke="#0271BB" stroke-width="2" fill="#0271BB" fill-rule="nonzero"></path>
            <path d="M158,94.0807797 C172.488818,92.6347189 164.168884,93.1175992 183,93.3396036" id="Path-6" stroke="#FFFFFF" stroke-width="2"></path>
        </g>
        <g id="1" fill-rule="nonzero" fill="#FFFFFF">
            <use xlink:href="#path-1"></use>
            <use stroke="#FFFFFF" stroke-width="3" xlink:href="#path-1"></use>
        </g>
    </g>
</svg>