<?xml version="1.0" encoding="UTF-8"?>
<svg width="689px" height="149px" viewBox="0 0 689 149" version="1.1" xmlns="http://www.w3.org/2000/svg" xmlns:xlink="http://www.w3.org/1999/xlink">
    <title>Idee-grau</title>
    <defs>
        <path d="M35.018,90.0590487 C37.754,90.0590487 39.122,89.7110487 39.122,89.0150487 C39.122,88.4150487 38.618,88.1150487 37.61,88.1150487 C37.418,88.1150487 37.274,88.1270487 37.178,88.1510487 C37.01,88.1510487 36.842,88.1630487 36.674,88.1870487 C36.506,88.2110487 36.374,88.2230487 36.278,88.2230487 L36.278,88.0070487 C36.278,85.7990487 36.146,82.9430487 35.882,79.4390487 C35.618,75.4790487 35.486,72.6470487 35.486,70.9430487 C35.486,70.1030487 35.402,68.9990487 35.234,67.6310487 C35.042,66.0950487 34.946,65.0030487 34.946,64.3550487 C34.946,63.9950487 35.018,63.4910487 35.162,62.8430487 C34.97,62.4350487 34.358,62.2310487 33.326,62.2310487 C31.382,62.2310487 30.41,62.5430487 30.41,63.1670487 C30.41,63.6950487 30.758,63.9590487 31.454,63.9590487 L31.886,63.9230487 L32.282,63.9230487 C33.098,63.9230487 33.506,64.4870487 33.506,65.6150487 L33.506,66.2990487 C33.482,66.4910487 33.47,66.6950487 33.47,66.9110487 C33.47,69.1670487 33.65,72.6230487 34.01,77.2790487 C34.37,81.9110487 34.55,85.4150487 34.55,87.7910487 C34.55,88.1990487 34.286,88.4030487 33.758,88.4030487 C33.374,88.4030487 33.122,88.4510487 33.002,88.5470487 C32.882,88.6430487 32.822,88.8230487 32.822,89.0870487 C32.822,89.4950487 32.906,89.7590487 33.074,89.8790487 C33.242,89.9990487 33.53,90.0590487 33.938,90.0590487 L35.018,90.0590487 Z" id="path-1"></path>
    </defs>
    <g id="Idee-grau" stroke="none" stroke-width="1" fill="none" fill-rule="evenodd">
        <path d="M7.56383635,75.2097342 C7.70944739,84.8575629 9.18816861,92.0122531 12,96.673805 C16.2177471,103.666133 18.1635961,106.48871 24.579904,106.48871 C30.996212,106.48871 36.2589161,109.889112 43.3985454,106.48871 C50.5381746,103.088308 56.7493494,104.699724 58.8746747,93.2129019 C61,81.7260796 61,78.7509946 61,69.6387071 C61,60.5264195 49.7970907,47.5759323 43.3985454,47.5759323 C37,47.5759323 29.1341164,44.0300846 24.579904,47.5759323 C20.0256917,51.12178 12.2600743,58.2468496 10.6823107,61.0305882 C9.63046828,62.886414 8.59097683,67.612796 7.56383635,75.2097342 Z" id="Path-4-Copy-6" fill="#3B515B"></path>
        <g id="Idee_Blau" transform="translate(108.000000, 41.000000)" stroke-width="2">
            <path d="M7.94403535,61.1216495 C8.49189985,61.1216495 9.73981345,61.0607757 11.6877761,60.939028 C12.6008837,60.939028 13.2248405,60.9238095 13.5596465,60.8933726 C13.8944526,60.8629357 14.0922926,60.8477172 14.1531664,60.8477172 L14.1531664,60.8477172 L16.4359352,59.2954345 L16.4359352,58.74757 C16.4359352,56.6169858 15.1575847,55.5516937 12.6008837,55.5516937 C11.74865,55.5516937 11.1399116,55.5821306 10.7746686,55.6430044 L10.7746686,55.6430044 L10.7746686,52.1731959 C10.7746686,49.2512518 10.622484,46.3901816 10.3181149,43.5899853 C9.95287187,39.3288169 9.70937653,36.1025037 9.58762887,33.9110457 C8.85714286,22.040648 8.49189985,13.1530682 8.49189985,7.24830633 C8.49189985,6.51782032 8.62886598,6.01561119 8.90279823,5.74167894 C9.17673049,5.46774669 9.61806578,5.33078056 10.2268041,5.33078056 L10.2268041,5.33078056 L10.9572901,5.33078056 C11.2007855,5.39165439 11.5051546,5.42209131 11.8703976,5.42209131 C12.479136,5.42209131 12.9813451,5.17859597 13.377025,4.6916053 C13.772705,4.20461463 13.9705449,3.62631321 13.9705449,2.95670103 C13.9705449,2.28708886 13.7118311,1.69356897 13.1944035,1.17614138 C12.6769759,0.658713795 12.0530191,0.4 11.3225331,0.4 C9.43544428,0.4 7.27442317,0.643495336 4.83946981,1.13048601 C3.43937162,1.37398135 2.28276878,1.76966127 1.36966127,2.31752577 C0.456553756,2.86539028 0,3.50456554 0,4.23505155 C0,5.69602356 0.730486009,6.42650957 2.19145803,6.42650957 C2.61757486,6.42650957 3.31762396,6.3047619 4.2916053,6.06126657 C4.4742268,7.40049092 4.56553756,9.07452135 4.56553756,11.0833579 L4.56553756,11.0833579 L4.4742268,15.7402062 C4.41335297,17.1403044 4.38291605,18.6925871 4.38291605,20.3970545 C4.38291605,25.1452135 4.65684831,32.1761414 5.20471281,41.489838 C5.44820815,45.2640157 5.66126657,47.8815906 5.84388807,49.3425626 C5.96563574,51.5340206 6.02650957,53.1471772 6.02650957,54.1820324 C6.02650957,54.9733922 5.93519882,55.5212568 5.75257732,55.8256259 C5.56995582,56.1299951 5.23514973,56.2821797 4.74815906,56.2821797 L4.74815906,56.2821797 L3.83505155,56.1908689 L2.83063328,56.1908689 C0.943544428,56.1908689 0,56.9213549 0,58.382327 C0,60.208542 2.64801178,61.1216495 7.94403535,61.1216495 Z M33.5110457,61.7608247 C35.215513,60.8477172 36.6156112,59.9346097 37.7113402,59.0215022 C40.0245459,57.0126657 41.7898871,54.7298969 43.0073638,52.1731959 C44.0422189,49.7991163 44.742268,47.0902307 45.107511,44.046539 C45.3510064,41.7942072 45.4727541,38.7200785 45.4727541,34.8241532 L45.4727541,34.8241532 L45.4727541,29.8020619 L45.5640648,27.3366716 C45.6249386,26.6670594 45.6553756,25.9365734 45.6553756,25.1452135 C45.6553756,22.9537555 45.3814433,20.7318606 44.8335788,18.4795287 C43.7987236,14.0357388 41.6681394,9.95719195 38.4418262,6.24388807 C36.9199804,4.53942072 35.1698576,3.21541483 33.191458,2.2718704 C31.2130584,1.32832597 29.1585665,0.856553756 27.0279823,0.856553756 C26.2366225,0.856553756 25.5061365,1.16092293 24.8365243,1.76966127 C24.1669121,2.37839961 23.832106,3.0784487 23.832106,3.86980854 C23.832106,4.84378989 23.9842906,7.5526755 24.2886598,11.9964654 C24.6539028,16.0750123 24.8365243,19.0882671 24.8365243,21.0362297 C24.8365243,26.3322533 24.8060874,31.1108493 24.7452135,35.3720177 L24.7452135,35.3720177 L24.562592,49.7991163 C24.562592,57.7735886 25.3539519,61.7608247 26.9366716,61.7608247 L26.9366716,61.7608247 L33.5110457,61.7608247 Z M30.9543446,57.1039764 L30.9543446,54.9125184 C30.9543446,49.920864 30.7412862,43.1943054 30.3151694,34.7328424 C29.8281787,25.1756505 29.5846834,18.4795287 29.5846834,14.6444772 C29.5846834,11.052921 29.7977418,7.88748159 30.2238586,5.14815906 C37.3460972,5.9395189 40.9072165,15.5271478 40.9072165,33.9110457 C40.9072165,35.3111438 40.8767796,36.3764359 40.8159057,37.1069219 C40.6941581,39.9679921 40.359352,42.7681885 39.8114875,45.507511 C39.5679921,46.9076092 39.1875307,48.3533628 38.6701031,49.8447717 C38.1526755,51.3361807 37.5895925,52.5688758 36.9808542,53.5428571 C36.2503682,54.6385862 35.3676976,55.5060383 34.3328424,56.1452135 C33.2979872,56.7843888 32.1718213,57.1039764 30.9543446,57.1039764 L30.9543446,57.1039764 Z M67.5699558,62.4 C68.6656848,62.4 69.5940108,62.1717231 70.3549337,61.7151694 C71.1158567,61.2586156 71.4963181,60.6042219 71.4963181,59.7519882 C71.4963181,58.2910162 70.3397153,57.5605302 68.0265096,57.5605302 C66.5655376,57.5605302 65.317624,57.5909671 64.2827688,57.6518409 L64.2827688,57.6518409 L61.269514,57.7431517 C61.155145,57.7431517 61.0944947,56.2390258 61.0875633,53.2307739 L61.0874103,52.3861968 C61.0950052,50.5609023 61.1861433,47.8723272 61.3608247,44.3204713 C61.4216986,41.8855179 61.4521355,39.1461954 61.4521355,36.1025037 C61.4521355,33.058812 61.3912617,30.7456063 61.269514,29.1628866 L61.269514,29.1628866 L63.5522828,29.1628866 C64.1610211,29.2846343 65.0132548,29.3455081 66.1089838,29.3455081 C66.9612175,29.3455081 67.6612666,29.1172312 68.2091311,28.6606775 C68.7569956,28.2041237 69.0309278,27.6410407 69.0309278,26.9714286 C69.0309278,25.2669612 67.5699558,24.4147275 64.6480118,24.4147275 C63.9175258,24.4147275 63.3087874,24.4451645 62.8217968,24.5060383 L62.8217968,24.5060383 L61.3608247,24.597349 L61.0868925,23.136377 C61.0868925,21.675405 61.1782032,19.483947 61.3608247,16.5620029 C61.4216986,14.6140403 61.4521355,12.4225822 61.4521355,9.98762887 C61.4521355,8.28316151 61.4216986,6.97437408 61.3608247,6.06126657 C63.4305351,6.36563574 65.7437408,6.97437408 68.3004418,7.88748159 C69.0309278,7.58311242 69.6548846,7.17221404 70.1723122,6.65478645 C70.6897398,6.13735886 70.9484536,5.5742759 70.9484536,4.96553756 C70.9484536,3.86980854 69.6244477,2.92626411 66.9764359,2.13490427 C64.3284242,1.34354443 62,0.947864507 59.9911635,0.947864507 C57.4344624,0.947864507 56.1561119,3.10888562 56.1561119,7.43092784 C56.1561119,8.22228768 56.2474227,9.50063819 56.4300442,11.2659794 C56.6126657,12.9704467 56.7039764,14.2487973 56.7039764,15.1010309 C56.7039764,18.6925871 56.5822288,23.136377 56.3387334,28.4324006 C56.1561119,34.3371625 56.0648012,38.7809524 56.0648012,41.7637703 L56.0648012,41.7637703 L56.2474227,47.6076583 C56.4300442,50.2252332 56.5213549,52.1731959 56.5213549,53.4515464 C56.5213549,54.1820324 56.5517919,54.8212077 56.6126657,55.3690722 L56.6126657,55.3690722 L56.6126657,59.5693667 C56.6735395,60.3607266 57.0235641,61.0303387 57.6627393,61.5782032 C58.3019146,62.1260677 59.0171821,62.4 59.808542,62.4 L59.808542,62.4 L67.5699558,62.4 Z M93.5022091,62.4 C94.5979381,62.4 95.5262641,62.1717231 96.287187,61.7151694 C97.04811,61.2586156 97.4285714,60.6042219 97.4285714,59.7519882 C97.4285714,58.2910162 96.2719686,57.5605302 93.9587629,57.5605302 C92.4977909,57.5605302 91.2498773,57.5909671 90.2150221,57.6518409 L90.2150221,57.6518409 L87.2017673,57.7431517 C87.0873983,57.7431517 87.026748,56.2390258 87.0198166,53.2307739 L87.0196636,52.3861968 C87.0272585,50.5609023 87.1183966,47.8723272 87.2930781,44.3204713 C87.3539519,41.8855179 87.3843888,39.1461954 87.3843888,36.1025037 C87.3843888,33.058812 87.323515,30.7456063 87.2017673,29.1628866 L87.2017673,29.1628866 L89.4845361,29.1628866 C90.0932744,29.2846343 90.9455081,29.3455081 92.0412371,29.3455081 C92.8934708,29.3455081 93.5935199,29.1172312 94.1413844,28.6606775 C94.6892489,28.2041237 94.9631811,27.6410407 94.9631811,26.9714286 C94.9631811,25.2669612 93.5022091,24.4147275 90.5802651,24.4147275 C89.8497791,24.4147275 89.2410407,24.4451645 88.7540501,24.5060383 L88.7540501,24.5060383 L87.2930781,24.597349 L87.0191458,23.136377 C87.0191458,21.675405 87.1104566,19.483947 87.2930781,16.5620029 C87.3539519,14.6140403 87.3843888,12.4225822 87.3843888,9.98762887 C87.3843888,8.28316151 87.3539519,6.97437408 87.2930781,6.06126657 C89.3627884,6.36563574 91.6759941,6.97437408 94.2326951,7.88748159 C94.9631811,7.58311242 95.5871379,7.17221404 96.1045655,6.65478645 C96.6219931,6.13735886 96.8807069,5.5742759 96.8807069,4.96553756 C96.8807069,3.86980854 95.556701,2.92626411 92.9086892,2.13490427 C90.2606775,1.34354443 87.9322533,0.947864507 85.9234168,0.947864507 C83.3667158,0.947864507 82.0883652,3.10888562 82.0883652,7.43092784 C82.0883652,8.22228768 82.179676,9.50063819 82.3622975,11.2659794 C82.544919,12.9704467 82.6362297,14.2487973 82.6362297,15.1010309 C82.6362297,18.6925871 82.5144821,23.136377 82.2709867,28.4324006 C82.0883652,34.3371625 81.9970545,38.7809524 81.9970545,41.7637703 L81.9970545,41.7637703 L82.179676,47.6076583 C82.3622975,50.2252332 82.4536082,52.1731959 82.4536082,53.4515464 C82.4536082,54.1820324 82.4840452,54.8212077 82.544919,55.3690722 L82.544919,55.3690722 L82.544919,59.5693667 C82.6057928,60.3607266 82.9558174,61.0303387 83.5949926,61.5782032 C84.2341679,62.1260677 84.9494354,62.4 85.7407953,62.4 L85.7407953,62.4 L93.5022091,62.4 Z" id="idee" stroke="#3B515B" fill="#3B515B" fill-rule="nonzero"></path>
            <path d="M158,62.0807797 C172.488818,60.6347189 164.168884,61.1175992 183,61.3396036" id="Path-6" stroke="#FFFFFF"></path>
        </g>
        <g id="1" fill-rule="nonzero" fill="#FFFFFF">
            <use xlink:href="#path-1"></use>
            <use stroke="#FFFFFF" stroke-width="3" xlink:href="#path-1"></use>
        </g>
    </g>
</svg>