<?xml version="1.0" encoding="UTF-8"?>
<svg width="16px" height="16px" viewBox="0 0 16 16" version="1.1" xmlns="http://www.w3.org/2000/svg" xmlns:xlink="http://www.w3.org/1999/xlink">
    <title>info-icon</title>
    <g id="_Abnahme" stroke="none" stroke-width="1" fill="none" fill-rule="evenodd">
        <g id="Group" transform="translate(-4.000000, -4.000000)">
            <circle id="Oval" fill="#3B515B" cx="12" cy="12" r="7.17582924"/>
            <path d="M10.7165136,9.90242343 L12.0114888,9.90242343 C12.2056126,9.91012076 12.3555826,9.9601877 12.4613987,10.0526242 C12.5672149,10.1450608 12.630349,10.2811527 12.6508012,10.4608999 L12.6508012,15.2046367 L13.3827758,15.2046367 C13.7729206,15.2310233 13.967993,15.4485008 13.967993,15.8570691 C13.967993,16.2656374 13.7360881,16.4798586 13.2722783,16.4997325 L10.6612649,16.4997325 C10.2561077,16.4997325 10.0535291,16.2778005 10.0535291,15.8339364 C10.0535291,15.3900724 10.2929402,15.1803058 10.7717624,15.2046367 L11.3515263,15.2046367 L11.3515263,11.1630849 L10.6612649,11.1630849 C10.2417597,11.1630849 10.032007,10.9540124 10.032007,10.5358673 C10.032007,10.1177222 10.2601759,9.90657424 10.7165136,9.90242343 Z" id="Path" fill="#FFFFFF"/>
            <circle id="Oval" fill="#FFFFFF" cx="12" cy="7.80152232" r="1.00572499"/>
        </g>
    </g>
</svg>