<svg width="24" height="24" viewBox="0 0 24 24" fill="none" xmlns="http://www.w3.org/2000/svg">
<circle cx="12" cy="12" r="12" fill="white"/>
<path fill-rule="evenodd" clip-rule="evenodd" d="M14.4608 6.06407C15.4203 6.11217 16.2702 6.33133 16.9704 7.03155C17.6733 7.73177 17.8924 8.58166 17.9379 9.54113C17.994 10.53 17.994 13.4912 17.9379 14.4801C17.8898 15.4396 17.6706 16.2895 16.9704 16.9897C16.2702 17.6926 15.4203 17.9117 14.4608 17.9572C13.4719 18.0133 10.508 18.0133 9.51915 17.9572C8.55969 17.9091 7.71247 17.6899 7.00958 16.9897C6.30668 16.2895 6.08753 15.4396 6.04209 14.4801C5.98597 13.4912 5.98597 10.5273 6.04209 9.53845C6.0902 8.57899 6.30668 7.7291 7.00958 7.02888C7.71247 6.32865 8.56236 6.1095 9.51915 6.06407C10.508 6.00794 13.4719 6.00794 14.4608 6.06407ZM15.0261 11.5375C15.0498 11.6917 15.0621 11.8497 15.0621 12.0106C15.0621 13.7104 13.6911 15.0814 11.9913 15.0814C10.2915 15.0814 8.92049 13.7104 8.92049 12.0106C8.92049 11.8497 8.93278 11.6917 8.95649 11.5375L7.07839 11.5394C7.08006 11.7155 7.08174 11.8752 7.08174 12.0106C7.08174 12.8819 7.00958 14.7527 7.32227 15.5411C7.53341 16.0676 7.93697 16.4712 8.4608 16.6797C9.24655 16.9897 11.12 16.9202 11.9913 16.9202C12.8626 16.9202 14.7334 16.9924 15.5218 16.6797C16.0483 16.4685 16.4519 16.065 16.6604 15.5411C16.9731 14.7554 16.9009 12.8819 16.9009 12.0106C16.9009 11.875 16.9026 11.7153 16.9044 11.5391L15.0261 11.5375ZM11.9913 10.0142C10.8902 10.0142 9.99488 10.9095 9.99488 12.0106C9.99488 13.1117 10.8929 14.0071 11.9913 14.0071C13.0898 14.0071 13.9878 13.1117 13.9878 12.0106C13.9878 10.9095 13.0924 10.0142 11.9913 10.0142ZM15.2205 7.3167C14.4005 7.3167 13.7357 7.98143 13.7357 8.80141C13.7357 9.62139 14.4005 10.2861 15.2205 10.2861C16.0404 10.2861 16.7052 9.62139 16.7052 8.80141C16.7052 7.98143 16.0404 7.3167 15.2205 7.3167Z" fill="#0271BB"/>
</svg>
