<?xml version="1.0" encoding="UTF-8"?>
<svg width="689px" height="149px" viewBox="0 0 689 149" version="1.1" xmlns="http://www.w3.org/2000/svg" xmlns:xlink="http://www.w3.org/1999/xlink">
    <title>Invention-grau</title>
    <defs>
        <path d="M35.018,90.0590487 C37.754,90.0590487 39.122,89.7110487 39.122,89.0150487 C39.122,88.4150487 38.618,88.1150487 37.61,88.1150487 C37.418,88.1150487 37.274,88.1270487 37.178,88.1510487 C37.01,88.1510487 36.842,88.1630487 36.674,88.1870487 C36.506,88.2110487 36.374,88.2230487 36.278,88.2230487 L36.278,88.0070487 C36.278,85.7990487 36.146,82.9430487 35.882,79.4390487 C35.618,75.4790487 35.486,72.6470487 35.486,70.9430487 C35.486,70.1030487 35.402,68.9990487 35.234,67.6310487 C35.042,66.0950487 34.946,65.0030487 34.946,64.3550487 C34.946,63.9950487 35.018,63.4910487 35.162,62.8430487 C34.97,62.4350487 34.358,62.2310487 33.326,62.2310487 C31.382,62.2310487 30.41,62.5430487 30.41,63.1670487 C30.41,63.6950487 30.758,63.9590487 31.454,63.9590487 L31.886,63.9230487 L32.282,63.9230487 C33.098,63.9230487 33.506,64.4870487 33.506,65.6150487 L33.506,66.2990487 C33.482,66.4910487 33.47,66.6950487 33.47,66.9110487 C33.47,69.1670487 33.65,72.6230487 34.01,77.2790487 C34.37,81.9110487 34.55,85.4150487 34.55,87.7910487 C34.55,88.1990487 34.286,88.4030487 33.758,88.4030487 C33.374,88.4030487 33.122,88.4510487 33.002,88.5470487 C32.882,88.6430487 32.822,88.8230487 32.822,89.0870487 C32.822,89.4950487 32.906,89.7590487 33.074,89.8790487 C33.242,89.9990487 33.53,90.0590487 33.938,90.0590487 L35.018,90.0590487 Z" id="path-1"></path>
    </defs>
    <g id="Invention-grau" stroke="none" stroke-width="1" fill="none" fill-rule="evenodd">
        <path d="M7.56383635,75.2097342 C7.70944739,84.8575629 9.18816861,92.0122531 12,96.673805 C16.2177471,103.666133 18.1635961,106.48871 24.579904,106.48871 C30.996212,106.48871 36.2589161,109.889112 43.3985454,106.48871 C50.5381746,103.088308 56.7493494,104.699724 58.8746747,93.2129019 C61,81.7260796 61,78.7509946 61,69.6387071 C61,60.5264195 49.7970907,47.5759323 43.3985454,47.5759323 C37,47.5759323 29.1341164,44.0300846 24.579904,47.5759323 C20.0256917,51.12178 12.2600743,58.2468496 10.6823107,61.0305882 C9.63046828,62.886414 8.59097683,67.612796 7.56383635,75.2097342 Z" id="Path-4-Copy-6" fill="#3B515B"></path>
        <g id="1" fill-rule="nonzero" fill="#FFFFFF">
            <use xlink:href="#path-1"></use>
            <use stroke="#FFFFFF" stroke-width="3" xlink:href="#path-1"></use>
        </g>
        <path d="M111.99,98.91 C112.53,98.91 113.76,98.85 115.68,98.73 C116.58,98.73 117.195,98.715 117.525,98.685 C117.855,98.655 118.05,98.64 118.11,98.64 L118.11,98.64 L120.36,97.11 L120.36,96.57 C120.36,94.47 119.1,93.42 116.58,93.42 C115.74,93.42 115.14,93.45 114.78,93.51 L114.78,93.51 L114.78,90.09 C114.78,87.21 114.63,84.39 114.33,81.63 C113.97,77.43 113.73,74.25 113.61,72.09 C112.89,60.39 112.53,51.63 112.53,45.81 C112.53,45.09 112.665,44.595 112.935,44.325 C113.205,44.055 113.64,43.92 114.24,43.92 L114.24,43.92 L114.96,43.92 C115.2,43.98 115.5,44.01 115.86,44.01 C116.46,44.01 116.955,43.77 117.345,43.29 C117.735,42.81 117.93,42.24 117.93,41.58 C117.93,40.92 117.675,40.335 117.165,39.825 C116.655,39.315 116.04,39.06 115.32,39.06 C113.46,39.06 111.33,39.3 108.93,39.78 C107.55,40.02 106.41,40.41 105.51,40.95 C104.61,41.49 104.16,42.12 104.16,42.84 C104.16,44.28 104.88,45 106.32,45 C106.74,45 107.43,44.88 108.39,44.64 C108.57,45.96 108.66,47.61 108.66,49.59 L108.66,49.59 L108.57,54.18 C108.51,55.56 108.48,57.09 108.48,58.77 C108.48,63.45 108.75,70.38 109.29,79.56 C109.53,83.28 109.74,85.86 109.92,87.3 C110.04,89.46 110.1,91.05 110.1,92.07 C110.1,92.85 110.01,93.39 109.83,93.69 C109.65,93.99 109.32,94.14 108.84,94.14 L108.84,94.14 L107.94,94.05 L106.95,94.05 C105.09,94.05 104.16,94.77 104.16,96.21 C104.16,98.01 106.77,98.91 111.99,98.91 Z M152.4,99.27 C152.82,99.27 153.9,99.03 155.64,98.55 C156.48,97.17 157.2,91.08 157.8,80.28 C158.4,69.48 158.76,59.46 158.88,50.22 L158.88,50.22 L158.88,43.47 C158.88,42.45 158.655,41.61 158.205,40.95 C157.755,40.29 157.11,39.96 156.27,39.96 C154.83,39.96 154.11,40.86 154.11,42.66 C154.11,43.08 154.14,43.47 154.2,43.83 L154.2,43.83 L154.2,45 C154.2,62.58 153.6,77.82 152.4,90.72 C151.68,88.62 150.63,85.14 149.25,80.28 L149.25,80.28 L148.35,77.04 C146.13,69.18 144.345,63.12 142.995,58.86 C141.645,54.6 140.13,50.55 138.45,46.71 C136.35,41.91 134.61,39.51 133.23,39.51 C133.11,39.51 132.87,39.57 132.51,39.69 L132.51,39.69 L132.51,39.15 C130.35,40.77 129.27,42.99 129.27,45.81 C129.27,47.61 129.18,50.4 129,54.18 C128.82,57.84 128.73,60.63 128.73,62.55 L128.7304,63.6828 C128.734133,68.9356 128.764,73.718 128.82,78.03 L128.82,78.03 L128.91,93.42 C128.91,97.08 129.87,98.91 131.79,98.91 C132.57,98.91 133.23,98.64 133.77,98.1 C134.31,97.56 134.58,96.9 134.58,96.12 C134.58,95.82 134.49,95.52 134.31,95.22 C134.13,94.92 134.01,94.71 133.95,94.59 L133.95,94.59 L133.59,93.96 L133.59,48.69 C135.93,54.21 139.155,62.73 143.265,74.25 C147.375,85.77 149.43,92.52 149.43,94.5 L149.43,94.5 L149.43,94.95 L149.97,96.66 C150.15,97.62 150.42,98.295 150.78,98.685 C151.14,99.075 151.68,99.27 152.4,99.27 Z M179.58,100.08 C180.96,100.08 182.19,99.09 183.27,97.11 C184.35,95.13 185.22,92.4 185.88,88.92 C186.9,83.16 187.65,76.65 188.13,69.39 C188.37,66.15 188.625,63.78 188.895,62.28 C189.165,60.78 189.72,58.53 190.56,55.53 C191.58,52.05 192.345,49.065 192.855,46.575 C193.365,44.085 193.62,41.76 193.62,39.6 C193.62,39.06 193.41,38.595 192.99,38.205 C192.57,37.815 192.09,37.62 191.55,37.62 L191.55,37.62 L189.57,37.62 C188.91,41.52 187.77,48.81 186.15,59.49 C184.17,71.97 182.55,81.51 181.29,88.11 C181.11,87.15 180.9,85.56 180.66,83.34 L180.66,83.34 L179.58,75.33 L179.04,71.82 C178.02,64.74 177.15,59.49 176.43,56.07 C175.65,52.47 174.93,49.455 174.27,47.025 C173.61,44.595 172.89,42.66 172.11,41.22 C171.33,39.72 170.49,38.97 169.59,38.97 C169.05,38.97 168.555,39.18 168.105,39.6 C167.655,40.02 167.43,40.5 167.43,41.04 C167.43,41.94 167.97,44.07 169.05,47.43 C169.47,48.69 169.74,49.62 169.86,50.22 C172.62,60.9 174.645,69.93 175.935,77.31 C177.225,84.69 177.87,91.83 177.87,98.73 L177.87,98.73 L179.58,100.08 Z M214.41,100.17 C215.49,100.17 216.405,99.945 217.155,99.495 C217.905,99.045 218.28,98.4 218.28,97.56 C218.28,96.12 217.14,95.4 214.86,95.4 C213.42,95.4 212.19,95.43 211.17,95.49 L211.17,95.49 L208.2,95.58 C208.087742,95.58 208.027992,94.1097815 208.020749,91.1693444 L208.020558,90.288781 C208.028368,88.4898967 208.118182,85.8436364 208.29,82.35 C208.35,79.95 208.38,77.25 208.38,74.25 C208.38,71.25 208.32,68.97 208.2,67.41 L208.2,67.41 L210.45,67.41 C211.05,67.53 211.89,67.59 212.97,67.59 C213.81,67.59 214.5,67.365 215.04,66.915 C215.58,66.465 215.85,65.91 215.85,65.25 C215.85,63.57 214.41,62.73 211.53,62.73 C210.81,62.73 210.21,62.76 209.73,62.82 L209.73,62.82 L208.29,62.91 L208.02,61.47 C208.02,60.03 208.11,57.87 208.29,54.99 C208.35,53.07 208.38,50.91 208.38,48.51 C208.38,46.83 208.35,45.54 208.29,44.64 C210.33,44.94 212.61,45.54 215.13,46.44 C215.85,46.14 216.465,45.735 216.975,45.225 C217.485,44.715 217.74,44.16 217.74,43.56 C217.74,42.48 216.435,41.55 213.825,40.77 C211.215,39.99 208.92,39.6 206.94,39.6 C204.42,39.6 203.16,41.73 203.16,45.99 C203.16,46.77 203.25,48.03 203.43,49.77 C203.61,51.45 203.7,52.71 203.7,53.55 C203.7,57.09 203.58,61.47 203.34,66.69 C203.16,72.51 203.07,76.89 203.07,79.83 L203.07,79.83 L203.25,85.59 C203.43,88.17 203.52,90.09 203.52,91.35 C203.52,92.07 203.55,92.7 203.61,93.24 L203.61,93.24 L203.61,97.38 C203.67,98.16 204.015,98.82 204.645,99.36 C205.275,99.9 205.98,100.17 206.76,100.17 L206.76,100.17 L214.41,100.17 Z M252.75,99.27 C253.17,99.27 254.25,99.03 255.99,98.55 C256.83,97.17 257.55,91.08 258.15,80.28 C258.75,69.48 259.11,59.46 259.23,50.22 L259.23,50.22 L259.23,43.47 C259.23,42.45 259.005,41.61 258.555,40.95 C258.105,40.29 257.46,39.96 256.62,39.96 C255.18,39.96 254.46,40.86 254.46,42.66 C254.46,43.08 254.49,43.47 254.55,43.83 L254.55,43.83 L254.55,45 C254.55,62.58 253.95,77.82 252.75,90.72 C252.03,88.62 250.98,85.14 249.6,80.28 L249.6,80.28 L248.7,77.04 C246.48,69.18 244.695,63.12 243.345,58.86 C241.995,54.6 240.48,50.55 238.8,46.71 C236.7,41.91 234.96,39.51 233.58,39.51 C233.46,39.51 233.22,39.57 232.86,39.69 L232.86,39.69 L232.86,39.15 C230.7,40.77 229.62,42.99 229.62,45.81 C229.62,47.61 229.53,50.4 229.35,54.18 C229.17,57.84 229.08,60.63 229.08,62.55 L229.0804,63.6828 C229.084133,68.9356 229.114,73.718 229.17,78.03 L229.17,78.03 L229.26,93.42 C229.26,97.08 230.22,98.91 232.14,98.91 C232.92,98.91 233.58,98.64 234.12,98.1 C234.66,97.56 234.93,96.9 234.93,96.12 C234.93,95.82 234.84,95.52 234.66,95.22 C234.48,94.92 234.36,94.71 234.3,94.59 L234.3,94.59 L233.94,93.96 L233.94,48.69 C236.28,54.21 239.505,62.73 243.615,74.25 C247.725,85.77 249.78,92.52 249.78,94.5 L249.78,94.5 L249.78,94.95 L250.32,96.66 C250.5,97.62 250.77,98.295 251.13,98.685 C251.49,99.075 252.03,99.27 252.75,99.27 Z M277.95,98.73 C278.73,98.73 279.435,98.46 280.065,97.92 C280.695,97.38 281.01,96.75 281.01,96.03 C281.01,89.97 280.53,81.45 279.57,70.47 C278.55,58.77 278.04,50.25 278.04,44.91 L278.04,44.91 L278.22,44.01 L280.02,44.37 C281.04,44.55 281.82,44.64 282.36,44.64 C283.14,44.64 283.83,44.415 284.43,43.965 C285.03,43.515 285.33,42.93 285.33,42.21 C285.33,40.77 284.4,40.05 282.54,40.05 L282.54,40.05 L281.1,40.05 C279.3,40.05 277.26,39.9 274.98,39.6 C272.58,39.36 270.54,39.24 268.86,39.24 C268.2,39.24 267.555,39.435 266.925,39.825 C266.295,40.215 265.98,40.65 265.98,41.13 C265.98,41.73 266.31,42.27 266.97,42.75 C267.93,43.35 270.15,43.71 273.63,43.83 C273.75,47.37 274.17,55.38 274.89,67.86 C275.61,80.34 276.06,86.91 276.24,87.57 L276.24,87.57 L276.15,90.63 C276.15,91.89 276.18,93.03 276.24,94.05 L276.24,94.05 L276.33,97.56 L277.95,98.73 Z M298.83,98.91 C299.37,98.91 300.6,98.85 302.52,98.73 C303.42,98.73 304.035,98.715 304.365,98.685 C304.695,98.655 304.89,98.64 304.95,98.64 L304.95,98.64 L307.2,97.11 L307.2,96.57 C307.2,94.47 305.94,93.42 303.42,93.42 C302.58,93.42 301.98,93.45 301.62,93.51 L301.62,93.51 L301.62,90.09 C301.62,87.21 301.47,84.39 301.17,81.63 C300.81,77.43 300.57,74.25 300.45,72.09 C299.73,60.39 299.37,51.63 299.37,45.81 C299.37,45.09 299.505,44.595 299.775,44.325 C300.045,44.055 300.48,43.92 301.08,43.92 L301.08,43.92 L301.8,43.92 C302.04,43.98 302.34,44.01 302.7,44.01 C303.3,44.01 303.795,43.77 304.185,43.29 C304.575,42.81 304.77,42.24 304.77,41.58 C304.77,40.92 304.515,40.335 304.005,39.825 C303.495,39.315 302.88,39.06 302.16,39.06 C300.3,39.06 298.17,39.3 295.77,39.78 C294.39,40.02 293.25,40.41 292.35,40.95 C291.45,41.49 291,42.12 291,42.84 C291,44.28 291.72,45 293.16,45 C293.58,45 294.27,44.88 295.23,44.64 C295.41,45.96 295.5,47.61 295.5,49.59 L295.5,49.59 L295.41,54.18 C295.35,55.56 295.32,57.09 295.32,58.77 C295.32,63.45 295.59,70.38 296.13,79.56 C296.37,83.28 296.58,85.86 296.76,87.3 C296.88,89.46 296.94,91.05 296.94,92.07 C296.94,92.85 296.85,93.39 296.67,93.69 C296.49,93.99 296.16,94.14 295.68,94.14 L295.68,94.14 L294.78,94.05 L293.79,94.05 C291.93,94.05 291,94.77 291,96.21 C291,98.01 293.61,98.91 298.83,98.91 Z M325.2,100.71 C333.24,100.71 337.26,92.07 337.26,74.79 L337.26,74.79 L337.17,69.66 C337.11,68.16 337.08,66.48 337.08,64.62 L337.08,64.62 L337.08,63.9 C337.08,61.08 336.9,58.41 336.54,55.89 C336.18,53.43 335.58,51.105 334.74,48.915 C333.9,46.725 332.88,44.88 331.68,43.38 C330.36,41.82 328.74,40.605 326.82,39.735 C324.9,38.865 322.74,38.43 320.34,38.43 C319.5,38.43 318.75,38.745 318.09,39.375 C317.43,40.005 316.89,40.92 316.47,42.12 C315.39,44.82 314.7,47.61 314.4,50.49 C313.98,54.69 313.74,57.75 313.68,59.67 L313.68,59.67 L313.59,65.97 L313.59,67.59 C313.65,67.59 313.68,67.74 313.68,68.04 L313.68,68.04 L313.68,69.66 C313.62,70.14 313.59,70.74 313.59,71.46 C313.59,75.24 313.86,79.17 314.4,83.25 C314.82,87.57 315.9,91.56 317.64,95.22 C318.48,96.9 319.56,98.235 320.88,99.225 C322.2,100.215 323.64,100.71 325.2,100.71 Z M324.84,96.93 C322.98,96.93 321.57,94.71 320.61,90.27 C319.65,86.01 319.05,81.63 318.81,77.13 C318.63,73.95 318.54,70.74 318.54,67.5 C318.54,66 318.6,64.62 318.72,63.36 L318.72,63.36 L318.9,59.22 L318.9,56.79 C318.84,56.01 318.81,55.05 318.81,53.91 C318.81,50.97 319.11,48.57 319.71,46.71 C320.37,44.37 321.72,43.2 323.76,43.2 C325.8,43.2 327.525,44.04 328.935,45.72 C330.345,47.4 331.11,49.38 331.23,51.66 L331.23,51.66 L331.230864,53.559216 C331.244688,55.837872 331.4244,59.1948 331.77,63.63 C332.19,68.01 332.4,71.55 332.4,74.25 C332.4,76.47 332.25,79.11 331.95,82.17 C331.71,85.71 331.02,89.01 329.88,92.07 C329.4,93.57 328.71,94.755 327.81,95.625 C326.91,96.495 325.92,96.93 324.84,96.93 Z M371.64,99.27 C372.06,99.27 373.14,99.03 374.88,98.55 C375.72,97.17 376.44,91.08 377.04,80.28 C377.64,69.48 378,59.46 378.12,50.22 L378.12,50.22 L378.12,43.47 C378.12,42.45 377.895,41.61 377.445,40.95 C376.995,40.29 376.35,39.96 375.51,39.96 C374.07,39.96 373.35,40.86 373.35,42.66 C373.35,43.08 373.38,43.47 373.44,43.83 L373.44,43.83 L373.44,45 C373.44,62.58 372.84,77.82 371.64,90.72 C370.92,88.62 369.87,85.14 368.49,80.28 L368.49,80.28 L367.59,77.04 C365.37,69.18 363.585,63.12 362.235,58.86 C360.885,54.6 359.37,50.55 357.69,46.71 C355.59,41.91 353.85,39.51 352.47,39.51 C352.35,39.51 352.11,39.57 351.75,39.69 L351.75,39.69 L351.75,39.15 C349.59,40.77 348.51,42.99 348.51,45.81 C348.51,47.61 348.42,50.4 348.24,54.18 C348.06,57.84 347.97,60.63 347.97,62.55 L347.9704,63.6828 C347.974133,68.9356 348.004,73.718 348.06,78.03 L348.06,78.03 L348.15,93.42 C348.15,97.08 349.11,98.91 351.03,98.91 C351.81,98.91 352.47,98.64 353.01,98.1 C353.55,97.56 353.82,96.9 353.82,96.12 C353.82,95.82 353.73,95.52 353.55,95.22 C353.37,94.92 353.25,94.71 353.19,94.59 L353.19,94.59 L352.83,93.96 L352.83,48.69 C355.17,54.21 358.395,62.73 362.505,74.25 C366.615,85.77 368.67,92.52 368.67,94.5 L368.67,94.5 L368.67,94.95 L369.21,96.66 C369.39,97.62 369.66,98.295 370.02,98.685 C370.38,99.075 370.92,99.27 371.64,99.27 Z" id="invention" stroke="#3B515B" stroke-width="2" fill="#3B515B" fill-rule="nonzero"></path>
    </g>
</svg>