<?xml version="1.0" encoding="utf-8"?>
<!-- Generator: Adobe Illustrator 25.2.1, SVG Export Plug-In . SVG Version: 6.00 Build 0)  -->
<svg version="1.1" id="Ebene_1" xmlns="http://www.w3.org/2000/svg" xmlns:xlink="http://www.w3.org/1999/xlink" x="0px" y="0px"
	 viewBox="0 0 53 53" style="enable-background:new 0 0 53 53;" xml:space="preserve">
<style type="text/css">
	.st0{fill:url(#path-1_3_);}
	.st1{fill:#0271BB;}
</style>
<g id="Symbols">
	<g id="Combined-Shape-2">
		<g id="Combined-Shape" transform="translate(26.500000, 26.497685) scale(-1, 1) translate(-26.500000, -26.497685) ">
			
				<linearGradient id="path-1_3_" gradientUnits="userSpaceOnUse" x1="568.4374" y1="7.4991" x2="568.545" y2="64.7452" gradientTransform="matrix(1 0 0 -1 -541.8 53.89)">
				<stop  offset="0" style="stop-color:#0271BB"/>
				<stop  offset="0.2321" style="stop-color:#80B8DB"/>
				<stop  offset="0.5334" style="stop-color:#FFFFFF"/>
			</linearGradient>
			<path id="path-1_2_" class="st0" d="M8.1,7.5c-4.9,4.8-8,11.5-8,19C0.1,41.1,11.9,53,26.6,53s26.5-11.9,26.5-26.5
				C53.1,12,41.5,0.3,27.1,0v6.7c10.7,0.3,19.3,9,19.3,19.8c0,10.9-8.8,19.8-19.7,19.8S6.9,37.4,6.9,26.5c0-4.6,1.5-8.8,4.2-12.2"/>
		</g>
	</g>
</g>
<g id="Symbols_1_">
	<g id="Combined-Shape-2_1_">
		<g id="Combined-Shape_1_" transform="translate(26.500000, 26.497685) scale(-1, 1) translate(-26.500000, -26.497685) ">
			<path id="path-1_1_" class="st1" d="M26.6,53c14.7,0,26.5-11.9,26.5-26.5C53.1,12,41.5,0.3,27.1,0v6.7c10.7,0.3,19.3,9,19.3,19.8
				c0,10.9-8.9,19.8-19.8,19.8"/>
		</g>
	</g>
</g>
</svg>
