<?xml version="1.0" encoding="utf-8"?>
<!-- Generator: Adobe Illustrator 25.2.1, SVG Export Plug-In . SVG Version: 6.00 Build 0)  -->
<svg version="1.1" id="Ebene_1" xmlns="http://www.w3.org/2000/svg" xmlns:xlink="http://www.w3.org/1999/xlink" x="0px" y="0px"
	 viewBox="0 0 48 48" style="enable-background:new 0 0 48 48;" xml:space="preserve">
<style type="text/css">
	.st0{fill:#FFFFFF;}
	.st1{fill-rule:evenodd;clip-rule:evenodd;fill:#FFFFFF;}
</style>
<g id="Lightbox_x2F_Icons_x2F_zoom-in">
	<g id="Group" transform="translate(11.385217, 10.500000)">
		<polygon id="Combined-Shape" class="st0" points="18.6,16.6 26.1,24.2 24.2,26.1 16.6,18.6 		"/>
		<path id="Combined-Shape_1_" class="st0" d="M11.4,0c6.3,0,11.4,5.1,11.4,11.4s-5.1,11.4-11.4,11.4S0,17.7,0,11.4S5.1,0,11.4,0z
			 M11.4,2.7c-4.8,0-8.7,3.9-8.7,8.7S6.6,20,11.4,20s8.7-3.9,8.7-8.7S16.2,2.7,11.4,2.7z"/>
		<polygon id="Path-4" class="st1" points="5.9,10.2 5.9,12.6 10.2,12.6 10.2,16.8 12.6,16.8 12.6,12.6 16.8,12.6 16.8,10.2 
			12.6,10.2 12.6,6 10.2,6 10.2,10.2 		"/>
	</g>
</g>
</svg>
