<svg width="24" height="24" viewBox="0 0 24 24" fill="none" xmlns="http://www.w3.org/2000/svg">
<circle cx="12" cy="12" r="12" fill="white"/>
<mask id="mask0_341_4207" style="mask-type:luminance" maskUnits="userSpaceOnUse" x="6" y="6" width="12" height="11">
<path fill-rule="evenodd" clip-rule="evenodd" d="M6.84912 6.08154H17.5163V16.7483H6.84912V6.08154Z" fill="white"/>
</mask>
<g mask="url(#mask0_341_4207)">
<path fill-rule="evenodd" clip-rule="evenodd" d="M17.5139 16.7483H15.3071V13.2814C15.3071 12.4552 15.2904 11.3956 14.1573 11.3956C13.0075 11.3956 12.8313 12.2933 12.8313 13.2219V16.7483H10.6221V9.62651H12.7432V10.598H12.7741C13.0694 10.0384 13.7906 9.44793 14.8666 9.44793C17.1048 9.44793 17.5163 10.9218 17.5163 12.8362V16.7483H17.5139ZM8.12989 8.65504C7.42269 8.65504 6.84912 8.0693 6.84912 7.36212C6.84922 6.65478 7.42272 6.08145 8.13006 6.08154C8.83728 6.08164 9.41055 6.65493 9.41067 7.36212C9.41067 8.0693 8.83683 8.65504 8.12989 8.65504V8.65504ZM7.0253 16.7483H9.23682V9.62651H7.0253V16.7483Z" fill="#0271BB"/>
</g>
</svg>
