<?xml version="1.0" encoding="UTF-8"?>
<svg width="689px" height="149px" viewBox="0 0 689 149" version="1.1" xmlns="http://www.w3.org/2000/svg" xmlns:xlink="http://www.w3.org/1999/xlink">
    <title>Market-grau</title>
    <g id="Market-grau" stroke="none" stroke-width="1" fill="none" fill-rule="evenodd">
        <path d="M7.56383635,75.2097342 C7.70944739,84.8575629 9.18816861,92.0122531 12,96.673805 C16.2177471,103.666133 18.1635961,106.48871 24.579904,106.48871 C30.996212,106.48871 36.2589161,109.889112 43.3985454,106.48871 C50.5381746,103.088308 56.7493494,104.699724 58.8746747,93.2129019 C61,81.7260796 61,78.7509946 61,69.6387071 C61,60.5264195 49.7970907,47.5759323 43.3985454,47.5759323 C37,47.5759323 29.1341164,44.0300846 24.579904,47.5759323 C20.0256917,51.12178 12.2600743,58.2468496 10.6823107,61.0305882 C9.63046828,62.886414 8.59097683,67.612796 7.56383635,75.2097342 Z" id="Path-4-Copy-6" fill="#3B515B"></path>
        <path d="M30.969266,58 C27.1300903,84.199591 20.7365791,79.9699953 42.1358767,78.2677162" id="Path-17-Copy" stroke="#FFFFFF" stroke-width="4" stroke-linecap="round"></path>
        <path d="M37.4213076,60.8729215 C37.9577355,71.5831551 38.4941633,82.2933888 39.0305911,93.0036224" id="Path-18-Copy" stroke="#FFFFFF" stroke-width="4" stroke-linecap="round"></path>
        <path d="M138.76,107.68 C139.6,107.68 140.32,107.29 140.92,106.51 C141.52,105.73 141.82,104.83 141.82,103.81 C141.82,103.45 141.67,102.88 141.37,102.1 C141.37,102.04 141.355,101.86 141.325,101.56 C141.295,101.26 141.25,100.84 141.19,100.3 L141.19,100.3 L140.92,97.15 C140.74,95.71 140.65,94.63 140.65,93.91 L140.65,93.91 L140.83,89.14 L140.92,84.37 C140.92,79.93 140.71,73.69 140.29,65.65 C139.93,57.01 139.75,50.53 139.75,46.21 C139.75,45.49 139.405,44.905 138.715,44.455 C138.025,44.005 137.26,43.78 136.42,43.78 C135.52,43.78 134.53,45.04 133.45,47.56 C132.37,49.9 131.26,53.14 130.12,57.28 C128.2,64.06 126.28,71.65 124.36,80.05 L124.36,80.05 L123.82,82.21 C123.52,83.59 123.13,85.09 122.65,86.71 C122.05,83.53 120.7,78.37 118.6,71.23 C116.5,64.09 114.4,57.7 112.3,52.06 C110.2,46.42 108.76,43.6 107.98,43.6 C107.02,43.6 106.195,43.795 105.505,44.185 C104.815,44.575 104.47,45.13 104.47,45.85 C104.47,46.45 104.65,47.02 105.01,47.56 C105.01,53.68 104.56,62.86 103.66,75.1 C102.76,87.34 102.31,96.52 102.31,102.64 C102.31,103.18 102.58,103.675 103.12,104.125 C103.66,104.575 104.23,104.8 104.83,104.8 C105.97,104.8 106.75,104.545 107.17,104.035 C107.59,103.525 107.8,102.76 107.8,101.74 L107.8,101.74 L107.8,100.48 C107.74,100.06 107.71,99.61 107.71,99.13 C107.71,97.09 107.77,93.31 107.89,87.79 C108.07,82.09 108.4,74.95 108.88,66.37 L108.88,66.37 L109.42,56.2 C111.16,61.66 113.095,68.68 115.225,77.26 C117.355,85.84 118.42,91.45 118.42,94.09 C118.42,95.29 118.765,96.235 119.455,96.925 C120.145,97.615 121.06,97.96 122.2,97.96 C123.34,97.96 124.81,94.99 126.61,89.05 C128.47,82.87 130.27,76.15 132.01,68.89 C133.75,61.39 134.74,57.25 134.98,56.47 C134.98,58.51 134.92,60.34 134.8,61.96 L134.8,61.96 L134.62,67.54 C134.62,69.58 134.86,73.33 135.34,78.79 C135.76,83.65 135.97,87.58 135.97,90.58 L135.97,90.58 L135.97,102.1 C135.97,105.82 136.9,107.68 138.76,107.68 Z M170.71,103.81 C171.67,103.45 172.15,102.61 172.15,101.29 L172.15,101.29 L172.15,101.2 C172.15,100.36 171.88,98.5 171.34,95.62 C170.74,92.44 170.44,90.64 170.44,90.22 C170.44,89.8 170.29,88.9 169.99,87.52 C169.69,86.02 169.54,85.09 169.54,84.73 C169.54,81.01 168.94,74.53 167.74,65.29 C166.48,56.29 165.85,49.51 165.85,44.95 C165.85,44.23 165.55,43.675 164.95,43.285 C164.35,42.895 163.63,42.7 162.79,42.7 L162.79,42.7 L159.73,42.7 C159.25,43.36 158.905,44.35 158.695,45.67 C158.485,46.99 158.29,48.76 158.11,50.98 C158.05,52.06 157.99,52.885 157.93,53.455 C157.87,54.025 157.84,54.43 157.84,54.67 C155.8,69.67 152.8,84.88 148.84,100.3 L148.84,100.3 L148.75,100.66 L148.57,101.11 C148.57,101.77 148.87,102.325 149.47,102.775 C150.07,103.225 150.73,103.45 151.45,103.45 C152.23,103.45 152.83,103.18 153.25,102.64 C154.03,101.68 154.6,99.73 154.96,96.79 C155.62,92.59 156.13,89.8 156.49,88.42 L156.49,88.42 L165.4,89.77 L165.76,91.66 C166.36,95.98 166.66,99.04 166.66,100.84 C166.66,101.98 166.99,102.76 167.65,103.18 C168.31,103.6 169.33,103.81 170.71,103.81 Z M164.77,86.53 C160.39,86.17 157.75,85.69 156.85,85.09 C157.81,77.89 159.58,67.24 162.16,53.14 L162.16,53.14 L163.06,62.5 C164.02,70.9 164.5,77.8 164.5,83.2 C164.5,84.52 164.59,85.63 164.77,86.53 Z M195.64,104.53 C196.24,104.53 196.72,104.305 197.08,103.855 C197.44,103.405 197.62,102.88 197.62,102.28 C197.62,101.56 197.32,100.6 196.72,99.4 L196.72,99.4 L196.18,98.32 C195.04,95.98 194.08,93.37 193.3,90.49 C192.52,87.61 191.71,83.86 190.87,79.24 L190.87,79.24 L189.61,72.85 L189.16,70.69 L190.6,67.99 L192.31,64.75 C192.67,64.03 193,63.085 193.3,61.915 C193.6,60.745 193.75,59.71 193.75,58.81 L193.75,58.81 L193.75,52.51 C193.75,49.51 192.715,47.17 190.645,45.49 C188.575,43.81 185.92,42.97 182.68,42.97 C180.7,42.97 179.71,44.41 179.71,47.29 C179.71,51.97 179.95,60.16 180.43,71.86 C180.97,82.84 181.24,91.03 181.24,96.43 L181.24,96.43 L181.15,102.46 L182.32,103.81 L184.84,103.81 L185.83,101.38 C184.69,96.88 184.12,90.61 184.12,82.57 L184.12,82.57 L184.12,77.62 C184.18,76.18 184.21,74.59 184.21,72.85 L184.21,72.85 L185.29,72.85 C185.77,74.05 186.88,78.94 188.62,87.52 L188.62,87.52 L189.25,90.58 C189.85,93.88 190.78,97.09 192.04,100.21 C193.12,103.09 194.32,104.53 195.64,104.53 Z M184.57,68.44 C184.57,64.78 184.51,61.39 184.39,58.27 L184.39,58.27 L184.21,47.65 L184.39,46.84 L184.57,46.39 C185.59,46.39 186.445,46.645 187.135,47.155 C187.825,47.665 188.32,48.4 188.62,49.36 C189.1,51.04 189.34,52.84 189.34,54.76 C189.34,57.28 188.875,60.025 187.945,62.995 C187.015,65.965 185.89,67.78 184.57,68.44 Z M227.68,104.53 C228.34,104.53 228.925,104.305 229.435,103.855 C229.945,103.405 230.2,102.85 230.2,102.19 C230.2,100.99 229.63,99.61 228.49,98.05 L228.49,98.05 L227.32,96.43 C225.94,94.15 224.215,89.485 222.145,82.435 C220.075,75.385 219.04,70.57 219.04,67.99 L219.04,67.99 L219.13,65.29 C219.19,64.51 219.22,63.61 219.22,62.59 C219.76,61.45 222.28,57.25 226.78,49.99 L226.78,49.99 L228.94,46.39 C228.94,45.61 228.595,45.01 227.905,44.59 C227.215,44.17 226.39,43.96 225.43,43.96 C224.65,43.96 223.42,45.46 221.74,48.46 C219.94,51.52 218.02,55.18 215.98,59.44 L215.98,59.44 L212.65,66.01 L212.65,62.77 C212.65,53.17 213.04,47.71 213.82,46.39 L213.82,46.39 L213.82,46.12 C213.82,45.34 213.55,44.68 213.01,44.14 C212.47,43.6 211.81,43.33 211.03,43.33 C209.77,43.33 208.9,43.9 208.42,45.04 C208.42,48.58 208.12,53.44 207.52,59.62 C206.92,66.7 206.62,71.56 206.62,74.2 L206.62,74.2 L206.62,101.47 C206.62,102.37 206.905,103.075 207.475,103.585 C208.045,104.095 208.78,104.35 209.68,104.35 C210.88,104.35 211.48,103.66 211.48,102.28 L211.48,102.28 L211.48,85.63 C211.48,79.51 212.56,74.29 214.72,69.97 C215.14,72.37 215.68,74.98 216.34,77.8 C218.62,88.12 220.93,95.53 223.27,100.03 C224.83,103.03 226.3,104.53 227.68,104.53 Z M249.73,104.17 C250.81,104.17 251.725,103.945 252.475,103.495 C253.225,103.045 253.6,102.4 253.6,101.56 C253.6,100.12 252.46,99.4 250.18,99.4 C248.74,99.4 247.51,99.43 246.49,99.49 L246.49,99.49 L243.52,99.58 C243.4,99.58 243.34,97.9 243.34,94.54 C243.34,92.74 243.43,90.01 243.61,86.35 C243.67,83.95 243.7,81.25 243.7,78.25 C243.7,75.25 243.64,72.97 243.52,71.41 L243.52,71.41 L245.77,71.41 C246.37,71.53 247.21,71.59 248.29,71.59 C249.13,71.59 249.82,71.365 250.36,70.915 C250.9,70.465 251.17,69.91 251.17,69.25 C251.17,67.57 249.73,66.73 246.85,66.73 C246.13,66.73 245.53,66.76 245.05,66.82 L245.05,66.82 L243.61,66.91 L243.34,65.47 C243.34,64.03 243.43,61.87 243.61,58.99 C243.67,57.07 243.7,54.91 243.7,52.51 C243.7,50.83 243.67,49.54 243.61,48.64 C245.65,48.94 247.93,49.54 250.45,50.44 C251.17,50.14 251.785,49.735 252.295,49.225 C252.805,48.715 253.06,48.16 253.06,47.56 C253.06,46.48 251.755,45.55 249.145,44.77 C246.535,43.99 244.24,43.6 242.26,43.6 C239.74,43.6 238.48,45.73 238.48,49.99 C238.48,50.77 238.57,52.03 238.75,53.77 C238.93,55.45 239.02,56.71 239.02,57.55 C239.02,61.09 238.9,65.47 238.66,70.69 C238.48,76.51 238.39,80.89 238.39,83.83 L238.39,83.83 L238.57,89.59 C238.75,92.17 238.84,94.09 238.84,95.35 C238.84,96.07 238.87,96.7 238.93,97.24 L238.93,97.24 L238.93,101.38 C238.99,102.16 239.335,102.82 239.965,103.36 C240.595,103.9 241.3,104.17 242.08,104.17 L242.08,104.17 L249.73,104.17 Z M270.16,102.73 C270.94,102.73 271.645,102.46 272.275,101.92 C272.905,101.38 273.22,100.75 273.22,100.03 C273.22,93.97 272.74,85.45 271.78,74.47 C270.76,62.77 270.25,54.25 270.25,48.91 L270.25,48.91 L270.34,48.46 L270.43,48.01 L272.23,48.37 C273.25,48.55 274.03,48.64 274.57,48.64 C275.35,48.64 276.04,48.415 276.64,47.965 C277.24,47.515 277.54,46.93 277.54,46.21 C277.54,44.77 276.61,44.05 274.75,44.05 L274.75,44.05 L273.31,44.05 C271.51,44.05 269.47,43.9 267.19,43.6 C264.79,43.36 262.75,43.24 261.07,43.24 C260.41,43.24 259.765,43.435 259.135,43.825 C258.505,44.215 258.19,44.65 258.19,45.13 C258.19,45.73 258.52,46.27 259.18,46.75 C260.14,47.35 262.36,47.71 265.84,47.83 C265.96,51.37 266.38,59.38 267.1,71.86 C267.82,84.34 268.27,90.91 268.45,91.57 L268.45,91.57 L268.36,94.63 C268.36,95.89 268.39,97.03 268.45,98.05 L268.45,98.05 L268.54,101.56 L270.16,102.73 Z" id="market" stroke="#3B515B" stroke-width="2" fill="#3B515B" fill-rule="nonzero"></path>
    </g>
</svg>