<?xml version="1.0" encoding="UTF-8"?>
<svg width="689px" height="149px" viewBox="0 0 689 149" version="1.1" xmlns="http://www.w3.org/2000/svg" xmlns:xlink="http://www.w3.org/1999/xlink">
    <title>Markt-blau</title>
    <g id="Markt-blau" stroke="none" stroke-width="1" fill="none" fill-rule="evenodd">
        <path d="M7.56383635,75.2097342 C7.70944739,84.8575629 9.18816861,92.0122531 12,96.673805 C16.2177471,103.666133 18.1635961,106.48871 24.579904,106.48871 C30.996212,106.48871 36.2589161,109.889112 43.3985454,106.48871 C50.5381746,103.088308 56.7493494,104.699724 58.8746747,93.2129019 C61,81.7260796 61,78.7509946 61,69.6387071 C61,60.5264195 49.7970907,47.5759323 43.3985454,47.5759323 C37,47.5759323 29.1341164,44.0300846 24.579904,47.5759323 C20.0256917,51.12178 12.2600743,58.2468496 10.6823107,61.0305882 C9.63046828,62.886414 8.59097683,67.612796 7.56383635,75.2097342 Z" id="Path-4-Copy-6" fill="#0271BB"></path>
        <path d="M138.084368,105.65 C138.885845,105.65 139.572826,105.277886 140.14531,104.533657 C140.717793,103.789428 141.004035,102.930702 141.004035,101.957479 C141.004035,101.613989 140.860914,101.070129 140.574672,100.3259 C140.574672,100.268652 140.56036,100.096907 140.531736,99.8106648 C140.503112,99.5244229 140.460176,99.1236842 140.402927,98.6084488 L140.402927,98.6084488 L140.14531,95.6029086 C139.973564,94.2289474 139.887692,93.1984765 139.887692,92.5114958 L139.887692,92.5114958 L140.059437,87.9602493 L140.14531,83.4090028 C140.14531,79.1726223 139.94494,73.2187904 139.544202,65.5475069 C139.200711,57.3037396 139.028966,51.1209141 139.028966,46.9990305 C139.028966,46.3120499 138.699788,45.7538781 138.041431,45.3245152 C137.383075,44.8951524 136.653158,44.6804709 135.851681,44.6804709 C134.992955,44.6804709 134.048357,45.882687 133.017886,48.2871191 C131.987415,50.5198061 130.92832,53.6112188 129.8406,57.5613573 C128.008652,64.0304247 126.176704,71.2723453 124.344756,79.2871191 L124.344756,79.2871191 L123.82952,81.3480609 C123.543278,82.6647738 123.171164,84.0959834 122.713177,85.6416898 C122.140693,82.6075254 120.852604,77.6841644 118.848911,70.8716066 C116.845217,64.0590489 114.841524,57.962096 112.83783,52.5807479 C110.834137,47.1993998 109.460176,44.5087258 108.715947,44.5087258 C107.799973,44.5087258 107.012807,44.694783 106.354451,45.0668975 C105.696094,45.439012 105.366916,45.9685596 105.366916,46.6555402 C105.366916,47.228024 105.538661,47.7718837 105.882152,48.2871191 C105.882152,54.1264543 105.452789,62.8854571 104.594063,74.5641274 C103.735337,86.2427978 103.305974,95.0018006 103.305974,100.841136 C103.305974,101.356371 103.563592,101.82867 104.078828,102.258033 C104.594063,102.687396 105.137923,102.902078 105.710407,102.902078 C106.798126,102.902078 107.542355,102.658772 107.943094,102.172161 C108.343832,101.685549 108.544202,100.955633 108.544202,99.98241 L108.544202,99.98241 L108.544202,98.7801939 C108.486953,98.3794552 108.458329,97.9500923 108.458329,97.4921053 L108.458329,97.4921053 L108.458923,97.131381 C108.465262,95.115604 108.522312,91.6291972 108.630074,86.6721607 C108.801819,81.2335642 109.116685,74.4210065 109.574672,66.2344875 L109.574672,66.2344875 L110.089908,56.5308864 C111.750111,61.7404894 113.596371,68.4385503 115.628689,76.6250693 C117.661007,84.8115882 118.677166,90.1643121 118.677166,92.683241 C118.677166,93.8282087 119.006344,94.7298707 119.6647,95.3882271 C120.323057,96.0465836 121.196094,96.3757618 122.283814,96.3757618 C123.371533,96.3757618 124.774118,93.5419668 126.49157,87.8743767 C128.26627,81.9777932 129.983721,75.5659741 131.643925,68.6389197 C133.304128,61.4828717 134.248726,57.5327331 134.47772,56.7885042 C134.47772,58.7349492 134.420471,60.4810249 134.305974,62.0267313 L134.305974,62.0267313 L134.134229,67.350831 C134.134229,69.2972761 134.363223,72.8753001 134.82121,78.084903 C135.221949,82.7220222 135.422318,86.4717913 135.422318,89.3342105 L135.422318,89.3342105 L135.422318,100.3259 C135.422318,103.8753 136.309668,105.65 138.084368,105.65 Z M168.569132,101.957479 C169.485106,101.613989 169.943094,100.812512 169.943094,99.5530471 L169.943094,99.5530471 L169.943094,99.4671745 C169.943094,98.6656971 169.685476,96.8909972 169.17024,94.1430748 C168.597756,91.1089104 168.311515,89.3914589 168.311515,88.9907202 C168.311515,88.5899815 168.168394,87.7312558 167.882152,86.4145429 C167.59591,84.9833333 167.452789,84.0959834 167.452789,83.7524931 C167.452789,80.2030933 166.880305,74.0202678 165.735337,65.2040166 C164.533121,56.616759 163.932013,50.1476916 163.932013,45.7968144 C163.932013,45.1098338 163.645771,44.5802862 163.073287,44.2081717 C162.500804,43.8360572 161.813823,43.65 161.012346,43.65 L161.012346,43.65 L158.092678,43.65 C157.634691,44.2797322 157.305513,45.2243306 157.105143,46.483795 C156.904774,47.7432595 156.718717,49.4320868 156.546972,51.550277 C156.489723,52.5807479 156.432475,53.3679132 156.375226,53.9117729 C156.317978,54.4556325 156.289354,54.8420591 156.289354,55.0710526 C154.342909,69.3831487 151.48049,83.895614 147.702096,98.6084488 L147.702096,98.6084488 L147.616224,98.9519391 L147.444479,99.3813019 C147.444479,100.011034 147.73072,100.540582 148.303204,100.969945 C148.875688,101.399307 149.50542,101.613989 150.192401,101.613989 C150.93663,101.613989 151.509114,101.356371 151.909853,100.841136 C152.654081,99.9251616 153.197941,98.0645891 153.541431,95.2594183 C154.171164,91.2520314 154.657775,88.5899815 155.001265,87.2732687 L155.001265,87.2732687 L163.50265,88.5613573 L163.846141,90.3646814 C164.418624,94.4865651 164.704866,97.4062327 164.704866,99.1236842 C164.704866,100.211404 165.019732,100.955633 165.649465,101.356371 C166.279197,101.75711 167.252419,101.957479 168.569132,101.957479 Z M162.901542,85.4699446 C158.72241,85.1264543 156.203481,84.6684672 155.344756,84.0959834 C156.26073,77.2261773 157.949557,67.0645891 160.411238,53.6112188 L160.411238,53.6112188 L161.269963,62.5419668 C162.185937,70.5567405 162.643925,77.1403047 162.643925,82.2926593 C162.643925,83.5521237 162.729797,84.6112188 162.901542,85.4699446 Z M192.355836,102.64446 C192.92832,102.64446 193.386307,102.429778 193.729797,102.000416 C194.073287,101.571053 194.245033,101.070129 194.245033,100.497645 C194.245033,99.8106648 193.958791,98.8946907 193.386307,97.749723 L193.386307,97.749723 L192.871071,96.7192521 C191.783352,94.4865651 190.867378,91.9962604 190.123149,89.248338 C189.37892,86.5004155 188.606067,82.9223915 187.804589,78.5142659 L187.804589,78.5142659 L186.602373,72.417313 L186.17301,70.3563712 L187.546972,67.7801939 L189.178551,64.6887812 C189.522041,64.0018006 189.836907,63.1001385 190.123149,61.983795 C190.409391,60.8674515 190.552512,59.8799169 190.552512,59.0211911 L190.552512,59.0211911 L190.552512,53.0101108 C190.552512,50.1476916 189.564977,47.9150046 187.589908,46.3120499 C185.614839,44.7090951 183.081598,43.9076177 179.990185,43.9076177 C178.100988,43.9076177 177.15639,45.2815789 177.15639,48.0295014 C177.15639,52.4948753 177.385383,60.3092798 177.843371,71.4727147 C178.358606,81.949169 178.616224,89.7635734 178.616224,94.915928 L178.616224,94.915928 L178.530351,100.669391 L179.646695,101.957479 L182.051127,101.957479 L182.995725,99.6389197 C181.908006,95.3452909 181.364146,89.3628347 181.364146,81.6915512 L181.364146,81.6915512 L181.364146,76.9685596 C181.421395,75.5945983 181.450019,74.0775162 181.450019,72.417313 L181.450019,72.417313 L182.48049,72.417313 C182.938477,73.5622807 183.997572,78.228024 185.657775,86.4145429 L185.657775,86.4145429 L186.258883,89.3342105 C186.831367,92.4828717 187.718717,95.5456602 188.920933,98.5225762 C189.951404,101.270499 191.096371,102.64446 192.355836,102.64446 Z M181.793509,68.2095568 C181.793509,64.7174054 181.736261,61.4828717 181.621764,58.5059557 L181.621764,58.5059557 L181.450019,48.3729917 L181.621764,47.6001385 L181.793509,47.1707756 C182.766732,47.1707756 183.582521,47.4140813 184.240877,47.9006925 C184.899234,48.3873038 185.371533,49.0885965 185.657775,50.0045706 C186.115762,51.6075254 186.344756,53.3249769 186.344756,55.1569252 C186.344756,57.5613573 185.901081,60.1804709 185.013731,63.0142659 C184.126381,65.8480609 183.052973,67.5798246 181.793509,68.2095568 Z M222.926473,102.64446 C223.556205,102.64446 224.114377,102.429778 224.600988,102.000416 C225.0876,101.571053 225.330905,101.041505 225.330905,100.411773 C225.330905,99.2668052 224.787045,97.9500923 223.699326,96.4616343 L223.699326,96.4616343 L222.582983,94.915928 C221.26627,92.7404894 219.620379,88.2894275 217.64531,81.5627424 C215.67024,74.8360572 214.682706,70.2418744 214.682706,67.7801939 L214.682706,67.7801939 L214.768578,65.2040166 C214.825827,64.4597876 214.854451,63.6010619 214.854451,62.6278393 C215.369686,61.54012 217.774118,57.5327331 222.067747,50.6056787 L222.067747,50.6056787 L224.128689,47.1707756 C224.128689,46.4265466 223.799511,45.8540628 223.141154,45.4533241 C222.482798,45.0525854 221.695633,44.8522161 220.779659,44.8522161 C220.03543,44.8522161 218.861838,46.2834257 217.258883,49.1458449 C215.541431,52.0655125 213.709483,55.5576639 211.763038,59.6222992 L211.763038,59.6222992 L208.585753,65.8909972 L208.585753,62.7995845 C208.585753,53.639843 208.957867,48.4302401 209.702096,47.1707756 L209.702096,47.1707756 L209.702096,46.9131579 C209.702096,46.1689289 209.444479,45.5391967 208.929243,45.0239612 C208.414008,44.5087258 207.784275,44.251108 207.040046,44.251108 C205.83783,44.251108 205.007729,44.7949677 204.549742,45.882687 C204.549742,49.2603416 204.2635,53.8974608 203.691016,59.7940443 C203.118532,66.5493536 202.83229,71.1864728 202.83229,73.7054017 L202.83229,73.7054017 L202.83229,99.7247922 C202.83229,100.583518 203.10422,101.256187 203.64808,101.742798 C204.191939,102.229409 204.893232,102.472715 205.751958,102.472715 C206.896925,102.472715 207.469409,101.814358 207.469409,100.497645 L207.469409,100.497645 L207.469409,84.6112188 C207.469409,78.7718837 208.49988,73.7912742 210.560822,69.6693906 C210.961561,71.9593259 211.476796,74.4496307 212.106528,77.1403047 C214.281967,86.9870268 216.48603,94.0572022 218.718717,98.350831 C220.207175,101.21325 221.60976,102.64446 222.926473,102.64446 Z M239.070517,100.927008 C239.814746,100.927008 240.487415,100.669391 241.088523,100.154155 C241.689631,99.6389197 241.990185,99.0378116 241.990185,98.350831 C241.990185,92.5687442 241.532198,84.4394737 240.616224,73.9630194 C239.643001,62.7995845 239.15639,54.6703139 239.15639,49.5752078 L239.15639,49.5752078 L239.242262,49.1458449 L239.328135,48.716482 L241.045587,49.0599723 C242.018809,49.2317175 242.763038,49.31759 243.278274,49.31759 C244.022503,49.31759 244.680859,49.1029086 245.253343,48.6735457 C245.825827,48.2441828 246.112069,47.6860111 246.112069,46.9990305 C246.112069,45.6250693 245.224719,44.9380886 243.450019,44.9380886 L243.450019,44.9380886 L242.076057,44.9380886 C240.358606,44.9380886 238.412161,44.7949677 236.236722,44.5087258 C233.946787,44.2797322 232.000342,44.1652355 230.397387,44.1652355 C229.767655,44.1652355 229.152235,44.3512927 228.551127,44.7234072 C227.950019,45.0955217 227.649465,45.5105725 227.649465,45.9685596 C227.649465,46.5410434 227.964331,47.0562789 228.594063,47.5142659 C229.510037,48.0867498 231.628227,48.4302401 234.948634,48.5447368 C235.06313,51.9223915 235.463869,59.5650508 236.15085,71.4727147 C236.83783,83.3803786 237.267193,89.6490766 237.438938,90.2788089 L237.438938,90.2788089 L237.353066,93.1984765 C237.353066,94.4006925 237.38169,95.4884118 237.438938,96.4616343 L237.438938,96.4616343 L237.524811,99.8106648 L239.070517,100.927008 Z" id="markt" stroke="#0271BB" stroke-width="2" fill="#0271BB" fill-rule="nonzero"></path>
        <path d="M289.933688,118.672029 C283.14496,130.858398 296.916925,139.080499 305.070911,130.802964 C314.688768,121.039378 299.282997,108.023629 289.413415,119.875028" id="Path-38" stroke="#0271BB" stroke-width="11" fill="#FFFFFF"></path>
        <path d="M407.046958,91.394303 C398.81282,83.0964419 391.749408,78.2015287 387.411041,66.5423186 C384.996151,60.0523848 383.101082,53.2027438 382.34865,46.2180994 C377.898668,4.91003308 437.366419,-16.009377 440.956345,35.9030155 C441.756143,47.4685505 439.431533,54.0935851 434.488391,64.3146341 C429.494658,74.6402932 421.429723,90.9690072 409.796084,93.1505796 L407.046958,91.394303 Z" id="Path-44" fill="#0271BB"></path>
        <path d="M399.624848,24.8026007 C382.194032,40.1331711 410.544682,65.3494523 423.129538,48.6479795 C440.510447,25.5816204 416.352816,8.36231446 397.288142,27.1564124" id="Path-48" stroke="#FFFFFF" fill="#FFFFFF"></path>
        <path d="M413.329848,91.1107166 C390.391896,91.7708261 367.408137,91.8320694 344.515993,93.0910449 C332.836878,93.7333491 338.606154,102.383177 346.158956,103.684662 C399.58273,112.89055 370.822838,106.711793 424.642062,113.335431 C432.442694,114.29547 428.286935,120.833623 423.00444,121.799142 C413.230545,123.585586 403.402684,125.790156 393.338842,125.996356 C364.855234,126.579964 336.37387,124.770601 307.891384,124.157723" id="Path-49" stroke="#0271BB" stroke-width="2"></path>
        <path d="M30.969266,58 C27.1300903,84.199591 20.7365791,79.9699953 42.1358767,78.2677162" id="Path-17-Copy" stroke="#FFFFFF" stroke-width="4" stroke-linecap="round"></path>
        <path d="M37.4213076,60.8729215 C37.9577355,71.5831551 38.4941633,82.2933888 39.0305911,93.0036224" id="Path-18-Copy" stroke="#FFFFFF" stroke-width="4" stroke-linecap="round"></path>
    </g>
</svg>