<?xml version="1.0" encoding="UTF-8"?>
<svg width="689px" height="149px" viewBox="0 0 689 149" version="1.1" xmlns="http://www.w3.org/2000/svg" xmlns:xlink="http://www.w3.org/1999/xlink">
    <title>Protection-blau</title>
    <defs>
        <path d="M33.82,90.0971963 C34.996,90.0971963 35.836,89.7011963 36.34,88.9091963 C36.868,88.1651963 37.216,87.2891963 37.384,86.2811963 C37.504,85.3451963 37.564,84.3851963 37.564,83.4011963 C37.564,81.8171963 37.372,80.0171963 36.988,78.0011963 C36.772,76.9211963 36.448,75.9731963 36.016,75.1571963 C35.584,74.3411963 35.092,73.7651963 34.54,73.4291963 L34.54,73.4291963 L35.08,72.6371963 C35.344,72.3251963 35.536,72.0371963 35.656,71.7731963 C35.776,71.5811963 35.89,71.3171963 35.998,70.9811963 C36.106,70.6451963 36.16,70.3091963 36.16,69.9731963 C36.16,69.1091963 36.136,68.4491963 36.088,67.9931963 C36.04,67.3451963 35.932,66.6551963 35.764,65.9231963 C35.596,65.1911963 35.392,64.5491963 35.152,63.9971963 C34.888,63.4211963 34.528,62.9591963 34.072,62.6111963 C33.616,62.2631963 33.112,62.0891963 32.56,62.0891963 C31.768,62.0891963 31.066,62.3411963 30.454,62.8451963 C29.842,63.3491963 29.368,64.0211963 29.032,64.8611963 C29.08,65.1491963 29.206,65.3831963 29.41,65.5631963 C29.614,65.7431963 29.848,65.8331963 30.112,65.8331963 C30.424,65.8331963 30.688,65.7311963 30.904,65.5271963 C31.12,65.3231963 31.264,65.0771963 31.336,64.7891963 C31.432,64.5011963 31.582,64.2611963 31.786,64.0691963 C31.99,63.8771963 32.224,63.7811963 32.488,63.7811963 C32.848,63.7811963 33.166,64.0091963 33.442,64.4651963 C33.718,64.9211963 33.916,65.5091963 34.036,66.2291963 C34.252,67.4291963 34.36,68.5211963 34.36,69.5051963 C34.36,70.0091963 34.252,70.5191963 34.036,71.0351963 C33.82,71.5511963 33.556,71.9771963 33.244,72.3131963 C32.452,73.1051963 32.056,73.7051963 32.056,74.1131963 C32.056,74.3531963 32.164,74.5331963 32.38,74.6531963 C32.596,74.7731963 32.86,74.8331963 33.172,74.8331963 C33.364,74.8331963 33.484,74.8211963 33.532,74.7971963 C34.54,76.0451963 35.188,77.6291963 35.476,79.5491963 C35.596,80.4371963 35.668,81.1811963 35.692,81.7811963 C35.716,82.3811963 35.728,83.3051963 35.728,84.5531963 C35.728,87.2651963 34.996,88.6211963 33.532,88.6211963 C33.244,88.6211963 33.01,88.5671963 32.83,88.4591963 C32.65,88.3511963 32.464,88.2011963 32.272,88.0091963 C32.128,87.8651963 31.96,87.7931963 31.768,87.7931963 C31.504,87.7931963 31.336,87.8351963 31.264,87.9191963 C31.192,88.0031963 31.156,88.1651963 31.156,88.4051963 C31.156,88.7891963 31.324,89.1131963 31.66,89.3771963 C32.212,89.8571963 32.932,90.0971963 33.82,90.0971963 Z" id="path-1"></path>
    </defs>
    <g id="Protection-blau" stroke="none" stroke-width="1" fill="none" fill-rule="evenodd">
        <path d="M7.56383635,75.2097342 C7.70944739,84.8575629 9.18816861,92.0122531 12,96.673805 C16.2177471,103.666133 18.1635961,106.48871 24.579904,106.48871 C30.996212,106.48871 36.2589161,109.889112 43.3985454,106.48871 C50.5381746,103.088308 56.7493494,104.699724 58.8746747,93.2129019 C61,81.7260796 61,78.7509946 61,69.6387071 C61,60.5264195 49.7970907,47.5759323 43.3985454,47.5759323 C37,47.5759323 29.1341164,44.0300846 24.579904,47.5759323 C20.0256917,51.12178 12.2600743,58.2468496 10.6823107,61.0305882 C9.63046828,62.886414 8.59097683,67.612796 7.56383635,75.2097342 Z" id="Path-4-Copy-6" fill="#0271BB"></path>
        <g id="3" fill-rule="nonzero" fill="#FFFFFF">
            <use xlink:href="#path-1"></use>
            <use stroke="#FFFFFF" stroke-width="3" xlink:href="#path-1"></use>
        </g>
        <path d="M112.36,107.71 C113.14,107.71 113.83,107.455 114.43,106.945 C115.03,106.435 115.33,105.82 115.33,105.1 C115.33,102.76 115.21,99.91 114.97,96.55 L114.97,96.55 L114.79,93.76 L114.61,88 L114.61,78.37 C115.87,78.01 116.89,77.62 117.67,77.2 C119.59,76.3 120.97,75.34 121.81,74.32 C122.41,73.6 122.875,72.985 123.205,72.475 C123.535,71.965 123.79,71.32 123.97,70.54 C124.45,69.1 124.75,67.51 124.87,65.77 C124.93,64.39 124.96,62.5 124.96,60.1 C124.96,56.74 124.36,53.83 123.16,51.37 C122.5,49.99 121.54,48.925 120.28,48.175 C119.02,47.425 117.55,47.05 115.87,47.05 L115.87,47.05 L111.91,47.05 C111.31,47.05 110.8,47.365 110.38,47.995 C109.96,48.625 109.66,49.36 109.48,50.2 C109.96,52.24 110.2,55.03 110.2,58.57 C110.2,60.19 110.17,61.66 110.11,62.98 L110.11,62.98 L110.02,67.12 C110.02,71.14 109.72,73.72 109.12,74.86 L109.12,74.86 L109.12,75.13 C109.12,75.79 109.3,76.54 109.66,77.38 C109.66,80.32 109.6,82.99 109.48,85.39 L109.48,85.39 L109.3,93.4 C109.3,99.04 109.69,103.45 110.47,106.63 L110.47,106.63 L112.36,107.71 Z M114.7,74.68 L114.7,72.61 C114.645,71.73 114.615208,69.9425 114.610625,67.2475 L114.61,66.49 C114.55,63.73 114.52,60.58 114.52,57.04 L114.52,51.91 C115.18,51.91 115.51,51.94 115.51,52 C116.29,52 117.01,52.18 117.67,52.54 C118.27,52.84 118.72,53.215 119.02,53.665 C119.32,54.115 119.56,54.7 119.74,55.42 C119.92,56.38 120.01,57.73 120.01,59.47 C120.01,69.07 118.24,74.14 114.7,74.68 L114.7,74.68 Z M149.53,107.53 C150.13,107.53 150.61,107.305 150.97,106.855 C151.33,106.405 151.51,105.88 151.51,105.28 C151.51,104.56 151.21,103.6 150.61,102.4 L150.61,102.4 L150.07,101.32 C148.93,98.98 147.97,96.37 147.19,93.49 C146.41,90.61 145.6,86.86 144.76,82.24 L144.76,82.24 L143.5,75.85 L143.05,73.69 L144.49,70.99 L146.2,67.75 C146.56,67.03 146.89,66.085 147.19,64.915 C147.49,63.745 147.64,62.71 147.64,61.81 L147.64,61.81 L147.64,55.51 C147.64,52.51 146.605,50.17 144.535,48.49 C142.465,46.81 139.81,45.97 136.57,45.97 C134.59,45.97 133.6,47.41 133.6,50.29 C133.6,54.97 133.84,63.16 134.32,74.86 C134.86,85.84 135.13,94.03 135.13,99.43 L135.13,99.43 L135.04,105.46 L136.21,106.81 L138.73,106.81 L139.72,104.38 C138.58,99.88 138.01,93.61 138.01,85.57 L138.01,85.57 L138.01,80.62 C138.07,79.18 138.1,77.59 138.1,75.85 L138.1,75.85 L139.18,75.85 L139.18,75.85 L139.237031,76.0016127 C139.744671,77.4243111 140.83566,82.2637736 142.51,90.52 L142.51,90.52 L143.14,93.58 C143.74,96.88 144.67,100.09 145.93,103.21 C147.01,106.09 148.21,107.53 149.53,107.53 Z M138.46,71.44 C138.46,67.78 138.4,64.39 138.28,61.27 L138.28,61.27 L138.1,50.65 L138.28,49.84 L138.46,49.39 C139.48,49.39 140.335,49.645 141.025,50.155 C141.715,50.665 142.21,51.4 142.51,52.36 C142.99,54.04 143.23,55.84 143.23,57.76 C143.23,60.28 142.765,63.025 141.835,65.995 C140.905,68.965 139.78,70.78 138.46,71.44 Z M170.86,107.71 C178.9,107.71 182.92,99.07 182.92,81.79 L182.92,81.79 L182.83,76.66 C182.77,75.16 182.74,73.48 182.74,71.62 L182.74,71.62 L182.74,70.9 C182.74,68.08 182.56,65.41 182.2,62.89 C181.84,60.43 181.24,58.105 180.4,55.915 C179.56,53.725 178.54,51.88 177.34,50.38 C176.02,48.82 174.4,47.605 172.48,46.735 C170.56,45.865 168.4,45.43 166,45.43 C165.16,45.43 164.41,45.745 163.75,46.375 C163.09,47.005 162.55,47.92 162.13,49.12 C161.05,51.82 160.36,54.61 160.06,57.49 C159.64,61.69 159.4,64.75 159.34,66.67 L159.34,66.67 L159.25,72.97 L159.25,74.59 C159.31,74.59 159.34,74.74 159.34,75.04 L159.34,75.04 L159.34,76.66 C159.28,77.14 159.25,77.74 159.25,78.46 C159.25,82.24 159.52,86.17 160.06,90.25 C160.48,94.57 161.56,98.56 163.3,102.22 C164.14,103.9 165.22,105.235 166.54,106.225 C167.86,107.215 169.3,107.71 170.86,107.71 Z M170.5,103.93 C168.64,103.93 167.23,101.71 166.27,97.27 C165.31,93.01 164.71,88.63 164.47,84.13 C164.29,80.95 164.2,77.74 164.2,74.5 C164.2,73 164.26,71.62 164.38,70.36 L164.38,70.36 L164.56,66.22 L164.56,63.79 C164.5,63.01 164.47,62.05 164.47,60.91 C164.47,57.97 164.77,55.57 165.37,53.71 C166.03,51.37 167.38,50.2 169.42,50.2 C171.46,50.2 173.185,51.04 174.595,52.72 C176.005,54.4 176.77,56.38 176.89,58.66 L176.89,58.66 L176.890864,60.559216 C176.904688,62.837872 177.0844,66.1948 177.43,70.63 C177.85,75.01 178.06,78.55 178.06,81.25 C178.06,83.47 177.91,86.11 177.61,89.17 C177.37,92.71 176.68,96.01 175.54,99.07 C175.06,100.57 174.37,101.755 173.47,102.625 C172.57,103.495 171.58,103.93 170.5,103.93 Z M199.39,105.73 C200.17,105.73 200.875,105.46 201.505,104.92 C202.135,104.38 202.45,103.75 202.45,103.03 C202.45,96.97 201.97,88.45 201.01,77.47 C199.99,65.77 199.48,57.25 199.48,51.91 L199.48,51.91 L199.66,51.01 L201.46,51.37 C202.48,51.55 203.26,51.64 203.8,51.64 C204.58,51.64 205.27,51.415 205.87,50.965 C206.47,50.515 206.77,49.93 206.77,49.21 C206.77,47.77 205.84,47.05 203.98,47.05 L203.98,47.05 L202.54,47.05 C200.74,47.05 198.7,46.9 196.42,46.6 C194.02,46.36 191.98,46.24 190.3,46.24 C189.64,46.24 188.995,46.435 188.365,46.825 C187.735,47.215 187.42,47.65 187.42,48.13 C187.42,48.73 187.75,49.27 188.41,49.75 C189.37,50.35 191.59,50.71 195.07,50.83 C195.19,54.37 195.61,62.38 196.33,74.86 C197.05,87.34 197.5,93.91 197.68,94.57 L197.68,94.57 L197.59,97.63 C197.59,98.89 197.62,100.03 197.68,101.05 L197.68,101.05 L197.77,104.56 L199.39,105.73 Z M227.56,107.17 C228.64,107.17 229.555,106.945 230.305,106.495 C231.055,106.045 231.43,105.4 231.43,104.56 C231.43,103.12 230.29,102.4 228.01,102.4 C226.57,102.4 225.34,102.43 224.32,102.49 L224.32,102.49 L221.35,102.58 C221.237742,102.58 221.177992,101.109781 221.170749,98.1693444 L221.170558,97.288781 C221.178368,95.4898967 221.268182,92.8436364 221.44,89.35 C221.5,86.95 221.53,84.25 221.53,81.25 C221.53,78.25 221.47,75.97 221.35,74.41 L221.35,74.41 L223.6,74.41 C224.2,74.53 225.04,74.59 226.12,74.59 C226.96,74.59 227.65,74.365 228.19,73.915 C228.73,73.465 229,72.91 229,72.25 C229,70.57 227.56,69.73 224.68,69.73 C223.96,69.73 223.36,69.76 222.88,69.82 L222.88,69.82 L221.44,69.91 L221.17,68.47 C221.17,67.03 221.26,64.87 221.44,61.99 C221.5,60.07 221.53,57.91 221.53,55.51 C221.53,53.83 221.5,52.54 221.44,51.64 C223.48,51.94 225.76,52.54 228.28,53.44 C229,53.14 229.615,52.735 230.125,52.225 C230.635,51.715 230.89,51.16 230.89,50.56 C230.89,49.48 229.585,48.55 226.975,47.77 C224.365,46.99 222.07,46.6 220.09,46.6 C217.57,46.6 216.31,48.73 216.31,52.99 C216.31,53.77 216.4,55.03 216.58,56.77 C216.76,58.45 216.85,59.71 216.85,60.55 C216.85,64.09 216.73,68.47 216.49,73.69 C216.31,79.51 216.22,83.89 216.22,86.83 L216.22,86.83 L216.4,92.59 C216.58,95.17 216.67,97.09 216.67,98.35 C216.67,99.07 216.7,99.7 216.76,100.24 L216.76,100.24 L216.76,104.38 C216.82,105.16 217.165,105.82 217.795,106.36 C218.425,106.9 219.13,107.17 219.91,107.17 L219.91,107.17 L227.56,107.17 Z M253.39,107.26 C256.69,107.26 258.34,106.09 258.34,103.75 C258.34,103.09 258.085,102.595 257.575,102.265 C257.065,101.935 256.42,101.77 255.64,101.77 C254.98,102.25 254.32,102.49 253.66,102.49 C252.58,102.49 251.59,102.31 250.69,101.95 C248.95,101.23 247.72,100.06 247,98.44 C246.28,97 245.77,95.2 245.47,93.04 C245.29,91.6 245.2,89.74 245.2,87.46 C245.2,84.22 245.26,81.31 245.38,78.73 L245.38,78.73 L245.56,70.09 L245.56,69.64 C245.56,66.88 245.95,63.28 246.73,58.84 C247.09,56.44 247.72,54.49 248.62,52.99 C249.52,51.49 250.57,50.74 251.77,50.74 L251.77,50.74 L256,50.74 C256.54,50.68 257.005,50.41 257.395,49.93 C257.785,49.45 257.98,48.91 257.98,48.31 C257.98,47.65 257.74,47.11 257.26,46.69 C256.78,46.27 256.09,46.06 255.19,46.06 C252.97,46.06 251.11,46.39 249.61,47.05 C247.93,47.71 246.565,48.52 245.515,49.48 C244.465,50.44 243.58,51.79 242.86,53.53 C242.02,55.39 241.42,57.055 241.06,58.525 C240.7,59.995 240.43,61.9 240.25,64.24 C240.07,66.46 239.95,68.515 239.89,70.405 C239.83,72.295 239.8,74.44 239.8,76.84 L239.8,84.22 C239.8,95.74 241.81,102.79 245.83,105.37 C246.61,105.85 247.735,106.285 249.205,106.675 C250.675,107.065 252.07,107.26 253.39,107.26 Z M273.1,105.73 C273.88,105.73 274.585,105.46 275.215,104.92 C275.845,104.38 276.16,103.75 276.16,103.03 C276.16,96.97 275.68,88.45 274.72,77.47 C273.7,65.77 273.19,57.25 273.19,51.91 L273.19,51.91 L273.28,51.46 L273.37,51.01 L275.17,51.37 C276.19,51.55 276.97,51.64 277.51,51.64 C278.29,51.64 278.98,51.415 279.58,50.965 C280.18,50.515 280.48,49.93 280.48,49.21 C280.48,47.77 279.55,47.05 277.69,47.05 L277.69,47.05 L276.25,47.05 C274.45,47.05 272.41,46.9 270.13,46.6 C267.73,46.36 265.69,46.24 264.01,46.24 C263.35,46.24 262.705,46.435 262.075,46.825 C261.445,47.215 261.13,47.65 261.13,48.13 C261.13,48.73 261.46,49.27 262.12,49.75 C263.08,50.35 265.3,50.71 268.78,50.83 C268.9,54.37 269.32,62.38 270.04,74.86 C270.76,87.34 271.21,93.91 271.39,94.57 L271.39,94.57 L271.3,97.63 C271.3,98.89 271.33,100.03 271.39,101.05 L271.39,101.05 L271.48,104.56 L273.1,105.73 Z M293.98,105.91 C294.52,105.91 295.75,105.85 297.67,105.73 C298.57,105.73 299.185,105.715 299.515,105.685 C299.845,105.655 300.04,105.64 300.1,105.64 L300.1,105.64 L302.35,104.11 L302.35,103.57 C302.35,101.47 301.09,100.42 298.57,100.42 C297.73,100.42 297.13,100.45 296.77,100.51 L296.77,100.51 L296.77,97.09 C296.77,94.21 296.62,91.39 296.32,88.63 C295.96,84.43 295.72,81.25 295.6,79.09 C294.88,67.39 294.52,58.63 294.52,52.81 C294.52,52.09 294.655,51.595 294.925,51.325 C295.195,51.055 295.63,50.92 296.23,50.92 L296.23,50.92 L296.95,50.92 C297.19,50.98 297.49,51.01 297.85,51.01 C298.45,51.01 298.945,50.77 299.335,50.29 C299.725,49.81 299.92,49.24 299.92,48.58 C299.92,47.92 299.665,47.335 299.155,46.825 C298.645,46.315 298.03,46.06 297.31,46.06 C295.45,46.06 293.32,46.3 290.92,46.78 C289.54,47.02 288.4,47.41 287.5,47.95 C286.6,48.49 286.15,49.12 286.15,49.84 C286.15,51.28 286.87,52 288.31,52 C288.73,52 289.42,51.88 290.38,51.64 C290.56,52.96 290.65,54.61 290.65,56.59 L290.65,56.59 L290.56,61.18 C290.5,62.56 290.47,64.09 290.47,65.77 C290.47,70.45 290.74,77.38 291.28,86.56 C291.52,90.28 291.73,92.86 291.91,94.3 C292.03,96.46 292.09,98.05 292.09,99.07 C292.09,99.85 292,100.39 291.82,100.69 C291.64,100.99 291.31,101.14 290.83,101.14 L290.83,101.14 L289.93,101.05 L288.94,101.05 C287.08,101.05 286.15,101.77 286.15,103.21 C286.15,105.01 288.76,105.91 293.98,105.91 Z M320.35,107.71 C328.39,107.71 332.41,99.07 332.41,81.79 L332.41,81.79 L332.32,76.66 C332.26,75.16 332.23,73.48 332.23,71.62 L332.23,71.62 L332.23,70.9 C332.23,68.08 332.05,65.41 331.69,62.89 C331.33,60.43 330.73,58.105 329.89,55.915 C329.05,53.725 328.03,51.88 326.83,50.38 C325.51,48.82 323.89,47.605 321.97,46.735 C320.05,45.865 317.89,45.43 315.49,45.43 C314.65,45.43 313.9,45.745 313.24,46.375 C312.58,47.005 312.04,47.92 311.62,49.12 C310.54,51.82 309.85,54.61 309.55,57.49 C309.13,61.69 308.89,64.75 308.83,66.67 L308.83,66.67 L308.74,72.97 L308.74,74.59 C308.8,74.59 308.83,74.74 308.83,75.04 L308.83,75.04 L308.83,76.66 C308.77,77.14 308.74,77.74 308.74,78.46 C308.74,82.24 309.01,86.17 309.55,90.25 C309.97,94.57 311.05,98.56 312.79,102.22 C313.63,103.9 314.71,105.235 316.03,106.225 C317.35,107.215 318.79,107.71 320.35,107.71 Z M319.99,103.93 C318.13,103.93 316.72,101.71 315.76,97.27 C314.8,93.01 314.2,88.63 313.96,84.13 C313.78,80.95 313.69,77.74 313.69,74.5 C313.69,73 313.75,71.62 313.87,70.36 L313.87,70.36 L314.05,66.22 L314.05,63.79 C313.99,63.01 313.96,62.05 313.96,60.91 C313.96,57.97 314.26,55.57 314.86,53.71 C315.52,51.37 316.87,50.2 318.91,50.2 C320.95,50.2 322.675,51.04 324.085,52.72 C325.495,54.4 326.26,56.38 326.38,58.66 L326.38,58.66 L326.380864,60.559216 C326.394688,62.837872 326.5744,66.1948 326.92,70.63 C327.34,75.01 327.55,78.55 327.55,81.25 C327.55,83.47 327.4,86.11 327.1,89.17 C326.86,92.71 326.17,96.01 325.03,99.07 C324.55,100.57 323.86,101.755 322.96,102.625 C322.06,103.495 321.07,103.93 319.99,103.93 Z M366.79,106.27 C367.21,106.27 368.29,106.03 370.03,105.55 C370.87,104.17 371.59,98.08 372.19,87.28 C372.79,76.48 373.15,66.46 373.27,57.22 L373.27,57.22 L373.27,50.47 C373.27,49.45 373.045,48.61 372.595,47.95 C372.145,47.29 371.5,46.96 370.66,46.96 C369.22,46.96 368.5,47.86 368.5,49.66 C368.5,50.08 368.53,50.47 368.59,50.83 L368.59,50.83 L368.59,52 C368.59,69.58 367.99,84.82 366.79,97.72 C366.07,95.62 365.02,92.14 363.64,87.28 L363.64,87.28 L362.74,84.04 C360.52,76.18 358.735,70.12 357.385,65.86 C356.035,61.6 354.52,57.55 352.84,53.71 C350.74,48.91 349,46.51 347.62,46.51 C347.5,46.51 347.26,46.57 346.9,46.69 L346.9,46.69 L346.9,46.15 C344.74,47.77 343.66,49.99 343.66,52.81 C343.66,54.61 343.57,57.4 343.39,61.18 C343.21,64.84 343.12,67.63 343.12,69.55 C343.12,75.25 343.15,80.41 343.21,85.03 L343.21,85.03 L343.3,100.42 C343.3,104.08 344.26,105.91 346.18,105.91 C346.96,105.91 347.62,105.64 348.16,105.1 C348.7,104.56 348.97,103.9 348.97,103.12 C348.97,102.82 348.88,102.52 348.7,102.22 C348.52,101.92 348.4,101.71 348.34,101.59 L348.34,101.59 L347.98,100.96 L347.98,55.69 C350.32,61.21 353.545,69.73 357.655,81.25 C361.765,92.77 363.82,99.52 363.82,101.5 L363.82,101.5 L363.82,101.95 L364.36,103.66 C364.54,104.62 364.81,105.295 365.17,105.685 C365.53,106.075 366.07,106.27 366.79,106.27 Z" id="protection" stroke="#0271BB" stroke-width="2" fill="#0271BB" fill-rule="nonzero"></path>
        <g id="Group-4-Copy" transform="translate(544.749023, 28.000000)">
            <g id="Group-2" stroke="#0271BB">
                <path d="M0,0 C0.30117253,7.20741645 0.602345061,14.4148329 0.903517591,21.6222493" id="Path-32" stroke-width="3"></path>
                <path d="M57.4812333,79 C57.6434003,70.5913475 57.8055673,62.182695 57.9677343,53.7740424" id="Path-34" stroke-width="3"></path>
                <path d="M39.6104587,48.6195397 C43.6732948,52.6910013 47.7361308,56.7624629 51.7989668,60.8339245 L80.2636258,31.649583 L68.0391847,19.3944202 L39.6104587,48.6195397 Z" id="Path-45" stroke-width="2" fill="#0271BB" transform="translate(59.937042, 40.114172) rotate(-5.000000) translate(-59.937042, -40.114172) "></path>
                <path d="M41.7150534,50.9132847 C32.5555544,73.5209716 28.5846192,69.9176028 53.6407095,61.7118169" id="Path-46" stroke-width="2" transform="translate(44.154688, 59.471493) rotate(-5.000000) translate(-44.154688, -59.471493) "></path>
            </g>
            <path d="M45,0 C49.410468,3.57696287 58.4013658,7.80982626 56.8144723,16" id="Path-35" stroke="#0271BB" stroke-width="3"></path>
            <path d="M1,0.941818237 C16,0.647272746 31,0.352727254 46,0.0581817627" id="Path-36" stroke="#0271BB" stroke-width="3"></path>
            <path d="M21,78.5 C42.5451254,78.2054545 36.4548746,78.7945455 58,78.5 L21,78.5 Z" id="Path-36-Copy" stroke="#0271BB" stroke-width="3"></path>
            <path d="M43.2482722,0 C41.1546479,27.167599 39.4254109,15.4519067 58,15.6809937" id="Path-37" stroke="#0271BB" stroke-width="3"></path>
            <path d="M21,49.2772026 C25.3010393,44.2547065 18.8325811,50.6417932 31.0361327,49.9463554 C33.3105395,49.8167449 34.6944968,47.055048 36.9243181,46.6045642 L44.5899657,46.0802036 C45.7033539,45.8552692 46.8633218,46.1701776 48,46.2151646" id="Path-39" stroke="#0271BB" stroke-width="2"></path>
            <path d="M19.3719128,33.4230738 C23.9915477,22.1224575 17.0439444,36.4934027 30.1514628,34.9286675 C32.5943441,34.6370438 34.0808168,28.4232258 36.4758101,27.4096373 L44.7092834,26.229826 C45.9051448,25.7237237 47.1510363,26.4322675 48.3719128,26.5334883" id="Path-39-Copy" stroke="#0271BB" stroke-width="2" transform="translate(33.871913, 30.549368) rotate(190.000000) translate(-33.871913, -30.549368) "></path>
            <path d="M19,39.8715639 C27.556781,35.3027056 38.8456667,43.5452811 49,38" id="Path-40" stroke="#0271BB" stroke-width="2"></path>
            <path d="M57.420723,16 C57.4735743,24.6666667 57.5264257,33.3333333 57.579277,42" id="Path-31" stroke="#0271BB" stroke-width="3"></path>
            <path d="M68.2230673,15.1122514 L80.7341174,29.5132948 C82.9393232,26.1067785 84.395769,23.1544321 85.1034548,20.6562557 C86.1649835,16.9089911 88.6011763,9.02092104 80.7341174,9.65564371 C75.4894115,10.0787922 71.3190615,11.6342791 68.2230673,14.3221046 L68.2230673,15.1122514 Z" id="Path-42" fill="#0271BB" transform="translate(77.265697, 19.566402) rotate(-5.000000) translate(-77.265697, -19.566402) "></path>
            <path d="M67.4404629,16.9272629 C72.5646202,21.7499992 77.6887767,26.5727347 82.812934,31.395471" id="Path-47" stroke="#FFFFFF" stroke-width="2" fill="#0271BB" transform="translate(75.126698, 24.161367) rotate(-5.000000) translate(-75.126698, -24.161367) "></path>
        </g>
        <path d="M562.749023,49.123359 L562.749023,119.582332 L474.262687,121 L474.262687,105 C450.087562,84.8950128 438,74.8425192 438,74.8425192 C438,74.8425192 450.16059,74.2283462 474.481771,73 L474.481771,50.123359 L562.749023,49.123359 Z" id="Path-7" stroke="#0271BB" fill="#0271BB"></path>
        <path d="M518.93569,60.1732921 C514.412807,56.6444442 502.085799,56.8164425 503.811098,66.7402502 C504.561554,71.0568224 512.438406,72.6656311 514.008049,73.3650378 C515.354794,73.9651253 518.967439,75.7021584 519.516386,78.2011338 C521.40618,86.8040474 509.708691,86.8040474 508.418807,86.8040474" id="Path-4" stroke="#FFFFFF" stroke-width="5" stroke-linecap="round"></path>
        <path d="M536.750027,69.0804605 C532.227144,65.5516126 519.900136,65.7236109 521.625435,75.6474186 C522.375891,79.9639908 530.252743,81.5727995 531.822385,82.2722062 C533.169131,82.8722937 536.781775,84.6093268 537.330723,87.1083022 C539.220517,95.7112158 527.523028,95.7112158 526.233144,95.7112158" id="Path-4-Copy" stroke="#FFFFFF" stroke-width="5" stroke-linecap="round"></path>
        <path d="M510.236093,72.4432856 C499.494949,72.9383203 498.440908,83.5743771 506.098543,85.9965344 C506.866597,86.2394746 516.894696,90.5516015 518.080341,93.2939177 C520.181554,98.1538789 518.459339,102.727291 512.518576,103.577496 C508.918195,104.092761 506.098543,103.577496 502.377265,100.500047" id="Path-5" stroke="#FFFFFF" stroke-width="5" stroke-linecap="round"></path>
        <path d="M528.05043,81.350454 C517.309286,81.8454887 516.255245,92.4815455 523.91288,94.9037028 C524.680934,95.146643 534.709033,99.4587699 535.894678,102.201086 C537.995891,107.061047 535.487206,111.299391 530.30604,112.029785 C528.80708,112.241095 526.470167,111.81741 523.295302,110.75873" id="Path-5-Copy" stroke="#FFFFFF" stroke-width="5" stroke-linecap="round"></path>
    </g>
</svg>