<?xml version="1.0" encoding="utf-8"?>
<!DOCTYPE svg PUBLIC "-//W3C//DTD SVG 1.1//EN" "http://www.w3.org/Graphics/SVG/1.1/DTD/svg11.dtd">
<svg version="1.1" id="Ebene_1" xmlns="http://www.w3.org/2000/svg" xmlns:xlink="http://www.w3.org/1999/xlink" x="0px" y="0px"
	 width="21px" height="21px" viewBox="0 0 21 21" enable-background="new 0 0 21 21" xml:space="preserve">
<g>
	<path fill-rule="evenodd" clip-rule="evenodd" fill="#FFFFFF" d="M0.009,4.022c0-1.341,0-2.678,0-4.022c0.17,0,0.339,0,0.508,0
		c0.03,0,0.059,0.011,0.089,0.011c0.233,0.006,0.467,0.004,0.699,0.021c0.32,0.022,0.64,0.056,0.959,0.089
		c0.265,0.028,0.53,0.057,0.795,0.093C3.28,0.244,3.501,0.28,3.722,0.322c0.351,0.069,0.702,0.141,1.05,0.219
		c0.763,0.173,1.512,0.396,2.246,0.661C7.508,1.379,7.99,1.581,8.469,1.788c0.365,0.158,0.728,0.325,1.078,0.513
		c0.497,0.268,0.983,0.556,1.471,0.843c0.618,0.365,1.197,0.788,1.767,1.224c0.303,0.232,0.588,0.487,0.881,0.729
		c0.552,0.458,1.052,0.968,1.55,1.483c0.306,0.317,0.595,0.655,0.873,0.999c0.351,0.435,0.698,0.875,1.019,1.333
		c0.34,0.487,0.663,0.987,0.966,1.499c0.284,0.482,0.541,0.979,0.788,1.482c0.305,0.632,0.575,1.278,0.812,1.939
		c0.204,0.577,0.398,1.155,0.541,1.75c0.128,0.521,0.253,1.042,0.361,1.567c0.066,0.324,0.104,0.655,0.151,0.983
		c0.04,0.285,0.077,0.57,0.105,0.855c0.021,0.19,0.029,0.385,0.04,0.577c0.014,0.312,0.024,0.622,0.037,0.934
		c0.006,0.164,0.017,0.329,0.024,0.5c-1.361,0-2.709,0-4.064,0c0-0.204,0.011-0.404,0-0.604c-0.019-0.33-0.045-0.661-0.072-0.991
		c-0.016-0.193-0.031-0.389-0.056-0.582c-0.021-0.173-0.045-0.344-0.074-0.515c-0.045-0.254-0.087-0.506-0.143-0.756
		c-0.085-0.374-0.176-0.748-0.271-1.12c-0.172-0.663-0.397-1.308-0.665-1.934c-0.218-0.5-0.449-0.995-0.696-1.479
		c-0.3-0.585-0.646-1.146-1.024-1.684c-0.269-0.383-0.557-0.756-0.849-1.125c-0.167-0.212-0.35-0.413-0.536-0.61
		c-0.268-0.289-0.533-0.58-0.818-0.852c-0.302-0.289-0.615-0.569-0.94-0.833c-0.375-0.305-0.757-0.607-1.157-0.879
		C9.105,6.723,8.627,6.434,8.145,6.151C7.598,5.83,7.026,5.553,6.434,5.322C5.976,5.143,5.516,4.968,5.049,4.814
		C4.435,4.611,3.808,4.452,3.17,4.342c-0.344-0.06-0.69-0.114-1.036-0.163C1.905,4.146,1.675,4.12,1.445,4.105
		c-0.379-0.024-0.76-0.037-1.14-0.057C0.209,4.043,0.114,4.031,0.009,4.022z"/>
	<path fill-rule="evenodd" clip-rule="evenodd" fill="#FFFFFF" d="M0.009,11.157c0-1.34,0-2.677,0-4.021c0.195,0,0.388-0.001,0.58,0
		c0.036,0,0.072,0.008,0.107,0.011c0.296,0.023,0.594,0.041,0.89,0.074C1.895,7.256,2.203,7.298,2.51,7.35
		C2.745,7.39,2.98,7.435,3.209,7.5c0.487,0.137,0.976,0.272,1.455,0.437c0.385,0.133,0.765,0.289,1.132,0.467
		C6.263,8.63,6.725,8.873,7.171,9.14c0.394,0.235,0.773,0.5,1.139,0.777c0.356,0.27,0.695,0.564,1.029,0.861
		c0.262,0.235,0.521,0.476,0.754,0.739c0.346,0.388,0.683,0.783,0.995,1.198c0.282,0.375,0.541,0.773,0.782,1.178
		c0.232,0.388,0.446,0.788,0.637,1.196c0.196,0.421,0.377,0.852,0.528,1.292c0.167,0.489,0.308,0.988,0.435,1.491
		c0.087,0.34,0.136,0.691,0.191,1.037c0.04,0.252,0.069,0.506,0.09,0.759c0.026,0.312,0.039,0.626,0.058,0.938
		c0.006,0.128,0.016,0.257,0.025,0.394c-1.361,0-2.707,0-4.053,0c-0.042-2.69-0.962-5.02-2.859-6.937S2.706,11.209,0.009,11.157z"/>
	<path fill-rule="evenodd" clip-rule="evenodd" fill="#FFFFFF" d="M2.498,15.999c1.379-0.025,2.504,1.119,2.494,2.511
		c-0.01,1.295-1.081,2.557-2.684,2.46c-1.166-0.07-2.386-1.088-2.304-2.649C0.068,17.11,1.107,15.972,2.498,15.999z"/>
</g>
</svg>
