<?xml version="1.0" encoding="UTF-8"?>
<svg width="689px" height="149px" viewBox="0 0 689 149" version="1.1" xmlns="http://www.w3.org/2000/svg" xmlns:xlink="http://www.w3.org/1999/xlink">
    <title>Sicherung-grau</title>
    <defs>
        <path d="M33.82,90.0971963 C34.996,90.0971963 35.836,89.7011963 36.34,88.9091963 C36.868,88.1651963 37.216,87.2891963 37.384,86.2811963 C37.504,85.3451963 37.564,84.3851963 37.564,83.4011963 C37.564,81.8171963 37.372,80.0171963 36.988,78.0011963 C36.772,76.9211963 36.448,75.9731963 36.016,75.1571963 C35.584,74.3411963 35.092,73.7651963 34.54,73.4291963 L34.54,73.4291963 L35.08,72.6371963 C35.344,72.3251963 35.536,72.0371963 35.656,71.7731963 C35.776,71.5811963 35.89,71.3171963 35.998,70.9811963 C36.106,70.6451963 36.16,70.3091963 36.16,69.9731963 C36.16,69.1091963 36.136,68.4491963 36.088,67.9931963 C36.04,67.3451963 35.932,66.6551963 35.764,65.9231963 C35.596,65.1911963 35.392,64.5491963 35.152,63.9971963 C34.888,63.4211963 34.528,62.9591963 34.072,62.6111963 C33.616,62.2631963 33.112,62.0891963 32.56,62.0891963 C31.768,62.0891963 31.066,62.3411963 30.454,62.8451963 C29.842,63.3491963 29.368,64.0211963 29.032,64.8611963 C29.08,65.1491963 29.206,65.3831963 29.41,65.5631963 C29.614,65.7431963 29.848,65.8331963 30.112,65.8331963 C30.424,65.8331963 30.688,65.7311963 30.904,65.5271963 C31.12,65.3231963 31.264,65.0771963 31.336,64.7891963 C31.432,64.5011963 31.582,64.2611963 31.786,64.0691963 C31.99,63.8771963 32.224,63.7811963 32.488,63.7811963 C32.848,63.7811963 33.166,64.0091963 33.442,64.4651963 C33.718,64.9211963 33.916,65.5091963 34.036,66.2291963 C34.252,67.4291963 34.36,68.5211963 34.36,69.5051963 C34.36,70.0091963 34.252,70.5191963 34.036,71.0351963 C33.82,71.5511963 33.556,71.9771963 33.244,72.3131963 C32.452,73.1051963 32.056,73.7051963 32.056,74.1131963 C32.056,74.3531963 32.164,74.5331963 32.38,74.6531963 C32.596,74.7731963 32.86,74.8331963 33.172,74.8331963 C33.364,74.8331963 33.484,74.8211963 33.532,74.7971963 C34.54,76.0451963 35.188,77.6291963 35.476,79.5491963 C35.596,80.4371963 35.668,81.1811963 35.692,81.7811963 C35.716,82.3811963 35.728,83.3051963 35.728,84.5531963 C35.728,87.2651963 34.996,88.6211963 33.532,88.6211963 C33.244,88.6211963 33.01,88.5671963 32.83,88.4591963 C32.65,88.3511963 32.464,88.2011963 32.272,88.0091963 C32.128,87.8651963 31.96,87.7931963 31.768,87.7931963 C31.504,87.7931963 31.336,87.8351963 31.264,87.9191963 C31.192,88.0031963 31.156,88.1651963 31.156,88.4051963 C31.156,88.7891963 31.324,89.1131963 31.66,89.3771963 C32.212,89.8571963 32.932,90.0971963 33.82,90.0971963 Z" id="path-1"></path>
    </defs>
    <g id="Sicherung-grau" stroke="none" stroke-width="1" fill="none" fill-rule="evenodd">
        <path d="M7.56383635,75.2097342 C7.70944739,84.8575629 9.18816861,92.0122531 12,96.673805 C16.2177471,103.666133 18.1635961,106.48871 24.579904,106.48871 C30.996212,106.48871 36.2589161,109.889112 43.3985454,106.48871 C50.5381746,103.088308 56.7493494,104.699724 58.8746747,93.2129019 C61,81.7260796 61,78.7509946 61,69.6387071 C61,60.5264195 49.7970907,47.5759323 43.3985454,47.5759323 C37,47.5759323 29.1341164,44.0300846 24.579904,47.5759323 C20.0256917,51.12178 12.2600743,58.2468496 10.6823107,61.0305882 C9.63046828,62.886414 8.59097683,67.612796 7.56383635,75.2097342 Z" id="Path-4-Copy-6" fill="#3B515B"></path>
        <g id="3" fill-rule="nonzero" fill="#FFFFFF">
            <use xlink:href="#path-1"></use>
            <use stroke="#FFFFFF" stroke-width="3" xlink:href="#path-1"></use>
        </g>
        <path d="M109.11,106.26 L109.11,105.99 C110.97,105.99 112.665,105.48 114.195,104.46 C115.725,103.44 116.91,102.09 117.75,100.41 C119.43,97.11 120.27,93.63 120.27,89.97 C120.27,87.69 120.015,85.44 119.505,83.22 C118.995,81 118.32,79.05 117.48,77.37 L117.48,77.37 L114.33,71.43 L112.35,67.83 C111.51,66.39 110.82,64.785 110.28,63.015 C109.74,61.245 109.47,59.49 109.47,57.75 C109.47,56.37 109.8,54.63 110.46,52.53 C111.24,50.25 112.29,49.08 113.61,49.02 C114.21,49.38 114.84,49.56 115.5,49.56 C116.1,49.56 116.61,49.41 117.03,49.11 C117.45,48.81 117.66,48.39 117.66,47.85 C117.66,46.89 117.195,46.065 116.265,45.375 C115.335,44.685 114.33,44.34 113.25,44.34 C111.87,44.34 110.625,44.775 109.515,45.645 C108.405,46.515 107.55,47.64 106.95,49.02 C105.75,51.9 105.15,54.66 105.15,57.3 C105.15,59.64 105.51,61.98 106.23,64.32 C106.77,66.12 107.43,67.8 108.21,69.36 C108.99,70.92 109.95,72.69 111.09,74.67 L111.09,74.67 L112.08,76.38 C114.6,80.76 115.86,84.93 115.86,88.89 C115.86,91.17 115.47,93.75 114.69,96.63 C114.27,98.19 113.625,99.45 112.755,100.41 C111.885,101.37 110.91,101.85 109.83,101.85 C109.35,101.85 108.66,101.76 107.76,101.58 C106.98,101.34 106.41,101.22 106.05,101.22 L106.05,101.22 L105.06,102.75 C105.18,103.71 105.615,104.49 106.365,105.09 C107.115,105.69 108.03,106.08 109.11,106.26 L109.11,106.26 Z M134.22,104.91 C134.76,104.91 135.99,104.85 137.91,104.73 C138.81,104.73 139.425,104.715 139.755,104.685 C140.085,104.655 140.28,104.64 140.34,104.64 L140.34,104.64 L142.59,103.11 L142.59,102.57 C142.59,100.47 141.33,99.42 138.81,99.42 C137.97,99.42 137.37,99.45 137.01,99.51 L137.01,99.51 L137.01,96.09 C137.01,93.21 136.86,90.39 136.56,87.63 C136.2,83.43 135.96,80.25 135.84,78.09 C135.12,66.39 134.76,57.63 134.76,51.81 C134.76,51.09 134.895,50.595 135.165,50.325 C135.435,50.055 135.87,49.92 136.47,49.92 L136.47,49.92 L137.19,49.92 C137.43,49.98 137.73,50.01 138.09,50.01 C138.69,50.01 139.185,49.77 139.575,49.29 C139.965,48.81 140.16,48.24 140.16,47.58 C140.16,46.92 139.905,46.335 139.395,45.825 C138.885,45.315 138.27,45.06 137.55,45.06 C135.69,45.06 133.56,45.3 131.16,45.78 C129.78,46.02 128.64,46.41 127.74,46.95 C126.84,47.49 126.39,48.12 126.39,48.84 C126.39,50.28 127.11,51 128.55,51 C128.97,51 129.66,50.88 130.62,50.64 C130.8,51.96 130.89,53.61 130.89,55.59 L130.89,55.59 L130.8,60.18 C130.74,61.56 130.71,63.09 130.71,64.77 C130.71,69.45 130.98,76.38 131.52,85.56 C131.76,89.28 131.97,91.86 132.15,93.3 C132.27,95.46 132.33,97.05 132.33,98.07 C132.33,98.85 132.24,99.39 132.06,99.69 C131.88,99.99 131.55,100.14 131.07,100.14 L131.07,100.14 L130.17,100.05 L129.18,100.05 C127.32,100.05 126.39,100.77 126.39,102.21 C126.39,104.01 129,104.91 134.22,104.91 Z M162.12,106.26 C165.42,106.26 167.07,105.09 167.07,102.75 C167.07,102.09 166.815,101.595 166.305,101.265 C165.795,100.935 165.15,100.77 164.37,100.77 C163.71,101.25 163.05,101.49 162.39,101.49 C161.31,101.49 160.32,101.31 159.42,100.95 C157.68,100.23 156.45,99.06 155.73,97.44 C155.01,96 154.5,94.2 154.2,92.04 C154.02,90.6 153.93,88.74 153.93,86.46 C153.93,83.22 153.99,80.31 154.11,77.73 L154.11,77.73 L154.29,69.09 L154.29,68.64 C154.29,65.88 154.68,62.28 155.46,57.84 C155.82,55.44 156.45,53.49 157.35,51.99 C158.25,50.49 159.3,49.74 160.5,49.74 L160.5,49.74 L164.73,49.74 C165.27,49.68 165.735,49.41 166.125,48.93 C166.515,48.45 166.71,47.91 166.71,47.31 C166.71,46.65 166.47,46.11 165.99,45.69 C165.51,45.27 164.82,45.06 163.92,45.06 C161.7,45.06 159.84,45.39 158.34,46.05 C156.66,46.71 155.295,47.52 154.245,48.48 C153.195,49.44 152.31,50.79 151.59,52.53 C150.75,54.39 150.15,56.055 149.79,57.525 C149.43,58.995 149.16,60.9 148.98,63.24 C148.8,65.46 148.68,67.515 148.62,69.405 C148.56,71.295 148.53,73.44 148.53,75.84 L148.53,83.22 C148.53,94.74 150.54,101.79 154.56,104.37 C155.34,104.85 156.465,105.285 157.935,105.675 C159.405,106.065 160.8,106.26 162.12,106.26 Z M191.01,105 C191.85,105 192.585,104.76 193.215,104.28 C193.845,103.8 194.16,103.14 194.16,102.3 L194.16,102.3 L193.35,79.53 C192.75,65.31 192.45,53.94 192.45,45.42 L192.45,45.42 L191.64,45.06 C190.86,44.76 190.26,44.61 189.84,44.61 C189.12,44.61 188.505,44.835 187.995,45.285 C187.485,45.735 187.23,46.29 187.23,46.95 C187.23,50.25 187.44,54.54 187.86,59.82 C188.22,65.46 188.4,69.72 188.4,72.6 C188.4,72.96 188.34,73.32 188.22,73.68 L188.22,73.68 L184.89,73.68 C182.55,73.68 180.93,73.53 180.03,73.23 C180.03,69.09 180.09,65.34 180.21,61.98 L180.21,61.98 L180.39,50.82 C180.39,47.22 179.43,45.42 177.51,45.42 C176.79,45.42 176.19,45.69 175.71,46.23 C175.23,46.77 174.99,47.4 174.99,48.12 C174.99,50.4 175.08,53.79 175.26,58.29 C175.44,62.79 175.53,66.18 175.53,68.46 L175.53,68.46 L175.26,73.68 L175.26,74.13 C175.32,74.43 175.35,75.06 175.35,76.02 L175.35,76.02 L175.35,78.81 C175.35,81.09 175.32,83.25 175.26,85.29 L175.26,85.29 L175.08,92.58 C175.08,96.24 175.32,99.21 175.8,101.49 C176.28,103.71 177.09,104.82 178.23,104.82 C179.01,104.82 179.64,104.49 180.12,103.83 C180.6,103.17 180.84,102.39 180.84,101.49 C180.84,99.87 180.75,97.41 180.57,94.11 C180.39,90.75 180.3,88.29 180.3,86.73 L180.3,76.38 C181.86,76.62 182.82,76.77 183.18,76.83 C184.32,77.07 185.28,77.19 186.06,77.19 C186.84,77.19 187.38,77.13 187.68,77.01 L187.68,77.01 L187.68,77.1 C187.68,77.22 187.77,77.37 187.95,77.55 C188.13,77.73 188.22,77.88 188.22,78 C188.22,78.66 188.19,79.23 188.13,79.71 L188.13,79.71 L188.13,80.88 L188.04,85.02 L187.95,90.15 C187.95,100.05 188.97,105 191.01,105 Z M216.75,106.17 C217.83,106.17 218.745,105.945 219.495,105.495 C220.245,105.045 220.62,104.4 220.62,103.56 C220.62,102.12 219.48,101.4 217.2,101.4 C215.76,101.4 214.53,101.43 213.51,101.49 L213.51,101.49 L210.54,101.58 C210.427742,101.58 210.367992,100.109781 210.360749,97.1693444 L210.360558,96.288781 C210.368368,94.4898967 210.458182,91.8436364 210.63,88.35 C210.69,85.95 210.72,83.25 210.72,80.25 C210.72,77.25 210.66,74.97 210.54,73.41 L210.54,73.41 L212.79,73.41 C213.39,73.53 214.23,73.59 215.31,73.59 C216.15,73.59 216.84,73.365 217.38,72.915 C217.92,72.465 218.19,71.91 218.19,71.25 C218.19,69.57 216.75,68.73 213.87,68.73 C213.15,68.73 212.55,68.76 212.07,68.82 L212.07,68.82 L210.63,68.91 L210.36,67.47 C210.36,66.03 210.45,63.87 210.63,60.99 C210.69,59.07 210.72,56.91 210.72,54.51 C210.72,52.83 210.69,51.54 210.63,50.64 C212.67,50.94 214.95,51.54 217.47,52.44 C218.19,52.14 218.805,51.735 219.315,51.225 C219.825,50.715 220.08,50.16 220.08,49.56 C220.08,48.48 218.775,47.55 216.165,46.77 C213.555,45.99 211.26,45.6 209.28,45.6 C206.76,45.6 205.5,47.73 205.5,51.99 C205.5,52.77 205.59,54.03 205.77,55.77 C205.95,57.45 206.04,58.71 206.04,59.55 C206.04,63.09 205.92,67.47 205.68,72.69 C205.5,78.51 205.41,82.89 205.41,85.83 L205.41,85.83 L205.59,91.59 C205.77,94.17 205.86,96.09 205.86,97.35 C205.86,98.07 205.89,98.7 205.95,99.24 L205.95,99.24 L205.95,103.38 C206.01,104.16 206.355,104.82 206.985,105.36 C207.615,105.9 208.32,106.17 209.1,106.17 L209.1,106.17 L216.75,106.17 Z M246.27,106.53 C246.87,106.53 247.35,106.305 247.71,105.855 C248.07,105.405 248.25,104.88 248.25,104.28 C248.25,103.56 247.95,102.6 247.35,101.4 L247.35,101.4 L246.81,100.32 C245.67,97.98 244.71,95.37 243.93,92.49 C243.15,89.61 242.34,85.86 241.5,81.24 L241.5,81.24 L240.24,74.85 L239.79,72.69 L241.23,69.99 L242.94,66.75 C243.3,66.03 243.63,65.085 243.93,63.915 C244.23,62.745 244.38,61.71 244.38,60.81 L244.38,60.81 L244.38,54.51 C244.38,51.51 243.345,49.17 241.275,47.49 C239.205,45.81 236.55,44.97 233.31,44.97 C231.33,44.97 230.34,46.41 230.34,49.29 C230.34,53.97 230.58,62.16 231.06,73.86 C231.6,84.84 231.87,93.03 231.87,98.43 L231.87,98.43 L231.78,104.46 L232.95,105.81 L235.47,105.81 L236.46,103.38 C235.32,98.88 234.75,92.61 234.75,84.57 L234.75,84.57 L234.75,79.62 C234.81,78.18 234.84,76.59 234.84,74.85 L234.84,74.85 L235.92,74.85 L235.92,74.85 L235.977031,75.0016127 C236.484671,76.4243111 237.57566,81.2637736 239.25,89.52 L239.25,89.52 L239.88,92.58 C240.48,95.88 241.41,99.09 242.67,102.21 C243.75,105.09 244.95,106.53 246.27,106.53 Z M235.2,70.44 C235.2,66.78 235.14,63.39 235.02,60.27 L235.02,60.27 L234.84,49.65 L235.02,48.84 L235.2,48.39 C236.22,48.39 237.075,48.645 237.765,49.155 C238.455,49.665 238.95,50.4 239.25,51.36 C239.73,53.04 239.97,54.84 239.97,56.76 C239.97,59.28 239.505,62.025 238.575,64.995 C237.645,67.965 236.52,69.78 235.2,70.44 Z M266.7,106.35 C274.44,106.35 278.31,93.03 278.31,66.39 C278.31,66.09 278.28,65.82 278.22,65.58 L278.22,65.58 L278.22,64.86 L278.4,61.08 C278.52,60 278.58,58.77 278.58,57.39 C278.58,56.13 278.7,54.63 278.94,52.89 C279.12,50.79 279.21,49.26 279.21,48.3 C279.21,47.28 279.18,46.59 279.12,46.23 C279,45.63 278.715,45.105 278.265,44.655 C277.815,44.205 277.2,43.98 276.42,43.98 C275.46,43.98 274.815,44.145 274.485,44.475 C274.155,44.805 273.99,45.33 273.99,46.05 C273.99,46.35 274.02,46.59 274.08,46.77 L274.08,46.77 L274.08,52.62 C274.08,84.9 271.92,101.04 267.6,101.04 C263.82,101.04 261.93,98.82 261.93,94.38 C261.93,92.94 261.72,89.76 261.3,84.84 C260.88,80.88 260.67,77.7 260.67,75.3 L260.67,75.3 L260.67,50.82 C260.67,49.56 260.385,48.39 259.815,47.31 C259.245,46.23 258.6,45.69 257.88,45.69 C257.16,45.69 256.53,46.32 255.99,47.58 C255.99,48.06 256.05,49.44 256.17,51.72 C256.17,52.56 256.2,53.16 256.26,53.52 L256.26,53.52 L256.35,60.45 C256.35,69.81 256.44,77.73 256.62,84.21 C256.62,88.05 256.83,91.35 257.25,94.11 C257.67,97.29 258.6,100.14 260.04,102.66 C260.76,103.86 261.69,104.775 262.83,105.405 C263.97,106.035 265.26,106.35 266.7,106.35 Z M314.13,105.27 C314.55,105.27 315.63,105.03 317.37,104.55 C318.21,103.17 318.93,97.08 319.53,86.28 C320.13,75.48 320.49,65.46 320.61,56.22 L320.61,56.22 L320.61,49.47 C320.61,48.45 320.385,47.61 319.935,46.95 C319.485,46.29 318.84,45.96 318,45.96 C316.56,45.96 315.84,46.86 315.84,48.66 C315.84,49.08 315.87,49.47 315.93,49.83 L315.93,49.83 L315.93,51 C315.93,68.58 315.33,83.82 314.13,96.72 C313.41,94.62 312.36,91.14 310.98,86.28 L310.98,86.28 L310.08,83.04 C307.86,75.18 306.075,69.12 304.725,64.86 C303.375,60.6 301.86,56.55 300.18,52.71 C298.08,47.91 296.34,45.51 294.96,45.51 C294.84,45.51 294.6,45.57 294.24,45.69 L294.24,45.69 L294.24,45.15 C292.08,46.77 291,48.99 291,51.81 C291,53.61 290.91,56.4 290.73,60.18 C290.55,63.84 290.46,66.63 290.46,68.55 L290.4604,69.6828 C290.464133,74.9356 290.494,79.718 290.55,84.03 L290.55,84.03 L290.64,99.42 C290.64,103.08 291.6,104.91 293.52,104.91 C294.3,104.91 294.96,104.64 295.5,104.1 C296.04,103.56 296.31,102.9 296.31,102.12 C296.31,101.82 296.22,101.52 296.04,101.22 C295.86,100.92 295.74,100.71 295.68,100.59 L295.68,100.59 L295.32,99.96 L295.32,54.69 C297.66,60.21 300.885,68.73 304.995,80.25 C309.105,91.77 311.16,98.52 311.16,100.5 L311.16,100.5 L311.16,100.95 L311.7,102.66 C311.88,103.62 312.15,104.295 312.51,104.685 C312.87,105.075 313.41,105.27 314.13,105.27 Z M344.37,105.72 C347.25,105.72 349.695,104.895 351.705,103.245 C353.715,101.595 354.72,99.33 354.72,96.45 L354.72,96.45 L354.54,91.68 C354.36,89.52 354.27,87.93 354.27,86.91 C354.27,86.19 354.45,85.11 354.81,83.67 C355.11,82.05 355.26,80.97 355.26,80.43 C355.26,78.57 352.56,77.64 347.16,77.64 L347.16,77.64 L345.9,77.64 L345.9,77.55 C345,77.55 344.265,77.775 343.695,78.225 C343.125,78.675 342.84,79.32 342.84,80.16 C342.84,81.54 343.89,82.23 345.99,82.23 L345.99,82.23 L347.79,82.23 C348.75,82.23 349.44,82.32 349.86,82.5 L349.86,82.5 L349.86,86.64 C349.86,96.24 348.42,101.04 345.54,101.04 C344.46,101.04 343.41,100.71 342.39,100.05 C341.49,99.45 340.755,98.715 340.185,97.845 C339.615,96.975 339.12,95.82 338.7,94.38 C337.92,91.92 337.41,89.04 337.17,85.74 C336.99,82.2 336.9,79.41 336.9,77.37 L336.900625,77.1170312 C336.910208,75.1356771 337.03,72.19 337.26,68.28 C337.62,63.9 338.28,59.85 339.24,56.13 C339.78,54.21 340.44,52.71 341.22,51.63 C342,50.55 342.9,50.01 343.92,50.01 C344.28,50.01 344.58,50.04 344.82,50.1 C345.12,50.16 345.45,50.19 345.81,50.19 C346.59,50.19 347.265,49.965 347.835,49.515 C348.405,49.065 348.69,48.48 348.69,47.76 C348.69,46.26 347.4,45.51 344.82,45.51 C343.38,45.51 342.12,45.72 341.04,46.14 C338.76,46.92 336.99,48.33 335.73,50.37 C334.41,52.41 333.48,54.78 332.94,57.48 C332.28,60.48 331.89,63.33 331.77,66.03 C331.65,68.25 331.59,71.1 331.59,74.58 L331.59,83.4 C331.65,84.96 331.77,86.82 331.95,88.98 C332.13,91.14 332.37,92.79 332.67,93.93 C332.97,95.43 333.45,96.99 334.11,98.61 C334.77,100.23 335.49,101.46 336.27,102.3 C337.23,103.32 338.4,104.145 339.78,104.775 C341.16,105.405 342.69,105.72 344.37,105.72 Z" id="sicherung" stroke="#3B515B" stroke-width="2" fill="#3B515B" fill-rule="nonzero"></path>
    </g>
</svg>