<?xml version="1.0" encoding="UTF-8"?>
<svg width="24px" height="24px" viewBox="0 0 24 24" version="1.1" xmlns="http://www.w3.org/2000/svg" xmlns:xlink="http://www.w3.org/1999/xlink">
    <title>likes</title>
    <g id="likes" stroke="none" stroke-width="1" fill="none" fill-rule="evenodd">
        <g id="Group" transform="translate(5.858448, 5.519128)" fill="#7E7E7E">
            <path d="M2.32943031,4.74007511 C2.5676964,4.73483237 2.7499054,4.80250483 2.8760573,4.94309248 C3.0022092,5.08368014 3.05324543,5.25723651 3.02916598,5.46376159 L3.02916598,10.7127063 C3.03201145,10.9123988 2.96546545,11.0733005 2.82952801,11.1954113 C2.69359056,11.3175221 2.51637158,11.3712555 2.29787108,11.3566116 L0.759178354,11.3566116 C0.458293714,11.3566116 0.252797742,11.2958164 0.142690438,11.1742261 C0.0325831348,11.0526358 -0.0138008119,10.8500883 0.00353859823,10.5665836 L0.00353859823,5.47123597 C-0.0111716392,5.23581422 0.0426104714,5.05389857 0.16488493,4.92548901 C0.287159388,4.79707945 0.48535229,4.73527482 0.759463635,4.74007511 L2.32943031,4.74007511 Z M1.51866297,9.29087332 C1.21797169,9.29087332 0.974213236,9.53463177 0.974213236,9.83532305 C0.974213236,10.1360143 1.21797169,10.3797728 1.51866297,10.3797728 C1.81935426,10.3797728 2.06311271,10.1360143 2.06311271,9.83532305 C2.06311271,9.53463177 1.81935426,9.29087332 1.51866297,9.29087332 Z M3.81679325,5.58029417 C3.81679325,9.03184449 3.81679325,10.8025936 3.81679325,10.8925414 C3.81679325,11.0274631 3.90515498,11.1539636 4.14461872,11.1539636 C4.38408245,11.1539636 5.1603101,11.4001643 5.48183036,11.5577337 C5.80335063,11.7153031 7.39567615,12.3282688 8.54919785,12.3282688 C9.70271954,12.3282688 10.8625722,11.9615039 11.0754546,11.5577337 C11.2173762,11.2885536 11.251578,10.9424451 11.1780602,10.5194083 C11.4043271,10.1920609 11.5477373,9.92817671 11.6082908,9.7277558 C11.6991211,9.42712445 11.6082908,8.79883201 11.6082908,8.79883201 C11.8358032,8.50118197 11.9579263,8.15712832 11.97466,7.76667107 C11.9997607,7.18098519 11.7759317,6.80000061 11.7759317,6.80000061 C12.0981429,6.45639992 12.2670444,6.04021807 12.282636,5.55145506 C12.3060235,4.81831054 11.4473436,4.24307534 11.0754546,4.24307534 C10.8275285,4.24307534 9.94057342,4.24307534 8.4145892,4.24307534 C8.82070147,3.29828874 9.0649521,2.7142296 9.14734107,2.49089792 C9.25080569,1.89325602 9.2185371,1.38471413 9.0505353,0.965272248 C8.74455839,0.404563892 8.34575595,0.0927185899 7.85412797,0.0297363412 C7.51469385,-0.0431921771 7.27745788,0.0180224582 7.14242007,0.213380247 C6.89126053,0.760517555 6.72340167,1.17009083 6.63884348,1.44210008 C6.05527205,2.74411129 5.55615238,3.57551799 5.14148447,3.93632019 C4.72681656,4.29712239 4.28525282,4.84511372 3.81679325,5.58029417 Z" id="Combined-Shape"></path>
        </g>
    </g>
</svg>