<?xml version="1.0" encoding="UTF-8"?>
<svg width="24px" height="24px" viewBox="0 0 24 24" version="1.1" xmlns="http://www.w3.org/2000/svg" xmlns:xlink="http://www.w3.org/1999/xlink">
    <title>twitter</title>
    <g id="twitter" stroke="none" stroke-width="1" fill="none" fill-rule="evenodd">
        <g transform="translate(2.700532, 4.447113)" fill="#7E7E7E" fill-rule="nonzero" id="Path">
            <path d="M16.6871621,3.76462842 C16.6989681,3.92983994 16.6989681,4.09508778 16.6989681,4.26029929 C16.6989681,9.29946844 12.86354,15.1057741 5.85349335,15.1057741 C3.69382868,15.1057741 1.68760583,14.4802734 0,13.3945925 C0.306847331,13.4299743 0.601852324,13.4417803 0.920505667,13.4417803 C2.70248694,13.4417803 4.34290505,12.8399279 5.6528638,11.8132045 C3.97706399,11.7777865 2.57269346,10.6802633 2.0888286,9.16967496 C2.32487619,9.20505667 2.56088745,9.22866869 2.80874105,9.22866869 C3.15097009,9.22866869 3.49323545,9.18144464 3.81185247,9.09887521 C2.06525291,8.74480383 0.755257826,7.21063983 0.755257826,5.35782249 L0.755257826,5.31063476 C1.26269838,5.59387007 1.85281735,5.7708876 2.47824537,5.7944633 C1.45152192,5.10996889 0.77886985,3.94164595 0.77886985,2.61988118 C0.77886985,1.91181108 0.967657062,1.26273471 1.29811642,0.696264093 C3.17454579,3.00933427 5.99509285,4.51988625 9.15783262,4.68513409 C9.09883889,4.40189878 9.06342085,4.10689379 9.06342085,3.81185247 C9.06342085,1.71118153 10.7628327,0 12.8752733,0 C13.9727965,0 14.9641019,0.460252833 15.6604023,1.20374097 C16.521878,1.03852946 17.3479719,0.719876117 18.0796903,0.283235307 C17.7964187,1.16835926 17.1945663,1.9118474 16.4038905,2.38386992 C17.1709907,2.30130049 17.9144788,2.0888286 18.5989369,1.79382361 C18.079763,2.54908144 17.4306503,3.22173351 16.6871621,3.76462842 Z"></path>
        </g>
    </g>
</svg>