<?xml version="1.0" encoding="utf-8"?>
<!-- Generator: Adobe Illustrator 16.0.0, SVG Export Plug-In . SVG Version: 6.00 Build 0)  -->
<!DOCTYPE svg PUBLIC "-//W3C//DTD SVG 1.1//EN" "http://www.w3.org/Graphics/SVG/1.1/DTD/svg11.dtd">
<svg version="1.1" id="Ebene_1" xmlns="http://www.w3.org/2000/svg" xmlns:xlink="http://www.w3.org/1999/xlink" x="0px" y="0px"
	 width="67px" height="67px" viewBox="0 0 67 67" enable-background="new 0 0 67 67" xml:space="preserve">
<g>
	<circle fill="#E2001A" cx="33.5" cy="33.5" r="33.5"/>
</g>
<g>
	<path fill-rule="evenodd" clip-rule="evenodd" fill="#FFFFFF" d="M34.454,47.087c-4.789-0.095-8.79-0.162-12.791-0.262
		c-1.019-0.025-2.041-0.114-3.053-0.244c-1.326-0.17-2.298-0.982-2.792-2.139c-0.562-1.313-1.029-2.712-1.237-4.118
		c-0.716-4.819-0.644-9.659,0.118-14.467c0.194-1.225,0.709-2.421,1.218-3.568c0.62-1.397,1.858-1.993,3.333-2.066
		c2.597-0.128,5.195-0.296,7.792-0.305c5.782-0.021,11.564,0.032,17.344,0.092c1.308,0.013,2.617,0.157,3.921,0.273
		c1.229,0.11,2.086,0.827,2.717,1.832c0.921,1.465,1.283,3.122,1.479,4.801c0.571,4.875,0.62,9.748-0.269,14.597
		c-0.093,0.502-0.23,0.996-0.385,1.482c-0.827,2.604-2.125,3.629-4.849,3.724C42.557,46.873,38.114,46.982,34.454,47.087z
		 M40.554,33.446c-3.672-2.378-7.219-4.676-10.828-7.014c0,4.71,0,9.3,0,13.989C33.355,38.084,36.894,35.804,40.554,33.446z"/>
	<path fill-rule="evenodd" clip-rule="evenodd" fill="#E2001A" d="M40.554,33.446c-3.66,2.357-7.199,4.638-10.828,6.975
		c0-4.688,0-9.278,0-13.989C33.335,28.77,36.882,31.068,40.554,33.446z"/>
</g>
</svg>
