<?xml version="1.0" encoding="UTF-8"?>
<svg width="689px" height="149px" viewBox="0 0 689 149" version="1.1" xmlns="http://www.w3.org/2000/svg" xmlns:xlink="http://www.w3.org/1999/xlink">
    <title>Verwertung-blau</title>
    <g id="Verwertung-blau" stroke="none" stroke-width="1" fill="none" fill-rule="evenodd">
        <path d="M7.56383635,75.2097342 C7.70944739,84.8575629 9.18816861,92.0122531 12,96.673805 C16.2177471,103.666133 18.1635961,106.48871 24.579904,106.48871 C30.996212,106.48871 36.2589161,109.889112 43.3985454,106.48871 C50.5381746,103.088308 56.7493494,104.699724 58.8746747,93.2129019 C61,81.7260796 61,78.7509946 61,69.6387071 C61,60.5264195 49.7970907,47.5759323 43.3985454,47.5759323 C37,47.5759323 29.1341164,44.0300846 24.579904,47.5759323 C20.0256917,51.12178 12.2600743,58.2468496 10.6823107,61.0305882 C9.63046828,62.886414 8.59097683,67.612796 7.56383635,75.2097342 Z" id="Path-4-Copy-6" fill="#0271BB"></path>
        <path d="M30.969266,58 C27.1300903,84.199591 20.7365791,79.9699953 42.1358767,78.2677162" id="Path-17-Copy" stroke="#FFFFFF" stroke-width="4" stroke-linecap="round"></path>
        <path d="M37.4213076,60.8729215 C37.9577355,71.5831551 38.4941633,82.2933888 39.0305911,93.0036224" id="Path-18-Copy" stroke="#FFFFFF" stroke-width="4" stroke-linecap="round"></path>
        <path d="M107.13,105.08 C108.51,105.08 109.74,104.09 110.82,102.11 C111.9,100.13 112.77,97.4 113.43,93.92 C114.45,88.16 115.2,81.65 115.68,74.39 C115.92,71.15 116.175,68.78 116.445,67.28 C116.715,65.78 117.27,63.53 118.11,60.53 C119.13,57.05 119.895,54.065 120.405,51.575 C120.915,49.085 121.17,46.76 121.17,44.6 C121.17,44.06 120.96,43.595 120.54,43.205 C120.12,42.815 119.64,42.62 119.1,42.62 L119.1,42.62 L117.12,42.62 C116.46,46.52 115.32,53.81 113.7,64.49 C111.72,76.97 110.1,86.51 108.84,93.11 C108.66,92.15 108.45,90.56 108.21,88.34 L108.21,88.34 L107.13,80.33 L106.59,76.82 C105.57,69.74 104.7,64.49 103.98,61.07 C103.2,57.47 102.48,54.455 101.82,52.025 C101.16,49.595 100.44,47.66 99.66,46.22 C98.88,44.72 98.04,43.97 97.14,43.97 C96.6,43.97 96.105,44.18 95.655,44.6 C95.205,45.02 94.98,45.5 94.98,46.04 C94.98,46.94 95.52,49.07 96.6,52.43 C97.02,53.69 97.29,54.62 97.41,55.22 C100.17,65.9 102.195,74.93 103.485,82.31 C104.775,89.69 105.42,96.83 105.42,103.73 L105.42,103.73 L107.13,105.08 Z M141.96,105.17 C143.04,105.17 143.955,104.945 144.705,104.495 C145.455,104.045 145.83,103.4 145.83,102.56 C145.83,101.12 144.69,100.4 142.41,100.4 C140.97,100.4 139.74,100.43 138.72,100.49 L138.72,100.49 L135.75,100.58 C135.637742,100.58 135.577992,99.1097815 135.570749,96.1693444 L135.570558,95.288781 C135.578368,93.4898967 135.668182,90.8436364 135.84,87.35 C135.9,84.95 135.93,82.25 135.93,79.25 C135.93,76.25 135.87,73.97 135.75,72.41 L135.75,72.41 L138,72.41 C138.6,72.53 139.44,72.59 140.52,72.59 C141.36,72.59 142.05,72.365 142.59,71.915 C143.13,71.465 143.4,70.91 143.4,70.25 C143.4,68.57 141.96,67.73 139.08,67.73 C138.36,67.73 137.76,67.76 137.28,67.82 L137.28,67.82 L135.84,67.91 L135.57,66.47 C135.57,65.03 135.66,62.87 135.84,59.99 C135.9,58.07 135.93,55.91 135.93,53.51 C135.93,51.83 135.9,50.54 135.84,49.64 C137.88,49.94 140.16,50.54 142.68,51.44 C143.4,51.14 144.015,50.735 144.525,50.225 C145.035,49.715 145.29,49.16 145.29,48.56 C145.29,47.48 143.985,46.55 141.375,45.77 C138.765,44.99 136.47,44.6 134.49,44.6 C131.97,44.6 130.71,46.73 130.71,50.99 C130.71,51.77 130.8,53.03 130.98,54.77 C131.16,56.45 131.25,57.71 131.25,58.55 C131.25,62.09 131.13,66.47 130.89,71.69 C130.71,77.51 130.62,81.89 130.62,84.83 L130.62,84.83 L130.8,90.59 C130.98,93.17 131.07,95.09 131.07,96.35 C131.07,97.07 131.1,97.7 131.16,98.24 L131.16,98.24 L131.16,102.38 C131.22,103.16 131.565,103.82 132.195,104.36 C132.825,104.9 133.53,105.17 134.31,105.17 L134.31,105.17 L141.96,105.17 Z M171.48,105.53 C172.08,105.53 172.56,105.305 172.92,104.855 C173.28,104.405 173.46,103.88 173.46,103.28 C173.46,102.56 173.16,101.6 172.56,100.4 L172.56,100.4 L172.02,99.32 C170.88,96.98 169.92,94.37 169.14,91.49 C168.36,88.61 167.55,84.86 166.71,80.24 L166.71,80.24 L165.45,73.85 L165,71.69 L166.44,68.99 L168.15,65.75 C168.51,65.03 168.84,64.085 169.14,62.915 C169.44,61.745 169.59,60.71 169.59,59.81 L169.59,59.81 L169.59,53.51 C169.59,50.51 168.555,48.17 166.485,46.49 C164.415,44.81 161.76,43.97 158.52,43.97 C156.54,43.97 155.55,45.41 155.55,48.29 C155.55,52.97 155.79,61.16 156.27,72.86 C156.81,83.84 157.08,92.03 157.08,97.43 L157.08,97.43 L156.99,103.46 L158.16,104.81 L160.68,104.81 L161.67,102.38 C160.53,97.88 159.96,91.61 159.96,83.57 L159.96,83.57 L159.96,78.62 C160.02,77.18 160.05,75.59 160.05,73.85 L160.05,73.85 L161.13,73.85 L161.13,73.85 L161.187031,74.0016127 C161.694671,75.4243111 162.78566,80.2637736 164.46,88.52 L164.46,88.52 L165.09,91.58 C165.69,94.88 166.62,98.09 167.88,101.21 C168.96,104.09 170.16,105.53 171.48,105.53 Z M160.41,69.44 C160.41,65.78 160.35,62.39 160.23,59.27 L160.23,59.27 L160.05,48.65 L160.23,47.84 L160.41,47.39 C161.43,47.39 162.285,47.645 162.975,48.155 C163.665,48.665 164.16,49.4 164.46,50.36 C164.94,52.04 165.18,53.84 165.18,55.76 C165.18,58.28 164.715,61.025 163.785,63.995 C162.855,66.965 161.73,68.78 160.41,69.44 Z M188.85,105.89 C190.29,105.89 191.58,102.98 192.72,97.16 C193.74,91.94 194.49,86.57 194.97,81.05 C195.45,75.53 195.69,71.09 195.69,67.73 C195.69,66.05 195.81,64.34 196.05,62.6 L196.05,62.6 L197.49,72.05 C198.09,75.59 198.66,79.1 199.2,82.58 C200.22,90.32 200.73,96.62 200.73,101.48 C200.73,102.44 200.985,103.235 201.495,103.865 C202.005,104.495 202.74,104.81 203.7,104.81 C205.08,104.81 205.95,104.21 206.31,103.01 C206.61,102.05 206.76,100.88 206.76,99.5 L206.76,99.5 L206.76,97.88 C206.76,94.28 207.24,88.82 208.2,81.5 C209.1,74 209.55,68.36 209.55,64.58 L209.55,64.58 L209.55,58.01 C209.55,54.89 209.94,52.13 210.72,49.73 L210.72,49.73 L210.72,49.28 C210.9,48.62 210.99,47.84 210.99,46.94 L210.99,46.94 L210.99,45.59 C210.99,44.93 210.78,44.42 210.36,44.06 C209.94,43.7 209.37,43.52 208.65,43.52 C206.85,43.52 205.95,44.24 205.95,45.68 C205.95,46.16 206.04,46.67 206.22,47.21 C206.22,48.95 206.01,51.2 205.59,53.96 C205.11,56.66 204.87,58.94 204.87,60.8 C204.87,72.56 204.3,82.46 203.16,90.5 C202.68,86.9 202.26,83.03 201.9,78.89 C201.42,73.49 200.865,68.795 200.235,64.805 C199.605,60.815 198.81,57.14 197.85,53.78 L197.85,53.78 L197.85,53.06 C197.85,52.34 197.595,51.785 197.085,51.395 C196.575,51.005 195.93,50.81 195.15,50.81 L195.15,50.81 L192.72,51.89 C192.72,56.39 192.51,60.95 192.09,65.57 C191.79,69.71 191.415,73.565 190.965,77.135 C190.515,80.705 189.99,84.5 189.39,88.52 L189.39,88.52 L188.94,91.58 C188.76,87.5 188.04,80.99 186.78,72.05 C185.52,63.05 184.89,56.21 184.89,51.53 C184.89,47.57 183.93,45.59 182.01,45.59 C180.81,45.59 179.94,46.13 179.4,47.21 C180,48.47 180.51,51.32 180.93,55.76 C181.47,61.1 181.89,66.11 182.19,70.79 C182.73,77.99 183.255,83.945 183.765,88.655 C184.275,93.365 184.92,97.31 185.7,100.49 C186.6,104.09 187.65,105.89 188.85,105.89 Z M232.68,105.17 C233.76,105.17 234.675,104.945 235.425,104.495 C236.175,104.045 236.55,103.4 236.55,102.56 C236.55,101.12 235.41,100.4 233.13,100.4 C231.69,100.4 230.46,100.43 229.44,100.49 L229.44,100.49 L226.47,100.58 C226.357742,100.58 226.297992,99.1097815 226.290749,96.1693444 L226.290558,95.288781 C226.298368,93.4898967 226.388182,90.8436364 226.56,87.35 C226.62,84.95 226.65,82.25 226.65,79.25 L226.649444,78.7566667 C226.643148,75.9988889 226.583333,73.8833333 226.47,72.41 L226.47,72.41 L228.72,72.41 C229.32,72.53 230.16,72.59 231.24,72.59 C232.08,72.59 232.77,72.365 233.31,71.915 C233.85,71.465 234.12,70.91 234.12,70.25 C234.12,68.57 232.68,67.73 229.8,67.73 C229.08,67.73 228.48,67.76 228,67.82 L228,67.82 L226.56,67.91 L226.29,66.47 C226.29,65.03 226.38,62.87 226.56,59.99 C226.62,58.07 226.65,55.91 226.65,53.51 C226.65,51.83 226.62,50.54 226.56,49.64 C228.6,49.94 230.88,50.54 233.4,51.44 C234.12,51.14 234.735,50.735 235.245,50.225 C235.755,49.715 236.01,49.16 236.01,48.56 C236.01,47.48 234.705,46.55 232.095,45.77 C229.485,44.99 227.19,44.6 225.21,44.6 C222.69,44.6 221.43,46.73 221.43,50.99 C221.43,51.77 221.52,53.03 221.7,54.77 C221.88,56.45 221.97,57.71 221.97,58.55 C221.97,62.09 221.85,66.47 221.61,71.69 C221.43,77.51 221.34,81.89 221.34,84.83 L221.34,84.83 L221.52,90.59 C221.7,93.17 221.79,95.09 221.79,96.35 C221.79,97.07 221.82,97.7 221.88,98.24 L221.88,98.24 L221.88,102.38 C221.94,103.16 222.285,103.82 222.915,104.36 C223.545,104.9 224.25,105.17 225.03,105.17 L225.03,105.17 L232.68,105.17 Z M262.2,105.53 C262.8,105.53 263.28,105.305 263.64,104.855 C264,104.405 264.18,103.88 264.18,103.28 C264.18,102.56 263.88,101.6 263.28,100.4 L263.28,100.4 L262.74,99.32 C261.6,96.98 260.64,94.37 259.86,91.49 C259.08,88.61 258.27,84.86 257.43,80.24 L257.43,80.24 L256.17,73.85 L255.72,71.69 L257.16,68.99 L258.87,65.75 C259.23,65.03 259.56,64.085 259.86,62.915 C260.16,61.745 260.31,60.71 260.31,59.81 L260.31,59.81 L260.31,53.51 C260.31,50.51 259.275,48.17 257.205,46.49 C255.135,44.81 252.48,43.97 249.24,43.97 C247.26,43.97 246.27,45.41 246.27,48.29 C246.27,52.97 246.51,61.16 246.99,72.86 C247.53,83.84 247.8,92.03 247.8,97.43 L247.8,97.43 L247.71,103.46 L248.88,104.81 L251.4,104.81 L252.39,102.38 C251.25,97.88 250.68,91.61 250.68,83.57 L250.68,83.57 L250.68,78.62 C250.74,77.18 250.77,75.59 250.77,73.85 L250.77,73.85 L251.85,73.85 C252.33,75.05 253.44,79.94 255.18,88.52 L255.18,88.52 L255.81,91.58 C256.41,94.88 257.34,98.09 258.6,101.21 C259.68,104.09 260.88,105.53 262.2,105.53 Z M251.13,69.44 C251.13,65.78 251.07,62.39 250.95,59.27 L250.95,59.27 L250.77,48.65 L250.95,47.84 L251.13,47.39 C252.15,47.39 253.005,47.645 253.695,48.155 C254.385,48.665 254.88,49.4 255.18,50.36 C255.66,52.04 255.9,53.84 255.9,55.76 C255.9,58.28 255.435,61.025 254.505,63.995 C253.575,66.965 252.45,68.78 251.13,69.44 Z M279.66,103.73 C280.44,103.73 281.145,103.46 281.775,102.92 C282.405,102.38 282.72,101.75 282.72,101.03 C282.72,94.97 282.24,86.45 281.28,75.47 C280.26,63.77 279.75,55.25 279.75,49.91 L279.75,49.91 L279.84,49.46 L279.93,49.01 L281.73,49.37 C282.75,49.55 283.53,49.64 284.07,49.64 C284.85,49.64 285.54,49.415 286.14,48.965 C286.74,48.515 287.04,47.93 287.04,47.21 C287.04,45.77 286.11,45.05 284.25,45.05 L284.25,45.05 L282.81,45.05 C281.01,45.05 278.97,44.9 276.69,44.6 C274.29,44.36 272.25,44.24 270.57,44.24 C269.91,44.24 269.265,44.435 268.635,44.825 C268.005,45.215 267.69,45.65 267.69,46.13 C267.69,46.73 268.02,47.27 268.68,47.75 C269.64,48.35 271.86,48.71 275.34,48.83 C275.46,52.37 275.88,60.38 276.6,72.86 C277.32,85.34 277.77,91.91 277.95,92.57 L277.95,92.57 L277.86,95.63 C277.86,96.89 277.89,98.03 277.95,99.05 L277.95,99.05 L278.04,102.56 L279.66,103.73 Z M305.67,105.35 C313.41,105.35 317.28,92.03 317.28,65.39 C317.28,65.09 317.25,64.82 317.19,64.58 L317.19,64.58 L317.19,63.86 L317.37,60.08 C317.49,59 317.55,57.77 317.55,56.39 C317.55,55.13 317.67,53.63 317.91,51.89 C318.09,49.79 318.18,48.26 318.18,47.3 C318.18,46.28 318.15,45.59 318.09,45.23 C317.97,44.63 317.685,44.105 317.235,43.655 C316.785,43.205 316.17,42.98 315.39,42.98 C314.43,42.98 313.785,43.145 313.455,43.475 C313.125,43.805 312.96,44.33 312.96,45.05 C312.96,45.35 312.99,45.59 313.05,45.77 L313.05,45.77 L313.049352,52.583558 C313.006584,84.221186 310.8468,100.04 306.57,100.04 C302.79,100.04 300.9,97.82 300.9,93.38 C300.9,91.94 300.69,88.76 300.27,83.84 C299.85,79.88 299.64,76.7 299.64,74.3 L299.64,74.3 L299.64,49.82 C299.64,48.56 299.355,47.39 298.785,46.31 C298.215,45.23 297.57,44.69 296.85,44.69 C296.13,44.69 295.5,45.32 294.96,46.58 C294.96,47.06 295.02,48.44 295.14,50.72 C295.14,51.56 295.17,52.16 295.23,52.52 L295.23,52.52 L295.32,59.45 C295.32,68.81 295.41,76.73 295.59,83.21 C295.59,87.05 295.8,90.35 296.22,93.11 C296.64,96.29 297.57,99.14 299.01,101.66 C299.73,102.86 300.66,103.775 301.8,104.405 C302.94,105.035 304.23,105.35 305.67,105.35 Z M353.1,104.27 C353.52,104.27 354.6,104.03 356.34,103.55 C357.18,102.17 357.9,96.08 358.5,85.28 C359.1,74.48 359.46,64.46 359.58,55.22 L359.58,55.22 L359.58,48.47 C359.58,47.45 359.355,46.61 358.905,45.95 C358.455,45.29 357.81,44.96 356.97,44.96 C355.53,44.96 354.81,45.86 354.81,47.66 C354.81,48.08 354.84,48.47 354.9,48.83 L354.9,48.83 L354.9,50 C354.9,67.58 354.3,82.82 353.1,95.72 C352.38,93.62 351.33,90.14 349.95,85.28 L349.95,85.28 L349.05,82.04 C346.83,74.18 345.045,68.12 343.695,63.86 C342.345,59.6 340.83,55.55 339.15,51.71 C337.05,46.91 335.31,44.51 333.93,44.51 C333.81,44.51 333.57,44.57 333.21,44.69 L333.21,44.69 L333.21,44.15 C331.05,45.77 329.97,47.99 329.97,50.81 C329.97,52.61 329.88,55.4 329.7,59.18 C329.52,62.84 329.43,65.63 329.43,67.55 C329.43,73.25 329.46,78.41 329.52,83.03 L329.52,83.03 L329.61,98.42 C329.61,102.08 330.57,103.91 332.49,103.91 C333.27,103.91 333.93,103.64 334.47,103.1 C335.01,102.56 335.28,101.9 335.28,101.12 C335.28,100.82 335.19,100.52 335.01,100.22 C334.83,99.92 334.71,99.71 334.65,99.59 L334.65,99.59 L334.29,98.96 L334.29,53.69 C336.63,59.21 339.855,67.73 343.965,79.25 C348.075,90.77 350.13,97.52 350.13,99.5 L350.13,99.5 L350.13,99.95 L350.67,101.66 C350.85,102.62 351.12,103.295 351.48,103.685 C351.84,104.075 352.38,104.27 353.1,104.27 Z M383.34,104.72 C386.22,104.72 388.665,103.895 390.675,102.245 C392.685,100.595 393.69,98.33 393.69,95.45 L393.69,95.45 L393.51,90.68 C393.33,88.52 393.24,86.93 393.24,85.91 C393.24,85.19 393.42,84.11 393.78,82.67 C394.08,81.05 394.23,79.97 394.23,79.43 C394.23,77.57 391.53,76.64 386.13,76.64 L386.13,76.64 L384.87,76.64 L384.87,76.55 C383.97,76.55 383.235,76.775 382.665,77.225 C382.095,77.675 381.81,78.32 381.81,79.16 C381.81,80.54 382.86,81.23 384.96,81.23 L384.96,81.23 L386.76,81.23 C387.72,81.23 388.41,81.32 388.83,81.5 L388.83,81.5 L388.83,85.64 C388.83,95.24 387.39,100.04 384.51,100.04 C383.43,100.04 382.38,99.71 381.36,99.05 C380.46,98.45 379.725,97.715 379.155,96.845 C378.585,95.975 378.09,94.82 377.67,93.38 C376.89,90.92 376.38,88.04 376.14,84.74 C375.96,81.2 375.87,78.41 375.87,76.37 L375.870625,76.1170312 C375.880208,74.1356771 376,71.19 376.23,67.28 C376.59,62.9 377.25,58.85 378.21,55.13 C378.75,53.21 379.41,51.71 380.19,50.63 C380.97,49.55 381.87,49.01 382.89,49.01 C383.25,49.01 383.55,49.04 383.79,49.1 C384.09,49.16 384.42,49.19 384.78,49.19 C385.56,49.19 386.235,48.965 386.805,48.515 C387.375,48.065 387.66,47.48 387.66,46.76 C387.66,45.26 386.37,44.51 383.79,44.51 C382.35,44.51 381.09,44.72 380.01,45.14 C377.73,45.92 375.96,47.33 374.7,49.37 C373.38,51.41 372.45,53.78 371.91,56.48 C371.25,59.48 370.86,62.33 370.74,65.03 C370.62,67.25 370.56,70.1 370.56,73.58 L370.56,82.4 C370.62,83.96 370.74,85.82 370.92,87.98 C371.1,90.14 371.34,91.79 371.64,92.93 C371.94,94.43 372.42,95.99 373.08,97.61 C373.74,99.23 374.46,100.46 375.24,101.3 C376.2,102.32 377.37,103.145 378.75,103.775 C380.13,104.405 381.66,104.72 383.34,104.72 Z" id="verwertung" stroke="#0271BB" stroke-width="2" fill="#0271BB" fill-rule="nonzero"></path>
        <rect id="Rectangle" fill="#0271BB" x="466" y="118.46204" width="65.800418" height="4.53795986" rx="2.26897993"></rect>
        <path d="M469.970715,120.73102 C470.742552,113.929989 472.065754,109.013497 473.940322,105.981543 C476.752173,101.433612 479.115324,98.4201227 482.898804,96.1976746 C486.682284,93.9752264 506.364134,91.5500326 512.572807,96.1976746 C518.781481,100.845317 522.006579,103.791224 524.142611,109.38612 C525.566632,113.116052 526.51204,116.897685 526.978836,120.73102 L469.970715,120.73102 Z" id="Path-6" fill="#0271BB"></path>
        <path d="M477.250728,34.4699271 C477.597758,38.9515307 478.401517,41.6988983 479.662006,42.71203 C481.552739,44.2317276 489.20866,44.9254827 491.09757,41.0783779 C492.986481,37.2312731 492.444969,34.2803067 491.09757,32.2090693 C489.750172,30.1378318 489.519019,29.175144 484.590512,29.175144 C481.304841,29.175144 478.858247,30.9400717 477.250728,34.4699271 Z" id="Path-8" fill="#0271BB"></path>
        <path d="M488.595628,91.1944254 C488.942657,95.676029 489.746417,98.4233966 491.006906,99.4365283 C492.897639,100.956226 500.55356,101.649981 502.44247,97.8028762 C504.33138,93.9557714 503.789868,91.004805 502.44247,88.9335676 C501.095072,86.8623301 500.863918,85.8996423 495.935412,85.8996423 C492.649741,85.8996423 490.203146,87.66457 488.595628,91.1944254 Z" id="Path-8-Copy-6" fill="#0271BB"></path>
        <path d="M536.344045,38.6021531 C536.594313,41.6685134 537.173962,43.5482913 538.082991,44.2414867 C539.446534,45.2812797 544.967768,45.7559543 546.329997,43.1237247 C547.692225,40.4914951 547.301702,38.4724128 546.329997,37.0552504 C545.358291,35.6380879 545.19159,34.9794067 541.63729,34.9794067 C539.267757,34.9794067 537.503342,36.1869888 536.344045,38.6021531 Z" id="Path-8-Copy-2" fill="#0271BB"></path>
        <path d="M557.899355,64.6954223 C558.149622,67.7617826 558.729271,69.6415605 559.6383,70.3347559 C561.001844,71.3745489 566.523077,71.8492235 567.885306,69.2169939 C569.247535,66.5847643 568.857012,64.565682 567.885306,63.1485196 C566.9136,61.7313571 566.746899,61.0726759 563.1926,61.0726759 C560.823066,61.0726759 559.058652,62.2802581 557.899355,64.6954223 Z" id="Path-8-Copy-5" fill="#0271BB"></path>
        <path d="M473.540017,33.7385291 C474.047214,40.2885652 475.221939,44.3039486 477.064192,45.7846796 C479.827572,48.005776 491.016995,49.0197259 493.77771,43.3970343 C496.538425,37.7743426 495.746984,33.4613917 493.77771,30.4341985 C491.808435,27.4070053 491.470595,26 484.267394,26 C479.465259,26 475.889467,28.5795097 473.540017,33.7385291 Z" id="Path-8-Copy" stroke="#0271BB" stroke-width="3"></path>
        <path d="M484.884917,90.4630274 C485.392114,97.0130635 486.566839,101.028447 488.409092,102.509178 C491.172472,104.730274 502.361894,105.744224 505.122609,100.121533 C507.883324,94.4988409 507.091884,90.18589 505.122609,87.1586968 C503.153335,84.1315036 502.815495,82.7244983 495.612293,82.7244983 C490.810159,82.7244983 487.234367,85.304008 484.884917,90.4630274 Z" id="Path-8-Copy-4" stroke="#0271BB" stroke-width="3"></path>
        <path d="M533.667985,38.1017229 C534.033761,42.5833265 534.88094,45.3306941 536.209521,46.3438258 C538.202392,47.8635234 546.271888,48.5572786 548.262837,44.7101738 C550.253787,40.863069 549.683022,37.9121026 548.262837,35.8408651 C546.842652,33.7696276 546.599012,32.8069398 541.404266,32.8069398 C537.941103,32.8069398 535.362342,34.5718675 533.667985,38.1017229 Z" id="Path-8-Copy-3" stroke="#0271BB" stroke-width="2"></path>
        <path d="M473.948496,39.5032767 C477.607612,60.9971575 481.266727,82.4910382 484.925843,103.984919" id="Path-9" stroke="#0271BB" stroke-width="2"></path>
        <path d="M495.964219,35.4609505 C500.804506,57.434343 505.644793,79.4077356 510.485081,101.381128" id="Path-9-Copy" stroke="#0271BB" stroke-width="2"></path>
        <path d="M533.982004,43.8219867 C521.129392,43.3023313 508.27678,42.7826758 495.424168,42.2630204" id="Path-9-Copy-2" stroke="#0271BB" stroke-width="2"></path>
        <path d="M560.86327,66.2213546 C554.203253,60.052705 547.543235,53.8840553 540.883218,47.7154057" id="Path-9-Copy-4" stroke="#0271BB" stroke-width="2"></path>
        <path d="M571.033543,87.9325331 C566.671763,83.1947018 562.309982,78.4568705 557.948202,73.7190392" id="Path-9-Copy-6" stroke="#0271BB" stroke-width="2"></path>
        <path d="M559.400323,68.6229289 C558.940239,70.8767257 558.480155,73.1305226 558.020071,75.3843195" id="Path-9-Copy-9" stroke="#0271BB" stroke-width="2"></path>
        <path d="M574.61078,62.4795844 C572.329984,62.7783311 570.049189,63.0770778 567.768393,63.3758245" id="Path-9-Copy-10" stroke="#0271BB" stroke-width="2"></path>
        <path d="M575.042345,80.5514683 C571.478988,76.1217749 567.915631,71.6920816 564.352274,67.2623883" id="Path-9-Copy-8" stroke="#0271BB" stroke-width="2"></path>
        <path d="M583.11154,78.9597618 C579.953459,73.3473917 576.795377,67.7350216 573.637296,62.1226515" id="Path-9-Copy-7" stroke="#0271BB" stroke-width="2"></path>
        <path d="M541.890271,32.2922533 C524.563512,30.7015615 507.236753,29.1108698 489.909995,27.520178" id="Path-9-Copy-3" stroke="#0271BB" stroke-width="2"></path>
        <path d="M568.049166,63.8088357 C562.097612,55.8376251 556.146059,47.8664145 550.194505,39.895204" id="Path-9-Copy-5" stroke="#0271BB" stroke-width="2"></path>
    </g>
</svg>