<svg id="Ebene_1" data-name="Ebene 1" xmlns="http://www.w3.org/2000/svg" viewBox="0 0 32 32"><defs><style>.cls-1{fill:#027bcb;}</style></defs><title>190524_Daumen_blau_runter_neu</title><g id="Layer_1" data-name="Layer 1"><path class="cls-1" d="M23.34,8.9,8.44,8a2.13,2.13,0,0,0-2.08,2.19h0a2.34,2.34,0,0,0,.28,1,2.11,2.11,0,0,0-.7,2.8,2.11,2.11,0,0,0-.7,2.8c-1.6,1-.9,3.9.9,3.9l7.5-.6L13,22.2a19.93,19.93,0,0,0-.9,4.6,1.11,1.11,0,0,0,1,1.15h.16c.8,0,1.1-.4,1.6-1.6A16.62,16.62,0,0,1,18.64,21a60.58,60.58,0,0,0,4.7-4.5"/><rect class="cls-1" x="24.94" y="8.59" width="2.7" height="8.3"/></g></svg>