<?xml version="1.0" encoding="utf-8"?>
<!-- Generator: Adobe Illustrator 21.1.0, SVG Export Plug-In . SVG Version: 6.00 Build 0)  -->
<svg version="1.1" id="Ebene_1" xmlns="http://www.w3.org/2000/svg" xmlns:xlink="http://www.w3.org/1999/xlink" x="0px" y="0px"
	 viewBox="0 0 44 44" style="enable-background:new 0 0 44 44;" xml:space="preserve">
<style type="text/css">
	.st0{fill:#3B515B;}
</style>
<g id="Pen">
	<path class="st0" d="M40.8,6.8l-3.6-3.6c-1-1-2.3-1.5-3.6-1.5c-1.3,0-2.6,0.5-3.6,1.5L8.5,24.8c-1,1-4,4.8-4,6.1L2,42l11.1-2.5
		c0,0,5.1-3,6.1-4l21.6-21.6C42.8,11.9,42.8,8.7,40.8,6.8z M12.2,37.1l-6.8,1.5L7,31.5c0-0.1,0-0.2,0.1-0.3c0,0,0,0,0-0.1l5.7,5.7
		C12.6,36.9,12.4,37,12.2,37.1z M17.4,33.7c-0.3,0.3-1.3,0.9-2.5,1.7l-6.5-6.5c0.7-0.9,1.4-1.8,1.9-2.3l16.3-16.3l7.1,7.1L17.4,33.7
		z M39,12.1l-3.6,3.6l-7.1-7.1L31.9,5c0.5-0.5,1.1-0.7,1.8-0.7S35,4.5,35.5,5L39,8.5c0.5,0.5,0.7,1.1,0.7,1.8
		C39.8,11,39.5,11.6,39,12.1z"/>
</g>
</svg>
