<?xml version="1.0" encoding="utf-8"?>
<!-- Generator: Adobe Illustrator 22.1.0, SVG Export Plug-In . SVG Version: 6.00 Build 0)  -->
<svg version="1.1" id="Ebene_1" xmlns="http://www.w3.org/2000/svg" xmlns:xlink="http://www.w3.org/1999/xlink" x="0px" y="0px"
	 viewBox="0 0 44 44" style="enable-background:new 0 0 44 44;" xml:space="preserve">
<style type="text/css">
	.st0{fill:#3B515B;}
</style>
<g>
	<g>
		<g>
			<polygon class="st0" points="29.6,15.4 26.5,15.3 25.9,33.3 28.9,33.4 			"/>
			<rect x="20.6" y="15.3" class="st0" width="3" height="18"/>
			<polygon class="st0" points="18.5,33.3 17.8,15.3 14.7,15.4 15.4,33.4 			"/>
			<path class="st0" d="M4,7.8v3h3.2l2.5,28.6c0.1,0.8,0.7,1.4,1.5,1.4H33c0.8,0,1.4-0.6,1.5-1.4l2.5-28.6h3.2v-3H4z M31.6,37.8h-19
				l-2.4-27H34L31.6,37.8z"/>
		</g>
	</g>
</g>
<g>
	<g>
		<path class="st0" d="M27.1,2h-10c-1.4,0-2.5,1.1-2.5,2.5v4.8h3V5h8.9v4.3h3V4.5C29.7,3.1,28.5,2,27.1,2z"/>
	</g>
</g>
</svg>
