<svg id="Ebene_1" data-name="Ebene 1" xmlns="http://www.w3.org/2000/svg" viewBox="0 0 44 44"><defs><style>.cls-1{fill:none;stroke:#3b515b;stroke-linecap:round;stroke-linejoin:round;stroke-width:3px;}</style></defs><path class="cls-1" d="M10.64,3.78H3.78A2.25,2.25,0,0,0,1.55,6h0V37.66a2.23,2.23,0,0,0,2.22,2.25h36.3a2.23,2.23,0,0,0,2.23-2.24h0V10.87a2.23,2.23,0,0,0-2.21-2.25H18.33V6a2.23,2.23,0,0,0-2.22-2.25H10.17"/><path class="cls-1" d="M3.78,14H40.07A2.18,2.18,0,0,1,42.3,16h0V37.81a2.16,2.16,0,0,1-2.22,2.1H3.78a2.16,2.16,0,0,1-2.23-2.09h0V16A2.16,2.16,0,0,1,3.77,14Z"/></svg>