<svg id="Ebene_1" data-name="Ebene 1" xmlns="http://www.w3.org/2000/svg" viewBox="0 0 32 32"><defs><style>.cls-1{fill:#dcdee1;}</style></defs><title>190524_Daumen_grau_hoch</title><g id="Layer_1" data-name="Layer 1"><path class="cls-1" d="M8.65,20.05l14.9.9a2.14,2.14,0,0,0,1.8-3.2,2.1,2.1,0,0,0,.7-2.8,2.1,2.1,0,0,0,.7-2.8c1.6-1,.9-3.9-.9-3.9l-7.5.6.6-2.1a20.3,20.3,0,0,0,.9-4.6A1.1,1.1,0,0,0,18.65,1c-.8,0-1.1.4-1.6,1.6A16.68,16.68,0,0,1,13.35,8a61.19,61.19,0,0,0-4.7,4.5"/><rect class="cls-1" x="4.35" y="12.06" width="2.7" height="8.3"/></g></svg>