<?xml version="1.0" encoding="utf-8"?>
<!-- Generator: Adobe Illustrator 22.1.0, SVG Export Plug-In . SVG Version: 6.00 Build 0)  -->
<svg version="1.1" id="Ebene_1" xmlns="http://www.w3.org/2000/svg" xmlns:xlink="http://www.w3.org/1999/xlink" x="0px" y="0px"
	 viewBox="0 0 44 44" style="enable-background:new 0 0 44 44;" xml:space="preserve">
<style type="text/css">
	.st0{fill:#3B515B;}
</style>
<g>
	<g>
		<g>
			<path class="st0" d="M41.3,6.7H2.9C2.4,6.7,2,7.1,2,7.6v27.5C2,35.6,2.4,36,2.9,36h38.5c0.5,0,0.9-0.4,0.9-0.9V7.6
				C42.2,7.1,41.8,6.7,41.3,6.7z M40.4,32L29.1,20.6l-1.3,1.3L40,34.2H4.1l12.3-12.3l-1.3-1.3L3.8,32V8.5h36.6
				C40.4,8.5,40.4,32,40.4,32z"/>
		</g>
	</g>
	<g>
		<g>
			<path class="st0" d="M38.6,8.5L22.1,25L5.6,8.5H3.8v0.7l17.7,17.7c0.4,0.4,0.9,0.4,1.3,0L40.4,9.3V8.5H38.6z"/>
		</g>
	</g>
</g>
</svg>
