<svg width="24" height="24" viewBox="0 0 24 24" fill="none" xmlns="http://www.w3.org/2000/svg">
<circle cx="12" cy="12" r="12" fill="white"/>
<path fill-rule="evenodd" clip-rule="evenodd" d="M17.3577 7.29124C17.9535 7.45152 18.4228 7.92381 18.582 8.52349C18.8714 9.61044 18.8714 11.8783 18.8714 11.8783C18.8714 11.8783 18.8714 14.1461 18.582 15.233C18.4228 15.8327 17.9535 16.2853 17.3577 16.4456C16.2778 16.7368 11.9474 16.7368 11.9474 16.7368C11.9474 16.7368 7.61706 16.7368 6.53711 16.4456C5.94131 16.2853 5.47207 15.8327 5.3128 15.233C5.02344 14.1461 5.02344 11.8783 5.02344 11.8783C5.02344 11.8783 5.02344 9.61044 5.3128 8.52349C5.47207 7.92381 5.94131 7.45155 6.53711 7.29124C7.61706 7 11.9474 7 11.9474 7C11.9474 7 16.2778 7 17.3577 7.29124ZM10.5311 9.81925V13.9373L14.1505 11.8783L10.5311 9.81925Z" fill="#0271BB"/>
</svg>
